g Arrow
v 0.3 -2.991016E-08 0.3961721
v -0.3 -2.991016E-08 0.3961721
v -3.100125E-16 0.9999999 0.3961722
v -1.340767E-16 1 -0.396172
v -0.3 2.991016E-08 -0.3961721
v 0.3 2.991016E-08 -0.3961721
v -3.100125E-16 0.9999999 0.3961722
v -1.340767E-16 1 -0.396172
v 0.7163548 2 -0.396172
v 0.7163548 2 0.3961723
v -1.340767E-16 1 -0.396172
v 0.3 2.991016E-08 -0.3961721
v 1.627612 2 -0.396172
v 0.7163548 2 -0.396172
v 0.3 2.991016E-08 -0.3961721
v 0.3 -2.991016E-08 0.3961721
v 1.627612 2 0.3961723
v 1.627612 2 -0.396172
v 0.3 -2.991016E-08 0.3961721
v -3.100125E-16 0.9999999 0.3961722
v 0.7163548 2 0.3961723
v 1.627612 2 0.3961723
v 1.627612 2 -0.396172
v 1.627612 2 0.3961723
v 0.7163548 2 0.3961723
v 0.7163548 2 -0.396172
v -3.100125E-16 0.9999999 0.3961722
v -0.7163548 2 0.3961723
v -0.7163548 2 -0.396172
v -1.340767E-16 1 -0.396172
v -1.340767E-16 1 -0.396172
v -0.7163548 2 -0.396172
v -1.627612 2 -0.396172
v -0.3 2.991016E-08 -0.3961721
v -0.3 2.991016E-08 -0.3961721
v -1.627612 2 -0.396172
v -1.627612 2 0.3961723
v -0.3 -2.991016E-08 0.3961721
v -0.3 -2.991016E-08 0.3961721
v -1.627612 2 0.3961723
v -0.7163548 2 0.3961723
v -3.100125E-16 0.9999999 0.3961722
v -1.627612 2 -0.396172
v -0.7163548 2 -0.396172
v -0.7163548 2 0.3961723
v -1.627612 2 0.3961723
v -0.3 2.991016E-08 -0.3961721
v -0.3 -2.991016E-08 0.3961721
v 0.3 -2.991016E-08 0.3961721
v 0.3 2.991016E-08 -0.3961721
vt 0.375 0.75
vt 0.375 0.75
vt 0.375 1
vt 0.375 0.25
vt 0.375 0.5
vt 0.375 0.5
vt 0.375 0
vt 0.375 0.25
vt 0.625 0.25
vt 0.625 0
vt 0.375 0.25
vt 0.375 0.5
vt 0.625 0.5
vt 0.625 0.25
vt 0.375 0.5
vt 0.375 0.75
vt 0.625 0.75
vt 0.625 0.5
vt 0.375 0.75
vt 0.375 1
vt 0.625 1
vt 0.625 0.75
vt 0.625 0.5
vt 0.625 0.75
vt 0.875 0.75
vt 0.875 0.5
vt 0.375 0
vt 0.625 0
vt 0.625 0.25
vt 0.375 0.25
vt 0.375 0.25
vt 0.625 0.25
vt 0.625 0.5
vt 0.375 0.5
vt 0.375 0.5
vt 0.625 0.5
vt 0.625 0.75
vt 0.375 0.75
vt 0.375 0.75
vt 0.625 0.75
vt 0.625 1
vt 0.375 1
vt 0.625 0.5
vt 0.875 0.5
vt 0.875 0.75
vt 0.625 0.75
vt 0.375 0.5
vt 0.375 0.75
vt 0.375 0.75
vt 0.375 0.5
vn 0 0 1
vn 0 0 1
vn 0 0 1
vn 0 0 -1
vn 0 0 -1
vn 0 0 -1
vn -0.8129883 0.5825195 0
vn -0.8129883 0.5825195 0
vn -0.8129883 0.5825195 0
vn -0.8129883 0.5825195 0
vn 0 0 -1
vn 0 0 -1
vn 0 0 -1
vn 0 0 -1
vn 0.8330078 -0.5532227 0
vn 0.8330078 -0.5532227 0
vn 0.8330078 -0.5532227 0
vn 0.8330078 -0.5532227 0
vn 0 0 1
vn 0 0 1
vn 0 0 1
vn 0 0 1
vn 0 1 0
vn 0 1 0
vn 0 1 0
vn 0 1 0
vn 0.8129883 0.5825195 0
vn 0.8129883 0.5825195 0
vn 0.8129883 0.5825195 0
vn 0.8129883 0.5825195 0
vn 0 0 -1
vn 0 0 -1
vn 0 0 -1
vn 0 0 -1
vn -0.8330078 -0.5532227 0
vn -0.8330078 -0.5532227 0
vn -0.8330078 -0.5532227 0
vn -0.8330078 -0.5532227 0
vn 0 0 1
vn 0 0 1
vn 0 0 1
vn 0 0 1
vn 0 1 0
vn 0 1 0
vn 0 1 0
vn 0 1 0
vn 0 -1 0
vn 0 -1 0
vn 0 -1 0
vn 0 -1 0
g Arrow_0
f 3/3/3 2/2/2 1/1/1
f 6/6/6 5/5/5 4/4/4
f 9/9/9 8/8/8 7/7/7
f 10/10/10 9/9/9 7/7/7
f 13/13/13 12/12/12 11/11/11
f 14/14/14 13/13/13 11/11/11
f 17/17/17 16/16/16 15/15/15
f 18/18/18 17/17/17 15/15/15
f 21/21/21 20/20/20 19/19/19
f 22/22/22 21/21/21 19/19/19
f 25/25/25 24/24/24 23/23/23
f 26/26/26 25/25/25 23/23/23
f 29/29/29 28/28/28 27/27/27
f 30/30/30 29/29/29 27/27/27
f 33/33/33 32/32/32 31/31/31
f 34/34/34 33/33/33 31/31/31
f 37/37/37 36/36/36 35/35/35
f 38/38/38 37/37/37 35/35/35
f 41/41/41 40/40/40 39/39/39
f 42/42/42 41/41/41 39/39/39
f 45/45/45 44/44/44 43/43/43
f 46/46/46 45/45/45 43/43/43
f 49/49/49 48/48/48 47/47/47
f 50/50/50 49/49/49 47/47/47
