g Banana
v 0.03117147 -0.07627238 0.04814297
v 0.081608 -0.04198601 0.03521049
v 0.2385287 -0.3410162 -0.2849527
v 0.09110978 -0.4257922 -0.2194947
v -0.03117151 -0.07627237 0.04814298
v 0.3571999 -0.6291265 -0.4383821
v -0.09111002 -0.4257922 -0.2194947
v -0.08160802 -0.04198599 0.03521052
v 0.1364381 -0.7130613 -0.3017043
v 0.421155 -0.8958311 -0.4876964
v -0.2385289 -0.3410161 -0.2849526
v -0.100873 0.0134905 0.01428537
v -0.1364385 -0.7130613 -0.3017043
v 0.1608668 -0.9266292 -0.3011105
v 0.4081719 -1.200861 -0.4870142
v -0.2948378 -0.2038455 -0.3908656
v -0.08160797 0.06896698 -0.006639801
v -0.3572001 -0.6291263 -0.438382
v -0.1608672 -0.9266292 -0.3011106
v 0.1559077 -1.168658 -0.3065847
v 0.3448319 -1.599126 -0.3985619
v -0.2385288 -0.06667508 -0.4967787
v -0.03117144 0.1032533 -0.01957228
v -0.4415235 -0.4933168 -0.6595311
v -0.4211553 -0.895831 -0.4876964
v -0.155908 -1.168658 -0.3065848
v 0.131714 -1.53351 -0.2583133
v 0.2529305 -2.085798 -0.1786001
v -0.09110986 0.01810092 -0.5622367
v 0.03117152 0.1032533 -0.01957228
v -0.3572 -0.3575073 -0.8806801
v -0.5205764 -0.8459987 -0.7895984
v -0.4081721 -1.200861 -0.4870143
v -0.1317143 -1.53351 -0.2583134
v 0.0966108 -2.018887 -0.08683014
v 0.1413293 -2.638248 0.1914797
v 0.05398303 -2.593693 0.2366687
v -0.09661093 -2.018887 -0.08683014
v -0.05398293 -2.593693 0.2366687
v -0.3448321 -1.599126 -0.398562
v -0.2529305 -2.085798 -0.1786003
v -0.1413292 -2.638248 0.1914797
v -0.5045283 -1.252967 -0.7789551
v -0.4262358 -1.705296 -0.6254888
v -0.3126393 -2.194062 -0.3270871
v -0.1746925 -2.710341 0.1183627
v -0.4211551 -0.7961663 -1.0915
v -0.4081719 -1.305072 -1.070896
v -0.3448319 -1.811466 -0.8524156
v -0.2529304 -2.302327 -0.475574
v -0.1413291 -2.782434 0.04524529
v -0.1364382 -0.2735725 -1.017358
v -0.1608669 -0.7653682 -1.278086
v -0.1559077 -1.337275 -1.251325
v -0.131714 -1.877082 -0.992664
v -0.09661077 -2.369238 -0.5673439
v -0.05398285 -2.82699 5.638599E-05
v 0.09110989 0.01810089 -0.5622367
v 0.08160801 0.06896691 -0.006639818
v 0.1364382 -0.2735726 -1.017358
v 0.2385287 -0.06667525 -0.4967787
v 0.100873 0.01349041 0.01428534
v 0.160867 -0.7653683 -1.278086
v 0.1559078 -1.337275 -1.251325
v 0.1317141 -1.877082 -0.992664
v 0.09661091 -2.369238 -0.5673438
v 0.05398309 -2.82699 5.638599E-05
v 0.2948377 -0.2038458 -0.3908657
v 0.081608 -0.04198601 0.03521049
v 0.2385287 -0.3410162 -0.2849527
v 0.3571998 -0.3575076 -0.88068
v 0.4415233 -0.4933171 -0.6595309
v 0.3571999 -0.6291265 -0.4383821
v 0.421155 -0.7961664 -1.0915
v 0.5205762 -0.8459988 -0.789598
v 0.421155 -0.8958311 -0.4876964
v 0.4081718 -1.305072 -1.070896
v 0.504528 -1.252967 -0.7789547
v 0.4081719 -1.200861 -0.4870142
v 0.3448319 -1.811466 -0.8524154
v 0.4262356 -1.705296 -0.6254885
v 0.3448319 -1.599126 -0.3985619
v 0.2529305 -2.302327 -0.4755738
v 0.1413293 -2.782434 0.04524553
v 0.3126392 -2.194062 -0.3270868
v 0.2529305 -2.085798 -0.1786001
v 0.1746926 -2.710341 0.1183627
v 0.1413293 -2.638248 0.1914797
v 0.081608 -0.04198601 0.03521049
v 0.08160806 0.109732 0.3554467
v 0.1008731 0.1652084 0.3345216
v 0.100873 0.01349041 0.01428534
v 0.08160806 0.2206849 0.3135964
v 0.08160801 0.06896691 -0.006639818
v 0.03117147 -0.07627238 0.04814297
v 0.08160806 0.109732 0.3554467
v 0.081608 -0.04198601 0.03521049
v 0.03117153 0.07544564 0.3683792
v -0.03117151 -0.07627237 0.04814298
v -0.03117145 0.07544564 0.3683792
v -0.08160802 -0.04198599 0.03521052
v -0.08160797 0.109732 0.3554468
v 0.08160801 0.06896691 -0.006639818
v 0.08160806 0.2206849 0.3135964
v 0.03117158 0.2549713 0.3006639
v 0.03117152 0.1032533 -0.01957228
v -0.03117139 0.2549713 0.3006639
v -0.03117144 0.1032533 -0.01957228
v -0.08160792 0.220685 0.3135964
v -0.08160797 0.06896698 -0.006639801
v -0.08160797 0.06896698 -0.006639801
v -0.08160792 0.220685 0.3135964
v -0.100873 0.1652085 0.3345216
v -0.100873 0.0134905 0.01428537
v -0.08160797 0.109732 0.3554468
v -0.08160802 -0.04198599 0.03521052
v 0.1413293 -2.638248 0.1914797
v 0.07603478 -2.721244 0.2038808
v 0.02904274 -2.697273 0.2281923
v 0.05398303 -2.593693 0.2366687
v -0.02904261 -2.697273 0.2281923
v -0.05398293 -2.593693 0.2366687
v -0.07603464 -2.721244 0.2038808
v -0.1413292 -2.638248 0.1914797
v -0.09398398 -2.76003 0.164544
v -0.1746925 -2.710341 0.1183627
v -0.0760346 -2.798816 0.1252071
v -0.1413291 -2.782434 0.04524529
v -0.02904257 -2.822787 0.1008956
v -0.05398285 -2.82699 5.638599E-05
v 0.02904277 -2.822787 0.1008956
v 0.05398309 -2.82699 5.638599E-05
v 0.07603478 -2.798816 0.1252072
v 0.1413293 -2.782434 0.04524553
v 0.09398411 -2.76003 0.164544
v 0.1746926 -2.710341 0.1183627
v 0.07603478 -2.721244 0.2038808
v 0.1413293 -2.638248 0.1914797
v 0.07603478 -2.798816 0.1252072
v 0.02904277 -2.822787 0.1008956
v -0.02904257 -2.822787 0.1008956
v -0.0760346 -2.798816 0.1252071
v 0.09398411 -2.76003 0.164544
v -0.09398398 -2.76003 0.164544
v 0.07603478 -2.721244 0.2038808
v -0.07603464 -2.721244 0.2038808
v 0.02904274 -2.697273 0.2281923
v -0.02904261 -2.697273 0.2281923
v -0.08160792 0.220685 0.3135964
v -0.03117139 0.2549713 0.3006639
v 0.03117158 0.2549713 0.3006639
v 0.08160806 0.2206849 0.3135964
v -0.100873 0.1652085 0.3345216
v 0.1008731 0.1652084 0.3345216
v 0.08160806 0.109732 0.3554467
v 0.03117153 0.07544564 0.3683792
v -0.03117145 0.07544564 0.3683792
v -0.08160797 0.109732 0.3554468
vt 0.04019165 0.9477539
vt 0.04019165 0.9462891
vt 0.0423584 0.9462891
vt 0.0423584 0.9477539
vt 0.04019165 0.9492188
vt 0.04452515 0.9462891
vt 0.0423584 0.9492188
vt 0.04019165 0.9511719
vt 0.04452515 0.9477539
vt 0.04669189 0.9462891
vt 0.0423584 0.9511719
vt 0.04019165 0.9526367
vt 0.04452515 0.9492188
vt 0.04669189 0.9477539
vt 0.04882813 0.9462891
vt 0.0423584 0.9526367
vt 0.04019165 0.9541016
vt 0.04452515 0.9511719
vt 0.04669189 0.9492188
vt 0.04882813 0.9477539
vt 0.05099487 0.9462891
vt 0.0423584 0.9541016
vt 0.04019165 0.9555664
vt 0.04452515 0.9526367
vt 0.04669189 0.9511719
vt 0.04882813 0.9492188
vt 0.05099487 0.9477539
vt 0.05316162 0.9462891
vt 0.0423584 0.9555664
vt 0.04019165 0.9570313
vt 0.04452515 0.9541016
vt 0.04669189 0.9526367
vt 0.04882813 0.9511719
vt 0.05099487 0.9492188
vt 0.05316162 0.9477539
vt 0.05532837 0.9462891
vt 0.05532837 0.9477539
vt 0.05316162 0.9492188
vt 0.05532837 0.9492188
vt 0.05099487 0.9511719
vt 0.05316162 0.9511719
vt 0.05532837 0.9511719
vt 0.04882813 0.9526367
vt 0.05099487 0.9526367
vt 0.05316162 0.9526367
vt 0.05532837 0.9526367
vt 0.04669189 0.9541016
vt 0.04882813 0.9541016
vt 0.05099487 0.9541016
vt 0.05316162 0.9541016
vt 0.05532837 0.9541016
vt 0.04452515 0.9555664
vt 0.04669189 0.9555664
vt 0.04882813 0.9555664
vt 0.05099487 0.9555664
vt 0.05316162 0.9555664
vt 0.05532837 0.9555664
vt 0.0423584 0.9570313
vt 0.04019165 0.9584961
vt 0.04452515 0.9570313
vt 0.0423584 0.9584961
vt 0.04019165 0.9599609
vt 0.04669189 0.9570313
vt 0.04882813 0.9570313
vt 0.05099487 0.9570313
vt 0.05316162 0.9570313
vt 0.05532837 0.9570313
vt 0.0423584 0.9599609
vt 0.04019165 0.9614258
vt 0.0423584 0.9614258
vt 0.04452515 0.9584961
vt 0.04452515 0.9599609
vt 0.04452515 0.9614258
vt 0.04669189 0.9584961
vt 0.04669189 0.9599609
vt 0.04669189 0.9614258
vt 0.04882813 0.9584961
vt 0.04882813 0.9599609
vt 0.04882813 0.9614258
vt 0.05099487 0.9584961
vt 0.05099487 0.9599609
vt 0.05099487 0.9614258
vt 0.05316162 0.9584961
vt 0.05532837 0.9584961
vt 0.05316162 0.9599609
vt 0.05316162 0.9614258
vt 0.05532837 0.9599609
vt 0.05532837 0.9614258
vt 0.03729248 0.9130859
vt 0.03729248 0.8383789
vt 0.03485107 0.8369141
vt 0.03485107 0.9121094
vt 0.03182983 0.8359375
vt 0.03182983 0.9106445
vt 0.05319214 0.9130859
vt 0.05072021 0.8374023
vt 0.05072021 0.9125977
vt 0.05319214 0.8383789
vt 0.05621338 0.9130859
vt 0.05621338 0.8383789
vt 0.0586853 0.9125977
vt 0.0586853 0.8374023
vt 0.05072021 0.9130859
vt 0.05072021 0.8383789
vt 0.04827881 0.8374023
vt 0.04827881 0.9125977
vt 0.04522705 0.8374023
vt 0.04522705 0.9125977
vt 0.04278564 0.8383789
vt 0.04278564 0.9130859
vt 0.03729248 0.8383789
vt 0.03729248 0.9130859
vt 0.03973389 0.9121094
vt 0.03973389 0.8369141
vt 0.04278564 0.9106445
vt 0.04278564 0.8359375
vt 0.1433105 0.9389648
vt 0.1433105 0.9389648
vt 0.1433105 0.9404297
vt 0.1433105 0.9404297
vt 0.1433105 0.9418945
vt 0.1433105 0.9418945
vt 0.1433105 0.9433594
vt 0.1433105 0.9433594
vt 0.1433105 0.9448242
vt 0.1433105 0.9448242
vt 0.1433105 0.9467773
vt 0.1433105 0.9467773
vt 0.1433105 0.9482422
vt 0.1433105 0.9482422
vt 0.1433105 0.949707
vt 0.1433105 0.949707
vt 0.1433105 0.9511719
vt 0.1433105 0.9511719
vt 0.1433105 0.9526367
vt 0.1433105 0.9526367
vt 0.1433105 0.9541016
vt 0.1433105 0.9541016
vt 0.1282959 0.9389648
vt 0.1282959 0.9389648
vt 0.1282959 0.9389648
vt 0.1282959 0.9389648
vt 0.1282959 0.9389648
vt 0.1282959 0.9389648
vt 0.1282959 0.9389648
vt 0.1282959 0.9389648
vt 0.1282959 0.9389648
vt 0.1282959 0.9389648
vt 0.04443359 0.8754883
vt 0.04266357 0.8779297
vt 0.04266357 0.8808594
vt 0.04443359 0.8833008
vt 0.04733276 0.8745117
vt 0.04733276 0.8842773
vt 0.05023193 0.8833008
vt 0.05200195 0.8808594
vt 0.05200195 0.8779297
vt 0.05023193 0.8754883
vn 0.3068848 -0.7182617 0.6240234
vn 0.7998047 -0.3977051 0.449707
vn 0.7641602 -0.1365967 0.6303711
vn 0.2949219 -0.3869629 0.8735352
vn -0.3068848 -0.7182617 0.6240234
vn 0.7802734 0.01855469 0.6254883
vn -0.2949219 -0.3869629 0.8735352
vn -0.7998047 -0.3977051 0.449707
vn 0.2971191 -0.1043091 0.9492188
vn 0.8105469 0.01821899 0.5854492
vn -0.7641602 -0.1365967 0.6303711
vn -0.9785156 0.1154785 0.1712646
vn -0.2971191 -0.1043091 0.9492188
vn 0.3088379 -0.007873535 0.9511719
vn 0.8144531 -0.0138855 0.5800781
vn -0.9306641 0.2651367 0.2529297
vn -0.7807617 0.6166992 -0.09967041
vn -0.7802734 0.01855469 0.6254883
vn -0.3088379 -0.007873535 0.9511719
vn 0.3129883 0.04043579 0.9487305
vn 0.8056641 0.05856323 0.5898438
vn -0.7421875 0.6616211 -0.1075439
vn -0.2954102 0.918457 -0.2624512
vn -0.9624023 0.2491455 0.1096191
vn -0.8105469 0.01821899 0.5854492
vn -0.3129883 0.04043579 0.9487305
vn 0.3098145 0.2017822 0.9291992
vn 0.8017578 0.163208 0.574707
vn -0.2810059 0.9038086 -0.3227539
vn 0.2954102 0.918457 -0.2624512
vn -0.7729492 0.4987793 -0.3918457
vn -0.996582 0.08300781 -0.003570557
vn -0.8144531 -0.0138855 0.5800781
vn -0.3098145 0.2017822 0.9291992
vn 0.3083496 0.3730469 0.875
vn 0.7055664 -0.01229858 0.7084961
vn 0.2687988 0.1983643 0.9423828
vn -0.3083496 0.3730469 0.875
vn -0.2687988 0.1983643 0.9423828
vn -0.8056641 0.05856323 0.5898438
vn -0.8017578 0.163208 0.574707
vn -0.7055664 -0.01229858 0.7084961
vn -0.9951172 -0.100647 -0.006011963
vn -0.9838867 -0.1702881 0.05169678
vn -0.9804688 -0.1705322 0.09783936
vn -0.8754883 -0.3557129 0.3273926
vn -0.7983398 0.1610107 -0.5800781
vn -0.7949219 -0.1864014 -0.5776367
vn -0.7871094 -0.3955078 -0.4733887
vn -0.7851563 -0.4975586 -0.3688965
vn -0.7104492 -0.7016602 -0.05615234
vn -0.2937012 0.6572266 -0.6938477
vn -0.3027344 0.2119141 -0.9291992
vn -0.3012695 -0.2390137 -0.9233398
vn -0.298584 -0.5332031 -0.7915039
vn -0.2978516 -0.6967773 -0.652832
vn -0.2717285 -0.9165039 -0.2939453
vn 0.2810059 0.9038086 -0.3227539
vn 0.7807617 0.6166992 -0.09967041
vn 0.2937012 0.6572266 -0.6938477
vn 0.7421875 0.6616211 -0.1075439
vn 0.9785156 0.1154785 0.1712646
vn 0.3027344 0.2119141 -0.9291992
vn 0.3012695 -0.2390137 -0.9233398
vn 0.298584 -0.5332031 -0.7915039
vn 0.2978516 -0.6967773 -0.652832
vn 0.2717285 -0.9165039 -0.2939453
vn 0.9306641 0.2651367 0.2529297
vn 0.7998047 -0.3977051 0.449707
vn 0.7641602 -0.1365967 0.6303711
vn 0.7729492 0.4987793 -0.3918457
vn 0.9624023 0.2491455 0.1096191
vn 0.7802734 0.01855469 0.6254883
vn 0.7983398 0.1610107 -0.5800781
vn 0.996582 0.08300781 -0.003570557
vn 0.8105469 0.01821899 0.5854492
vn 0.7949219 -0.1864014 -0.5776367
vn 0.9951172 -0.100647 -0.006011963
vn 0.8144531 -0.0138855 0.5800781
vn 0.7871094 -0.3955078 -0.4733887
vn 0.9838867 -0.1702881 0.05169678
vn 0.8056641 0.05856323 0.5898438
vn 0.7851563 -0.4975586 -0.3688965
vn 0.7104492 -0.7016602 -0.05615234
vn 0.9804688 -0.1705322 0.09783936
vn 0.8017578 0.163208 0.574707
vn 0.8754883 -0.3557129 0.3273926
vn 0.7055664 -0.01229858 0.7084961
vn 0.7998047 -0.3977051 0.449707
vn 0.612793 -0.1716309 0.7714844
vn 0.765625 0.2385254 0.5976563
vn 0.9785156 0.1154785 0.1712646
vn 0.6254883 0.6572266 0.4204102
vn 0.7807617 0.6166992 -0.09967041
vn 0.3068848 -0.7182617 0.6240234
vn 0.612793 -0.1716309 0.7714844
vn 0.7998047 -0.3977051 0.449707
vn 0.2322998 -0.420166 0.8774414
vn -0.3068848 -0.7182617 0.6240234
vn -0.2322998 -0.420166 0.8774414
vn -0.7998047 -0.3977051 0.449707
vn -0.612793 -0.1716309 0.7714844
vn 0.7807617 0.6166992 -0.09967041
vn 0.6254883 0.6572266 0.4204102
vn 0.2402344 0.9199219 0.3095703
vn 0.2954102 0.918457 -0.2624512
vn -0.2402344 0.9199219 0.3095703
vn -0.2954102 0.918457 -0.2624512
vn -0.6254883 0.6572266 0.4204102
vn -0.7807617 0.6166992 -0.09967041
vn -0.7807617 0.6166992 -0.09967041
vn -0.6254883 0.6572266 0.4204102
vn -0.765625 0.2385254 0.5976563
vn -0.9785156 0.1154785 0.1712646
vn -0.612793 -0.1716309 0.7714844
vn -0.7998047 -0.3977051 0.449707
vn 0.7055664 -0.01229858 0.7084961
vn 0.3212891 -0.4912109 0.8095703
vn 0.1222534 -0.3918457 0.9121094
vn 0.2687988 0.1983643 0.9423828
vn -0.1222534 -0.3918457 0.9121094
vn -0.2687988 0.1983643 0.9423828
vn -0.3212891 -0.4912109 0.8095703
vn -0.7055664 -0.01229858 0.7084961
vn -0.3996582 -0.6542969 0.6420898
vn -0.8754883 -0.3557129 0.3273926
vn -0.3254395 -0.8188477 0.4726563
vn -0.7104492 -0.7016602 -0.05615234
vn -0.1248169 -0.921875 0.3666992
vn -0.2717285 -0.9165039 -0.2939453
vn 0.1248169 -0.921875 0.3666992
vn 0.2717285 -0.9165039 -0.2939453
vn 0.3254395 -0.8188477 0.4726563
vn 0.7104492 -0.7016602 -0.05615234
vn 0.3996582 -0.6542969 0.6420898
vn 0.8754883 -0.3557129 0.3273926
vn 0.3212891 -0.4912109 0.8095703
vn 0.7055664 -0.01229858 0.7084961
vn 0 -0.7119141 0.7021484
vn 0 -0.7119141 0.7021484
vn 0 -0.7119141 0.7021484
vn 0 -0.7119141 0.7021484
vn 0 -0.7119141 0.7021484
vn 0 -0.7119141 0.7021484
vn 0 -0.7119141 0.7021484
vn 0 -0.7119141 0.7021484
vn 0 -0.7119141 0.7021484
vn 0 -0.7119141 0.7021484
vn 0 0.3530273 0.9355469
vn 0 0.3530273 0.9355469
vn 0 0.3530273 0.9355469
vn 0 0.3530273 0.9355469
vn 0 0.3530273 0.9355469
vn 0 0.3530273 0.9355469
vn 0 0.3530273 0.9355469
vn 0 0.3530273 0.9355469
vn 0 0.3530273 0.9355469
vn 0 0.3530273 0.9355469
g Banana_0
f 3/3/3 2/2/2 1/1/1
f 4/4/4 3/3/3 1/1/1
f 4/4/4 1/1/1 5/5/5
f 6/6/6 3/3/3 4/4/4
f 7/7/7 4/4/4 5/5/5
f 7/7/7 5/5/5 8/8/8
f 9/9/9 6/6/6 4/4/4
f 9/9/9 4/4/4 7/7/7
f 10/10/10 6/6/6 9/9/9
f 11/11/11 7/7/7 8/8/8
f 11/11/11 8/8/8 12/12/12
f 13/13/13 9/9/9 7/7/7
f 13/13/13 7/7/7 11/11/11
f 14/14/14 10/10/10 9/9/9
f 14/14/14 9/9/9 13/13/13
f 15/15/15 10/10/10 14/14/14
f 16/16/16 11/11/11 12/12/12
f 16/16/16 12/12/12 17/17/17
f 18/18/18 13/13/13 11/11/11
f 18/18/18 11/11/11 16/16/16
f 19/19/19 14/14/14 13/13/13
f 19/19/19 13/13/13 18/18/18
f 20/20/20 15/15/15 14/14/14
f 20/20/20 14/14/14 19/19/19
f 21/21/21 15/15/15 20/20/20
f 22/22/22 16/16/16 17/17/17
f 22/22/22 17/17/17 23/23/23
f 24/24/24 18/18/18 16/16/16
f 24/24/24 16/16/16 22/22/22
f 25/25/25 19/19/19 18/18/18
f 25/25/25 18/18/18 24/24/24
f 26/26/26 20/20/20 19/19/19
f 26/26/26 19/19/19 25/25/25
f 27/27/27 21/21/21 20/20/20
f 27/27/27 20/20/20 26/26/26
f 28/28/28 21/21/21 27/27/27
f 29/29/29 22/22/22 23/23/23
f 29/29/29 23/23/23 30/30/30
f 31/31/31 24/24/24 22/22/22
f 31/31/31 22/22/22 29/29/29
f 32/32/32 25/25/25 24/24/24
f 32/32/32 24/24/24 31/31/31
f 33/33/33 26/26/26 25/25/25
f 33/33/33 25/25/25 32/32/32
f 34/34/34 27/27/27 26/26/26
f 34/34/34 26/26/26 33/33/33
f 35/35/35 28/28/28 27/27/27
f 35/35/35 27/27/27 34/34/34
f 36/36/36 28/28/28 35/35/35
f 37/37/37 36/36/36 35/35/35
f 37/37/37 35/35/35 38/38/38
f 38/38/38 35/35/35 34/34/34
f 39/39/39 37/37/37 38/38/38
f 40/40/40 34/34/34 33/33/33
f 38/38/38 34/34/34 40/40/40
f 39/39/39 38/38/38 41/41/41
f 41/41/41 38/38/38 40/40/40
f 42/42/42 39/39/39 41/41/41
f 43/43/43 33/33/33 32/32/32
f 40/40/40 33/33/33 43/43/43
f 41/41/41 40/40/40 44/44/44
f 44/44/44 40/40/40 43/43/43
f 42/42/42 41/41/41 45/45/45
f 45/45/45 41/41/41 44/44/44
f 46/46/46 42/42/42 45/45/45
f 43/43/43 32/32/32 47/47/47
f 47/47/47 32/32/32 31/31/31
f 44/44/44 43/43/43 48/48/48
f 48/48/48 43/43/43 47/47/47
f 45/45/45 44/44/44 49/49/49
f 49/49/49 44/44/44 48/48/48
f 46/46/46 45/45/45 50/50/50
f 50/50/50 45/45/45 49/49/49
f 51/51/51 46/46/46 50/50/50
f 47/47/47 31/31/31 52/52/52
f 52/52/52 31/31/31 29/29/29
f 48/48/48 47/47/47 53/53/53
f 53/53/53 47/47/47 52/52/52
f 49/49/49 48/48/48 54/54/54
f 54/54/54 48/48/48 53/53/53
f 50/50/50 49/49/49 55/55/55
f 55/55/55 49/49/49 54/54/54
f 51/51/51 50/50/50 56/56/56
f 56/56/56 50/50/50 55/55/55
f 57/57/57 51/51/51 56/56/56
f 52/52/52 29/29/29 58/58/58
f 58/58/58 29/29/29 30/30/30
f 58/58/58 30/30/30 59/59/59
f 53/53/53 52/52/52 60/60/60
f 60/60/60 52/52/52 58/58/58
f 61/61/61 58/58/58 59/59/59
f 60/60/60 58/58/58 61/61/61
f 61/61/61 59/59/59 62/62/62
f 54/54/54 53/53/53 63/63/63
f 63/63/63 53/53/53 60/60/60
f 55/55/55 54/54/54 64/64/64
f 64/64/64 54/54/54 63/63/63
f 56/56/56 55/55/55 65/65/65
f 65/65/65 55/55/55 64/64/64
f 57/57/57 56/56/56 66/66/66
f 66/66/66 56/56/56 65/65/65
f 67/67/67 57/57/57 66/66/66
f 68/68/68 61/61/61 62/62/62
f 68/68/68 62/62/62 69/69/69
f 70/70/70 68/68/68 69/69/69
f 71/71/71 60/60/60 61/61/61
f 63/63/63 60/60/60 71/71/71
f 71/71/71 61/61/61 68/68/68
f 72/72/72 68/68/68 70/70/70
f 72/72/72 71/71/71 68/68/68
f 73/73/73 72/72/72 70/70/70
f 74/74/74 63/63/63 71/71/71
f 74/74/74 71/71/71 72/72/72
f 64/64/64 63/63/63 74/74/74
f 75/75/75 72/72/72 73/73/73
f 75/75/75 74/74/74 72/72/72
f 76/76/76 75/75/75 73/73/73
f 77/77/77 64/64/64 74/74/74
f 77/77/77 74/74/74 75/75/75
f 65/65/65 64/64/64 77/77/77
f 78/78/78 75/75/75 76/76/76
f 78/78/78 77/77/77 75/75/75
f 79/79/79 78/78/78 76/76/76
f 80/80/80 65/65/65 77/77/77
f 80/80/80 77/77/77 78/78/78
f 66/66/66 65/65/65 80/80/80
f 81/81/81 78/78/78 79/79/79
f 81/81/81 80/80/80 78/78/78
f 82/82/82 81/81/81 79/79/79
f 83/83/83 66/66/66 80/80/80
f 83/83/83 80/80/80 81/81/81
f 67/67/67 66/66/66 83/83/83
f 84/84/84 67/67/67 83/83/83
f 85/85/85 81/81/81 82/82/82
f 85/85/85 83/83/83 81/81/81
f 84/84/84 83/83/83 85/85/85
f 86/86/86 85/85/85 82/82/82
f 87/87/87 84/84/84 85/85/85
f 87/87/87 85/85/85 86/86/86
f 88/88/88 87/87/87 86/86/86
f 91/91/91 90/90/90 89/89/89
f 92/92/92 91/91/91 89/89/89
f 93/93/93 91/91/91 92/92/92
f 94/94/94 93/93/93 92/92/92
f 97/97/97 96/96/96 95/95/95
f 96/96/96 98/98/98 95/95/95
f 95/95/95 98/98/98 99/99/99
f 98/98/98 100/100/100 99/99/99
f 99/99/99 100/100/100 101/101/101
f 100/100/100 102/102/102 101/101/101
f 105/105/105 104/104/104 103/103/103
f 106/106/106 105/105/105 103/103/103
f 107/107/107 105/105/105 106/106/106
f 108/108/108 107/107/107 106/106/106
f 109/109/109 107/107/107 108/108/108
f 110/110/110 109/109/109 108/108/108
f 113/113/113 112/112/112 111/111/111
f 114/114/114 113/113/113 111/111/111
f 115/115/115 113/113/113 114/114/114
f 116/116/116 115/115/115 114/114/114
f 119/119/119 118/118/118 117/117/117
f 120/120/120 119/119/119 117/117/117
f 121/121/121 119/119/119 120/120/120
f 122/122/122 121/121/121 120/120/120
f 123/123/123 121/121/121 122/122/122
f 124/124/124 123/123/123 122/122/122
f 125/125/125 123/123/123 124/124/124
f 126/126/126 125/125/125 124/124/124
f 127/127/127 125/125/125 126/126/126
f 128/128/128 127/127/127 126/126/126
f 129/129/129 127/127/127 128/128/128
f 130/130/130 129/129/129 128/128/128
f 131/131/131 129/129/129 130/130/130
f 132/132/132 131/131/131 130/130/130
f 133/133/133 131/131/131 132/132/132
f 134/134/134 133/133/133 132/132/132
f 135/135/135 133/133/133 134/134/134
f 136/136/136 135/135/135 134/134/134
f 137/137/137 135/135/135 136/136/136
f 138/138/138 137/137/137 136/136/136
f 141/141/141 140/140/140 139/139/139
f 142/142/142 141/141/141 139/139/139
f 142/142/142 139/139/139 143/143/143
f 144/144/144 142/142/142 143/143/143
f 144/144/144 143/143/143 145/145/145
f 146/146/146 144/144/144 145/145/145
f 146/146/146 145/145/145 147/147/147
f 148/148/148 146/146/146 147/147/147
f 151/151/151 150/150/150 149/149/149
f 152/152/152 151/151/151 149/149/149
f 152/152/152 149/149/149 153/153/153
f 154/154/154 152/152/152 153/153/153
f 154/154/154 153/153/153 155/155/155
f 153/153/153 156/156/156 155/155/155
f 157/157/157 156/156/156 153/153/153
f 157/157/157 153/153/153 158/158/158
