g BananaRoot
v 0.09955502 0.8639345 -0.04000016
v 0.07713445 -0.02575492 -0.1625732
v 0.1551108 0.003327369 -0.01831616
v 0.1713855 0.8364477 0.0633999
v 0.1255607 0.02772903 0.1190531
v 0.1691578 1.303557 0.3034345
v 0.1366788 0.808568 0.1651608
v 0.2348422 1.224205 0.367274
v 0.2366507 1.374817 0.6169144
v 0.1949787 1.152319 0.4357072
v 0.2983239 1.27584 0.6560641
v 0.3108983 1.325574 0.9569074
v 0.2550947 1.183598 0.7027091
v 0.3635219 1.180264 0.9445357
v 0.4380853 0.8225945 1.513839
v 0.3127003 1.064819 0.9522716
v 0.5439334 0.7353991 1.369292
v 0.5076584 0.5310248 1.654511
v 0.4115926 0.6567459 1.276538
v 0.5982199 0.5439881 1.451463
v 0.4404461 -3.77658 2.332306
v 0.4736449 0.5483837 1.314761
v 0.5310075 -3.812001 2.131952
v 0.4064325 -3.840058 1.998088
v 0.3657053 -3.951374 2.309175
v 0.4178504 -3.971771 2.193812
v 0.3461203 -3.987925 2.116734
v 0.1106592 -3.969222 2.246259
v 0.1645184 -3.986418 2.147738
v 0.3461203 -3.987925 2.116734
v 0.1841032 -3.949867 2.34018
v 0.278755 -3.939828 2.362341
v 0.2894375 -3.756526 2.42464
v 0.1250538 -3.773963 2.386153
v 0.4404461 -3.77658 2.332306
v 0.3657053 -3.951374 2.309175
v 0.5076584 0.5310248 1.654511
v 0.3566499 0.528675 1.748968
v 0.192266 0.5208338 1.707449
v 0.4380853 0.8225945 1.513839
v 0.2095924 0.8169211 1.543314
v 0.3286242 0.857107 1.572866
v 0.3108983 1.325574 0.9569074
v 0.1064829 1.325575 0.9920571
v 0.2076998 1.397359 0.977256
v 0.2366507 1.374817 0.6169144
v 0.0323327 1.374817 0.6520473
v 0.1304709 1.409035 0.6148528
v 0.1691578 1.303557 0.3034345
v -0.0350758 1.303557 0.338553
v 0.0615623 1.33002 0.2924881
v 0.09955502 0.8639345 -0.04000016
v -0.104633 0.8639345 -0.004889528
v -0.01001795 0.8690519 -0.06431694
v 0.07713445 -0.02575492 -0.1625732
v -0.1270082 -0.02575492 -0.1274705
v -0.03441609 -0.04158019 -0.2001491
v -0.0008723434 -0.004533767 -0.005073177
v 0.1551108 0.003327369 -0.01831616
v 0.03539226 0.03551864 0.2058259
v -0.1523198 0.003327369 0.03454726
v 0.1255607 0.02772903 0.1190531
v -0.07858177 0.02772903 0.1541559
v 0.1366788 0.808568 0.1651608
v -0.06750917 0.808568 0.2002714
v 0.04349733 0.7889433 0.2313492
v 0.1949787 1.152319 0.4357072
v -0.009254534 1.152319 0.4708256
v 0.09878443 1.112035 0.4831726
v 0.2550947 1.183598 0.7027091
v 0.05077682 1.183598 0.7378421
v 0.157059 1.133318 0.7385113
v 0.3127003 1.064819 0.9522716
v 0.108285 1.064819 0.9874212
v 0.2102975 1.001255 0.9650022
v 0.4115926 0.6567459 1.276538
v 0.1830999 0.6510724 1.306013
v 0.3035733 0.6180305 1.230788
v 0.4736449 0.5483837 1.314761
v 0.1582526 0.5381927 1.367699
v 0.3076184 0.5536994 1.259205
v 0.4064325 -3.840058 1.998088
v 0.2404062 -3.848031 1.942851
v 0.09104047 -3.837441 2.051934
v 0.2505229 -3.992516 2.084928
v 0.1645184 -3.986418 2.147738
v -0.002497934 -3.807575 2.223037
v 0.09104047 -3.837441 2.051934
v 0.1250538 -3.773963 2.386153
v 0.1841032 -3.949867 2.34018
v 0.192266 0.5208338 1.707449
v 0.06471438 0.5267485 1.541011
v 0.1582526 0.5381927 1.367699
v 0.1830999 0.6510724 1.306013
v 0.07493294 0.7237529 1.429791
v 0.2095924 0.8169211 1.543314
v 0.108285 1.064819 0.9874212
v 0.05581881 1.180264 0.9974461
v 0.1064829 1.325575 0.9920571
v 0.05077682 1.183598 0.7378421
v -0.00928195 1.27584 0.7089576
v 0.0323327 1.374817 0.6520473
v -0.009254534 1.152319 0.4708256
v -0.07267919 1.224205 0.4201531
v -0.0350758 1.303557 0.338553
v -0.06750917 0.808568 0.2002714
v -0.1360904 0.8364477 0.1162711
v -0.07858177 0.02772903 0.1541559
v -0.104633 0.8639345 -0.004889528
v -0.1523198 0.003327369 0.03454726
v -0.1270082 -0.02575492 -0.1274705
vt 0.4023438 0.8945313
vt 0.4023438 0.8945313
vt 0.4023438 0.8945313
vt 0.4023438 0.8945313
vt 0.4023438 0.8945313
vt 0.4023438 0.8945313
vt 0.4023438 0.8945313
vt 0.4023438 0.8945313
vt 0.4023438 0.8945313
vt 0.4023438 0.8945313
vt 0.4023438 0.8945313
vt 0.4023438 0.8945313
vt 0.4023438 0.8945313
vt 0.4023438 0.8945313
vt 0.4023438 0.8945313
vt 0.4023438 0.8945313
vt 0.4023438 0.8945313
vt 0.4023438 0.8945313
vt 0.4023438 0.8945313
vt 0.4023438 0.8945313
vt 0.4023438 0.8945313
vt 0.4023438 0.8945313
vt 0.4023438 0.8945313
vt 0.4023438 0.8945313
vt 0.4023438 0.8945313
vt 0.4023438 0.8945313
vt 0.4023438 0.8945313
vt 0.4023438 0.8945313
vt 0.4023438 0.8945313
vt 0.2504883 0.90625
vt 0.2504883 0.90625
vt 0.2504883 0.90625
vt 0.2504883 0.90625
vt 0.2504883 0.90625
vt 0.2504883 0.90625
vt 0.2504883 0.90625
vt 0.2504883 0.90625
vt 0.2504883 0.90625
vt 0.2504883 0.90625
vt 0.2504883 0.90625
vt 0.2504883 0.90625
vt 0.2504883 0.90625
vt 0.2504883 0.90625
vt 0.2504883 0.90625
vt 0.2504883 0.90625
vt 0.2504883 0.90625
vt 0.2504883 0.90625
vt 0.2504883 0.90625
vt 0.2504883 0.90625
vt 0.2504883 0.90625
vt 0.2504883 0.90625
vt 0.2504883 0.90625
vt 0.2504883 0.90625
vt 0.2504883 0.90625
vt 0.2504883 0.90625
vt 0.2504883 0.90625
vt 0.2504883 0.90625
vt 0.2504883 0.90625
vt 0.2504883 0.90625
vt 0.2504883 0.90625
vt 0.2504883 0.90625
vt 0.2504883 0.90625
vt 0.2504883 0.90625
vt 0.2504883 0.90625
vt 0.2504883 0.90625
vt 0.2504883 0.90625
vt 0.2504883 0.90625
vt 0.2504883 0.90625
vt 0.2504883 0.90625
vt 0.2504883 0.90625
vt 0.2504883 0.90625
vt 0.2504883 0.90625
vt 0.2504883 0.90625
vt 0.2504883 0.90625
vt 0.2504883 0.90625
vt 0.2504883 0.90625
vt 0.2504883 0.90625
vt 0.2504883 0.90625
vt 0.2504883 0.90625
vt 0.2504883 0.90625
vt 0.2504883 0.90625
vt 0.2504883 0.90625
vt 0.2504883 0.90625
vt 0.2504883 0.90625
vt 0.2504883 0.90625
vt 0.2504883 0.90625
vt 0.4023438 0.8945313
vt 0.4023438 0.8945313
vt 0.4023438 0.8945313
vt 0.4023438 0.8945313
vt 0.4023438 0.8945313
vt 0.4023438 0.8945313
vt 0.4023438 0.8945313
vt 0.4023438 0.8945313
vt 0.4023438 0.8945313
vt 0.4023438 0.8945313
vt 0.4023438 0.8945313
vt 0.4023438 0.8945313
vt 0.4023438 0.8945313
vt 0.4023438 0.8945313
vt 0.4023438 0.8945313
vt 0.4023438 0.8945313
vt 0.4023438 0.8945313
vt 0.4023438 0.8945313
vt 0.4023438 0.8945313
vt 0.4023438 0.8945313
vt 0.4023438 0.8945313
vt 0.4023438 0.8945313
vt 0.4023438 0.8945313
vt 0.4023438 0.8945313
vt 0.4023438 0.8945313
vn 0.5517578 0.2949219 -0.7802734
vn 0.5166016 -0.625 -0.5854492
vn 0.784668 -0.6176758 -0.04885864
vn 0.9755859 0.02487183 -0.2185059
vn 0.6523438 -0.5966797 0.467041
vn 0.5537109 0.6484375 -0.5219727
vn 0.8466797 -0.2575684 0.4658203
vn 0.9716797 0.06463623 -0.2270508
vn 0.6499023 0.737793 -0.1832275
vn 0.7773438 -0.6064453 0.1669922
vn 0.9775391 0.03076172 -0.2078857
vn 0.7182617 0.675293 0.1691895
vn 0.668457 -0.6938477 -0.2670898
vn 0.9790039 0.0802002 -0.1879883
vn 0.6933594 0.5249023 0.4934082
vn 0.574707 -0.543457 -0.6118164
vn 0.9609375 0.1867676 -0.2033691
vn 0.7314453 0.2587891 0.6308594
vn 0.5307617 -0.2814941 -0.7993164
vn 0.9838867 0.1168213 -0.1339111
vn 0.730957 -0.1346436 0.6689453
vn 0.5581055 -0.1151733 -0.8217773
vn 0.9467773 -0.3015137 -0.1124268
vn 0.5234375 -0.4094238 -0.7475586
vn 0.4370117 -0.7333984 0.5209961
vn 0.5805664 -0.8105469 0.07720947
vn 0.3007813 -0.9111328 -0.28125
vn -0.5644531 -0.8007813 0.2001953
vn -0.3903809 -0.8989258 -0.197998
vn 0.3007813 -0.9111328 -0.28125
vn -0.2880859 -0.7255859 0.6245117
vn 0.1120605 -0.6826172 0.722168
vn 0.1507568 -0.06976318 0.9863281
vn -0.5273438 -0.1074219 0.8427734
vn 0.730957 -0.1346436 0.6689453
vn 0.4370117 -0.7333984 0.5209961
vn 0.7314453 0.2587891 0.6308594
vn 0.1418457 0.315918 0.9379883
vn -0.5351563 0.276123 0.7983398
vn 0.6933594 0.5249023 0.4934082
vn -0.5429688 0.4902344 0.6816406
vn 0.107605 0.6293945 0.7695313
vn 0.7182617 0.675293 0.1691895
vn -0.6274414 0.6455078 0.4355469
vn 0.05032349 0.9360352 0.3483887
vn 0.6499023 0.737793 -0.1832275
vn -0.6635742 0.7416992 0.09765625
vn -0.01779175 0.9960938 -0.08911133
vn 0.5537109 0.6484375 -0.5219727
vn -0.6982422 0.6606445 -0.276123
vn -0.09594727 0.8344727 -0.5424805
vn 0.5517578 0.2949219 -0.7802734
vn -0.7856445 0.3024902 -0.5400391
vn -0.1590576 0.3828125 -0.9101563
vn 0.5166016 -0.625 -0.5854492
vn -0.684082 -0.6245117 -0.3769531
vn -0.1309814 -0.6396484 -0.7573242
vn 0.03109741 -0.9829102 0.1810303
vn 0.784668 -0.6176758 -0.04885864
vn 0.1429443 -0.5361328 0.8320313
vn -0.7563477 -0.6157227 0.2210693
vn 0.6523438 -0.5966797 0.467041
vn -0.4575195 -0.5942383 0.6611328
vn 0.8466797 -0.2575684 0.4658203
vn -0.6342773 -0.2401123 0.7348633
vn 0.1572266 -0.3581543 0.9204102
vn 0.7773438 -0.6064453 0.1669922
vn -0.6635742 -0.5825195 0.4697266
vn 0.0760498 -0.887207 0.4550781
vn 0.668457 -0.6938477 -0.2670898
vn -0.7128906 -0.699707 0.04742432
vn -0.04086304 -0.9736328 -0.2248535
vn 0.574707 -0.543457 -0.6118164
vn -0.7182617 -0.597168 -0.3569336
vn -0.09539795 -0.7373047 -0.668457
vn 0.5307617 -0.2814941 -0.7993164
vn -0.6948242 -0.3925781 -0.6025391
vn -0.08068848 -0.4560547 -0.8862305
vn 0.5581055 -0.1151733 -0.8217773
vn -0.7431641 -0.1711426 -0.6469727
vn -0.1206055 -0.2373047 -0.9638672
vn 0.5234375 -0.4094238 -0.7475586
vn -0.1417236 -0.4213867 -0.8955078
vn -0.722168 -0.3623047 -0.5888672
vn -0.08026123 -0.9116211 -0.4030762
vn -0.3903809 -0.8989258 -0.197998
vn -0.9604492 -0.2514648 0.1188965
vn -0.722168 -0.3623047 -0.5888672
vn -0.5273438 -0.1074219 0.8427734
vn -0.2880859 -0.7255859 0.6245117
vn -0.5351563 0.276123 0.7983398
vn -0.9868164 0.1089478 0.119812
vn -0.7431641 -0.1711426 -0.6469727
vn -0.6948242 -0.3925781 -0.6025391
vn -0.9941406 0.07116699 0.08123779
vn -0.5429688 0.4902344 0.6816406
vn -0.7182617 -0.597168 -0.3569336
vn -0.9765625 0.03155518 0.2133789
vn -0.6274414 0.6455078 0.4355469
vn -0.7128906 -0.699707 0.04742432
vn -0.9746094 0.03253174 0.2225342
vn -0.6635742 0.7416992 0.09765625
vn -0.6635742 -0.5825195 0.4697266
vn -0.980957 0.08709717 0.1729736
vn -0.6982422 0.6606445 -0.276123
vn -0.6342773 -0.2401123 0.7348633
vn -0.9892578 0.03997803 0.1413574
vn -0.4575195 -0.5942383 0.6611328
vn -0.7856445 0.3024902 -0.5400391
vn -0.7563477 -0.6157227 0.2210693
vn -0.684082 -0.6245117 -0.3769531
g BananaRoot_0
f 3/3/3 2/2/2 1/1/1
f 4/4/4 3/3/3 1/1/1
f 5/5/5 3/3/3 4/4/4
f 4/4/4 1/1/1 6/6/6
f 7/7/7 5/5/5 4/4/4
f 8/8/8 4/4/4 6/6/6
f 7/7/7 4/4/4 8/8/8
f 8/8/8 6/6/6 9/9/9
f 10/10/10 7/7/7 8/8/8
f 11/11/11 8/8/8 9/9/9
f 10/10/10 8/8/8 11/11/11
f 11/11/11 9/9/9 12/12/12
f 13/13/13 10/10/10 11/11/11
f 14/14/14 11/11/11 12/12/12
f 13/13/13 11/11/11 14/14/14
f 14/14/14 12/12/12 15/15/15
f 16/16/16 13/13/13 14/14/14
f 17/17/17 14/14/14 15/15/15
f 16/16/16 14/14/14 17/17/17
f 17/17/17 15/15/15 18/18/18
f 19/19/19 16/16/16 17/17/17
f 20/20/20 17/17/17 18/18/18
f 19/19/19 17/17/17 20/20/20
f 18/18/18 21/21/21 20/20/20
f 22/22/22 19/19/19 20/20/20
f 21/21/21 23/23/23 20/20/20
f 20/20/20 23/23/23 22/22/22
f 23/23/23 24/24/24 22/22/22
f 21/21/21 25/25/25 23/23/23
f 23/23/23 26/26/26 24/24/24
f 25/25/25 26/26/26 23/23/23
f 26/26/26 27/27/27 24/24/24
f 26/26/26 25/25/25 28/28/28
f 26/26/26 28/28/28 29/29/29
f 30/30/30 26/26/26 29/29/29
f 25/25/25 31/31/31 28/28/28
f 25/25/25 32/32/32 31/31/31
f 31/31/31 32/32/32 33/33/33
f 34/34/34 31/31/31 33/33/33
f 33/33/33 32/32/32 35/35/35
f 32/32/32 36/36/36 35/35/35
f 33/33/33 35/35/35 37/37/37
f 34/34/34 33/33/33 38/38/38
f 38/38/38 33/33/33 37/37/37
f 39/39/39 34/34/34 38/38/38
f 37/37/37 40/40/40 38/38/38
f 41/41/41 39/39/39 38/38/38
f 40/40/40 42/42/42 38/38/38
f 42/42/42 41/41/41 38/38/38
f 40/40/40 43/43/43 42/42/42
f 44/44/44 41/41/41 42/42/42
f 43/43/43 45/45/45 42/42/42
f 45/45/45 44/44/44 42/42/42
f 43/43/43 46/46/46 45/45/45
f 47/47/47 44/44/44 45/45/45
f 46/46/46 48/48/48 45/45/45
f 48/48/48 47/47/47 45/45/45
f 46/46/46 49/49/49 48/48/48
f 50/50/50 47/47/47 48/48/48
f 49/49/49 51/51/51 48/48/48
f 51/51/51 50/50/50 48/48/48
f 49/49/49 52/52/52 51/51/51
f 53/53/53 50/50/50 51/51/51
f 52/52/52 54/54/54 51/51/51
f 54/54/54 53/53/53 51/51/51
f 52/52/52 55/55/55 54/54/54
f 56/56/56 53/53/53 54/54/54
f 55/55/55 57/57/57 54/54/54
f 57/57/57 56/56/56 54/54/54
f 58/58/58 57/57/57 55/55/55
f 57/57/57 58/58/58 56/56/56
f 59/59/59 58/58/58 55/55/55
f 60/60/60 58/58/58 59/59/59
f 58/58/58 61/61/61 56/56/56
f 58/58/58 60/60/60 61/61/61
f 62/62/62 60/60/60 59/59/59
f 60/60/60 63/63/63 61/61/61
f 60/60/60 62/62/62 64/64/64
f 63/63/63 60/60/60 65/65/65
f 66/66/66 60/60/60 64/64/64
f 60/60/60 66/66/66 65/65/65
f 66/66/66 64/64/64 67/67/67
f 65/65/65 66/66/66 68/68/68
f 69/69/69 66/66/66 67/67/67
f 66/66/66 69/69/69 68/68/68
f 69/69/69 67/67/67 70/70/70
f 68/68/68 69/69/69 71/71/71
f 72/72/72 69/69/69 70/70/70
f 69/69/69 72/72/72 71/71/71
f 72/72/72 70/70/70 73/73/73
f 71/71/71 72/72/72 74/74/74
f 75/75/75 72/72/72 73/73/73
f 72/72/72 75/75/75 74/74/74
f 75/75/75 73/73/73 76/76/76
f 74/74/74 75/75/75 77/77/77
f 78/78/78 75/75/75 76/76/76
f 75/75/75 78/78/78 77/77/77
f 78/78/78 76/76/76 79/79/79
f 77/77/77 78/78/78 80/80/80
f 81/81/81 78/78/78 79/79/79
f 78/78/78 81/81/81 80/80/80
f 79/79/79 82/82/82 81/81/81
f 81/81/81 83/83/83 80/80/80
f 82/82/82 83/83/83 81/81/81
f 83/83/83 84/84/84 80/80/80
f 82/82/82 30/30/30 83/83/83
f 83/83/83 85/85/85 84/84/84
f 30/30/30 85/85/85 83/83/83
f 85/85/85 86/86/86 84/84/84
f 29/29/29 85/85/85 30/30/30
f 29/29/29 28/28/28 87/87/87
f 88/88/88 29/29/29 87/87/87
f 87/87/87 28/28/28 89/89/89
f 28/28/28 90/90/90 89/89/89
f 87/87/87 89/89/89 91/91/91
f 88/88/88 87/87/87 92/92/92
f 92/92/92 87/87/87 91/91/91
f 93/93/93 88/88/88 92/92/92
f 94/94/94 93/93/93 92/92/92
f 95/95/95 92/92/92 91/91/91
f 95/95/95 94/94/94 92/92/92
f 96/96/96 95/95/95 91/91/91
f 97/97/97 94/94/94 95/95/95
f 98/98/98 95/95/95 96/96/96
f 98/98/98 97/97/97 95/95/95
f 99/99/99 98/98/98 96/96/96
f 100/100/100 97/97/97 98/98/98
f 101/101/101 98/98/98 99/99/99
f 101/101/101 100/100/100 98/98/98
f 102/102/102 101/101/101 99/99/99
f 103/103/103 100/100/100 101/101/101
f 104/104/104 101/101/101 102/102/102
f 104/104/104 103/103/103 101/101/101
f 105/105/105 104/104/104 102/102/102
f 106/106/106 103/103/103 104/104/104
f 107/107/107 104/104/104 105/105/105
f 107/107/107 106/106/106 104/104/104
f 108/108/108 106/106/106 107/107/107
f 109/109/109 107/107/107 105/105/105
f 110/110/110 108/108/108 107/107/107
f 110/110/110 107/107/107 109/109/109
f 111/111/111 110/110/110 109/109/109
