g Bee_Body
v 0.1568626 -0.04112217 -0.05659982
v 0.08896243 -0.08543751 -0.1175946
v 0.08896243 -0.1382408 -0.04491715
v 0.1568626 -0.06653707 -0.02161921
v 0.08896243 -0.1382408 0.04491716
v 0.1568626 -0.06653707 0.0216192
v 0.08896243 -0.08543747 0.1175946
v 0.1568626 -0.04112216 0.05659981
v 0.08896243 1.866796E-08 0.1453549
v 0.1568626 1.334209E-08 0.06996121
v 0.08896243 0.08543751 0.1175946
v 0.1568626 0.04112218 0.0565998
v 0.08896243 0.1382408 0.04491713
v 0.1568626 0.06653707 0.02161919
v 0.08896243 0.1382408 -0.04491716
v 0.1568626 0.06653707 -0.02161921
v 0.08896243 0.08543748 -0.1175946
v 0.1568626 0.04112217 -0.05659981
v 0.08896243 1.000413E-08 -0.1453549
v 0.1568626 9.172077E-09 -0.06996122
v 0.08896243 -0.08543751 -0.1175946
v 0.1568626 -0.04112217 -0.05659982
v 0.02828093 -0.097065 -0.1335985
v -0.03939961 -0.09865472 -0.1357866
v -0.03939961 -0.1596267 -0.05186585
v 0.02828093 -0.1570545 -0.05103008
v -0.03939961 -0.1596267 0.05186587
v 0.02828093 -0.1570545 0.0510301
v -0.03939961 -0.09865469 0.1357866
v 0.02828093 -0.09706498 0.1335985
v -0.03939961 2.000825E-08 0.1678414
v 0.02828093 2.039253E-08 0.1651368
v -0.03939961 0.09865473 0.1357866
v 0.02828093 0.09706502 0.1335985
v -0.03939961 0.1596267 0.05186583
v 0.02828093 0.1570545 0.05103007
v -0.03939961 0.1596267 -0.05186586
v 0.02828093 0.1570545 -0.0510301
v -0.03939961 0.09865472 -0.1357866
v 0.02828093 0.097065 -0.1335985
v -0.03939961 1.000413E-08 -0.1678414
v 0.02828093 1.054961E-08 -0.1651368
v -0.03939961 -0.09865472 -0.1357866
v 0.02828093 -0.097065 -0.1335985
v -0.1070801 1.017798E-08 -0.1597372
v -0.1677617 -0.07941804 -0.1093095
v -0.1070801 -0.09389117 -0.1292301
v -0.1677617 9.299289E-09 -0.135114
v -0.1070801 0.09389115 -0.1292301
v -0.2142928 -0.04112217 -0.05659982
v -0.1677617 0.07941803 -0.1093095
v -0.1070801 0.1519191 -0.04936151
v -0.2142928 9.172076E-09 -0.06996122
v -0.2256121 1.000413E-08 -1.000413E-08
v -0.1677617 0.1285011 -0.04175254
v -0.1070801 0.1519191 0.04936148
v -0.2142928 0.04112217 -0.05659981
v -0.2256121 1.000413E-08 -1.000413E-08
v -0.1677617 0.1285011 0.04175251
v -0.1070801 0.09389117 0.1292301
v -0.2142928 0.06653707 -0.02161921
v -0.2256121 1.000413E-08 -1.000413E-08
v -0.1677617 0.07941805 0.1093095
v -0.1070801 1.969905E-08 0.1597372
v -0.2142928 0.06653707 0.02161919
v -0.2256121 1.000413E-08 -1.000413E-08
v -0.1677617 1.735271E-08 0.135114
v -0.1070801 -0.09389113 0.1292301
v -0.2142928 0.04112218 0.0565998
v -0.2256121 1.000413E-08 -1.000413E-08
v -0.1677617 -0.07941801 0.1093096
v -0.1070801 -0.1519191 0.04936152
v -0.2142928 1.334209E-08 0.06996121
v -0.2256121 1.000413E-08 -1.000413E-08
v -0.1677617 -0.1285011 0.04175254
v -0.1070801 -0.1519191 -0.04936149
v -0.2142928 -0.04112216 0.05659981
v -0.2256121 1.000413E-08 -1.000413E-08
v -0.1677617 -0.1285011 -0.04175253
v -0.1070801 -0.09389117 -0.1292301
v -0.1677617 -0.07941804 -0.1093095
v -0.2142928 -0.06653707 0.0216192
v -0.2256121 1.000413E-08 -1.000413E-08
v -0.2142928 -0.06653707 -0.02161921
v -0.2256121 1.000413E-08 -1.000413E-08
v -0.2142928 -0.04112217 -0.05659982
v -0.2256121 1.000413E-08 -1.000413E-08
v 0.2398084 1.000413E-08 -1.000413E-08
v 0.2398084 1.000413E-08 -1.000413E-08
v 0.2398084 1.000413E-08 -1.000413E-08
v 0.2398084 1.000413E-08 -1.000413E-08
v 0.2398084 1.000413E-08 -1.000413E-08
v 0.2398084 1.000413E-08 -1.000413E-08
v 0.2398084 1.000413E-08 -1.000413E-08
v 0.2398084 1.000413E-08 -1.000413E-08
v 0.2398084 1.000413E-08 -1.000413E-08
v 0.2398084 1.000413E-08 -1.000413E-08
v -0.2288914 -0.04393585 -0.06734518
v -0.216409 -0.05486441 -0.05929556
v -0.2144299 -0.04393585 -0.07088362
v -0.236606 -0.01532449 -0.0723201
v -0.2132067 -0.01532449 -0.07804542
v -0.236606 0.02004108 -0.0723201
v -0.2132067 0.02004108 -0.07804542
v -0.2288914 0.04865244 -0.06734518
v -0.2144299 0.04865244 -0.07088362
v -0.216409 0.05958101 -0.05929556
v -0.2398083 0.02004108 -0.05357023
v -0.2308706 0.04865244 -0.0557571
v -0.2288914 0.04865244 -0.06734518
v -0.216409 0.05958101 -0.05929556
v -0.2398083 -0.01532449 -0.05357023
v -0.2288914 -0.04393585 -0.06734518
v -0.2308706 -0.04393585 -0.0557571
v -0.216409 -0.05486441 -0.05929556
v -0.2196113 0.02004108 -0.04054573
v -0.2196113 -0.01532449 -0.04054573
v -0.2183882 0.04865244 -0.04770752
v -0.2308706 0.04865244 -0.0557571
v -0.216409 0.05958101 -0.05929556
v -0.2308706 -0.04393585 -0.0557571
v -0.2183882 -0.04393585 -0.04770752
v -0.216409 -0.05486441 -0.05929556
v -0.2280736 -0.04393585 0.05705035
v -0.2133263 -0.05486441 0.05881785
v -0.2166239 -0.04393585 0.04753396
v -0.2371879 -0.01532449 0.05595801
v -0.2186619 -0.01532449 0.04056014
v -0.2371879 0.02004108 0.05595801
v -0.2186619 0.02004108 0.04056014
v -0.2280736 0.04865244 0.05705035
v -0.2166239 0.04865244 0.04753396
v -0.2133263 0.05958101 0.05881785
v -0.2318523 0.02004108 0.07421573
v -0.224776 0.04865244 0.06833427
v -0.2280736 0.04865244 0.05705035
v -0.2133263 0.05958101 0.05881785
v -0.2318523 -0.01532449 0.07421573
v -0.2280736 -0.04393585 0.05705035
v -0.224776 -0.04393585 0.06833427
v -0.2133263 -0.05486441 0.05881785
v -0.2079906 0.02004108 0.07707551
v -0.2079906 -0.01532449 0.07707551
v -0.2100287 0.04865244 0.07010173
v -0.224776 0.04865244 0.06833427
v -0.2133263 0.05958101 0.05881785
v -0.224776 -0.04393585 0.06833427
v -0.2100287 -0.04393585 0.07010173
v -0.2133263 -0.05486441 0.05881785
vt 0 0.1666667
vt 0 0.3333333
vt 0.1 0.3333333
vt 0.1 0.1666667
vt 0.2 0.3333333
vt 0.2 0.1666667
vt 0.3 0.3333333
vt 0.3 0.1666667
vt 0.4 0.3333333
vt 0.4 0.1666667
vt 0.5 0.3333333
vt 0.5 0.1666667
vt 0.6 0.3333333
vt 0.6 0.1666667
vt 0.7 0.3333333
vt 0.7 0.1666667
vt 0.8000001 0.3333333
vt 0.8000001 0.1666667
vt 0.9000001 0.3333333
vt 0.9000001 0.1666667
vt 1 0.3333333
vt 1 0.1666667
vt 0 0.4166667
vt 0 0.5
vt 0.1 0.5
vt 0.1 0.4166667
vt 0.2 0.5
vt 0.2 0.4166667
vt 0.3 0.5
vt 0.3 0.4166667
vt 0.4 0.5
vt 0.4 0.4166667
vt 0.5 0.5
vt 0.5 0.4166667
vt 0.6 0.5
vt 0.6 0.4166667
vt 0.7 0.5
vt 0.7 0.4166667
vt 0.8000001 0.5
vt 0.8000001 0.4166667
vt 0.9000001 0.5
vt 0.9000001 0.4166667
vt 1 0.5
vt 1 0.4166667
vt 0.9000001 0.5833334
vt 1 0.6666667
vt 1 0.5833334
vt 0.9000001 0.6666667
vt 0.8000001 0.5833334
vt 1 0.8333334
vt 0.8000001 0.6666667
vt 0.7 0.5833334
vt 0.9000001 0.8333334
vt 0.95 1
vt 0.7 0.6666667
vt 0.6 0.5833334
vt 0.8000001 0.8333334
vt 0.85 1
vt 0.6 0.6666667
vt 0.5 0.5833334
vt 0.7 0.8333334
vt 0.75 1
vt 0.5 0.6666667
vt 0.4 0.5833334
vt 0.6 0.8333334
vt 0.65 1
vt 0.4 0.6666667
vt 0.3 0.5833334
vt 0.5 0.8333334
vt 0.55 1
vt 0.3 0.6666667
vt 0.2 0.5833334
vt 0.4 0.8333334
vt 0.45 1
vt 0.2 0.6666667
vt 0.1 0.5833334
vt 0.3 0.8333334
vt 0.35 1
vt 0.1 0.6666667
vt 0 0.5833334
vt 0 0.6666667
vt 0.2 0.8333334
vt 0.25 1
vt 0.1 0.8333334
vt 0.15 1
vt 0 0.8333334
vt 0.05 1
vt 0.05 0
vt 0.15 0
vt 0.25 0
vt 0.35 0
vt 0.45 0
vt 0.55 0
vt 0.65 0
vt 0.75 0
vt 0.85 0
vt 0.95 0
vt 0.8171319 0.3932032
vt 0.9951172 0.3898724
vt 0.8948397 0.2427864
vt 0.6419457 0.3615864
vt 0.7676794 0.1182066
vt 0.483788 0.2798797
vt 0.6095217 0.03649996
vt 0.3566281 0.1552997
vt 0.4343356 0.004882813
vt 0.2563503 0.008213878
vt 0.3580542 0.5232595
vt 0.2308941 0.3986798
vt 0.3086019 0.2482625
vt 0.1306165 0.2515938
vt 0.5162118 0.6049662
vt 0.7691059 0.486166
vt 0.6913979 0.6365833
vt 0.8693833 0.6332522
vt 0.2323205 0.7666391
vt 0.3904781 0.8483458
vt 0.1051605 0.6420594
vt 0.1828681 0.4916426
vt 0.004882813 0.4949738
vt 0.6433719 0.729546
vt 0.5656642 0.8799629
vt 0.7436493 0.8766321
vt 0.8171319 0.3932032
vt 0.9951172 0.3898724
vt 0.8948397 0.2427864
vt 0.6419457 0.3615864
vt 0.7676794 0.1182066
vt 0.483788 0.2798797
vt 0.6095217 0.03649996
vt 0.3566281 0.1552997
vt 0.4343356 0.004882813
vt 0.2563503 0.008213878
vt 0.3580542 0.5232595
vt 0.2308941 0.3986798
vt 0.3086019 0.2482625
vt 0.1306165 0.2515938
vt 0.5162118 0.6049662
vt 0.7691059 0.486166
vt 0.6913979 0.6365833
vt 0.8693833 0.6332522
vt 0.2323205 0.7666391
vt 0.3904781 0.8483458
vt 0.1051605 0.6420594
vt 0.1828681 0.4916426
vt 0.004882813 0.4949738
vt 0.6433719 0.729546
vt 0.5656642 0.8799629
vt 0.7436493 0.8766321
vn 0.7236437 -0.4056739 -0.5583624
vn 0.5313448 -0.4979456 -0.6853634
vn 0.5313448 -0.8056929 -0.2617854
vn 0.7236437 -0.6563943 -0.2132754
vn 0.5313448 -0.8056929 0.2617856
vn 0.7236437 -0.6563944 0.2132756
vn 0.5313449 -0.4979455 0.6853634
vn 0.7236437 -0.405674 0.5583624
vn 0.5313449 0 0.8471556
vn 0.7236437 0 0.6901738
vn 0.5313449 0.4979456 0.6853632
vn 0.7236437 0.4056741 0.5583623
vn 0.5313448 0.8056929 0.2617854
vn 0.7236436 0.6563944 0.2132754
vn 0.5313449 0.8056929 -0.2617856
vn 0.7236437 0.6563944 -0.2132756
vn 0.5313449 0.4979456 -0.6853634
vn 0.7236436 0.405674 -0.5583625
vn 0.5313449 0 -0.8471556
vn 0.7236437 0 -0.6901738
vn 0.5313448 -0.4979456 -0.6853634
vn 0.7236437 -0.4056739 -0.5583624
vn 0.1629905 -0.5799252 -0.7981986
vn -0.03857913 -0.5873477 -0.8084148
vn -0.03857907 -0.9503486 -0.3087868
vn 0.1629904 -0.9383387 -0.3048845
vn -0.03857907 -0.9503484 0.308787
vn 0.1629905 -0.9383387 0.3048848
vn -0.03857905 -0.5873475 0.8084148
vn 0.1629905 -0.5799252 0.7981985
vn -0.03857917 0 0.9992555
vn 0.1629905 0 0.9866276
vn -0.03857925 0.5873477 0.8084147
vn 0.1629905 0.5799253 0.7981985
vn -0.03857912 0.9503486 0.3087869
vn 0.1629905 0.9383387 0.3048846
vn -0.03857907 0.9503484 -0.308787
vn 0.1629905 0.9383387 -0.3048847
vn -0.03857906 0.5873477 -0.8084148
vn 0.1629905 0.5799252 -0.7981986
vn -0.03857911 0 -0.9992555
vn 0.1629904 0 -0.9866276
vn -0.03857913 -0.5873477 -0.8084148
vn 0.1629905 -0.5799252 -0.7981986
vn -0.2337857 0 -0.9722882
vn -0.5723654 -0.4819831 -0.6633929
vn -0.2337858 -0.5714966 -0.7865977
vn -0.5723653 0 -0.8199987
vn -0.2337857 0.5714967 -0.7865977
vn -0.8565008 -0.3033829 -0.4175708
vn -0.5723654 0.4819832 -0.6633928
vn -0.2337857 0.924701 -0.3004536
vn -0.8565007 0 -0.5161459
vn -1 0 0
vn -0.5723653 0.7798651 -0.2533936
vn -0.2337857 0.9247011 0.3004534
vn -0.8565007 0.303383 -0.4175708
vn -1 0 0
vn -0.5723653 0.7798651 0.2533934
vn -0.2337858 0.5714967 0.7865975
vn -0.8565007 0.4908839 -0.1594979
vn -1 0 0
vn -0.5723653 0.4819832 0.6633929
vn -0.2337857 0 0.9722882
vn -0.8565007 0.490884 0.1594978
vn -1 0 0
vn -0.5723653 0 0.8199988
vn -0.2337857 -0.5714965 0.7865977
vn -0.8565007 0.3033829 0.4175707
vn -1 0 0
vn -0.5723655 -0.481983 0.6633929
vn -0.2337857 -0.924701 0.3004537
vn -0.8565008 0 0.5161458
vn -1 0 0
vn -0.5723655 -0.7798651 0.2533936
vn -0.2337857 -0.924701 -0.3004534
vn -0.8565008 -0.303383 0.4175708
vn -1 0 0
vn -0.5723655 -0.779865 -0.2533934
vn -0.2337858 -0.5714966 -0.7865977
vn -0.5723654 -0.4819831 -0.6633929
vn -0.8565007 -0.4908839 0.1594979
vn -1 0 0
vn -0.8565007 -0.4908839 -0.1594978
vn -1 0 0
vn -0.8565008 -0.3033829 -0.4175708
vn -1 0 0
vn 1 -2.520306E-07 0
vn 1 -2.520306E-07 0
vn 1 -2.520306E-07 0
vn 1 -2.520306E-07 0
vn 1 -2.520306E-07 0
vn 1 -2.520306E-07 0
vn 1 -2.520306E-07 0
vn 1 -2.520306E-07 0
vn 1 -2.520306E-07 0
vn 1 -2.520306E-07 0
vn -0.6234574 -0.3679837 -0.689847
vn -0.4460112 -0.89168 -0.07733616
vn -0.2271004 -0.294877 -0.9281557
vn -0.6782958 -0.114131 -0.7258711
vn -0.2367412 -0.08825332 -0.9675561
vn -0.6782957 0.114131 -0.7258713
vn -0.2367412 0.08825326 -0.9675561
vn -0.6234573 0.3679837 -0.6898471
vn -0.2271004 0.2948769 -0.9281557
vn -0.4460113 0.8916799 -0.07733621
vn -0.8795739 0.1144257 0.461797
vn -0.8157305 0.3688208 0.4455951
vn -0.6234573 0.3679837 -0.6898471
vn -0.4460113 0.8916799 -0.07733621
vn -0.879574 -0.1144257 0.461797
vn -0.6234574 -0.3679837 -0.689847
vn -0.8157307 -0.3688207 0.445595
vn -0.4460112 -0.89168 -0.07733616
vn -0.5398295 0.0885077 0.8371084
vn -0.5398295 -0.08850776 0.8371084
vn -0.5177137 0.2957421 0.8028133
vn -0.8157305 0.3688208 0.4455951
vn -0.4460113 0.8916799 -0.07733621
vn -0.8157307 -0.3688207 0.445595
vn -0.5177137 -0.2957422 0.8028133
vn -0.4460112 -0.89168 -0.07733616
vn -0.8626639 -0.3679835 -0.3469856
vn -0.4348124 -0.89168 0.1258771
vn -0.6107709 -0.294877 -0.7348514
vn -0.9277418 -0.114131 -0.355344
vn -0.6366987 -0.0882535 -0.7660457
vn -0.9277418 0.114131 -0.355344
vn -0.6366987 0.08825355 -0.7660457
vn -0.8626639 0.3679836 -0.3469855
vn -0.6107709 0.2948772 -0.7348512
vn -0.4348127 0.8916798 0.1258774
vn -0.5883595 0.1144254 0.8004623
vn -0.5380669 0.3688203 0.7579284
vn -0.8626639 0.3679836 -0.3469855
vn -0.4348127 0.8916798 0.1258774
vn -0.5883594 -0.1144254 0.8004624
vn -0.8626639 -0.3679835 -0.3469856
vn -0.5380668 -0.3688203 0.7579285
vn -0.4348124 -0.89168 0.1258771
vn -0.1185303 0.08850761 0.988998
vn -0.1185303 -0.08850762 0.988998
vn -0.1136747 0.2957421 0.9484802
vn -0.5380669 0.3688203 0.7579284
vn -0.4348127 0.8916798 0.1258774
vn -0.5380668 -0.3688203 0.7579285
vn -0.1136747 -0.2957421 0.9484802
vn -0.4348124 -0.89168 0.1258771
g Bee_Body_0
f 3/3/3 2/2/2 1/1/1
f 4/4/4 3/3/3 1/1/1
f 5/5/5 3/3/3 4/4/4
f 6/6/6 5/5/5 4/4/4
f 7/7/7 5/5/5 6/6/6
f 8/8/8 7/7/7 6/6/6
f 9/9/9 7/7/7 8/8/8
f 10/10/10 9/9/9 8/8/8
f 11/11/11 9/9/9 10/10/10
f 12/12/12 11/11/11 10/10/10
f 13/13/13 11/11/11 12/12/12
f 14/14/14 13/13/13 12/12/12
f 15/15/15 13/13/13 14/14/14
f 16/16/16 15/15/15 14/14/14
f 17/17/17 15/15/15 16/16/16
f 18/18/18 17/17/17 16/16/16
f 19/19/19 17/17/17 18/18/18
f 20/20/20 19/19/19 18/18/18
f 21/21/21 19/19/19 20/20/20
f 22/22/22 21/21/21 20/20/20
f 25/25/25 24/24/24 23/23/23
f 26/26/26 25/25/25 23/23/23
f 27/27/27 25/25/25 26/26/26
f 28/28/28 27/27/27 26/26/26
f 29/29/29 27/27/27 28/28/28
f 30/30/30 29/29/29 28/28/28
f 31/31/31 29/29/29 30/30/30
f 32/32/32 31/31/31 30/30/30
f 33/33/33 31/31/31 32/32/32
f 34/34/34 33/33/33 32/32/32
f 35/35/35 33/33/33 34/34/34
f 36/36/36 35/35/35 34/34/34
f 37/37/37 35/35/35 36/36/36
f 38/38/38 37/37/37 36/36/36
f 39/39/39 37/37/37 38/38/38
f 40/40/40 39/39/39 38/38/38
f 41/41/41 39/39/39 40/40/40
f 42/42/42 41/41/41 40/40/40
f 43/43/43 41/41/41 42/42/42
f 44/44/44 43/43/43 42/42/42
f 47/47/47 46/46/46 45/45/45
f 46/46/46 48/48/48 45/45/45
f 45/45/45 48/48/48 49/49/49
f 46/46/46 50/50/50 48/48/48
f 48/48/48 51/51/51 49/49/49
f 49/49/49 51/51/51 52/52/52
f 50/50/50 53/53/53 48/48/48
f 48/48/48 53/53/53 51/51/51
f 50/50/50 54/54/54 53/53/53
f 51/51/51 55/55/55 52/52/52
f 52/52/52 55/55/55 56/56/56
f 53/53/53 57/57/57 51/51/51
f 51/51/51 57/57/57 55/55/55
f 53/53/53 58/58/58 57/57/57
f 55/55/55 59/59/59 56/56/56
f 56/56/56 59/59/59 60/60/60
f 57/57/57 61/61/61 55/55/55
f 55/55/55 61/61/61 59/59/59
f 57/57/57 62/62/62 61/61/61
f 59/59/59 63/63/63 60/60/60
f 60/60/60 63/63/63 64/64/64
f 61/61/61 65/65/65 59/59/59
f 59/59/59 65/65/65 63/63/63
f 61/61/61 66/66/66 65/65/65
f 63/63/63 67/67/67 64/64/64
f 64/64/64 67/67/67 68/68/68
f 65/65/65 69/69/69 63/63/63
f 63/63/63 69/69/69 67/67/67
f 65/65/65 70/70/70 69/69/69
f 67/67/67 71/71/71 68/68/68
f 68/68/68 71/71/71 72/72/72
f 69/69/69 73/73/73 67/67/67
f 67/67/67 73/73/73 71/71/71
f 69/69/69 74/74/74 73/73/73
f 71/71/71 75/75/75 72/72/72
f 72/72/72 75/75/75 76/76/76
f 73/73/73 77/77/77 71/71/71
f 71/71/71 77/77/77 75/75/75
f 73/73/73 78/78/78 77/77/77
f 75/75/75 79/79/79 76/76/76
f 76/76/76 79/79/79 80/80/80
f 79/79/79 81/81/81 80/80/80
f 77/77/77 82/82/82 75/75/75
f 75/75/75 82/82/82 79/79/79
f 77/77/77 83/83/83 82/82/82
f 79/79/79 84/84/84 81/81/81
f 82/82/82 84/84/84 79/79/79
f 82/82/82 85/85/85 84/84/84
f 84/84/84 86/86/86 81/81/81
f 84/84/84 87/87/87 86/86/86
g Bee_Body_1
f 1/1/1 88/88/88 4/4/4
f 4/4/4 89/89/89 6/6/6
f 6/6/6 90/90/90 8/8/8
f 8/8/8 91/91/91 10/10/10
f 10/10/10 92/92/92 12/12/12
f 12/12/12 93/93/93 14/14/14
f 14/14/14 94/94/94 16/16/16
f 16/16/16 95/95/95 18/18/18
f 18/18/18 96/96/96 20/20/20
f 20/20/20 97/97/97 22/22/22
f 26/26/26 23/23/23 2/2/2
f 3/3/3 26/26/26 2/2/2
f 28/28/28 26/26/26 3/3/3
f 5/5/5 28/28/28 3/3/3
f 30/30/30 28/28/28 5/5/5
f 7/7/7 30/30/30 5/5/5
f 32/32/32 30/30/30 7/7/7
f 9/9/9 32/32/32 7/7/7
f 34/34/34 32/32/32 9/9/9
f 11/11/11 34/34/34 9/9/9
f 36/36/36 34/34/34 11/11/11
f 13/13/13 36/36/36 11/11/11
f 38/38/38 36/36/36 13/13/13
f 15/15/15 38/38/38 13/13/13
f 40/40/40 38/38/38 15/15/15
f 17/17/17 40/40/40 15/15/15
f 42/42/42 40/40/40 17/17/17
f 19/19/19 42/42/42 17/17/17
f 44/44/44 42/42/42 19/19/19
f 21/21/21 44/44/44 19/19/19
f 76/76/76 80/80/80 24/24/24
f 25/25/25 76/76/76 24/24/24
f 72/72/72 76/76/76 25/25/25
f 27/27/27 72/72/72 25/25/25
f 68/68/68 72/72/72 27/27/27
f 29/29/29 68/68/68 27/27/27
f 64/64/64 68/68/68 29/29/29
f 31/31/31 64/64/64 29/29/29
f 60/60/60 64/64/64 31/31/31
f 33/33/33 60/60/60 31/31/31
f 56/56/56 60/60/60 33/33/33
f 35/35/35 56/56/56 33/33/33
f 52/52/52 56/56/56 35/35/35
f 37/37/37 52/52/52 35/35/35
f 49/49/49 52/52/52 37/37/37
f 39/39/39 49/49/49 37/37/37
f 45/45/45 49/49/49 39/39/39
f 41/41/41 45/45/45 39/39/39
f 47/47/47 45/45/45 41/41/41
f 43/43/43 47/47/47 41/41/41
f 100/100/100 99/99/99 98/98/98
f 98/98/98 101/101/101 100/100/100
f 101/101/101 102/102/102 100/100/100
f 101/101/101 103/103/103 102/102/102
f 103/103/103 104/104/104 102/102/102
f 103/103/103 105/105/105 104/104/104
f 105/105/105 106/106/106 104/104/104
f 105/105/105 107/107/107 106/106/106
f 108/108/108 103/103/103 101/101/101
f 108/108/108 109/109/109 103/103/103
f 109/109/109 110/110/110 103/103/103
f 109/109/109 111/111/111 110/110/110
f 112/112/112 108/108/108 101/101/101
f 112/112/112 101/101/101 113/113/113
f 114/114/114 112/112/112 113/113/113
f 113/113/113 115/115/115 114/114/114
f 116/116/116 108/108/108 112/112/112
f 117/117/117 116/116/116 112/112/112
f 116/116/116 118/118/118 108/108/108
f 118/118/118 119/119/119 108/108/108
f 118/118/118 120/120/120 119/119/119
f 117/117/117 112/112/112 121/121/121
f 122/122/122 117/117/117 121/121/121
f 121/121/121 123/123/123 122/122/122
f 126/126/126 125/125/125 124/124/124
f 124/124/124 127/127/127 126/126/126
f 127/127/127 128/128/128 126/126/126
f 127/127/127 129/129/129 128/128/128
f 129/129/129 130/130/130 128/128/128
f 129/129/129 131/131/131 130/130/130
f 131/131/131 132/132/132 130/130/130
f 131/131/131 133/133/133 132/132/132
f 134/134/134 129/129/129 127/127/127
f 134/134/134 135/135/135 129/129/129
f 135/135/135 136/136/136 129/129/129
f 135/135/135 137/137/137 136/136/136
f 138/138/138 134/134/134 127/127/127
f 138/138/138 127/127/127 139/139/139
f 140/140/140 138/138/138 139/139/139
f 139/139/139 141/141/141 140/140/140
f 142/142/142 134/134/134 138/138/138
f 143/143/143 142/142/142 138/138/138
f 142/142/142 144/144/144 134/134/134
f 144/144/144 145/145/145 134/134/134
f 144/144/144 146/146/146 145/145/145
f 143/143/143 138/138/138 147/147/147
f 148/148/148 143/143/143 147/147/147
f 147/147/147 149/149/149 148/148/148
