g Cow_Udder
v -0.0007209223 -0.001441733 0.006134136
v 0 -0.001571434 0.006141487
v 0 -0.001032537 0.005440892
v 0.0007209223 -0.001441732 0.006134136
v -0.0007255102 -0.0009245281 0.00545138
v 0 -0.0004175339 0.004806059
v -0.001415812 -0.00122109 0.006205206
v 0.000725929 -0.0009239321 0.005451983
v 0.001415812 -0.00122109 0.006205206
v -0.001426589 -0.0007330517 0.005551212
v -0.002185337 -0.000690965 0.006147985
v 0.001426589 -0.0007330519 0.005551212
v 0.002185337 -0.0006909647 0.006147985
v -0.0007143705 -0.0003351492 0.004830153
v -0.002103005 -0.000320176 0.005585233
v -0.002871462 -5.521029E-05 0.006187005
v 0.0007143705 -0.0003351492 0.004830153
v 0.002105252 -0.0003202256 0.00558675
v 0.002871463 -5.520999E-05 0.006187005
v -0.001406719 -0.000180811 0.004950678
v -0.002716378 0.000168733 0.00570315
v -0.003420431 0.0009828606 0.006033116
v -0.001993157 9.085931E-05 0.005060167
v -0.001609328 0.0008028198 0.004475988
v -0.00314596 0.001106526 0.005516783
v -0.003805514 0.002102343 0.005999818
v -0.002533805 0.0004149148 0.005240139
v -0.003460097 0.002103055 0.005433239
v -0.004076975 0.003794018 0.005908417
v -0.002251642 0.001001865 0.004706125
v -0.002832973 0.001247743 0.005032848
v -0.0008185797 0.0006743902 0.004300109
v -0.003690846 0.003705989 0.005311838
v -0.004126902 0.005508057 0.0059666
v -0.001739616 0.001865622 0.004180373
v -0.003054772 0.002120283 0.00490813
v -0.002435453 0.001975922 0.004481071
v -0.00374285 0.005328852 0.005343356
v -0.003848126 0.006716516 0.00594065
v -0.003239973 0.003622118 0.004766623
v -0.002580813 0.003544555 0.004292035
v -0.00183801 0.003481623 0.003960335
v -0.0008822712 0.001770535 0.003975479
v -0.003538478 0.006439505 0.005353147
v -0.003388223 0.00786255 0.006058371
v -0.003288517 0.005141146 0.004772049
v -0.002616419 0.005132727 0.004290406
v -0.001860509 0.005115339 0.003955647
v -0.003199063 0.007507923 0.005489868
v -0.002692383 0.008549287 0.005919463
v -0.003179835 0.00614855 0.004806999
v -0.00255733 0.007996747 0.005258893
v -0.001902926 0.009142122 0.005899524
v -0.0025503 0.006283354 0.004390195
v -0.002973744 0.007130933 0.00494964
v -0.001843056 0.008418615 0.005132552
v -0.0009701332 0.009456252 0.005781061
v -0.002382571 0.007396752 0.004655684
v -0.0009379254 0.008662087 0.004975135
v 0 0.009660179 0.005789272
v -0.001841508 0.006390735 0.004090929
v -0.001736366 0.00761648 0.004453958
v 0 0.008814027 0.004952108
v -0.000881959 0.00777769 0.004273564
v -0.0009369936 0.006487712 0.003865434
v -0.000943361 0.005141218 0.003722063
v 0.0009390193 0.008662149 0.00497625
v 0.0009701332 0.009456253 0.005781061
v -0.0009340247 0.003446183 0.00372495
v 0.001843056 0.008418615 0.005132552
v 0.001902926 0.009142122 0.005899523
v 0.002561074 0.007996663 0.005260224
v 0.002692383 0.008549286 0.005919461
v 0.003199063 0.007507922 0.005489868
v 0.003388223 0.00786255 0.00605837
v 0.003538969 0.006441562 0.005354569
v 0.003848126 0.006716516 0.005940649
v 0.003742851 0.005328852 0.005343355
v 0.004126903 0.005508057 0.0059666
v 0.003691767 0.003705547 0.005313493
v 0.004076975 0.003794018 0.005908416
v 0.003460096 0.002103055 0.00543324
v 0.003805514 0.002102343 0.005999818
v 0.003146584 0.001104943 0.005518563
v 0.003420431 0.0009828606 0.006033116
v 0.002716378 0.0001687319 0.00570315
v 0.003179836 0.00614855 0.004806999
v 0.003288517 0.005141146 0.004772048
v 0.003239973 0.003622118 0.004766624
v 0.003054771 0.002120283 0.004908131
v 0.002832974 0.001247743 0.005032848
v 0.002533804 0.0004149151 0.00524014
v 0.001993157 9.085894E-05 0.005060166
v 0.002255326 0.001004174 0.004706842
v 0.002435453 0.001975922 0.004481071
v 0.002582975 0.003545364 0.004291516
v 0.002616419 0.005132727 0.004290405
v 0.001406719 -0.000180811 0.004950678
v 0.001609328 0.00080282 0.004475988
v 0.001739616 0.001865622 0.004180373
v 0.0008171187 0.0006724139 0.004301181
v 0.00183801 0.003481622 0.003960334
v 0 0.0006012228 0.004252114
v 0.0008822713 0.001770536 0.003975479
v 0 0.001709944 0.003912322
v 0.001860509 0.005115338 0.003955647
v 0.0009324594 0.003445666 0.003725664
v 0 0.003423325 0.003645637
v 0.0009433611 0.005141218 0.003722063
v 0 0.005157334 0.003643317
v 0 0.006543924 0.003794665
v 0.0009369937 0.006487712 0.003865435
v 0 0.007870036 0.004227055
v 0.000881959 0.007777691 0.004273564
v 0.001841508 0.006390734 0.004090929
v 0.001736366 0.00761648 0.004453959
v 0.002550301 0.006283354 0.004390194
v 0.002382571 0.007396752 0.004655684
v 0.002973744 0.007130932 0.00494964
vt 0.4350586 0.496582
vt 0.4350586 0.496582
vt 0.4350586 0.496582
vt 0.4350586 0.496582
vt 0.4350586 0.496582
vt 0.4350586 0.496582
vt 0.4350586 0.496582
vt 0.4350586 0.496582
vt 0.4350586 0.496582
vt 0.4350586 0.496582
vt 0.4350586 0.496582
vt 0.4350586 0.496582
vt 0.4350586 0.496582
vt 0.4350586 0.496582
vt 0.4350586 0.496582
vt 0.4350586 0.496582
vt 0.4350586 0.496582
vt 0.4350586 0.496582
vt 0.4350586 0.496582
vt 0.4350586 0.496582
vt 0.4350586 0.496582
vt 0.4350586 0.496582
vt 0.4350586 0.496582
vt 0.4350586 0.496582
vt 0.4350586 0.496582
vt 0.4350586 0.496582
vt 0.4350586 0.496582
vt 0.4350586 0.496582
vt 0.4350586 0.496582
vt 0.4350586 0.496582
vt 0.4350586 0.496582
vt 0.4350586 0.496582
vt 0.4350586 0.496582
vt 0.4350586 0.496582
vt 0.4350586 0.496582
vt 0.4350586 0.496582
vt 0.4350586 0.496582
vt 0.4350586 0.496582
vt 0.4350586 0.496582
vt 0.4350586 0.496582
vt 0.4350586 0.496582
vt 0.4350586 0.496582
vt 0.4350586 0.496582
vt 0.4350586 0.496582
vt 0.4350586 0.496582
vt 0.4350586 0.496582
vt 0.4350586 0.496582
vt 0.4350586 0.496582
vt 0.4350586 0.496582
vt 0.4350586 0.496582
vt 0.4350586 0.496582
vt 0.4350586 0.496582
vt 0.4350586 0.496582
vt 0.4350586 0.496582
vt 0.4350586 0.496582
vt 0.4350586 0.496582
vt 0.4350586 0.496582
vt 0.4350586 0.496582
vt 0.4350586 0.496582
vt 0.4350586 0.496582
vt 0.4350586 0.496582
vt 0.4350586 0.496582
vt 0.4350586 0.496582
vt 0.4350586 0.496582
vt 0.4350586 0.496582
vt 0.4350586 0.496582
vt 0.4350586 0.496582
vt 0.4350586 0.496582
vt 0.4350586 0.496582
vt 0.4350586 0.496582
vt 0.4350586 0.496582
vt 0.4350586 0.496582
vt 0.4350586 0.496582
vt 0.4350586 0.496582
vt 0.4350586 0.496582
vt 0.4350586 0.496582
vt 0.4350586 0.496582
vt 0.4350586 0.496582
vt 0.4350586 0.496582
vt 0.4350586 0.496582
vt 0.4350586 0.496582
vt 0.4350586 0.496582
vt 0.4350586 0.496582
vt 0.4350586 0.496582
vt 0.4350586 0.496582
vt 0.4350586 0.496582
vt 0.4350586 0.496582
vt 0.4350586 0.496582
vt 0.4350586 0.496582
vt 0.4350586 0.496582
vt 0.4350586 0.496582
vt 0.4350586 0.496582
vt 0.4350586 0.496582
vt 0.4350586 0.496582
vt 0.4350586 0.496582
vt 0.4350586 0.496582
vt 0.4350586 0.496582
vt 0.4350586 0.496582
vt 0.4350586 0.496582
vt 0.4350586 0.496582
vt 0.4350586 0.496582
vt 0.4350586 0.496582
vt 0.4350586 0.496582
vt 0.4350586 0.496582
vt 0.4350586 0.496582
vt 0.4350586 0.496582
vt 0.4350586 0.496582
vt 0.4350586 0.496582
vt 0.4350586 0.496582
vt 0.4350586 0.496582
vt 0.4350586 0.496582
vt 0.4350586 0.496582
vt 0.4350586 0.496582
vt 0.4350586 0.496582
vt 0.4350586 0.496582
vt 0.4350586 0.496582
vt 0.4350586 0.496582
vt 0.4350586 0.496582
vt 0.4350586 0.496582
vn -0.2081299 -0.7802734 -0.5898438
vn 0.0002446175 -0.7949219 -0.6069336
vn 0.0002639294 -0.7612305 -0.6484375
vn 0.2081299 -0.7797852 -0.590332
vn -0.204834 -0.7456055 -0.6337891
vn 0.0001739264 -0.6108398 -0.7915039
vn -0.3630371 -0.7470703 -0.5571289
vn 0.204834 -0.7456055 -0.6337891
vn 0.3625488 -0.7470703 -0.5571289
vn -0.3676758 -0.715332 -0.5942383
vn -0.5200195 -0.6801758 -0.5170898
vn 0.3674316 -0.715332 -0.5942383
vn 0.5200195 -0.6801758 -0.5166016
vn -0.1824951 -0.5976563 -0.7807617
vn -0.5161133 -0.652832 -0.5546875
vn -0.6708984 -0.5561523 -0.4907227
vn 0.1824951 -0.5981445 -0.7802734
vn 0.5166016 -0.652832 -0.5541992
vn 0.6713867 -0.5561523 -0.4902344
vn -0.3378906 -0.5830078 -0.7387695
vn -0.6679688 -0.5317383 -0.5205078
vn -0.7832031 -0.3806152 -0.4914551
vn -0.473877 -0.5400391 -0.6958008
vn -0.329834 -0.3754883 -0.8662109
vn -0.7651367 -0.3642578 -0.5307617
vn -0.8300781 -0.2255859 -0.5097656
vn -0.6157227 -0.4741211 -0.6293945
vn -0.8012695 -0.2252197 -0.5541992
vn -0.8461914 -0.07891846 -0.5268555
vn -0.4814453 -0.3544922 -0.8017578
vn -0.6601563 -0.3342285 -0.6723633
vn -0.1727295 -0.3825684 -0.9077148
vn -0.8139648 -0.0871582 -0.5742188
vn -0.8388672 0.09051514 -0.5371094
vn -0.3334961 -0.2182617 -0.9169922
vn -0.684082 -0.2119141 -0.6982422
vn -0.4995117 -0.2143555 -0.8393555
vn -0.8125 0.06646729 -0.5791016
vn -0.8027344 0.2709961 -0.53125
vn -0.6889648 -0.08532715 -0.7197266
vn -0.5014648 -0.08056641 -0.8613281
vn -0.3317871 -0.07824707 -0.9399414
vn -0.1690674 -0.2208252 -0.9604492
vn -0.7910156 0.2298584 -0.5668945
vn -0.6953125 0.4616699 -0.5507813
vn -0.6879883 0.04299927 -0.7241211
vn -0.4946289 0.04415894 -0.8681641
vn -0.3278809 0.0475769 -0.9433594
vn -0.6972656 0.4272461 -0.5751953
vn -0.5449219 0.5878906 -0.5981445
vn -0.675293 0.1761475 -0.7163086
vn -0.5332031 0.5585938 -0.6352539
vn -0.3808594 0.6557617 -0.6518555
vn -0.4814453 0.1843262 -0.8569336
vn -0.6430664 0.3491211 -0.6816406
vn -0.3786621 0.6171875 -0.6894531
vn -0.215332 0.6914063 -0.6894531
vn -0.482666 0.4099121 -0.7739258
vn -0.2095947 0.6474609 -0.7324219
vn 0.0001369715 0.7060547 -0.7080078
vn -0.3266602 0.197876 -0.9243164
vn -0.3400879 0.4443359 -0.8286133
vn 0.000164628 0.6640625 -0.7475586
vn -0.1829834 0.4599609 -0.8691406
vn -0.170166 0.2060547 -0.9633789
vn -0.1671143 0.05166626 -0.984375
vn 0.2097168 0.6474609 -0.7324219
vn 0.215332 0.6914063 -0.6899414
vn -0.1679688 -0.07696533 -0.9829102
vn 0.3781738 0.6176758 -0.6894531
vn 0.3806152 0.6557617 -0.6518555
vn 0.5336914 0.5585938 -0.6352539
vn 0.5449219 0.5883789 -0.5976563
vn 0.6977539 0.427002 -0.5751953
vn 0.6958008 0.4616699 -0.550293
vn 0.7910156 0.2301025 -0.5668945
vn 0.8027344 0.2709961 -0.53125
vn 0.8125 0.06646729 -0.5791016
vn 0.8388672 0.09051514 -0.5371094
vn 0.8139648 -0.08721924 -0.5742188
vn 0.8461914 -0.07885742 -0.5268555
vn 0.8012695 -0.2252197 -0.5541992
vn 0.8300781 -0.2255859 -0.5097656
vn 0.7651367 -0.364502 -0.5307617
vn 0.7836914 -0.3806152 -0.4912109
vn 0.668457 -0.5317383 -0.5205078
vn 0.675293 0.1761475 -0.7163086
vn 0.6884766 0.04312134 -0.7241211
vn 0.6894531 -0.08526611 -0.7192383
vn 0.684082 -0.2120361 -0.6977539
vn 0.6606445 -0.3339844 -0.6723633
vn 0.6157227 -0.4741211 -0.6293945
vn 0.473877 -0.5400391 -0.6958008
vn 0.4816895 -0.354248 -0.8012695
vn 0.4995117 -0.2143555 -0.8393555
vn 0.5014648 -0.08050537 -0.8613281
vn 0.4946289 0.04440308 -0.8676758
vn 0.3378906 -0.5830078 -0.7387695
vn 0.3295898 -0.3754883 -0.8662109
vn 0.3330078 -0.2182617 -0.9174805
vn 0.1726074 -0.3828125 -0.9077148
vn 0.3312988 -0.07824707 -0.9404297
vn 0.0001038909 -0.3881836 -0.9213867
vn 0.1690674 -0.2208252 -0.9604492
vn 0.0001899004 -0.2242432 -0.9746094
vn 0.3276367 0.0475769 -0.9433594
vn 0.1678467 -0.07702637 -0.9829102
vn 0.0002129078 -0.07800293 -0.9970703
vn 0.1671143 0.05151367 -0.984375
vn 0.0001114011 0.05328369 -0.9985352
vn 0 0.2113037 -0.9775391
vn 0.170166 0.2060547 -0.9633789
vn 0.0001094341 0.473877 -0.8808594
vn 0.1829834 0.4599609 -0.8686523
vn 0.3266602 0.197876 -0.9243164
vn 0.3398438 0.4443359 -0.8291016
vn 0.4814453 0.1843262 -0.8569336
vn 0.482666 0.409668 -0.7744141
vn 0.6430664 0.3486328 -0.6816406
g Cow_Udder_0
f 3/3/3 2/2/2 1/1/1
f 4/4/4 2/2/2 3/3/3
f 5/5/5 3/3/3 1/1/1
f 6/6/6 3/3/3 5/5/5
f 5/5/5 1/1/1 7/7/7
f 8/8/8 4/4/4 3/3/3
f 8/8/8 3/3/3 6/6/6
f 9/9/9 4/4/4 8/8/8
f 10/10/10 5/5/5 7/7/7
f 10/10/10 7/7/7 11/11/11
f 12/12/12 9/9/9 8/8/8
f 9/9/9 12/12/12 13/13/13
f 14/14/14 6/6/6 5/5/5
f 14/14/14 5/5/5 10/10/10
f 15/15/15 10/10/10 11/11/11
f 15/15/15 11/11/11 16/16/16
f 17/17/17 8/8/8 6/6/6
f 12/12/12 8/8/8 17/17/17
f 12/12/12 18/18/18 13/13/13
f 13/13/13 18/18/18 19/19/19
f 20/20/20 14/14/14 10/10/10
f 20/20/20 10/10/10 15/15/15
f 21/21/21 15/15/15 16/16/16
f 21/21/21 16/16/16 22/22/22
f 23/23/23 20/20/20 15/15/15
f 23/23/23 15/15/15 21/21/21
f 20/20/20 24/24/24 14/14/14
f 24/24/24 20/20/20 23/23/23
f 25/25/25 21/21/21 22/22/22
f 25/25/25 22/22/22 26/26/26
f 27/27/27 23/23/23 21/21/21
f 27/27/27 21/21/21 25/25/25
f 28/28/28 25/25/25 26/26/26
f 28/28/28 26/26/26 29/29/29
f 30/30/30 23/23/23 27/27/27
f 30/30/30 24/24/24 23/23/23
f 31/31/31 27/27/27 25/25/25
f 31/31/31 25/25/25 28/28/28
f 31/31/31 30/30/30 27/27/27
f 24/24/24 32/32/32 14/14/14
f 14/14/14 32/32/32 6/6/6
f 33/33/33 28/28/28 29/29/29
f 33/33/33 29/29/29 34/34/34
f 35/35/35 24/24/24 30/30/30
f 24/24/24 35/35/35 32/32/32
f 36/36/36 31/31/31 28/28/28
f 36/36/36 28/28/28 33/33/33
f 37/37/37 30/30/30 31/31/31
f 37/37/37 35/35/35 30/30/30
f 36/36/36 37/37/37 31/31/31
f 38/38/38 33/33/33 34/34/34
f 38/38/38 34/34/34 39/39/39
f 40/40/40 36/36/36 33/33/33
f 40/40/40 33/33/33 38/38/38
f 41/41/41 37/37/37 36/36/36
f 40/40/40 41/41/41 36/36/36
f 42/42/42 35/35/35 37/37/37
f 41/41/41 42/42/42 37/37/37
f 35/35/35 43/43/43 32/32/32
f 35/35/35 42/42/42 43/43/43
f 44/44/44 38/38/38 39/39/39
f 44/44/44 39/39/39 45/45/45
f 46/46/46 40/40/40 38/38/38
f 46/46/46 38/38/38 44/44/44
f 47/47/47 41/41/41 40/40/40
f 46/46/46 47/47/47 40/40/40
f 48/48/48 42/42/42 41/41/41
f 47/47/47 48/48/48 41/41/41
f 49/49/49 44/44/44 45/45/45
f 49/49/49 45/45/45 50/50/50
f 51/51/51 46/46/46 44/44/44
f 46/46/46 51/51/51 47/47/47
f 51/51/51 44/44/44 49/49/49
f 52/52/52 49/49/49 50/50/50
f 52/52/52 50/50/50 53/53/53
f 51/51/51 54/54/54 47/47/47
f 47/47/47 54/54/54 48/48/48
f 55/55/55 51/51/51 49/49/49
f 55/55/55 49/49/49 52/52/52
f 51/51/51 55/55/55 54/54/54
f 56/56/56 52/52/52 53/53/53
f 56/56/56 53/53/53 57/57/57
f 58/58/58 55/55/55 52/52/52
f 55/55/55 58/58/58 54/54/54
f 58/58/58 52/52/52 56/56/56
f 59/59/59 56/56/56 57/57/57
f 59/59/59 57/57/57 60/60/60
f 54/54/54 58/58/58 61/61/61
f 54/54/54 61/61/61 48/48/48
f 62/62/62 58/58/58 56/56/56
f 62/62/62 56/56/56 59/59/59
f 58/58/58 62/62/62 61/61/61
f 63/63/63 59/59/59 60/60/60
f 64/64/64 62/62/62 59/59/59
f 64/64/64 59/59/59 63/63/63
f 61/61/61 62/62/62 65/65/65
f 62/62/62 64/64/64 65/65/65
f 48/48/48 61/61/61 66/66/66
f 61/61/61 65/65/65 66/66/66
f 63/63/63 60/60/60 67/67/67
f 60/60/60 68/68/68 67/67/67
f 48/48/48 66/66/66 69/69/69
f 42/42/42 48/48/48 69/69/69
f 42/42/42 69/69/69 43/43/43
f 67/67/67 68/68/68 70/70/70
f 68/68/68 71/71/71 70/70/70
f 72/72/72 70/70/70 71/71/71
f 73/73/73 72/72/72 71/71/71
f 74/74/74 72/72/72 73/73/73
f 75/75/75 74/74/74 73/73/73
f 74/74/74 75/75/75 76/76/76
f 75/75/75 77/77/77 76/76/76
f 76/76/76 77/77/77 78/78/78
f 77/77/77 79/79/79 78/78/78
f 80/80/80 78/78/78 79/79/79
f 81/81/81 80/80/80 79/79/79
f 82/82/82 80/80/80 81/81/81
f 83/83/83 82/82/82 81/81/81
f 84/84/84 82/82/82 83/83/83
f 85/85/85 84/84/84 83/83/83
f 86/86/86 84/84/84 85/85/85
f 19/19/19 86/86/86 85/85/85
f 18/18/18 86/86/86 19/19/19
f 74/74/74 76/76/76 87/87/87
f 76/76/76 78/78/78 88/88/88
f 87/87/87 76/76/76 88/88/88
f 80/80/80 89/89/89 78/78/78
f 89/89/89 88/88/88 78/78/78
f 82/82/82 90/90/90 80/80/80
f 90/90/90 89/89/89 80/80/80
f 84/84/84 91/91/91 82/82/82
f 91/91/91 90/90/90 82/82/82
f 86/86/86 92/92/92 84/84/84
f 92/92/92 91/91/91 84/84/84
f 18/18/18 93/93/93 86/86/86
f 93/93/93 92/92/92 86/86/86
f 94/94/94 91/91/91 92/92/92
f 93/93/93 94/94/94 92/92/92
f 95/95/95 90/90/90 91/91/91
f 94/94/94 95/95/95 91/91/91
f 96/96/96 89/89/89 90/90/90
f 95/95/95 96/96/96 90/90/90
f 97/97/97 88/88/88 89/89/89
f 96/96/96 97/97/97 89/89/89
f 98/98/98 93/93/93 18/18/18
f 12/12/12 98/98/98 18/18/18
f 98/98/98 12/12/12 17/17/17
f 98/98/98 99/99/99 93/93/93
f 99/99/99 94/94/94 93/93/93
f 98/98/98 17/17/17 99/99/99
f 100/100/100 95/95/95 94/94/94
f 99/99/99 100/100/100 94/94/94
f 17/17/17 101/101/101 99/99/99
f 99/99/99 101/101/101 100/100/100
f 17/17/17 6/6/6 101/101/101
f 102/102/102 96/96/96 95/95/95
f 100/100/100 102/102/102 95/95/95
f 6/6/6 103/103/103 101/101/101
f 32/32/32 103/103/103 6/6/6
f 32/32/32 43/43/43 103/103/103
f 101/101/101 104/104/104 100/100/100
f 101/101/101 103/103/103 104/104/104
f 100/100/100 104/104/104 102/102/102
f 43/43/43 105/105/105 103/103/103
f 103/103/103 105/105/105 104/104/104
f 43/43/43 69/69/69 105/105/105
f 102/102/102 106/106/106 96/96/96
f 106/106/106 97/97/97 96/96/96
f 104/104/104 107/107/107 102/102/102
f 104/104/104 105/105/105 107/107/107
f 102/102/102 107/107/107 106/106/106
f 69/69/69 108/108/108 105/105/105
f 105/105/105 108/108/108 107/107/107
f 69/69/69 66/66/66 108/108/108
f 107/107/107 108/108/108 109/109/109
f 107/107/107 109/109/109 106/106/106
f 66/66/66 110/110/110 108/108/108
f 108/108/108 110/110/110 109/109/109
f 66/66/66 65/65/65 110/110/110
f 65/65/65 111/111/111 110/110/110
f 110/110/110 111/111/111 109/109/109
f 65/65/65 64/64/64 111/111/111
f 109/109/109 112/112/112 106/106/106
f 111/111/111 112/112/112 109/109/109
f 64/64/64 113/113/113 111/111/111
f 111/111/111 113/113/113 112/112/112
f 113/113/113 64/64/64 63/63/63
f 113/113/113 63/63/63 114/114/114
f 113/113/113 114/114/114 112/112/112
f 63/63/63 67/67/67 114/114/114
f 112/112/112 115/115/115 106/106/106
f 112/112/112 114/114/114 115/115/115
f 106/106/106 115/115/115 97/97/97
f 114/114/114 67/67/67 116/116/116
f 114/114/114 116/116/116 115/115/115
f 67/67/67 70/70/70 116/116/116
f 115/115/115 117/117/117 97/97/97
f 115/115/115 116/116/116 117/117/117
f 97/97/97 117/117/117 88/88/88
f 117/117/117 87/87/87 88/88/88
f 118/118/118 116/116/116 70/70/70
f 116/116/116 118/118/118 117/117/117
f 117/117/117 118/118/118 87/87/87
f 72/72/72 118/118/118 70/70/70
f 118/118/118 119/119/119 87/87/87
f 119/119/119 118/118/118 72/72/72
f 119/119/119 74/74/74 87/87/87
f 74/74/74 119/119/119 72/72/72
