g Diamond_2
v 1.185 2.631228E-16 2.631229E-16
v 0.9586848 5.258626E-08 -0.6965261
v 2.664535E-16 -1.2 -9.059749E-08
v 2.664535E-16 -1.2 -9.059749E-08
v 0.9586852 -5.258622E-08 0.6965256
v 1.185 2.631228E-16 2.631229E-16
v 2.664535E-16 -1.2 -9.059749E-08
v 0.3661854 -8.508628E-08 1.127002
v 0.9586852 -5.258622E-08 0.6965256
v 2.664535E-16 -1.2 -9.059749E-08
v -0.3661851 -8.508628E-08 1.127002
v 0.3661854 -8.508628E-08 1.127002
v 2.664535E-16 -1.2 -9.059749E-08
v -0.9586853 -5.258619E-08 0.6965252
v -0.3661851 -8.508628E-08 1.127002
v 2.664535E-16 -1.2 -9.059749E-08
v -1.185 -8.084403E-15 1.03596E-07
v -0.9586853 -5.258619E-08 0.6965252
v 2.664535E-16 -1.2 -9.059749E-08
v -0.9586853 5.258619E-08 -0.6965252
v -1.185 -8.084403E-15 1.03596E-07
v 2.664535E-16 -1.2 -9.059749E-08
v -0.3661851 8.508628E-08 -1.127002
v -0.9586853 5.258619E-08 -0.6965252
v 2.664535E-16 -1.2 -9.059749E-08
v 0.3661854 8.508628E-08 -1.127002
v -0.3661851 8.508628E-08 -1.127002
v 2.664535E-16 -1.2 -9.059749E-08
v 0.9586848 5.258626E-08 -0.6965261
v 0.3661854 8.508628E-08 -1.127002
v 0.8034373 0.57 -0.2924272
v 0.4781096 0.5700001 -0.7088274
v 0.9586848 5.258626E-08 -0.6965261
v 1.185 2.631228E-16 2.631229E-16
v 0.9586852 -5.258622E-08 0.6965256
v 0.8218789 0.57 0.2356701
v 0.9586852 -5.258622E-08 0.6965256
v 0.3661854 -8.508628E-08 1.127002
v 0.5263908 0.5699999 0.6737493
v 0.3661854 -8.508628E-08 1.127002
v -0.3661851 -8.508628E-08 1.127002
v 0.02983906 0.5699999 0.8544793
v -0.3661851 -8.508628E-08 1.127002
v -0.9586853 -5.258619E-08 0.6965252
v -0.4781102 0.5699999 0.7088271
v -0.9586853 -5.258619E-08 0.6965252
v -1.185 -8.084403E-15 1.03596E-07
v -0.8034373 0.57 0.2924273
v -1.185 -8.084403E-15 1.03596E-07
v -0.9586853 5.258619E-08 -0.6965252
v -0.8218788 0.5699999 -0.2356697
v -0.9586853 5.258619E-08 -0.6965252
v -0.3661851 8.508628E-08 -1.127002
v -0.5263906 0.5700001 -0.6737491
v -0.3661851 8.508628E-08 -1.127002
v 0.3661854 8.508628E-08 -1.127002
v -0.0298389 0.5700001 -0.8544793
v 0.3661854 8.508628E-08 -1.127002
v 0.9586848 5.258626E-08 -0.6965261
v 0.4781096 0.5700001 -0.7088274
v 0.8034373 0.57 -0.2924272
v 0.9586848 5.258626E-08 -0.6965261
v 1.185 2.631228E-16 2.631229E-16
v 1.185 2.631228E-16 2.631229E-16
v 0.8218789 0.57 0.2356701
v 0.8034373 0.57 -0.2924272
v 0.9586852 -5.258622E-08 0.6965256
v 0.5263908 0.5699999 0.6737493
v 0.8218789 0.57 0.2356701
v 0.3661854 -8.508628E-08 1.127002
v 0.02983906 0.5699999 0.8544793
v 0.5263908 0.5699999 0.6737493
v -0.3661851 -8.508628E-08 1.127002
v -0.4781102 0.5699999 0.7088271
v 0.02983906 0.5699999 0.8544793
v -0.9586853 -5.258619E-08 0.6965252
v -0.8034373 0.57 0.2924273
v -0.4781102 0.5699999 0.7088271
v -1.185 -8.084403E-15 1.03596E-07
v -0.8218788 0.5699999 -0.2356697
v -0.8034373 0.57 0.2924273
v -0.9586853 5.258619E-08 -0.6965252
v -0.5263906 0.5700001 -0.6737491
v -0.8218788 0.5699999 -0.2356697
v -0.3661851 8.508628E-08 -1.127002
v -0.0298389 0.5700001 -0.8544793
v -0.5263906 0.5700001 -0.6737491
v 0.3661854 8.508628E-08 -1.127002
v 0.4781096 0.5700001 -0.7088274
v -0.0298389 0.5700001 -0.8544793
v -1.265654E-16 0.57 4.30338E-08
v 0.4781096 0.5700001 -0.7088274
v 0.8034373 0.57 -0.2924272
v 0.8218789 0.57 0.2356701
v -0.0298389 0.5700001 -0.8544793
v 0.5263908 0.5699999 0.6737493
v -0.5263906 0.5700001 -0.6737491
v 0.02983906 0.5699999 0.8544793
v -0.8218788 0.5699999 -0.2356697
v -0.4781102 0.5699999 0.7088271
v -0.8034373 0.57 0.2924273
vn 0.6933594 -0.6845703 -0.2252197
vn 0.6933594 -0.6845703 -0.2252197
vn 0.6933594 -0.6845703 -0.2252197
vn 0.6933594 -0.6845703 0.2252197
vn 0.6933594 -0.6845703 0.2252197
vn 0.6933594 -0.6845703 0.2252197
vn 0.4284668 -0.6845703 0.5898438
vn 0.4284668 -0.6845703 0.5898438
vn 0.4284668 -0.6845703 0.5898438
vn 0 -0.6845703 0.7290039
vn 0 -0.6845703 0.7290039
vn 0 -0.6845703 0.7290039
vn -0.4284668 -0.6845703 0.5898438
vn -0.4284668 -0.6845703 0.5898438
vn -0.4284668 -0.6845703 0.5898438
vn -0.6933594 -0.6845703 0.2252197
vn -0.6933594 -0.6845703 0.2252197
vn -0.6933594 -0.6845703 0.2252197
vn -0.6933594 -0.6845703 -0.2252197
vn -0.6933594 -0.6845703 -0.2252197
vn -0.6933594 -0.6845703 -0.2252197
vn -0.4284668 -0.6845703 -0.5898438
vn -0.4284668 -0.6845703 -0.5898438
vn -0.4284668 -0.6845703 -0.5898438
vn 0 -0.6845703 -0.7290039
vn 0 -0.6845703 -0.7290039
vn 0 -0.6845703 -0.7290039
vn 0.4284668 -0.6845703 -0.5898438
vn 0.4284668 -0.6845703 -0.5898438
vn 0.4284668 -0.6845703 -0.5898438
vn 0.6601563 0.5454102 -0.5161133
vn 0.6601563 0.5454102 -0.5161133
vn 0.6601563 0.5454102 -0.5161133
vn 0.8579102 0.4313965 0.2788086
vn 0.8579102 0.4313965 0.2788086
vn 0.8579102 0.4313965 0.2788086
vn 0.5302734 0.4313965 0.7299805
vn 0.5302734 0.4313965 0.7299805
vn 0.5302734 0.4313965 0.7299805
vn 0 0.4313965 0.9023438
vn 0 0.4313965 0.9023438
vn 0 0.4313965 0.9023438
vn -0.5302734 0.4313965 0.7299805
vn -0.5302734 0.4313965 0.7299805
vn -0.5302734 0.4313965 0.7299805
vn -0.8579102 0.4313965 0.2788086
vn -0.8579102 0.4313965 0.2788086
vn -0.8579102 0.4313965 0.2788086
vn -0.8579102 0.4313965 -0.2788086
vn -0.8579102 0.4313965 -0.2788086
vn -0.8579102 0.4313965 -0.2788086
vn -0.5302734 0.4313965 -0.7299805
vn -0.5302734 0.4313965 -0.7299805
vn -0.5302734 0.4313965 -0.7299805
vn 0 0.4313965 -0.9023438
vn 0 0.4313965 -0.9023438
vn 0 0.4313965 -0.9023438
vn 0.5302734 0.4313965 -0.7299805
vn 0.5302734 0.4313965 -0.7299805
vn 0.5302734 0.4313965 -0.7299805
vn 0.8579102 0.4313965 -0.2788086
vn 0.8579102 0.4313965 -0.2788086
vn 0.8579102 0.4313965 -0.2788086
vn 0.8374023 0.5454102 -0.0292511
vn 0.8374023 0.5454102 -0.0292511
vn 0.8374023 0.5454102 -0.0292511
vn 0.6948242 0.5454102 0.4685059
vn 0.6948242 0.5454102 0.4685059
vn 0.6948242 0.5454102 0.4685059
vn 0.2866211 0.5454102 0.7875977
vn 0.2866211 0.5454102 0.7875977
vn 0.2866211 0.5454102 0.7875977
vn -0.230957 0.5454102 0.8056641
vn -0.230957 0.5454102 0.8056641
vn -0.230957 0.5454102 0.8056641
vn -0.6601563 0.5454102 0.5161133
vn -0.6601563 0.5454102 0.5161133
vn -0.6601563 0.5454102 0.5161133
vn -0.8374023 0.5454102 0.0292511
vn -0.8374023 0.5454102 0.0292511
vn -0.8374023 0.5454102 0.0292511
vn -0.6948242 0.5454102 -0.4685059
vn -0.6948242 0.5454102 -0.4685059
vn -0.6948242 0.5454102 -0.4685059
vn -0.2866211 0.5454102 -0.7875977
vn -0.2866211 0.5454102 -0.7875977
vn -0.2866211 0.5454102 -0.7875977
vn 0.230957 0.5454102 -0.8056641
vn 0.230957 0.5454102 -0.8056641
vn 0.230957 0.5454102 -0.8056641
vn 0 1 0
vn 0 1 0
vn 0 1 0
vn 0 1 0
vn 0 1 0
vn 0 1 0
vn 0 1 0
vn 0 1 0
vn 0 1 0
vn 0 1 0
vn 0 1 0
g Diamond_2_0
f 3/3/3 2/2/2 1/1/1
f 6/6/6 5/5/5 4/4/4
f 9/9/9 8/8/8 7/7/7
f 12/12/12 11/11/11 10/10/10
f 15/15/15 14/14/14 13/13/13
f 18/18/18 17/17/17 16/16/16
f 21/21/21 20/20/20 19/19/19
f 24/24/24 23/23/23 22/22/22
f 27/27/27 26/26/26 25/25/25
f 30/30/30 29/29/29 28/28/28
f 33/33/33 32/32/32 31/31/31
f 36/36/36 35/35/35 34/34/34
f 39/39/39 38/38/38 37/37/37
f 42/42/42 41/41/41 40/40/40
f 45/45/45 44/44/44 43/43/43
f 48/48/48 47/47/47 46/46/46
f 51/51/51 50/50/50 49/49/49
f 54/54/54 53/53/53 52/52/52
f 57/57/57 56/56/56 55/55/55
f 60/60/60 59/59/59 58/58/58
f 63/63/63 62/62/62 61/61/61
f 66/66/66 65/65/65 64/64/64
f 69/69/69 68/68/68 67/67/67
f 72/72/72 71/71/71 70/70/70
f 75/75/75 74/74/74 73/73/73
f 78/78/78 77/77/77 76/76/76
f 81/81/81 80/80/80 79/79/79
f 84/84/84 83/83/83 82/82/82
f 87/87/87 86/86/86 85/85/85
f 90/90/90 89/89/89 88/88/88
f 93/93/93 92/92/92 91/91/91
f 91/91/91 94/94/94 93/93/93
f 91/91/91 92/92/92 95/95/95
f 91/91/91 96/96/96 94/94/94
f 91/91/91 95/95/95 97/97/97
f 91/91/91 98/98/98 96/96/96
f 91/91/91 97/97/97 99/99/99
f 91/91/91 100/100/100 98/98/98
f 91/91/91 99/99/99 101/101/101
f 91/91/91 101/101/101 100/100/100
