g Egg
v 4.270873E-09 0.4008857 -0.1175055
v 0.05875275 0.4008857 -0.1017628
v -4.015265E-08 0.4480351 1.064357E-08
v -1.827119E-17 0.299408 -0.2171219
v 0.1085609 0.299408 -0.1880331
v 0.1017627 0.4008857 -0.05875277
v -4.015265E-08 0.4480351 1.064357E-08
v -0.1085609 0.299408 -0.1880331
v -0.05875275 0.4008857 -0.1017628
v -4.015265E-08 0.4480351 1.064357E-08
v 1.342188E-08 0.1533404 -0.2836835
v -0.1418417 0.1533404 -0.2456771
v 0.1880331 0.299408 -0.108561
v 0.1418417 0.1533404 -0.2456771
v 0.1175055 0.4008857 -1.712514E-08
v -4.015265E-08 0.4480351 1.064357E-08
v -0.1880331 0.299408 -0.108561
v -0.2456771 0.1533404 -0.1418418
v -0.1017627 0.4008857 -0.05875277
v -4.015265E-08 0.4480351 1.064357E-08
v -0.2171219 0.299408 -4.7664E-08
v -0.1175055 0.4008857 -2.170064E-08
v -4.015265E-08 0.4480351 1.064357E-08
v -0.2836834 0.1533404 -4.954079E-08
v -0.3070567 0.001694034 -7.014078E-08
v -0.2659189 0.001694082 -0.1535284
v -0.2836834 -0.1388979 -7.160417E-08
v -0.1535283 0.001694072 -0.2659189
v -0.2456771 -0.1388979 -0.1418418
v -0.2171219 -0.2526881 -8.93461E-08
v 2.257288E-08 0.001694094 -0.3070567
v -0.1880331 -0.2526881 -0.108561
v -0.1175055 -0.3269954 -7.665413E-08
v -0.1418417 -0.1388979 -0.2456771
v -0.1017627 -0.3269954 -0.05875282
v 7.859418E-17 -0.3539566 -7.308726E-08
v -0.1085609 -0.2526881 -0.1880331
v 9.383191E-17 -0.1388979 -0.2836835
v 0.1535284 0.001694091 -0.265919
v -0.05875275 -0.3269954 -0.1017628
v 7.859418E-17 -0.3539566 -7.308726E-08
v 1.043188E-16 -0.2526881 -0.2171219
v 0.2456771 0.1533404 -0.1418417
v 0.1418417 -0.1388979 -0.2456771
v 9.869905E-17 -0.3269954 -0.1175056
v 7.859418E-17 -0.3539566 -7.308726E-08
v 0.1085609 -0.2526881 -0.1880331
v 0.2659189 0.001694046 -0.1535284
v 0.2171219 0.299408 -2.021098E-08
v 0.05875276 -0.3269954 -0.1017628
v 7.859418E-17 -0.3539566 -7.308726E-08
v 0.2456771 -0.1388979 -0.1418418
v 0.2836834 0.1533404 -2.208778E-08
v 0.1017627 0.4008857 0.05875273
v -4.015265E-08 0.4480351 1.064357E-08
v 0.1880331 -0.2526881 -0.108561
v 0.3070567 0.001694034 -4.268776E-08
v 0.1880331 0.299408 0.1085609
v 0.1017628 -0.3269954 -0.05875283
v 7.859418E-17 -0.3539566 -7.308726E-08
v 0.2836834 -0.1388979 -4.415115E-08
v 0.2456771 0.1533404 0.1418417
v 0.05875275 0.4008857 0.1017627
v -4.015265E-08 0.4480351 1.064357E-08
v 0.2171219 -0.2526881 -6.189308E-08
v 0.2659189 0.001694022 0.1535283
v 0.1085609 0.299408 0.1880331
v 0.1175055 -0.3269954 -7.207863E-08
v 7.859418E-17 -0.3539566 -7.308726E-08
v 0.2456771 -0.1388979 0.1418417
v 0.1418417 0.1533404 0.245677
v -3.046297E-10 0.4008857 0.1175055
v -4.015265E-08 0.4480351 1.064357E-08
v 0.1880331 -0.2526881 0.1085609
v 0.1535283 0.001694051 0.2659189
v -1.403114E-08 0.299408 0.2171219
v 0.1017627 -0.3269954 0.05875268
v 7.859418E-17 -0.3539566 -7.308726E-08
v 0.1418417 -0.1388979 0.245677
v -1.403114E-08 0.1533404 0.2836834
v -0.05875275 0.4008857 0.1017627
v -4.015265E-08 0.4480351 1.064357E-08
v 0.1085609 -0.2526881 0.188033
v -1.403114E-08 0.001694048 0.3070567
v -0.108561 0.299408 0.1880331
v 0.05875275 -0.3269954 0.1017627
v 7.859418E-17 -0.3539566 -7.308726E-08
v -1.403114E-08 -0.1388979 0.2836834
v -0.1418417 0.1533404 0.245677
v -0.1017627 0.4008857 0.05875273
v -4.015265E-08 0.4480351 1.064357E-08
v -1.403114E-08 -0.2526881 0.2171218
v -0.1535284 0.001694051 0.2659189
v -0.1880331 0.299408 0.1085609
v -0.1175055 0.4008857 -2.170064E-08
v -4.015265E-08 0.4480351 1.064357E-08
v -0.2171219 0.299408 -4.7664E-08
v -0.2456771 0.1533404 0.1418417
v -0.2836834 0.1533404 -4.954079E-08
v -0.2659189 0.001694022 0.1535283
v -0.3070567 0.001694034 -7.014078E-08
v -0.1418417 -0.1388979 0.245677
v -0.2456771 -0.1388979 0.1418417
v -0.2836834 -0.1388979 -7.160417E-08
v -0.108561 -0.2526881 0.188033
v -0.1880331 -0.2526881 0.1085609
v -0.2171219 -0.2526881 -8.93461E-08
v -4.880132E-09 -0.3269954 0.1175054
v 7.859418E-17 -0.3539566 -7.308726E-08
v -0.05875275 -0.3269954 0.1017627
v 7.859418E-17 -0.3539566 -7.308726E-08
v -0.1017627 -0.3269954 0.05875267
v 7.859418E-17 -0.3539566 -7.308726E-08
v -0.1175055 -0.3269954 -7.665413E-08
v 7.859418E-17 -0.3539566 -7.308726E-08
vt 0.75 0.875
vt 0.6665039 0.875
vt 0.7084961 1
vt 0.75 0.75
vt 0.6665039 0.75
vt 0.5834961 0.875
vt 0.625 1
vt 0.8334961 0.75
vt 0.8334961 0.875
vt 0.7915039 1
vt 0.75 0.625
vt 0.8334961 0.625
vt 0.5834961 0.75
vt 0.6665039 0.625
vt 0.5 0.875
vt 0.5415039 1
vt 0.9165039 0.75
vt 0.9165039 0.625
vt 0.9165039 0.875
vt 0.875 1
vt 1 0.75
vt 1 0.875
vt 0.9584961 1
vt 1 0.625
vt 1 0.5
vt 0.9165039 0.5
vt 1 0.375
vt 0.8334961 0.5
vt 0.9165039 0.375
vt 1 0.25
vt 0.75 0.5
vt 0.9165039 0.25
vt 1 0.125
vt 0.8334961 0.375
vt 0.9165039 0.125
vt 0.9584961 0
vt 0.8334961 0.25
vt 0.75 0.375
vt 0.6665039 0.5
vt 0.8334961 0.125
vt 0.875 0
vt 0.75 0.25
vt 0.5834961 0.625
vt 0.6665039 0.375
vt 0.75 0.125
vt 0.7915039 0
vt 0.6665039 0.25
vt 0.5834961 0.5
vt 0.5 0.75
vt 0.6665039 0.125
vt 0.7084961 0
vt 0.5834961 0.375
vt 0.5 0.625
vt 0.416748 0.875
vt 0.458252 1
vt 0.5834961 0.25
vt 0.5 0.5
vt 0.416748 0.75
vt 0.5834961 0.125
vt 0.625 0
vt 0.5 0.375
vt 0.416748 0.625
vt 0.333252 0.875
vt 0.375 1
vt 0.5 0.25
vt 0.416748 0.5
vt 0.333252 0.75
vt 0.5 0.125
vt 0.5415039 0
vt 0.416748 0.375
vt 0.333252 0.625
vt 0.25 0.875
vt 0.291748 1
vt 0.416748 0.25
vt 0.333252 0.5
vt 0.25 0.75
vt 0.416748 0.125
vt 0.458252 0
vt 0.333252 0.375
vt 0.25 0.625
vt 0.166626 0.875
vt 0.208374 1
vt 0.333252 0.25
vt 0.25 0.5
vt 0.166626 0.75
vt 0.333252 0.125
vt 0.375 0
vt 0.25 0.375
vt 0.166626 0.625
vt 0.08331299 0.875
vt 0.125 1
vt 0.25 0.25
vt 0.166626 0.5
vt 0.08331299 0.75
vt 0 0.875
vt 0.04165649 1
vt 0 0.75
vt 0.08331299 0.625
vt 0 0.625
vt 0.08331299 0.5
vt 0 0.5
vt 0.166626 0.375
vt 0.08331299 0.375
vt 0 0.375
vt 0.166626 0.25
vt 0.08331299 0.25
vt 0 0.25
vt 0.25 0.125
vt 0.291748 0
vt 0.166626 0.125
vt 0.208374 0
vt 0.08331299 0.125
vt 0.125 0
vt 0 0.125
vt 0.04165649 0
vn 0 0.8164063 -0.5776367
vn 0.2888184 0.8164063 -0.5
vn 0 1 0
vn 0 0.5532227 -0.8330078
vn 0.4165039 0.5532227 -0.7216797
vn 0.5 0.8164063 -0.2888184
vn 0 1 0
vn -0.4165039 0.5532227 -0.7216797
vn -0.2888184 0.8164063 -0.5
vn 0 1 0
vn 0 0.2802734 -0.9599609
vn -0.4799805 0.2802734 -0.831543
vn 0.7216797 0.5532227 -0.4165039
vn 0.4799805 0.2802734 -0.831543
vn 0.5776367 0.8164063 0
vn 0 1 0
vn -0.7216797 0.5532227 -0.4165039
vn -0.831543 0.2802734 -0.4799805
vn -0.5 0.8164063 -0.2888184
vn 0 1 0
vn -0.8330078 0.5532227 0
vn -0.5776367 0.8164063 0
vn 0 1 0
vn -0.9599609 0.2802734 0
vn -1 -0.005737305 0
vn -0.8662109 -0.005737305 -0.5
vn -0.9438477 -0.3308105 0
vn -0.5 -0.005737305 -0.8662109
vn -0.8173828 -0.3308105 -0.4719238
vn -0.7592773 -0.6503906 0
vn 0 -0.005737305 -1
vn -0.6577148 -0.6503906 -0.3796387
vn -0.4472656 -0.8945313 0
vn -0.4719238 -0.3308105 -0.8173828
vn -0.387207 -0.8945313 -0.2236328
vn 0 -1 0
vn -0.3796387 -0.6503906 -0.6577148
vn 0 -0.3308105 -0.9438477
vn 0.5 -0.005737305 -0.8662109
vn -0.2236328 -0.8945313 -0.387207
vn 0 -1 0
vn 0 -0.6503906 -0.7592773
vn 0.831543 0.2802734 -0.4799805
vn 0.4719238 -0.3308105 -0.8173828
vn 0 -0.8945313 -0.4472656
vn 0 -1 0
vn 0.3796387 -0.6503906 -0.6577148
vn 0.8662109 -0.005737305 -0.5
vn 0.8330078 0.5532227 0
vn 0.2236328 -0.8945313 -0.387207
vn 0 -1 0
vn 0.8173828 -0.3308105 -0.4719238
vn 0.9599609 0.2802734 0
vn 0.5 0.8164063 0.2888184
vn 0 1 0
vn 0.6577148 -0.6503906 -0.3796387
vn 1 -0.005737305 0
vn 0.7216797 0.5532227 0.4165039
vn 0.387207 -0.8945313 -0.2236328
vn 0 -1 0
vn 0.9438477 -0.3308105 0
vn 0.831543 0.2802734 0.4799805
vn 0.2888184 0.8164063 0.5
vn 0 1 0
vn 0.7592773 -0.6503906 0
vn 0.8662109 -0.005737305 0.5
vn 0.4165039 0.5532227 0.7216797
vn 0.4472656 -0.8945313 0
vn 0 -1 0
vn 0.8173828 -0.3308105 0.4719238
vn 0.4799805 0.2802734 0.831543
vn 0 0.8164063 0.5776367
vn 0 1 0
vn 0.6577148 -0.6503906 0.3796387
vn 0.5 -0.005737305 0.8662109
vn 0 0.5532227 0.8330078
vn 0.387207 -0.8945313 0.2236328
vn 0 -1 0
vn 0.4719238 -0.3308105 0.8173828
vn 0 0.2802734 0.9599609
vn -0.2888184 0.8164063 0.5
vn 0 1 0
vn 0.3796387 -0.6503906 0.6577148
vn 0 -0.005737305 1
vn -0.4165039 0.5532227 0.7216797
vn 0.2236328 -0.8945313 0.387207
vn 0 -1 0
vn 0 -0.3308105 0.9438477
vn -0.4799805 0.2802734 0.831543
vn -0.5 0.8164063 0.2888184
vn 0 1 0
vn 0 -0.6503906 0.7592773
vn -0.5 -0.005737305 0.8662109
vn -0.7216797 0.5532227 0.4165039
vn -0.5776367 0.8164063 0
vn 0 1 0
vn -0.8330078 0.5532227 0
vn -0.831543 0.2802734 0.4799805
vn -0.9599609 0.2802734 0
vn -0.8662109 -0.005737305 0.5
vn -1 -0.005737305 0
vn -0.4719238 -0.3308105 0.8173828
vn -0.8173828 -0.3308105 0.4719238
vn -0.9438477 -0.3308105 0
vn -0.3796387 -0.6503906 0.6577148
vn -0.6577148 -0.6503906 0.3796387
vn -0.7592773 -0.6503906 0
vn 0 -0.8945313 0.4472656
vn 0 -1 0
vn -0.2236328 -0.8945313 0.387207
vn 0 -1 0
vn -0.387207 -0.8945313 0.2236328
vn 0 -1 0
vn -0.4472656 -0.8945313 0
vn 0 -1 0
g Egg_0
f 3/3/3 2/2/2 1/1/1
f 1/1/1 2/2/2 4/4/4
f 2/2/2 5/5/5 4/4/4
f 2/2/2 6/6/6 5/5/5
f 7/7/7 6/6/6 2/2/2
f 1/1/1 4/4/4 8/8/8
f 9/9/9 1/1/1 8/8/8
f 10/10/10 1/1/1 9/9/9
f 4/4/4 5/5/5 11/11/11
f 8/8/8 4/4/4 12/12/12
f 4/4/4 11/11/11 12/12/12
f 6/6/6 13/13/13 5/5/5
f 5/5/5 14/14/14 11/11/11
f 5/5/5 13/13/13 14/14/14
f 6/6/6 15/15/15 13/13/13
f 16/16/16 15/15/15 6/6/6
f 9/9/9 8/8/8 17/17/17
f 8/8/8 12/12/12 18/18/18
f 17/17/17 8/8/8 18/18/18
f 19/19/19 9/9/9 17/17/17
f 20/20/20 9/9/9 19/19/19
f 19/19/19 17/17/17 21/21/21
f 22/22/22 19/19/19 21/21/21
f 23/23/23 19/19/19 22/22/22
f 21/21/21 17/17/17 24/24/24
f 17/17/17 18/18/18 24/24/24
f 24/24/24 18/18/18 25/25/25
f 18/18/18 26/26/26 25/25/25
f 18/18/18 12/12/12 26/26/26
f 25/25/25 26/26/26 27/27/27
f 12/12/12 28/28/28 26/26/26
f 12/12/12 11/11/11 28/28/28
f 26/26/26 29/29/29 27/27/27
f 26/26/26 28/28/28 29/29/29
f 27/27/27 29/29/29 30/30/30
f 11/11/11 31/31/31 28/28/28
f 11/11/11 14/14/14 31/31/31
f 29/29/29 32/32/32 30/30/30
f 30/30/30 32/32/32 33/33/33
f 28/28/28 34/34/34 29/29/29
f 28/28/28 31/31/31 34/34/34
f 29/29/29 34/34/34 32/32/32
f 32/32/32 35/35/35 33/33/33
f 33/33/33 35/35/35 36/36/36
f 34/34/34 37/37/37 32/32/32
f 32/32/32 37/37/37 35/35/35
f 31/31/31 38/38/38 34/34/34
f 34/34/34 38/38/38 37/37/37
f 14/14/14 39/39/39 31/31/31
f 31/31/31 39/39/39 38/38/38
f 37/37/37 40/40/40 35/35/35
f 35/35/35 40/40/40 41/41/41
f 38/38/38 42/42/42 37/37/37
f 37/37/37 42/42/42 40/40/40
f 14/14/14 43/43/43 39/39/39
f 13/13/13 43/43/43 14/14/14
f 39/39/39 44/44/44 38/38/38
f 38/38/38 44/44/44 42/42/42
f 42/42/42 45/45/45 40/40/40
f 40/40/40 45/45/45 46/46/46
f 42/42/42 47/47/47 45/45/45
f 44/44/44 47/47/47 42/42/42
f 39/39/39 48/48/48 44/44/44
f 43/43/43 48/48/48 39/39/39
f 13/13/13 49/49/49 43/43/43
f 15/15/15 49/49/49 13/13/13
f 47/47/47 50/50/50 45/45/45
f 45/45/45 50/50/50 51/51/51
f 44/44/44 52/52/52 47/47/47
f 48/48/48 52/52/52 44/44/44
f 43/43/43 53/53/53 48/48/48
f 49/49/49 53/53/53 43/43/43
f 15/15/15 54/54/54 49/49/49
f 55/55/55 54/54/54 15/15/15
f 47/47/47 56/56/56 50/50/50
f 52/52/52 56/56/56 47/47/47
f 48/48/48 57/57/57 52/52/52
f 53/53/53 57/57/57 48/48/48
f 49/49/49 58/58/58 53/53/53
f 54/54/54 58/58/58 49/49/49
f 56/56/56 59/59/59 50/50/50
f 50/50/50 59/59/59 60/60/60
f 52/52/52 61/61/61 56/56/56
f 57/57/57 61/61/61 52/52/52
f 53/53/53 62/62/62 57/57/57
f 58/58/58 62/62/62 53/53/53
f 54/54/54 63/63/63 58/58/58
f 64/64/64 63/63/63 54/54/54
f 56/56/56 65/65/65 59/59/59
f 61/61/61 65/65/65 56/56/56
f 57/57/57 66/66/66 61/61/61
f 62/62/62 66/66/66 57/57/57
f 63/63/63 67/67/67 58/58/58
f 58/58/58 67/67/67 62/62/62
f 65/65/65 68/68/68 59/59/59
f 59/59/59 68/68/68 69/69/69
f 61/61/61 70/70/70 65/65/65
f 66/66/66 70/70/70 61/61/61
f 62/62/62 71/71/71 66/66/66
f 67/67/67 71/71/71 62/62/62
f 63/63/63 72/72/72 67/67/67
f 73/73/73 72/72/72 63/63/63
f 65/65/65 74/74/74 68/68/68
f 70/70/70 74/74/74 65/65/65
f 66/66/66 75/75/75 70/70/70
f 71/71/71 75/75/75 66/66/66
f 72/72/72 76/76/76 67/67/67
f 67/67/67 76/76/76 71/71/71
f 74/74/74 77/77/77 68/68/68
f 68/68/68 77/77/77 78/78/78
f 70/70/70 79/79/79 74/74/74
f 75/75/75 79/79/79 70/70/70
f 71/71/71 80/80/80 75/75/75
f 76/76/76 80/80/80 71/71/71
f 72/72/72 81/81/81 76/76/76
f 82/82/82 81/81/81 72/72/72
f 74/74/74 83/83/83 77/77/77
f 79/79/79 83/83/83 74/74/74
f 75/75/75 84/84/84 79/79/79
f 80/80/80 84/84/84 75/75/75
f 76/76/76 85/85/85 80/80/80
f 81/81/81 85/85/85 76/76/76
f 83/83/83 86/86/86 77/77/77
f 77/77/77 86/86/86 87/87/87
f 79/79/79 88/88/88 83/83/83
f 84/84/84 88/88/88 79/79/79
f 80/80/80 89/89/89 84/84/84
f 85/85/85 89/89/89 80/80/80
f 81/81/81 90/90/90 85/85/85
f 91/91/91 90/90/90 81/81/81
f 83/83/83 92/92/92 86/86/86
f 88/88/88 92/92/92 83/83/83
f 84/84/84 93/93/93 88/88/88
f 89/89/89 93/93/93 84/84/84
f 85/85/85 94/94/94 89/89/89
f 90/90/90 94/94/94 85/85/85
f 90/90/90 95/95/95 94/94/94
f 96/96/96 95/95/95 90/90/90
f 95/95/95 97/97/97 94/94/94
f 94/94/94 98/98/98 89/89/89
f 94/94/94 97/97/97 98/98/98
f 89/89/89 98/98/98 93/93/93
f 97/97/97 99/99/99 98/98/98
f 98/98/98 99/99/99 100/100/100
f 98/98/98 100/100/100 93/93/93
f 99/99/99 101/101/101 100/100/100
f 93/93/93 102/102/102 88/88/88
f 93/93/93 100/100/100 102/102/102
f 88/88/88 102/102/102 92/92/92
f 100/100/100 101/101/101 103/103/103
f 100/100/100 103/103/103 102/102/102
f 101/101/101 104/104/104 103/103/103
f 102/102/102 105/105/105 92/92/92
f 102/102/102 103/103/103 105/105/105
f 103/103/103 104/104/104 106/106/106
f 103/103/103 106/106/106 105/105/105
f 104/104/104 107/107/107 106/106/106
f 92/92/92 105/105/105 108/108/108
f 92/92/92 108/108/108 86/86/86
f 86/86/86 108/108/108 109/109/109
f 105/105/105 110/110/110 108/108/108
f 105/105/105 106/106/106 110/110/110
f 108/108/108 110/110/110 111/111/111
f 106/106/106 107/107/107 112/112/112
f 106/106/106 112/112/112 110/110/110
f 110/110/110 112/112/112 113/113/113
f 107/107/107 114/114/114 112/112/112
f 112/112/112 114/114/114 115/115/115
