g FenceMono
v -0.1279375 0.4379575 -0.000481051
v 0.0007324517 0.5626551 -0.000481051
v 0.0007323623 0.5626551 0.08149672
v -0.1279375 0.4379575 0.08149672
v 0.0007324517 0.5626551 -0.000481051
v 0.12497 0.4379575 -0.0004806534
v 0.12497 0.4379575 0.08149672
v 0.0007323623 0.5626551 0.08149672
v -0.1279375 -2.612882E-05 -0.000481051
v 0.12497 -2.612882E-05 -0.0004806534
v 0.12497 0.4379575 -0.0004806534
v 0.0007324517 0.5626551 -0.000481051
v -0.1279375 0.4379575 -0.000481051
v -0.1279375 0.4379575 0.08149672
v -0.1279375 -2.612585E-05 0.08149672
v -0.1279375 -2.612882E-05 -0.000481051
v -0.1279375 0.4379575 -0.000481051
v 0.0007323623 0.5626551 0.08149672
v 0.12497 0.4379575 0.08149672
v 0.12497 -2.612585E-05 0.08149672
v -0.1279375 -2.612585E-05 0.08149672
v -0.1279375 0.4379575 0.08149672
v 0.12497 0.4379575 -0.0004806534
v 0.12497 -2.612882E-05 -0.0004806534
v 0.12497 -2.612585E-05 0.08149672
v 0.12497 0.4379575 0.08149672
vt 0.5532227 0.9824219
vt 0.5532227 0.9936523
vt 0.5644531 0.9936523
vt 0.5644531 0.9824219
vt 0.5532227 0.9824219
vt 0.5532227 0.9936523
vt 0.5644531 0.9936523
vt 0.5644531 0.9824219
vt 0.5537109 0.9897461
vt 0.5556641 0.9833984
vt 0.5620117 0.9833984
vt 0.5644531 0.9897461
vt 0.559082 0.9936523
vt 0.5532227 0.9824219
vt 0.5532227 0.9936523
vt 0.5644531 0.9936523
vt 0.5644531 0.9824219
vt 0.5644531 0.9897461
vt 0.559082 0.9936523
vt 0.5537109 0.9897461
vt 0.5556641 0.9833984
vt 0.5620117 0.9833984
vt 0.5532227 0.9824219
vt 0.5532227 0.9936523
vt 0.5644531 0.9936523
vt 0.5644531 0.9824219
vn -0.6958008 0.7182617 0
vn -0.6958008 0.7182617 0
vn -0.6958008 0.7182617 0
vn -0.6958008 0.7182617 0
vn 0.7084961 0.7055664 0
vn 0.7084961 0.7055664 0
vn 0.7084961 0.7055664 0
vn 0.7084961 0.7055664 0
vn 0 0 -1
vn 0 0 -1
vn 0 0 -1
vn 0 0 -1
vn 0 0 -1
vn -1 0 0
vn -1 0 0
vn -1 0 0
vn -1 0 0
vn 0 0 1
vn 0 0 1
vn 0 0 1
vn 0 0 1
vn 0 0 1
vn 1 0 0
vn 1 0 0
vn 1 0 0
vn 1 0 0
g FenceMono_0
f 3/3/3 2/2/2 1/1/1
f 4/4/4 3/3/3 1/1/1
f 7/7/7 6/6/6 5/5/5
f 8/8/8 7/7/7 5/5/5
f 11/11/11 10/10/10 9/9/9
f 9/9/9 12/12/12 11/11/11
f 9/9/9 13/13/13 12/12/12
f 16/16/16 15/15/15 14/14/14
f 17/17/17 16/16/16 14/14/14
f 20/20/20 19/19/19 18/18/18
f 18/18/18 21/21/21 20/20/20
f 18/18/18 22/22/22 21/21/21
f 25/25/25 24/24/24 23/23/23
f 26/26/26 25/25/25 23/23/23
