g Fungus_A_01_LOD2
v -0.002913216 0.001269617 0.002728707
v -0.0002121112 0.001708227 0.006563643
v -0.002492642 0.0007416776 0.005457415
v -0.000102433 0.002717366 0.003281821
v 0.001662734 0.0002294639 0.006315485
v -0.002512485 -0.00164883 0.00379631
v -0.00169118 -0.001237325 0.007592619
v 0.002505507 0.00101351 0.003157743
v 0.002239749 -0.002960251 0.006418543
v -9.604611E-05 -0.002701455 0.003161592
v -0.000199337 -0.001413629 0.006323184
v 0.002794014 -0.002510293 0.003209272
v -0.00333379 -0.002060335 0
v -0.00333379 0.001797557 0
v 7.245329E-06 0.003726505 0
v 0.00334828 0.001797557 0
v 0.00334828 -0.002060335 0
v 7.244748E-06 -0.003989281 0
v -0.002440957 0.00128208 0
v 7.245293E-06 0.002695551 0
v 0.002455447 0.00128208 0
v 0.002455447 -0.001544858 0
v 7.244784E-06 -0.002958327 0
v -0.002440957 -0.001544858 0
v 0.002239749 -0.002960251 0.006418543
v 0.007671531 -0.007239009 0.006582781
v 0.007074221 0.002923666 0.006860903
v 0.001662734 0.0002294639 0.006315485
v -0.000199337 -0.001413629 0.006323184
v 1.43508E-05 0.009101027 0.00709565
v -0.0002121112 0.001708227 0.006563643
v -0.001359586 -0.01096084 0.006577814
v -0.00169118 -0.001237325 0.007592619
v -0.008208672 0.003406161 0.005471613
v -0.002492642 0.0007416776 0.005457415
v -0.008695651 -0.002983118 0.005012936
v 0.007046623 0.002785319 0.01225734
v -8.350834E-06 0.00843347 0.01259071
v 0.007180635 -0.007033505 0.01157449
v -0.008195055 0.003281917 0.01095702
v -0.008532283 -0.003420258 0.0106259
v -0.001686548 -0.01031917 0.01156619
v -0.0002655607 0.005869057 0.01743115
v -0.006625733 0.002509896 0.01643448
v 0.00541818 0.001793608 0.01707321
v -0.00694507 -0.003415902 0.0161217
v -0.001852907 -0.007966992 0.0164284
v 0.005315004 -0.005508933 0.01648598
v -0.003925341 0.0003043405 0.01940513
v -0.003854308 -0.001363208 0.01921708
v -0.001640756 0.003494328 0.01913879
v -0.00101797 -0.003913809 0.01919691
v 0.002274894 0.001045456 0.01926424
v 0.002650289 -0.003762332 0.01928371
vt 0.7462756 0.4198221
vt 0.7462756 0.4198221
vt 0.7462756 0.4198221
vt 0.7462756 0.4198221
vt 0.7462756 0.4198221
vt 0.7462756 0.4198221
vt 0.7462756 0.4198221
vt 0.7462756 0.4198221
vt 0.7462756 0.4198221
vt 0.7462756 0.4198221
vt 0.7462756 0.4198221
vt 0.7462756 0.4198221
vt 0.7462756 0.4198221
vt 0.7462756 0.4198221
vt 0.7462756 0.4198221
vt 0.7462756 0.4198221
vt 0.7462756 0.4198221
vt 0.7462756 0.4198221
vt 0.7462756 0.4198221
vt 0.7462756 0.4198221
vt 0.7462756 0.4198221
vt 0.7462756 0.4198221
vt 0.7462756 0.4198221
vt 0.7462756 0.4198221
vt 0.08682907 0.4198221
vt 0.08682907 0.4198221
vt 0.08682907 0.4198221
vt 0.08682907 0.4198221
vt 0.08682907 0.4198221
vt 0.08682907 0.4198221
vt 0.08682907 0.4198221
vt 0.08682907 0.4198221
vt 0.08682907 0.4198221
vt 0.08682907 0.4198221
vt 0.08682907 0.4198221
vt 0.08682907 0.4198221
vt 0.08682907 0.4198221
vt 0.08682907 0.4198221
vt 0.08682907 0.4198221
vt 0.08682907 0.4198221
vt 0.08682907 0.4198221
vt 0.08682907 0.4198221
vt 0.08682907 0.4198221
vt 0.08682907 0.4198221
vt 0.08682907 0.4198221
vt 0.08682907 0.4198221
vt 0.08682907 0.4198221
vt 0.08682907 0.4198221
vt 0.08682907 0.4198221
vt 0.08682907 0.4198221
vt 0.08682907 0.4198221
vt 0.08682907 0.4198221
vt 0.08682907 0.4198221
vt 0.08682907 0.4198221
vn -0.8533795 0.4581551 0.2486709
vn 0.1532368 0.6394987 -0.7533658
vn -0.6168506 0.2998495 -0.7277262
vn 0.03024459 0.9491186 0.3134633
vn 0.6462981 0.3977219 -0.651242
vn -0.7602372 -0.5945476 0.2618256
vn -0.166542 -0.3713548 -0.9134327
vn 0.8283455 0.4790255 0.2904794
vn 0.2254151 -0.2646019 -0.9376428
vn -0.1540009 -0.9675874 0.2001463
vn -0.1338883 -0.8578677 -0.4961222
vn 0.742054 -0.6180833 0.2594778
vn -0.7247915 -0.4585453 -0.5142116
vn -0.7362555 0.439208 -0.5148051
vn 0.01974606 0.8712988 -0.4903555
vn 0.7419291 0.4533061 -0.4940192
vn 0.7362191 -0.4218084 -0.529206
vn -0.04278776 -0.8519099 -0.5219375
vn 0 0 -1
vn 0 0 -1
vn 0 0 -1
vn 0 0 -1
vn 0 0 -1
vn 0 0 -1
vn 0.2254151 -0.2646019 -0.9376428
vn 0.7016454 -0.4477529 -0.5542663
vn 0.7216231 0.3704403 -0.5848367
vn 0.6462981 0.3977219 -0.651242
vn -0.1338883 -0.8578677 -0.4961222
vn 0.0702844 0.8620598 -0.5019094
vn 0.1532368 0.6394987 -0.7533658
vn -0.1430428 -0.8108303 -0.5675324
vn -0.166542 -0.3713548 -0.9134327
vn -0.6436635 0.3821389 -0.663074
vn -0.6168506 0.2998495 -0.7277262
vn -0.6722867 -0.293599 -0.6795809
vn 0.879295 0.4209238 0.2228528
vn 0.05029491 0.968116 0.2454013
vn 0.7953253 -0.5507765 0.2531857
vn -0.8591057 0.4799089 0.1778333
vn -0.9266259 -0.3490488 0.1397477
vn -0.2153435 -0.9513749 0.220257
vn 0.04797575 0.7859538 0.6164212
vn -0.7545055 0.4163789 0.5072967
vn 0.7394592 0.3219512 0.5912255
vn -0.7892556 -0.3466059 0.5068925
vn -0.2155602 -0.7926559 0.5702899
vn 0.6460574 -0.4671547 0.6036359
vn -0.4026411 0.1446309 0.9038595
vn -0.3986655 -0.1510369 0.9045737
vn -0.1317195 0.4278442 0.8942032
vn -0.1076094 -0.3705597 0.922554
vn 0.3311981 0.1810725 0.926024
vn 0.3180981 -0.2875792 0.903389
g Fungus_A_01_LOD2_0
f 3/3/3 2/2/2 1/1/1
f 2/2/2 4/4/4 1/1/1
f 2/2/2 5/5/5 4/4/4
f 3/3/3 1/1/1 6/6/6
f 7/7/7 3/3/3 6/6/6
f 5/5/5 8/8/8 4/4/4
f 5/5/5 9/9/9 8/8/8
f 7/7/7 6/6/6 10/10/10
f 11/11/11 7/7/7 10/10/10
f 9/9/9 11/11/11 12/12/12
f 9/9/9 12/12/12 8/8/8
f 11/11/11 10/10/10 12/12/12
f 6/6/6 1/1/1 13/13/13
f 1/1/1 4/4/4 14/14/14
f 1/1/1 14/14/14 13/13/13
f 4/4/4 8/8/8 15/15/15
f 4/4/4 15/15/15 14/14/14
f 8/8/8 12/12/12 16/16/16
f 8/8/8 16/16/16 15/15/15
f 12/12/12 10/10/10 17/17/17
f 12/12/12 17/17/17 16/16/16
f 10/10/10 6/6/6 18/18/18
f 6/6/6 13/13/13 18/18/18
f 10/10/10 18/18/18 17/17/17
f 13/13/13 14/14/14 19/19/19
f 14/14/14 15/15/15 20/20/20
f 19/19/19 14/14/14 20/20/20
f 15/15/15 16/16/16 21/21/21
f 20/20/20 15/15/15 21/21/21
f 21/21/21 16/16/16 22/22/22
f 16/16/16 17/17/17 22/22/22
f 20/20/20 21/21/21 22/22/22
f 22/22/22 17/17/17 23/23/23
f 22/22/22 23/23/23 20/20/20
f 17/17/17 18/18/18 23/23/23
f 23/23/23 19/19/19 20/20/20
f 18/18/18 13/13/13 24/24/24
f 24/24/24 13/13/13 19/19/19
f 23/23/23 24/24/24 19/19/19
f 23/23/23 18/18/18 24/24/24
f 27/27/27 26/26/26 25/25/25
f 28/28/28 27/27/27 25/25/25
f 25/25/25 26/26/26 29/29/29
f 30/30/30 27/27/27 28/28/28
f 31/31/31 30/30/30 28/28/28
f 26/26/26 32/32/32 29/29/29
f 29/29/29 32/32/32 33/33/33
f 34/34/34 30/30/30 31/31/31
f 35/35/35 34/34/34 31/31/31
f 33/33/33 36/36/36 35/35/35
f 32/32/32 36/36/36 33/33/33
f 36/36/36 34/34/34 35/35/35
f 27/27/27 37/37/37 26/26/26
f 30/30/30 38/38/38 27/27/27
f 38/38/38 37/37/37 27/27/27
f 26/26/26 39/39/39 32/32/32
f 37/37/37 39/39/39 26/26/26
f 34/34/34 40/40/40 30/30/30
f 40/40/40 38/38/38 30/30/30
f 36/36/36 41/41/41 34/34/34
f 41/41/41 40/40/40 34/34/34
f 32/32/32 42/42/42 36/36/36
f 39/39/39 42/42/42 32/32/32
f 42/42/42 41/41/41 36/36/36
f 38/38/38 43/43/43 37/37/37
f 40/40/40 44/44/44 38/38/38
f 44/44/44 43/43/43 38/38/38
f 37/37/37 45/45/45 39/39/39
f 43/43/43 45/45/45 37/37/37
f 41/41/41 46/46/46 40/40/40
f 46/46/46 44/44/44 40/40/40
f 42/42/42 47/47/47 41/41/41
f 47/47/47 46/46/46 41/41/41
f 39/39/39 48/48/48 42/42/42
f 45/45/45 48/48/48 39/39/39
f 48/48/48 47/47/47 42/42/42
f 44/44/44 49/49/49 43/43/43
f 46/46/46 50/50/50 44/44/44
f 50/50/50 49/49/49 44/44/44
f 49/49/49 51/51/51 43/43/43
f 43/43/43 51/51/51 45/45/45
f 51/51/51 49/49/49 50/50/50
f 52/52/52 50/50/50 46/46/46
f 47/47/47 52/52/52 46/46/46
f 51/51/51 50/50/50 52/52/52
f 51/51/51 53/53/53 45/45/45
f 45/45/45 53/53/53 48/48/48
f 53/53/53 51/51/51 52/52/52
f 54/54/54 52/52/52 47/47/47
f 48/48/48 54/54/54 47/47/47
f 53/53/53 54/54/54 48/48/48
f 52/52/52 54/54/54 53/53/53
