g FX-Cone
v 1.192093E-08 3.019916E-08 -0.4
v 3.973643E-09 1 -0.8
v 0.2070552 1 -0.7727406
v 0.1035276 2.917015E-08 -0.3863703
v 0.1035276 2.917015E-08 -0.3863703
v 0.2070552 1 -0.7727406
v 0.4 1 -0.6928203
v 0.2 2.615324E-08 -0.3464101
v 0.2 2.615324E-08 -0.3464101
v 0.4 1 -0.6928203
v 0.5656855 1 -0.5656853
v 0.2828428 2.135403E-08 -0.2828426
v 0.2828428 2.135403E-08 -0.2828426
v 0.5656855 1 -0.5656853
v 0.6928204 1 -0.3999999
v 0.3464102 1.509957E-08 -0.1999999
v 0.3464102 1.509957E-08 -0.1999999
v 0.6928204 1 -0.3999999
v 0.7727407 1 -0.2070552
v 0.3863704 7.816112E-09 -0.1035275
v 0.3863704 7.816112E-09 -0.1035275
v 0.7727407 1 -0.2070552
v 0.8 1 4.043155E-08
v 0.4 -3.368742E-15 4.579676E-08
v 0.4 -3.368742E-15 4.579676E-08
v 0.8 1 4.043155E-08
v 0.7727407 1 0.2070553
v 0.3863704 -7.81612E-09 0.1035277
v 0.3863704 -7.81612E-09 0.1035277
v 0.7727407 1 0.2070553
v 0.6928204 0.9999999 0.4
v 0.3464102 -1.509958E-08 0.2
v 0.3464102 -1.509958E-08 0.2
v 0.6928204 0.9999999 0.4
v 0.5656856 0.9999999 0.5656854
v 0.2828428 -2.135403E-08 0.2828427
v 0.2828428 -2.135403E-08 0.2828427
v 0.5656856 0.9999999 0.5656854
v 0.4000002 0.9999999 0.6928203
v 0.2000001 -2.615324E-08 0.3464102
v 0.2000001 -2.615324E-08 0.3464102
v 0.4000002 0.9999999 0.6928203
v 0.2070555 0.9999999 0.7727407
v 0.1035278 -2.917015E-08 0.3863704
v 0.1035278 -2.917015E-08 0.3863704
v 0.2070555 0.9999999 0.7727407
v 3.155051E-07 0.9999999 0.8000001
v 1.676867E-07 -3.019917E-08 0.4000001
v 1.676867E-07 -3.019917E-08 0.4000001
v 3.155051E-07 0.9999999 0.8000001
v -0.2070549 0.9999999 0.7727408
v -0.1035274 -2.917016E-08 0.3863704
v -0.1035274 -2.917016E-08 0.3863704
v -0.2070549 0.9999999 0.7727408
v -0.3999997 0.9999999 0.6928206
v -0.1999998 -2.615325E-08 0.3464103
v -0.1999998 -2.615325E-08 0.3464103
v -0.3999997 0.9999999 0.6928206
v -0.5656852 0.9999999 0.5656859
v -0.2828425 -2.135405E-08 0.282843
v -0.2828425 -2.135405E-08 0.282843
v -0.5656852 0.9999999 0.5656859
v -0.6928202 0.9999999 0.4000004
v -0.34641 -1.509959E-08 0.2000002
v -0.34641 -1.509959E-08 0.2000002
v -0.6928202 0.9999999 0.4000004
v -0.7727405 1 0.2070556
v -0.3863702 -7.816135E-09 0.1035278
v -0.3863702 -7.816135E-09 0.1035278
v -0.7727405 1 0.2070556
v -0.8 1 4.727597E-07
v -0.4 -1.986631E-14 2.619608E-07
v -0.4 -1.986631E-14 2.619608E-07
v -0.8 1 4.727597E-07
v -0.7727408 1 -0.2070547
v -0.3863704 7.816097E-09 -0.1035273
v -0.3863704 7.816097E-09 -0.1035273
v -0.7727408 1 -0.2070547
v -0.6928205 1 -0.3999995
v -0.3464103 1.509956E-08 -0.1999997
v -0.3464103 1.509956E-08 -0.1999997
v -0.6928205 1 -0.3999995
v -0.5656858 1 -0.565685
v -0.2828429 2.135401E-08 -0.2828425
v -0.2828429 2.135401E-08 -0.2828425
v -0.5656858 1 -0.565685
v -0.4000005 1 -0.69282
v -0.2000002 2.615323E-08 -0.34641
v -0.2000002 2.615323E-08 -0.34641
v -0.4000005 1 -0.69282
v -0.2070558 1 -0.7727404
v -0.1035279 2.917014E-08 -0.3863702
v -0.1035279 2.917014E-08 -0.3863702
v -0.2070558 1 -0.7727404
v 3.973643E-09 1 -0.8
v 1.192093E-08 3.019916E-08 -0.4
vt 1 0
vt 1 1
vt 0.9583333 1
vt 0.9583333 0
vt 0.9583333 0
vt 0.9583333 1
vt 0.9166666 1
vt 0.9166666 0
vt 0.9166666 0
vt 0.9166666 1
vt 0.8749999 1
vt 0.8749999 0
vt 0.8749999 0
vt 0.8749999 1
vt 0.8333333 1
vt 0.8333333 0
vt 0.8333333 0
vt 0.8333333 1
vt 0.7916666 1
vt 0.7916666 0
vt 0.7916666 0
vt 0.7916666 1
vt 0.7499999 1
vt 0.7499999 0
vt 0.7499999 0
vt 0.7499999 1
vt 0.7083332 1
vt 0.7083332 0
vt 0.7083332 0
vt 0.7083332 1
vt 0.6666665 1
vt 0.6666665 0
vt 0.6666665 0
vt 0.6666665 1
vt 0.6249998 1
vt 0.6249998 0
vt 0.6249998 0
vt 0.6249998 1
vt 0.5833331 1
vt 0.5833331 0
vt 0.5833331 0
vt 0.5833331 1
vt 0.5416664 1
vt 0.5416664 0
vt 0.5416664 0
vt 0.5416664 1
vt 0.4999998 1
vt 0.4999998 0
vt 0.4999998 0
vt 0.4999998 1
vt 0.4583331 1
vt 0.4583331 0
vt 0.4583331 0
vt 0.4583331 1
vt 0.4166665 1
vt 0.4166665 0
vt 0.4166665 0
vt 0.4166665 1
vt 0.3749998 1
vt 0.3749998 0
vt 0.3749998 0
vt 0.3749998 1
vt 0.3333332 1
vt 0.3333332 0
vt 0.3333332 0
vt 0.3333332 1
vt 0.2916665 1
vt 0.2916665 0
vt 0.2916665 0
vt 0.2916665 1
vt 0.2499998 1
vt 0.2499998 0
vt 0.2499998 0
vt 0.2499998 1
vt 0.2083332 1
vt 0.2083332 0
vt 0.2083332 0
vt 0.2083332 1
vt 0.1666665 1
vt 0.1666665 0
vt 0.1666665 0
vt 0.1666665 1
vt 0.1249998 1
vt 0.1249998 0
vt 0.1249998 0
vt 0.1249998 1
vt 0.08333315 1
vt 0.08333315 0
vt 0.08333315 0
vt 0.08333315 1
vt 0.04166648 1
vt 0.04166648 0
vt 0.04166648 0
vt 0.04166648 1
vt -1.862645E-07 1
vt -1.862645E-07 0
vn -0.121333 0.3686468 0.921617
vn -0.121333 0.3686468 0.921617
vn -0.121333 0.3686468 0.921617
vn -0.121333 0.3686468 0.921617
vn -0.355731 0.3686468 0.8588102
vn -0.355731 0.3686468 0.8588102
vn -0.355731 0.3686468 0.8588102
vn -0.355731 0.3686468 0.8588102
vn -0.5658861 0.3686468 0.7374772
vn -0.5658861 0.3686468 0.7374772
vn -0.5658861 0.3686468 0.7374772
vn -0.5658861 0.3686468 0.7374772
vn -0.7374772 0.3686467 0.5658861
vn -0.7374772 0.3686467 0.5658861
vn -0.7374772 0.3686467 0.5658861
vn -0.7374772 0.3686467 0.5658861
vn -0.8588104 0.3686467 0.3557308
vn -0.8588104 0.3686467 0.3557308
vn -0.8588104 0.3686467 0.3557308
vn -0.8588104 0.3686467 0.3557308
vn -0.9216169 0.3686468 0.1213332
vn -0.9216169 0.3686468 0.1213332
vn -0.9216169 0.3686468 0.1213332
vn -0.9216169 0.3686468 0.1213332
vn -0.921617 0.3686468 -0.1213331
vn -0.921617 0.3686468 -0.1213331
vn -0.921617 0.3686468 -0.1213331
vn -0.921617 0.3686468 -0.1213331
vn -0.8588102 0.3686468 -0.3557306
vn -0.8588102 0.3686468 -0.3557306
vn -0.8588102 0.3686468 -0.3557306
vn -0.8588102 0.3686468 -0.3557306
vn -0.7374773 0.3686468 -0.5658859
vn -0.7374773 0.3686468 -0.5658859
vn -0.7374773 0.3686468 -0.5658859
vn -0.7374773 0.3686468 -0.5658859
vn -0.5658863 0.3686468 -0.7374769
vn -0.5658863 0.3686468 -0.7374769
vn -0.5658863 0.3686468 -0.7374769
vn -0.5658863 0.3686468 -0.7374769
vn -0.3557308 0.3686468 -0.8588102
vn -0.3557308 0.3686468 -0.8588102
vn -0.3557308 0.3686468 -0.8588102
vn -0.3557308 0.3686468 -0.8588102
vn -0.121334 0.3686468 -0.9216169
vn -0.121334 0.3686468 -0.9216169
vn -0.121334 0.3686468 -0.9216169
vn -0.121334 0.3686468 -0.9216169
vn 0.1213332 0.3686467 -0.9216169
vn 0.1213332 0.3686467 -0.9216169
vn 0.1213332 0.3686467 -0.9216169
vn 0.1213332 0.3686467 -0.9216169
vn 0.3557304 0.3686469 -0.8588104
vn 0.3557304 0.3686469 -0.8588104
vn 0.3557304 0.3686469 -0.8588104
vn 0.3557304 0.3686469 -0.8588104
vn 0.5658854 0.3686468 -0.7374776
vn 0.5658854 0.3686468 -0.7374776
vn 0.5658854 0.3686468 -0.7374776
vn 0.5658854 0.3686468 -0.7374776
vn 0.7374771 0.3686469 -0.5658861
vn 0.7374771 0.3686469 -0.5658861
vn 0.7374771 0.3686469 -0.5658861
vn 0.7374771 0.3686469 -0.5658861
vn 0.8588102 0.3686467 -0.355731
vn 0.8588102 0.3686467 -0.355731
vn 0.8588102 0.3686467 -0.355731
vn 0.8588102 0.3686467 -0.355731
vn 0.9216169 0.3686468 -0.1213338
vn 0.9216169 0.3686468 -0.1213338
vn 0.9216169 0.3686468 -0.1213338
vn 0.9216169 0.3686468 -0.1213338
vn 0.921617 0.3686468 0.1213327
vn 0.921617 0.3686468 0.1213327
vn 0.921617 0.3686468 0.1213327
vn 0.921617 0.3686468 0.1213327
vn 0.8588104 0.3686468 0.3557304
vn 0.8588104 0.3686468 0.3557304
vn 0.8588104 0.3686468 0.3557304
vn 0.8588104 0.3686468 0.3557304
vn 0.7374777 0.3686467 0.5658854
vn 0.7374777 0.3686467 0.5658854
vn 0.7374777 0.3686467 0.5658854
vn 0.7374777 0.3686467 0.5658854
vn 0.5658864 0.3686468 0.7374768
vn 0.5658864 0.3686468 0.7374768
vn 0.5658864 0.3686468 0.7374768
vn 0.5658864 0.3686468 0.7374768
vn 0.3557312 0.3686468 0.8588101
vn 0.3557312 0.3686468 0.8588101
vn 0.3557312 0.3686468 0.8588101
vn 0.3557312 0.3686468 0.8588101
vn 0.1213337 0.3686468 0.9216169
vn 0.1213337 0.3686468 0.9216169
vn 0.1213337 0.3686468 0.9216169
vn 0.1213337 0.3686468 0.9216169
g FX-Cone_0
f 3/3/3 2/2/2 1/1/1
f 4/4/4 3/3/3 1/1/1
f 7/7/7 6/6/6 5/5/5
f 8/8/8 7/7/7 5/5/5
f 11/11/11 10/10/10 9/9/9
f 12/12/12 11/11/11 9/9/9
f 15/15/15 14/14/14 13/13/13
f 16/16/16 15/15/15 13/13/13
f 19/19/19 18/18/18 17/17/17
f 20/20/20 19/19/19 17/17/17
f 23/23/23 22/22/22 21/21/21
f 24/24/24 23/23/23 21/21/21
f 27/27/27 26/26/26 25/25/25
f 28/28/28 27/27/27 25/25/25
f 31/31/31 30/30/30 29/29/29
f 32/32/32 31/31/31 29/29/29
f 35/35/35 34/34/34 33/33/33
f 36/36/36 35/35/35 33/33/33
f 39/39/39 38/38/38 37/37/37
f 40/40/40 39/39/39 37/37/37
f 43/43/43 42/42/42 41/41/41
f 44/44/44 43/43/43 41/41/41
f 47/47/47 46/46/46 45/45/45
f 48/48/48 47/47/47 45/45/45
f 51/51/51 50/50/50 49/49/49
f 52/52/52 51/51/51 49/49/49
f 55/55/55 54/54/54 53/53/53
f 56/56/56 55/55/55 53/53/53
f 59/59/59 58/58/58 57/57/57
f 60/60/60 59/59/59 57/57/57
f 63/63/63 62/62/62 61/61/61
f 64/64/64 63/63/63 61/61/61
f 67/67/67 66/66/66 65/65/65
f 68/68/68 67/67/67 65/65/65
f 71/71/71 70/70/70 69/69/69
f 72/72/72 71/71/71 69/69/69
f 75/75/75 74/74/74 73/73/73
f 76/76/76 75/75/75 73/73/73
f 79/79/79 78/78/78 77/77/77
f 80/80/80 79/79/79 77/77/77
f 83/83/83 82/82/82 81/81/81
f 84/84/84 83/83/83 81/81/81
f 87/87/87 86/86/86 85/85/85
f 88/88/88 87/87/87 85/85/85
f 91/91/91 90/90/90 89/89/89
f 92/92/92 91/91/91 89/89/89
f 95/95/95 94/94/94 93/93/93
f 96/96/96 95/95/95 93/93/93
