g FX_Cube.001
v -0.4999997 7.450581E-09 0.4999999
v -0.5000001 7.450581E-09 -0.4999999
v -0.5723372 1 -0.5723369
v -0.5723367 1 0.5723369
v -0.5000001 7.450581E-09 -0.4999999
v 0.5 7.450581E-09 -0.4999999
v 0.5723369 1 -0.5723369
v -0.5723372 1 -0.5723369
v 0.5 7.450581E-09 -0.4999999
v 0.5 7.450581E-09 0.4999999
v 0.5723369 1 0.5723369
v 0.5723369 1 -0.5723369
v 0.5 7.450581E-09 0.4999999
v -0.4999997 7.450581E-09 0.4999999
v -0.5723367 1 0.5723369
v 0.5723369 1 0.5723369
vt 0.9998997 9.971857E-05
vt 9.995699E-05 0.0001003146
vt 0.0001003146 0.9999
vt 0.9999001 0.9998998
vt 0.9999 0.000100129
vt 0.0001000694 9.998E-05
vt 9.998E-05 0.9998997
vt 0.9998999 0.9998998
vt 0.9998999 9.998E-05
vt 0.000100129 0.0001000257
vt 9.998E-05 0.9998998
vt 0.9998999 0.9999
vt 0.9998997 9.999389E-05
vt 0.000100129 9.997999E-05
vt 9.997999E-05 0.9999
vt 0.9998997 0.9999
vn -0.9973938 -0.07214852 0
vn -0.9973938 -0.07214852 0
vn -0.9973938 -0.07214852 0
vn -0.9973938 -0.07214852 0
vn 0 -0.07214841 -0.997394
vn 0 -0.07214841 -0.997394
vn 0 -0.07214841 -0.997394
vn 0 -0.07214841 -0.997394
vn 0.997394 -0.07214838 0
vn 0.997394 -0.07214838 0
vn 0.997394 -0.07214838 0
vn 0.997394 -0.07214838 0
vn 0 -0.07214841 0.997394
vn 0 -0.07214841 0.997394
vn 0 -0.07214841 0.997394
vn 0 -0.07214841 0.997394
g FX_Cube.001_0
f 3/3/3 2/2/2 1/1/1
f 4/4/4 3/3/3 1/1/1
f 7/7/7 6/6/6 5/5/5
f 8/8/8 7/7/7 5/5/5
f 11/11/11 10/10/10 9/9/9
f 12/12/12 11/11/11 9/9/9
f 15/15/15 14/14/14 13/13/13
f 16/16/16 15/15/15 13/13/13
