g Honey2
v 0.3180752 0.704462 0.1715587
v 0.3801292 0.6943449 0.202621
v 0.3297448 0.6947687 0.1979926
v 0.3162764 0.6660655 0.2018767
v 0.3743325 0.6565534 0.2116562
v 0.3809023 0.711072 0.1713914
v 0.4413331 0.6298474 0.2060941
v 0.4497715 0.667775 0.1961081
v 0.370603 0.6184919 0.2015027
v 0.4329618 0.5918752 0.1949893
v 0.2916433 0.6689323 0.1713811
v 0.315869 0.7063598 0.1054083
v 0.3230348 0.6349684 0.1971186
v 0.3670622 0.6020152 0.1698772
v 0.3094361 0.6281924 0.1704991
v 0.4293207 0.575264 0.1616006
v 0.288243 0.6692831 0.104873
v 0.4675114 0.5474998 0.1761943
v 0.4833845 0.5810379 0.1883329
v 0.4607227 0.5328369 0.1412072
v 0.366302 0.5996973 0.103746
v 0.4288259 0.5728983 0.09804814
v 0.3066866 0.62678 0.1045294
v 0.4603368 0.5310749 0.08410716
v 0.3161206 0.7062304 -0.0004510331
v 0.2884061 0.6692114 -0.0007653505
v 0.3809711 0.7133663 0.1049959
v 0.4536027 0.6842596 0.1630915
v 0.499296 0.6145151 0.177184
v 0.3663378 0.5997078 -0.0002664222
v 0.4288554 0.5729069 0.003003677
v 0.4605862 0.5316633 0.01001131
v 0.3067613 0.6267661 -0.0008756968
v 0.4543549 0.6864541 0.09925824
v 0.5062876 0.6287718 0.1424759
v 0.3812542 0.7132081 0.0003365334
v 0.316372 0.7061011 -0.1062275
v 0.2885692 0.6691398 -0.1062827
v 0.4288849 0.5729155 -0.09196823
v 0.3663737 0.5997184 -0.1041672
v 0.3068359 0.6267523 -0.1061463
v 0.4603739 0.5297263 -0.06413212
v 0.4795087 0.4812498 -0.03427513
v 0.4797384 0.5014216 0.01687241
v 0.4796036 0.4943016 0.06731197
v 0.4739299 0.4932005 0.1173698
v 0.4823368 0.5041856 0.1508847
v 0.5032805 0.5297512 0.1629001
v 0.5242342 0.5552475 0.151681
v 0.5096008 0.5107531 0.05145242
v 0.4933982 0.4775179 0.07401308
v 0.486518 0.4733997 0.1013991
v 0.4936294 0.4790951 0.1275177
v 0.5123485 0.4935482 0.1374203
v 0.5082179 0.5152087 0.01931834
v 0.5305539 0.555954 0.06788924
v 0.513059 0.4912265 0.0639115
v 0.498341 0.4526163 0.06885989
v 0.4914683 0.450874 0.09460834
v 0.498335 0.4526974 0.1205588
v 0.5310662 0.5079434 0.1281194
v 0.5166625 0.4575096 0.1305789
v 0.5330467 0.5651044 0.1183344
v 0.5070546 0.6298856 0.08507986
v 0.4545939 0.6862668 0.003580602
v 0.3815373 0.7130499 -0.1042839
v 0.3190261 0.7039761 -0.1721616
v 0.2922784 0.6686532 -0.172456
v 0.538268 0.5132486 0.102111
v 0.506622 0.6298953 0.01045657
v 0.4548329 0.6860795 -0.09208952
v 0.3819772 0.7104748 -0.1705887
v 0.3308696 0.6942084 -0.1984094
v 0.534987 0.4622682 0.1211808
v 0.3097484 0.6281233 -0.1717475
v 0.3171275 0.6656917 -0.2025306
v 0.3813775 0.693677 -0.2018111
v 0.4545127 0.6835507 -0.1559165
v 0.367233 0.6020355 -0.1699879
v 0.5073202 0.6280682 -0.06425195
v 0.4294624 0.5752732 -0.1553136
v 0.5258281 0.5635861 0.01711683
v 0.4608119 0.5306733 -0.121467
v 0.4737753 0.4756227 -0.08725834
v 0.371037 0.6183803 -0.2012267
v 0.4333285 0.5917252 -0.1884133
v 0.4677328 0.5449896 -0.1563721
v 0.482271 0.4858336 -0.1212302
v 0.3235407 0.6348124 -0.1979787
v 0.3752502 0.6561282 -0.2110481
v 0.4421162 0.6293263 -0.1992163
v 0.4508367 0.666972 -0.1890087
v 0.4838316 0.5780722 -0.1682764
v 0.4998921 0.6112158 -0.15691
v 0.5067976 0.6257415 -0.1220047
v 0.5033932 0.5109119 -0.1331547
v 0.5245054 0.5360602 -0.1216766
v 0.5306901 0.5424669 -0.03438391
v 0.5333463 0.5466123 -0.08769915
v 0.5129154 0.4397066 -0.1098156
v 0.531887 0.4538184 -0.1002217
v 0.5392033 0.4593826 -0.0736392
v 0.5328227 0.4542075 -0.04519542
v 0.5095903 0.4935918 -0.0150498
v 0.5136313 0.4380943 -0.03437152
v 0.5388466 0.3788397 -0.04624412
v 0.5453763 0.380434 -0.07100488
v 0.5388259 0.3786432 -0.09567434
v 0.4936993 0.4247987 -0.04504517
v 0.5214012 0.3743221 -0.03691535
v 0.4867262 0.4202848 -0.07329495
v 0.4939452 0.4256535 -0.09987695
v 0.5213909 0.3741337 -0.1047596
v 0.5039588 0.3696756 -0.09534188
v 0.4974158 0.3680218 -0.07067006
v 0.503953 0.369753 -0.04608955
v 0.5649259 0.3235533 -0.07058091
v 0.5560794 0.3237871 -0.1026731
v 0.5341301 0.3229398 -0.1149835
v 0.5117984 0.3231281 -0.1022436
v 0.5033471 0.3225618 -0.07013183
v 0.5117928 0.3232305 -0.03814813
v 0.5561037 0.3240236 -0.03836468
v 0.534143 0.3231754 -0.02572929
v 0.5727574 0.2918373 -0.07043845
v 0.5646889 0.2967147 -0.1013767
v 0.545357 0.2920088 -0.1100472
v 0.522114 0.297183 -0.1010018
v 0.5179683 0.2923893 -0.07003704
v 0.5494695 0.2817949 -0.07021597
v 0.5647068 0.2969165 -0.03943153
v 0.5453687 0.2922178 -0.03042834
v 0.5221142 0.2973061 -0.03918246
v 0.531978 0.5073329 0.07444511
v 0.5166516 0.4573127 0.05937853
v 0.5418459 0.4639483 0.0953491
v 0.5349652 0.4620627 0.06931545
v 0.5199879 0.4075481 0.04647344
v 0.5457351 0.4089367 0.06134996
v 0.5559148 0.4086066 0.0990046
v 0.5457633 0.4092107 0.1360993
v 0.4941689 0.4076758 0.06066178
v 0.5200031 0.407822 0.1504283
v 0.4840763 0.4067636 0.09789715
v 0.4941625 0.4077953 0.1351972
v 0.5476287 0.3727584 0.06682566
v 0.5556253 0.3656049 0.1054994
v 0.5476499 0.373 0.1414259
v 0.5223357 0.3656256 0.1532738
v 0.5223217 0.3653723 0.05669377
v 0.5231391 0.3501825 0.1076194
v 0.496246 0.3727902 0.1405661
v 0.4890321 0.3653929 0.1044682
v 0.4962455 0.3726408 0.06609393
vt 0 0
vt 0 0
vt 0 0
vt 0 0
vt 0 0
vt 0 0
vt 0 0
vt 0 0
vt 0 0
vt 0 0
vt 0 0
vt 0 0
vt 0 0
vt 0 0
vt 0 0
vt 0 0
vt 0 0
vt 0 0
vt 0 0
vt 0 0
vt 0 0
vt 0 0
vt 0 0
vt 0 0
vt 0 0
vt 0 0
vt 0 0
vt 0 0
vt 0 0
vt 0 0
vt 0 0
vt 0 0
vt 0 0
vt 0 0
vt 0 0
vt 0 0
vt 0 0
vt 0 0
vt 0 0
vt 0 0
vt 0 0
vt 0 0
vt 0 0
vt 0 0
vt 0 0
vt 0 0
vt 0 0
vt 0 0
vt 0 0
vt 0 0
vt 0 0
vt 0 0
vt 0 0
vt 0 0
vt 0 0
vt 0 0
vt 0 0
vt 0 0
vt 0 0
vt 0 0
vt 0 0
vt 0 0
vt 0 0
vt 0 0
vt 0 0
vt 0 0
vt 0 0
vt 0 0
vt 0 0
vt 0 0
vt 0 0
vt 0 0
vt 0 0
vt 0 0
vt 0 0
vt 0 0
vt 0 0
vt 0 0
vt 0 0
vt 0 0
vt 0 0
vt 0 0
vt 0 0
vt 0 0
vt 0 0
vt 0 0
vt 0 0
vt 0 0
vt 0 0
vt 0 0
vt 0 0
vt 0 0
vt 0 0
vt 0 0
vt 0 0
vt 0 0
vt 0 0
vt 0 0
vt 0 0
vt 0 0
vt 0 0
vt 0 0
vt 0 0
vt 0 0
vt 0 0
vt 0 0
vt 0 0
vt 0 0
vt 0 0
vt 0 0
vt 0 0
vt 0 0
vt 0 0
vt 0 0
vt 0 0
vt 0 0
vt 0 0
vt 0 0
vt 0 0
vt 0 0
vt 0 0
vt 0 0
vt 0 0
vt 0 0
vt 0 0
vt 0 0
vt 0 0
vt 0 0
vt 0 0
vt 0 0
vt 0 0
vt 0 0
vt 0 0
vt 0 0
vt 0 0
vt 0 0
vt 0 0
vt 0 0
vt 0 0
vt 0 0
vt 0 0
vt 0 0
vt 0 0
vt 0 0
vt 0 0
vt 0 0
vt 0 0
vt 0 0
vt 0 0
vt 0 0
vt 0 0
vt 0 0
vt 0 0
vt 0 0
vn -0.4907227 0.8242188 0.2822266
vn 0.1044312 0.6235352 0.7749023
vn -0.3112793 0.6054688 0.7324219
vn -0.5507813 0.05667114 0.8330078
vn -0.0308075 0.004337311 0.9995117
vn 0.1361084 0.9594727 0.2463379
vn 0.208374 -0.04110718 0.9770508
vn 0.4729004 0.4975586 0.7270508
vn -0.2220459 -0.5751953 0.7871094
vn -0.1817627 -0.5566406 0.8105469
vn -0.9443359 0.1057739 0.3115234
vn -0.4970703 0.8676758 0.02006531
vn -0.4702148 -0.5019531 0.7260742
vn -0.3710938 -0.8930664 0.2546387
vn -0.6928711 -0.6650391 0.2788086
vn -0.5532227 -0.7910156 0.260498
vn -0.9931641 0.1149902 0.02479553
vn -0.2905273 -0.5688477 0.7695313
vn 0.359375 -0.1849365 0.9145508
vn -0.8129883 -0.5454102 0.2036133
vn -0.402832 -0.9150391 0.01873779
vn -0.6157227 -0.7880859 0.01626587
vn -0.7138672 -0.7001953 0.021698
vn -0.8574219 -0.5141602 -0.01567078
vn -0.4946289 0.8691406 -0.002056122
vn -0.9931641 0.1170044 -0.001741409
vn 0.1228638 0.9921875 0.0171051
vn 0.5605469 0.7939453 0.2353516
vn 0.7363281 0.2502441 0.628418
vn -0.4038086 -0.9150391 -0.0002110004
vn -0.6171875 -0.7866211 0.001226425
vn -0.8496094 -0.5273438 0.01445007
vn -0.7133789 -0.7006836 -0.0005774498
vn 0.5541992 0.8325195 0.01582336
vn 0.8525391 0.4929199 0.1749268
vn 0.1223755 0.9926758 -0.001206398
vn -0.4946289 0.8686523 -0.02510071
vn -0.9926758 0.1185913 -0.02928162
vn -0.6206055 -0.7841797 -0.01512909
vn -0.4016113 -0.9155273 -0.01974487
vn -0.7143555 -0.6992188 -0.02345276
vn -0.8876953 -0.4589844 0.0309906
vn -0.7739258 -0.4689941 0.425293
vn -0.4111328 -0.902832 0.1253662
vn -0.6401367 -0.6958008 -0.3259277
vn -0.8276367 -0.5419922 0.1462402
vn -0.3588867 -0.6235352 0.6943359
vn 0.4089355 -0.3605957 0.8383789
vn 0.840332 -0.005695343 0.5424805
vn 0.6586914 -0.5693359 -0.4919434
vn -0.7138672 -0.3173828 -0.6240234
vn -0.909668 -0.4140625 0.03079224
vn -0.5361328 -0.5126953 0.6704102
vn 0.3122559 -0.3486328 0.8837891
vn 0.753418 -0.6499023 0.1000366
vn 0.9863281 0.07269287 -0.149292
vn 0.1711426 -0.1512451 -0.9736328
vn -0.7719727 0.08642578 -0.6298828
vn -0.9995117 -0.009803772 -0.02571106
vn -0.7954102 -0.000367403 0.605957
vn 0.8447266 -0.09185791 0.5273438
vn 0.01721191 0.09106445 0.9956055
vn 0.9741211 0.199707 0.1052856
vn 0.8569336 0.515625 -0.01082611
vn 0.5561523 0.8310547 -0.001804352
vn 0.1248779 0.9921875 -0.02030945
vn -0.482666 0.8271484 -0.2880859
vn -0.940918 0.1123047 -0.3188477
vn 0.9975586 0.05825806 0.03546143
vn 0.8696289 0.4934082 -0.008262634
vn 0.5625 0.8266602 -0.01931763
vn 0.1507568 0.9560547 -0.251709
vn -0.2941895 0.6074219 -0.737793
vn 0.7910156 0.144043 0.5947266
vn -0.6918945 -0.6630859 -0.2856445
vn -0.5366211 0.06427002 -0.8413086
vn 0.1439209 0.6142578 -0.7758789
vn 0.5917969 0.7714844 -0.2335205
vn -0.3547363 -0.8974609 -0.262207
vn 0.871582 0.4897461 -0.001947403
vn -0.5166016 -0.8125 -0.2705078
vn 0.9995117 0.01963806 0.01068115
vn -0.84375 -0.5039063 -0.1860352
vn -0.953125 -0.2897949 -0.08764648
vn -0.173584 -0.5786133 -0.796875
vn -0.04550171 -0.59375 -0.8032227
vn -0.2337646 -0.6054688 -0.7607422
vn -0.5595703 -0.4291992 -0.7094727
vn -0.4584961 -0.4980469 -0.7358398
vn 0.02337646 0.0009908676 -0.9995117
vn 0.3288574 -0.07757568 -0.940918
vn 0.5449219 0.4572754 -0.703125
vn 0.4768066 -0.2286377 -0.8486328
vn 0.8017578 0.1884766 -0.5668945
vn 0.8813477 0.4436035 -0.1635742
vn 0.3740234 -0.3022461 -0.8769531
vn 0.8549805 -0.01430511 -0.5185547
vn 0.9858398 0.04345703 0.1624756
vn 0.9829102 0.1569824 -0.0947876
vn 0.1439209 -0.1878662 -0.9716797
vn 0.8173828 -0.0319519 -0.5751953
vn 0.9975586 0.05368042 -0.04074097
vn 0.8662109 -0.002262115 0.4995117
vn 0.5268555 -0.5170898 0.6748047
vn 0.09216309 -0.1474609 0.9848633
vn 0.7641602 0.1915283 0.6162109
vn 0.9790039 0.2033691 -0.005596161
vn 0.7607422 0.1743164 -0.625
vn -0.7661133 -0.2104492 0.6074219
vn -0.01875305 0.07989502 0.996582
vn -0.9736328 -0.2268066 -0.02174377
vn -0.7109375 -0.2553711 -0.6552734
vn -0.01856995 0.04763794 -0.9985352
vn -0.7802734 -0.1130371 -0.6152344
vn -0.9868164 -0.161377 -0.000469923
vn -0.7832031 -0.09002686 0.6152344
vn 0.9555664 0.295166 -0.001621246
vn 0.7392578 0.2348633 -0.6313477
vn -0.0284729 0.01875305 -0.9995117
vn -0.7680664 -0.1933594 -0.6103516
vn -0.9638672 -0.2670898 0.001566887
vn -0.7651367 -0.1833496 0.6171875
vn 0.7416992 0.2432861 0.625
vn -0.01931763 0.03396606 0.9990234
vn 0.8920898 -0.4523926 -1.829863E-05
vn 0.7617188 -0.3359375 -0.5537109
vn 0.07061768 -0.6293945 -0.7739258
vn -0.6035156 -0.6152344 -0.5068359
vn -0.6660156 -0.7460938 0.002445221
vn 0.05471802 -0.9985352 0.00295639
vn 0.765625 -0.3305664 0.5517578
vn 0.07879639 -0.6230469 0.7783203
vn -0.6000977 -0.6118164 0.515625
vn 0.8652344 0.02145386 -0.5014648
vn -0.02124023 0.1859131 -0.9824219
vn 0.9868164 0.1604004 -0.01229858
vn 0.7529297 0.1943359 -0.6289063
vn 0.001324654 0.0177002 -1
vn 0.7695313 0.07775879 -0.6337891
vn 0.9912109 0.1309814 -0.00586319
vn 0.7592773 0.2092285 0.6162109
vn -0.7719727 0.001481056 -0.6357422
vn -0.02992249 0.2226563 0.9746094
vn -0.9995117 0.03076172 -0.006969452
vn -0.7895508 0.1313477 0.5991211
vn 0.7241211 -0.4467773 -0.5253906
vn 0.8383789 -0.5449219 0.01637268
vn 0.730957 -0.3439941 0.5893555
vn 0.003791809 -0.5424805 0.8398438
vn 0.02153015 -0.6708984 -0.7412109
vn 0.01363373 -0.9995117 0.02764893
vn -0.715332 -0.3933105 0.5771484
vn -0.8012695 -0.5976563 0.01280212
vn -0.6879883 -0.4990234 -0.5273438
g Honey2_0
f 3/3/3 2/2/2 1/1/1
f 4/4/4 3/3/3 1/1/1
f 5/5/5 2/2/2 3/3/3
f 4/4/4 5/5/5 3/3/3
f 2/2/2 6/6/6 1/1/1
f 5/5/5 7/7/7 2/2/2
f 2/2/2 8/8/8 6/6/6
f 7/7/7 8/8/8 2/2/2
f 9/9/9 5/5/5 4/4/4
f 10/10/10 7/7/7 5/5/5
f 9/9/9 10/10/10 5/5/5
f 11/11/11 4/4/4 1/1/1
f 1/1/1 6/6/6 12/12/12
f 11/11/11 1/1/1 12/12/12
f 13/13/13 9/9/9 4/4/4
f 13/13/13 4/4/4 11/11/11
f 14/14/14 9/9/9 13/13/13
f 15/15/15 13/13/13 11/11/11
f 15/15/15 14/14/14 13/13/13
f 16/16/16 10/10/10 9/9/9
f 14/14/14 16/16/16 9/9/9
f 17/17/17 11/11/11 12/12/12
f 15/15/15 11/11/11 17/17/17
f 10/10/10 18/18/18 7/7/7
f 7/7/7 19/19/19 8/8/8
f 18/18/18 19/19/19 7/7/7
f 16/16/16 20/20/20 10/10/10
f 20/20/20 18/18/18 10/10/10
f 21/21/21 14/14/14 15/15/15
f 22/22/22 16/16/16 14/14/14
f 21/21/21 22/22/22 14/14/14
f 23/23/23 15/15/15 17/17/17
f 23/23/23 21/21/21 15/15/15
f 24/24/24 20/20/20 16/16/16
f 22/22/22 24/24/24 16/16/16
f 17/17/17 12/12/12 25/25/25
f 23/23/23 17/17/17 26/26/26
f 26/26/26 17/17/17 25/25/25
f 12/12/12 27/27/27 25/25/25
f 6/6/6 27/27/27 12/12/12
f 6/6/6 28/28/28 27/27/27
f 8/8/8 28/28/28 6/6/6
f 8/8/8 29/29/29 28/28/28
f 19/19/19 29/29/29 8/8/8
f 30/30/30 21/21/21 23/23/23
f 31/31/31 22/22/22 21/21/21
f 30/30/30 31/31/31 21/21/21
f 32/32/32 24/24/24 22/22/22
f 31/31/31 32/32/32 22/22/22
f 33/33/33 23/23/23 26/26/26
f 33/33/33 30/30/30 23/23/23
f 28/28/28 34/34/34 27/27/27
f 29/29/29 35/35/35 28/28/28
f 28/28/28 35/35/35 34/34/34
f 27/27/27 34/34/34 36/36/36
f 27/27/27 36/36/36 25/25/25
f 26/26/26 25/25/25 37/37/37
f 25/25/25 36/36/36 37/37/37
f 33/33/33 26/26/26 38/38/38
f 38/38/38 26/26/26 37/37/37
f 39/39/39 31/31/31 30/30/30
f 40/40/40 30/30/30 33/33/33
f 40/40/40 39/39/39 30/30/30
f 41/41/41 33/33/33 38/38/38
f 41/41/41 40/40/40 33/33/33
f 39/39/39 42/42/42 31/31/31
f 42/42/42 32/32/32 31/31/31
f 42/42/42 43/43/43 32/32/32
f 43/43/43 44/44/44 32/32/32
f 32/32/32 44/44/44 24/24/24
f 44/44/44 45/45/45 24/24/24
f 24/24/24 45/45/45 20/20/20
f 45/45/45 46/46/46 20/20/20
f 20/20/20 46/46/46 18/18/18
f 46/46/46 47/47/47 18/18/18
f 18/18/18 47/47/47 19/19/19
f 47/47/47 48/48/48 19/19/19
f 19/19/19 48/48/48 29/29/29
f 48/48/48 49/49/49 29/29/29
f 29/29/29 49/49/49 35/35/35
f 45/45/45 44/44/44 50/50/50
f 45/45/45 51/51/51 46/46/46
f 51/51/51 45/45/45 50/50/50
f 46/46/46 52/52/52 47/47/47
f 51/51/51 52/52/52 46/46/46
f 47/47/47 53/53/53 48/48/48
f 52/52/52 53/53/53 47/47/47
f 48/48/48 54/54/54 49/49/49
f 53/53/53 54/54/54 48/48/48
f 44/44/44 55/55/55 50/50/50
f 50/50/50 55/55/55 56/56/56
f 57/57/57 50/50/50 56/56/56
f 57/57/57 51/51/51 50/50/50
f 44/44/44 43/43/43 55/55/55
f 51/51/51 58/58/58 52/52/52
f 58/58/58 51/51/51 57/57/57
f 52/52/52 59/59/59 53/53/53
f 58/58/58 59/59/59 52/52/52
f 53/53/53 60/60/60 54/54/54
f 59/59/59 60/60/60 53/53/53
f 54/54/54 61/61/61 49/49/49
f 60/60/60 62/62/62 54/54/54
f 54/54/54 62/62/62 61/61/61
f 49/49/49 61/61/61 63/63/63
f 49/49/49 63/63/63 35/35/35
f 35/35/35 63/63/63 64/64/64
f 35/35/35 64/64/64 34/34/34
f 34/34/34 64/64/64 65/65/65
f 34/34/34 65/65/65 36/36/36
f 36/36/36 65/65/65 66/66/66
f 36/36/36 66/66/66 37/37/37
f 37/37/37 66/66/66 67/67/67
f 38/38/38 37/37/37 67/67/67
f 68/68/68 38/38/38 67/67/67
f 41/41/41 38/38/38 68/68/68
f 61/61/61 69/69/69 63/63/63
f 63/63/63 56/56/56 64/64/64
f 63/63/63 69/69/69 56/56/56
f 64/64/64 70/70/70 65/65/65
f 64/64/64 56/56/56 70/70/70
f 65/65/65 71/71/71 66/66/66
f 65/65/65 70/70/70 71/71/71
f 66/66/66 72/72/72 67/67/67
f 66/66/66 71/71/71 72/72/72
f 68/68/68 67/67/67 73/73/73
f 67/67/67 72/72/72 73/73/73
f 61/61/61 74/74/74 69/69/69
f 62/62/62 74/74/74 61/61/61
f 75/75/75 41/41/41 68/68/68
f 76/76/76 68/68/68 73/73/73
f 75/75/75 68/68/68 76/76/76
f 72/72/72 77/77/77 73/73/73
f 73/73/73 77/77/77 76/76/76
f 71/71/71 78/78/78 72/72/72
f 72/72/72 78/78/78 77/77/77
f 75/75/75 79/79/79 41/41/41
f 79/79/79 40/40/40 41/41/41
f 71/71/71 80/80/80 78/78/78
f 70/70/70 80/80/80 71/71/71
f 79/79/79 81/81/81 40/40/40
f 81/81/81 39/39/39 40/40/40
f 70/70/70 82/82/82 80/80/80
f 56/56/56 82/82/82 70/70/70
f 81/81/81 83/83/83 39/39/39
f 83/83/83 42/42/42 39/39/39
f 83/83/83 84/84/84 42/42/42
f 84/84/84 43/43/43 42/42/42
f 85/85/85 79/79/79 75/75/75
f 86/86/86 81/81/81 79/79/79
f 85/85/85 86/86/86 79/79/79
f 87/87/87 83/83/83 81/81/81
f 86/86/86 87/87/87 81/81/81
f 88/88/88 84/84/84 83/83/83
f 87/87/87 88/88/88 83/83/83
f 89/89/89 85/85/85 75/75/75
f 89/89/89 75/75/75 76/76/76
f 76/76/76 90/90/90 89/89/89
f 90/90/90 85/85/85 89/89/89
f 77/77/77 90/90/90 76/76/76
f 91/91/91 86/86/86 85/85/85
f 90/90/90 91/91/91 85/85/85
f 77/77/77 92/92/92 90/90/90
f 92/92/92 91/91/91 90/90/90
f 78/78/78 92/92/92 77/77/77
f 93/93/93 87/87/87 86/86/86
f 91/91/91 93/93/93 86/86/86
f 92/92/92 94/94/94 91/91/91
f 94/94/94 93/93/93 91/91/91
f 78/78/78 95/95/95 92/92/92
f 95/95/95 94/94/94 92/92/92
f 80/80/80 95/95/95 78/78/78
f 93/93/93 96/96/96 87/87/87
f 96/96/96 88/88/88 87/87/87
f 94/94/94 97/97/97 93/93/93
f 97/97/97 96/96/96 93/93/93
f 80/80/80 98/98/98 95/95/95
f 82/82/82 98/98/98 80/80/80
f 95/95/95 99/99/99 94/94/94
f 99/99/99 97/97/97 94/94/94
f 98/98/98 99/99/99 95/95/95
f 96/96/96 100/100/100 88/88/88
f 97/97/97 101/101/101 96/96/96
f 101/101/101 100/100/100 96/96/96
f 99/99/99 102/102/102 97/97/97
f 102/102/102 101/101/101 97/97/97
f 98/98/98 103/103/103 99/99/99
f 103/103/103 102/102/102 99/99/99
f 104/104/104 98/98/98 82/82/82
f 98/98/98 104/104/104 103/103/103
f 55/55/55 104/104/104 82/82/82
f 55/55/55 82/82/82 56/56/56
f 43/43/43 104/104/104 55/55/55
f 104/104/104 105/105/105 103/103/103
f 104/104/104 43/43/43 105/105/105
f 103/103/103 106/106/106 102/102/102
f 103/103/103 105/105/105 106/106/106
f 102/102/102 107/107/107 101/101/101
f 106/106/106 107/107/107 102/102/102
f 101/101/101 108/108/108 100/100/100
f 107/107/107 108/108/108 101/101/101
f 43/43/43 109/109/109 105/105/105
f 105/105/105 110/110/110 106/106/106
f 105/105/105 109/109/109 110/110/110
f 111/111/111 109/109/109 43/43/43
f 84/84/84 111/111/111 43/43/43
f 112/112/112 111/111/111 84/84/84
f 88/88/88 112/112/112 84/84/84
f 100/100/100 112/112/112 88/88/88
f 100/100/100 113/113/113 112/112/112
f 108/108/108 113/113/113 100/100/100
f 112/112/112 114/114/114 111/111/111
f 113/113/113 114/114/114 112/112/112
f 111/111/111 115/115/115 109/109/109
f 114/114/114 115/115/115 111/111/111
f 109/109/109 116/116/116 110/110/110
f 115/115/115 116/116/116 109/109/109
f 107/107/107 117/117/117 108/108/108
f 108/108/108 118/118/118 113/113/113
f 117/117/117 118/118/118 108/108/108
f 113/113/113 119/119/119 114/114/114
f 118/118/118 119/119/119 113/113/113
f 114/114/114 120/120/120 115/115/115
f 119/119/119 120/120/120 114/114/114
f 115/115/115 121/121/121 116/116/116
f 120/120/120 121/121/121 115/115/115
f 116/116/116 122/122/122 110/110/110
f 121/121/121 122/122/122 116/116/116
f 123/123/123 117/117/117 107/107/107
f 106/106/106 123/123/123 107/107/107
f 110/110/110 124/124/124 106/106/106
f 122/122/122 124/124/124 110/110/110
f 124/124/124 123/123/123 106/106/106
f 117/117/117 125/125/125 118/118/118
f 118/118/118 126/126/126 119/119/119
f 125/125/125 126/126/126 118/118/118
f 126/126/126 127/127/127 119/119/119
f 119/119/119 127/127/127 120/120/120
f 126/126/126 125/125/125 127/127/127
f 120/120/120 128/128/128 121/121/121
f 127/127/127 128/128/128 120/120/120
f 121/121/121 129/129/129 122/122/122
f 128/128/128 129/129/129 121/121/121
f 127/127/127 130/130/130 128/128/128
f 125/125/125 130/130/130 127/127/127
f 130/130/130 129/129/129 128/128/128
f 131/131/131 125/125/125 117/117/117
f 123/123/123 131/131/131 117/117/117
f 125/125/125 131/131/131 130/130/130
f 132/132/132 131/131/131 123/123/123
f 131/131/131 132/132/132 130/130/130
f 124/124/124 132/132/132 123/123/123
f 130/130/130 132/132/132 129/129/129
f 129/129/129 133/133/133 122/122/122
f 122/122/122 133/133/133 124/124/124
f 132/132/132 133/133/133 129/129/129
f 133/133/133 132/132/132 124/124/124
f 134/134/134 57/57/57 56/56/56
f 69/69/69 134/134/134 56/56/56
f 135/135/135 57/57/57 134/134/134
f 135/135/135 58/58/58 57/57/57
f 69/69/69 136/136/136 134/134/134
f 74/74/74 136/136/136 69/69/69
f 137/137/137 135/135/135 134/134/134
f 136/136/136 137/137/137 134/134/134
f 58/58/58 135/135/135 138/138/138
f 135/135/135 137/137/137 139/139/139
f 138/138/138 135/135/135 139/139/139
f 136/136/136 140/140/140 137/137/137
f 140/140/140 139/139/139 137/137/137
f 74/74/74 141/141/141 136/136/136
f 141/141/141 140/140/140 136/136/136
f 142/142/142 58/58/58 138/138/138
f 58/58/58 142/142/142 59/59/59
f 143/143/143 141/141/141 74/74/74
f 62/62/62 143/143/143 74/74/74
f 142/142/142 144/144/144 59/59/59
f 59/59/59 144/144/144 60/60/60
f 60/60/60 145/145/145 62/62/62
f 145/145/145 143/143/143 62/62/62
f 144/144/144 145/145/145 60/60/60
f 138/138/138 139/139/139 146/146/146
f 140/140/140 147/147/147 139/139/139
f 147/147/147 146/146/146 139/139/139
f 141/141/141 148/148/148 140/140/140
f 148/148/148 147/147/147 140/140/140
f 149/149/149 148/148/148 141/141/141
f 143/143/143 149/149/149 141/141/141
f 148/148/148 149/149/149 147/147/147
f 142/142/142 138/138/138 150/150/150
f 150/150/150 138/138/138 146/146/146
f 147/147/147 151/151/151 146/146/146
f 149/149/149 151/151/151 147/147/147
f 151/151/151 150/150/150 146/146/146
f 152/152/152 149/149/149 143/143/143
f 145/145/145 152/152/152 143/143/143
f 149/149/149 152/152/152 151/151/151
f 153/153/153 152/152/152 145/145/145
f 152/152/152 153/153/153 151/151/151
f 144/144/144 153/153/153 145/145/145
f 151/151/151 153/153/153 150/150/150
f 154/154/154 142/142/142 150/150/150
f 142/142/142 154/154/154 144/144/144
f 154/154/154 153/153/153 144/144/144
f 153/153/153 154/154/154 150/150/150
