g Honey3
v 0.1332881 0.5960735 0.3050936
v 0.1529682 0.5757305 0.35866
v 0.1892431 0.6405076 0.3688337
v 0.1499661 0.6494347 0.3000474
v 0.05825559 0.5854374 0.2920194
v 0.1535076 0.7051407 0.3812187
v 0.1886559 0.6140274 0.4481064
v 0.151935 0.6729326 0.4677256
v 0.0573625 0.5514618 0.3532545
v 0.1513943 0.5551998 0.4283618
v 0.05844754 0.6517467 0.2748101
v 0.1336375 0.7006994 0.3188096
v -0.01682815 0.5961534 0.3048719
v 0.05764852 0.7297931 0.383891
v 0.05845629 0.713595 0.3077047
v -0.0332542 0.6495976 0.2996766
v -0.03817366 0.5758059 0.3584262
v 0.05315983 0.6951904 0.4748484
v 0.05288279 0.5331494 0.4209043
v -0.01684828 0.7008869 0.318423
v -0.03829733 0.7054135 0.380694
v -0.0742321 0.6407473 0.3683118
v -0.04569091 0.673255 0.4672592
v -0.0455532 0.5552918 0.4281589
v -0.08261331 0.6143122 0.4476463
v 0.0411103 0.6201218 0.5418625
v -0.05350716 0.6046373 0.5294821
v -0.08886831 0.5628057 0.4968151
v -0.05339408 0.5208753 0.4642219
v 0.04088278 0.5051273 0.4520377
v 0.1356657 0.6042442 0.5297452
v 0.1352217 0.5207416 0.4643512
v 0.1708614 0.5624434 0.497085
v -0.06910236 0.5231864 0.5581766
v -0.1007802 0.4970158 0.5148987
v -0.06901389 0.470729 0.4716499
v 0.0154451 0.4608355 0.4554571
v 0.01562308 0.5327697 0.5744467
v 0.09995264 0.4705605 0.4717159
v 0.1003 0.5227346 0.5582651
v 0.1318484 0.4965894 0.5150051
v -0.09426239 0.4515301 0.5576982
v -0.0258846 0.4592069 0.5745315
v 0.04249809 0.4510817 0.5577733
v 0.06815197 0.4300245 0.5129936
v 0.04251806 0.4090829 0.4681883
v -0.1199032 0.4304483 0.5129002
v -0.1249155 0.391684 0.5468383
v -0.07081079 0.3997996 0.5620834
v -0.02586663 0.4012659 0.4513621
v -0.01636758 0.3912786 0.5469847
v -0.09425621 0.409251 0.4681277
v -0.1457786 0.3694891 0.5063732
v 0.005398066 0.3691099 0.506533
v -0.1551163 0.3390593 0.5435368
v -0.01406629 0.3470446 0.4660378
v -0.06956975 0.3387995 0.4508228
v -0.1054084 0.3475677 0.5568948
v -0.1254117 0.3471907 0.4659516
v -0.05459655 0.3387064 0.5437316
v -0.03112588 0.31556 0.5083753
v -0.1756429 0.3158864 0.5081702
v -0.04706895 0.2925028 0.4729632
v -0.1772812 0.2832639 0.5478894
v -0.1265346 0.2918564 0.560026
v -0.1013604 0.2838788 0.4596507
v -0.07388841 0.2829798 0.5480891
v -0.1567559 0.2926246 0.4728594
v -0.199526 0.2599597 0.5157866
v -0.04657785 0.2596999 0.5159959
v -0.18516 0.2143328 0.5561469
v -0.06098042 0.2364907 0.4838456
v -0.1195692 0.2278031 0.4717566
v -0.1342612 0.2230747 0.5682271
v -0.1800577 0.2365846 0.483741
v -0.08110327 0.2148415 0.556318
v -0.0522427 0.1923498 0.5243375
v -0.2079963 0.1915576 0.5241569
v -0.0658604 0.169642 0.4923078
v -0.1794727 0.1298122 0.5670263
v -0.1309136 0.1395626 0.57974
v -0.1259778 0.1608326 0.4802676
v -0.0803431 0.1353094 0.5671827
v -0.1883544 0.1689984 0.4922161
v -0.2009849 0.1100765 0.5333273
v -0.05346733 0.1177021 0.533492
v -0.1630524 0.03836044 0.5773298
v -0.06682363 0.09801516 0.4997564
v -0.1235387 0.08821605 0.4870794
v -0.1204291 0.04846189 0.5903239
v -0.182265 0.09242055 0.4996733
v -0.076953 0.05326937 0.5775057
v -0.0557086 0.0450291 0.543779
v -0.1807379 0.0240748 0.5435935
v -0.06861195 0.03267106 0.5097377
v -0.1434765 -0.01741365 0.5773043
v -0.1104522 -0.01900948 0.5848425
v -0.1160174 0.020642 0.4970486
v -0.08045796 -0.0006190855 0.577449
v -0.1486075 -0.03379141 0.5514902
v -0.1648697 0.01767199 0.5096457
v -0.07078784 -0.0115558 0.5516422
v -0.106537 -0.04270918 0.5543655
v -0.07646966 -0.008813771 0.5231356
v -0.1089431 -0.02633773 0.5182897
v -0.1444108 -0.02565931 0.5230401
vt 0 0
vt 0 0
vt 0 0
vt 0 0
vt 0 0
vt 0 0
vt 0 0
vt 0 0
vt 0 0
vt 0 0
vt 0 0
vt 0 0
vt 0 0
vt 0 0
vt 0 0
vt 0 0
vt 0 0
vt 0 0
vt 0 0
vt 0 0
vt 0 0
vt 0 0
vt 0 0
vt 0 0
vt 0 0
vt 0 0
vt 0 0
vt 0 0
vt 0 0
vt 0 0
vt 0 0
vt 0 0
vt 0 0
vt 0 0
vt 0 0
vt 0 0
vt 0 0
vt 0 0
vt 0 0
vt 0 0
vt 0 0
vt 0 0
vt 0 0
vt 0 0
vt 0 0
vt 0 0
vt 0 0
vt 0 0
vt 0 0
vt 0 0
vt 0 0
vt 0 0
vt 0 0
vt 0 0
vt 0 0
vt 0 0
vt 0 0
vt 0 0
vt 0 0
vt 0 0
vt 0 0
vt 0 0
vt 0 0
vt 0 0
vt 0 0
vt 0 0
vt 0 0
vt 0 0
vt 0 0
vt 0 0
vt 0 0
vt 0 0
vt 0 0
vt 0 0
vt 0 0
vt 0 0
vt 0 0
vt 0 0
vt 0 0
vt 0 0
vt 0 0
vt 0 0
vt 0 0
vt 0 0
vt 0 0
vt 0 0
vt 0 0
vt 0 0
vt 0 0
vt 0 0
vt 0 0
vt 0 0
vt 0 0
vt 0 0
vt 0 0
vt 0 0
vt 0 0
vt 0 0
vt 0 0
vt 0 0
vt 0 0
vt 0 0
vt 0 0
vt 0 0
vt 0 0
vt 0 0
vn 0.4658203 -0.5356445 -0.7041016
vn 0.6142578 -0.706543 -0.3510742
vn 0.9775391 0.05685425 -0.2017822
vn 0.6386719 0.09997559 -0.7631836
vn 0.001791 -0.6098633 -0.7924805
vn 0.6088867 0.7929688 0.0117569
vn 0.9853516 -0.007492065 0.1706543
vn 0.5708008 0.6538086 0.4968262
vn 0.004066467 -0.9296875 -0.3681641
vn 0.6376953 -0.7124023 -0.2927246
vn 0.002321243 0.1194458 -0.9926758
vn 0.4692383 0.7070313 -0.5288086
vn -0.4594727 -0.5332031 -0.7104492
vn 0.00396347 0.9960938 0.08880615
vn 0.003152847 0.7958984 -0.6049805
vn -0.6289063 0.102356 -0.7709961
vn -0.6000977 -0.6972656 -0.3920898
vn 0.00362587 0.8300781 0.5576172
vn 0.01513672 -0.8720703 -0.489502
vn -0.4602051 0.7080078 -0.5356445
vn -0.5957031 0.8027344 -0.02030945
vn -0.9624023 0.07366943 -0.2607422
vn -0.5664063 0.7070313 0.4228516
vn -0.6040039 -0.6430664 -0.4707031
vn -0.9956055 0.09387207 -0.01586914
vn 0.005939484 0.5126953 0.8583984
vn -0.5366211 0.4912109 0.6860352
vn -0.9902344 0.1387939 -0.0121994
vn -0.5493164 -0.2565918 -0.7954102
vn 0.01863098 -0.4589844 -0.8881836
vn 0.5126953 0.3151855 0.7988281
vn 0.621582 -0.6293945 -0.4663086
vn 0.9199219 -0.2281494 0.3195801
vn -0.5463867 0.2717285 0.7919922
vn -0.9624023 0.2573242 -0.08435059
vn -0.4863281 0.1307373 -0.8637695
vn 0.02566528 -0.0647583 -0.9975586
vn 0.009086609 0.1540527 0.987793
vn 0.5800781 -0.5205078 -0.6264648
vn 0.4523926 -0.1090698 0.8852539
vn 0.8027344 -0.5092773 0.3100586
vn -0.6044922 0.1663818 0.7792969
vn -0.0103302 -0.1131592 0.9936523
vn 0.3886719 -0.401123 0.8295898
vn 0.6821289 -0.6704102 0.2924805
vn 0.5869141 -0.5102539 -0.6289063
vn -0.9150391 0.3754883 -0.1484375
vn -0.6635742 0.2668457 0.6987305
vn -0.02990723 -0.1376953 0.9902344
vn 0.02868652 -0.007358551 -0.9995117
vn 0.395752 -0.4345703 0.809082
vn -0.4892578 0.2592773 -0.8325195
vn -0.8662109 0.4472656 -0.2230225
vn 0.7128906 -0.6303711 0.3071289
vn -0.6733398 0.3566895 0.6479492
vn 0.6230469 -0.4741211 -0.6220703
vn 0.01608276 -0.08404541 -0.9960938
vn -0.04336548 0.01556396 0.9990234
vn -0.5019531 0.2235107 -0.8354492
vn 0.4587402 -0.2384033 0.855957
vn 0.8613281 -0.4138184 0.2949219
vn -0.8950195 0.3994141 -0.1984863
vn 0.6523438 -0.3752441 -0.6586914
vn -0.6542969 0.2683105 0.7070313
vn -0.03527832 0.1069336 0.9936523
vn -0.005455017 -0.1586914 -0.9873047
vn 0.4992676 -0.02642822 0.8662109
vn -0.5351563 0.1217041 -0.8359375
vn -0.9707031 0.2254639 -0.08197021
vn 0.9584961 -0.1618652 0.234375
vn -0.6098633 0.1237183 0.7827148
vn 0.6621094 -0.2200928 -0.7163086
vn -0.007797241 -0.1499023 -0.9887695
vn -0.02124023 0.1257324 0.9916992
vn -0.5805664 0.01380157 -0.8139648
vn 0.5209961 0.08044434 0.8496094
vn 0.984375 -0.02426147 0.1732178
vn -0.9995117 0.02383423 0.01641846
vn 0.6538086 -0.1108398 -0.7485352
vn -0.5976563 0.02368164 0.8012695
vn -0.01754761 0.118103 0.9926758
vn -0.001942635 -0.1112061 -0.9936523
vn 0.5541992 0.1147461 0.8242188
vn -0.6118164 -0.08990479 -0.7861328
vn -0.9882813 -0.1343994 0.07263184
vn 0.9907227 0.009391785 0.1339111
vn -0.5957031 -0.1234131 0.793457
vn 0.6650391 -0.1013794 -0.7397461
vn 0.006538391 -0.1318359 -0.9912109
vn -0.004089355 0.02133179 1
vn -0.6293945 -0.19104 -0.7529297
vn 0.5991211 0.02911377 0.800293
vn 0.9873047 -0.09649658 0.1251221
vn -0.9404297 -0.326416 0.09643555
vn 0.6933594 -0.2285156 -0.6831055
vn -0.4755859 -0.4567871 0.7519531
vn 0.12323 -0.4953613 0.8598633
vn 0.04449463 -0.2751465 -0.9604492
vn 0.612793 -0.2695313 0.7426758
vn -0.5708008 -0.8120117 0.1210938
vn -0.6064453 -0.3693848 -0.7041016
vn 0.8369141 -0.5302734 0.1374512
vn 0.2319336 -0.9628906 0.1396484
vn 0.6650391 -0.5068359 -0.5488281
vn 0.1693115 -0.7143555 -0.6791992
vn -0.4394531 -0.6806641 -0.5864258
g Honey3_0
f 3/3/3 2/2/2 1/1/1
f 4/4/4 3/3/3 1/1/1
f 1/1/1 2/2/2 5/5/5
f 1/1/1 5/5/5 4/4/4
f 6/6/6 3/3/3 4/4/4
f 3/3/3 7/7/7 2/2/2
f 6/6/6 8/8/8 3/3/3
f 8/8/8 7/7/7 3/3/3
f 2/2/2 9/9/9 5/5/5
f 7/7/7 10/10/10 2/2/2
f 2/2/2 10/10/10 9/9/9
f 5/5/5 11/11/11 4/4/4
f 12/12/12 6/6/6 4/4/4
f 4/4/4 11/11/11 12/12/12
f 5/5/5 9/9/9 13/13/13
f 5/5/5 13/13/13 11/11/11
f 14/14/14 6/6/6 12/12/12
f 11/11/11 15/15/15 12/12/12
f 15/15/15 14/14/14 12/12/12
f 13/13/13 16/16/16 11/11/11
f 11/11/11 16/16/16 15/15/15
f 9/9/9 17/17/17 13/13/13
f 16/16/16 13/13/13 17/17/17
f 18/18/18 8/8/8 6/6/6
f 14/14/14 18/18/18 6/6/6
f 10/10/10 19/19/19 9/9/9
f 9/9/9 19/19/19 17/17/17
f 16/16/16 20/20/20 15/15/15
f 21/21/21 14/14/14 15/15/15
f 20/20/20 21/21/21 15/15/15
f 20/20/20 16/16/16 22/22/22
f 22/22/22 16/16/16 17/17/17
f 21/21/21 20/20/20 22/22/22
f 21/21/21 23/23/23 14/14/14
f 23/23/23 18/18/18 14/14/14
f 22/22/22 17/17/17 24/24/24
f 19/19/19 24/24/24 17/17/17
f 21/21/21 22/22/22 25/25/25
f 23/23/23 21/21/21 25/25/25
f 25/25/25 22/22/22 24/24/24
f 18/18/18 26/26/26 8/8/8
f 23/23/23 27/27/27 18/18/18
f 27/27/27 26/26/26 18/18/18
f 23/23/23 25/25/25 28/28/28
f 27/27/27 23/23/23 28/28/28
f 25/25/25 24/24/24 29/29/29
f 28/28/28 25/25/25 29/29/29
f 19/19/19 30/30/30 24/24/24
f 30/30/30 29/29/29 24/24/24
f 26/26/26 31/31/31 8/8/8
f 8/8/8 31/31/31 7/7/7
f 32/32/32 30/30/30 19/19/19
f 10/10/10 32/32/32 19/19/19
f 7/7/7 33/33/33 10/10/10
f 31/31/31 33/33/33 7/7/7
f 33/33/33 32/32/32 10/10/10
f 27/27/27 34/34/34 26/26/26
f 27/27/27 28/28/28 35/35/35
f 34/34/34 27/27/27 35/35/35
f 28/28/28 29/29/29 36/36/36
f 35/35/35 28/28/28 36/36/36
f 30/30/30 37/37/37 29/29/29
f 37/37/37 36/36/36 29/29/29
f 26/26/26 38/38/38 31/31/31
f 34/34/34 38/38/38 26/26/26
f 32/32/32 39/39/39 30/30/30
f 39/39/39 37/37/37 30/30/30
f 31/31/31 40/40/40 33/33/33
f 38/38/38 40/40/40 31/31/31
f 33/33/33 41/41/41 32/32/32
f 41/41/41 39/39/39 32/32/32
f 40/40/40 41/41/41 33/33/33
f 34/34/34 35/35/35 42/42/42
f 34/34/34 42/42/42 38/38/38
f 38/38/38 43/43/43 40/40/40
f 42/42/42 43/43/43 38/38/38
f 40/40/40 44/44/44 41/41/41
f 43/43/43 44/44/44 40/40/40
f 41/41/41 45/45/45 39/39/39
f 44/44/44 45/45/45 41/41/41
f 39/39/39 46/46/46 37/37/37
f 45/45/45 46/46/46 39/39/39
f 35/35/35 47/47/47 42/42/42
f 35/35/35 36/36/36 47/47/47
f 42/42/42 48/48/48 43/43/43
f 42/42/42 47/47/47 48/48/48
f 43/43/43 49/49/49 44/44/44
f 48/48/48 49/49/49 43/43/43
f 37/37/37 50/50/50 36/36/36
f 46/46/46 50/50/50 37/37/37
f 44/44/44 51/51/51 45/45/45
f 49/49/49 51/51/51 44/44/44
f 36/36/36 52/52/52 47/47/47
f 50/50/50 52/52/52 36/36/36
f 47/47/47 53/53/53 48/48/48
f 47/47/47 52/52/52 53/53/53
f 45/45/45 54/54/54 46/46/46
f 51/51/51 54/54/54 45/45/45
f 48/48/48 55/55/55 49/49/49
f 55/55/55 48/48/48 53/53/53
f 46/46/46 56/56/56 50/50/50
f 54/54/54 56/56/56 46/46/46
f 50/50/50 57/57/57 52/52/52
f 56/56/56 57/57/57 50/50/50
f 49/49/49 58/58/58 51/51/51
f 55/55/55 58/58/58 49/49/49
f 52/52/52 59/59/59 53/53/53
f 57/57/57 59/59/59 52/52/52
f 51/51/51 60/60/60 54/54/54
f 58/58/58 60/60/60 51/51/51
f 54/54/54 61/61/61 56/56/56
f 60/60/60 61/61/61 54/54/54
f 62/62/62 55/55/55 53/53/53
f 62/62/62 53/53/53 59/59/59
f 56/56/56 63/63/63 57/57/57
f 61/61/61 63/63/63 56/56/56
f 55/55/55 64/64/64 58/58/58
f 64/64/64 55/55/55 62/62/62
f 58/58/58 65/65/65 60/60/60
f 64/64/64 65/65/65 58/58/58
f 57/57/57 66/66/66 59/59/59
f 63/63/63 66/66/66 57/57/57
f 60/60/60 67/67/67 61/61/61
f 65/65/65 67/67/67 60/60/60
f 68/68/68 62/62/62 59/59/59
f 66/66/66 68/68/68 59/59/59
f 69/69/69 64/64/64 62/62/62
f 69/69/69 62/62/62 68/68/68
f 61/61/61 70/70/70 63/63/63
f 67/67/67 70/70/70 61/61/61
f 64/64/64 71/71/71 65/65/65
f 71/71/71 64/64/64 69/69/69
f 63/63/63 72/72/72 66/66/66
f 70/70/70 72/72/72 63/63/63
f 66/66/66 73/73/73 68/68/68
f 72/72/72 73/73/73 66/66/66
f 65/65/65 74/74/74 67/67/67
f 71/71/71 74/74/74 65/65/65
f 75/75/75 69/69/69 68/68/68
f 73/73/73 75/75/75 68/68/68
f 67/67/67 76/76/76 70/70/70
f 74/74/74 76/76/76 67/67/67
f 70/70/70 77/77/77 72/72/72
f 76/76/76 77/77/77 70/70/70
f 78/78/78 71/71/71 69/69/69
f 78/78/78 69/69/69 75/75/75
f 72/72/72 79/79/79 73/73/73
f 77/77/77 79/79/79 72/72/72
f 71/71/71 80/80/80 74/74/74
f 80/80/80 71/71/71 78/78/78
f 74/74/74 81/81/81 76/76/76
f 80/80/80 81/81/81 74/74/74
f 73/73/73 82/82/82 75/75/75
f 79/79/79 82/82/82 73/73/73
f 76/76/76 83/83/83 77/77/77
f 81/81/81 83/83/83 76/76/76
f 84/84/84 78/78/78 75/75/75
f 82/82/82 84/84/84 75/75/75
f 85/85/85 80/80/80 78/78/78
f 85/85/85 78/78/78 84/84/84
f 77/77/77 86/86/86 79/79/79
f 83/83/83 86/86/86 77/77/77
f 80/80/80 87/87/87 81/81/81
f 80/80/80 85/85/85 87/87/87
f 79/79/79 88/88/88 82/82/82
f 86/86/86 88/88/88 79/79/79
f 82/82/82 89/89/89 84/84/84
f 88/88/88 89/89/89 82/82/82
f 81/81/81 90/90/90 83/83/83
f 87/87/87 90/90/90 81/81/81
f 91/91/91 85/85/85 84/84/84
f 89/89/89 91/91/91 84/84/84
f 83/83/83 92/92/92 86/86/86
f 90/90/90 92/92/92 83/83/83
f 86/86/86 93/93/93 88/88/88
f 92/92/92 93/93/93 86/86/86
f 85/85/85 94/94/94 87/87/87
f 85/85/85 91/91/91 94/94/94
f 88/88/88 95/95/95 89/89/89
f 93/93/93 95/95/95 88/88/88
f 87/87/87 96/96/96 90/90/90
f 87/87/87 94/94/94 96/96/96
f 90/90/90 97/97/97 92/92/92
f 96/96/96 97/97/97 90/90/90
f 89/89/89 98/98/98 91/91/91
f 95/95/95 98/98/98 89/89/89
f 92/92/92 99/99/99 93/93/93
f 97/97/97 99/99/99 92/92/92
f 94/94/94 100/100/100 96/96/96
f 96/96/96 100/100/100 97/97/97
f 91/91/91 101/101/101 94/94/94
f 98/98/98 101/101/101 91/91/91
f 94/94/94 101/101/101 100/100/100
f 93/93/93 102/102/102 95/95/95
f 99/99/99 102/102/102 93/93/93
f 97/97/97 103/103/103 99/99/99
f 100/100/100 103/103/103 97/97/97
f 103/103/103 102/102/102 99/99/99
f 95/95/95 104/104/104 98/98/98
f 102/102/102 104/104/104 95/95/95
f 104/104/104 105/105/105 98/98/98
f 105/105/105 104/104/104 102/102/102
f 98/98/98 105/105/105 101/101/101
f 103/103/103 105/105/105 102/102/102
f 100/100/100 106/106/106 103/103/103
f 101/101/101 106/106/106 100/100/100
f 105/105/105 106/106/106 101/101/101
f 106/106/106 105/105/105 103/103/103
