g Hook
v -3.502185E-08 -0.3479739 -0.2009024
v 0.2414619 -0.5533634 -1.397168E-07
v -7.823439E-08 -0.4018055 -1.543641E-07
v 0.2414619 -0.4792268 -0.2766813
v 1.75747E-08 -0.2009032 -0.347973
v 0.2414618 -0.7878182 -8.901272E-08
v 0.241462 -0.2766821 -0.4792259
v 6.546207E-08 -9.951264E-07 -0.4018045
v 0.2414619 -0.6822705 -0.3939093
v -1.805376E-07 -0.9272263 -1.510643E-07
v 0.2414621 -1.019256E-06 -0.5533623
v 9.580889E-08 0.2009012 -0.3479729
v 0.241462 -0.3939089 -0.6822706
v -8.081793E-08 -0.8030013 -0.4636135
v -0.2414621 -0.7878181 -1.67691E-07
v 0.2414621 0.27668 -0.4792258
v 1.004837E-07 0.3479718 -0.2009023
v 0.2414621 7.194282E-08 -0.7878181
v 4.055681E-08 -0.4636129 -0.8030017
v -0.2414621 -0.6822703 -0.3939093
v -0.2414621 -0.5533633 -2.183951E-07
v 0.2414621 0.4792246 -0.2766812
v 7.823402E-08 0.4018034 -5.856642E-08
v 0.2414622 0.393909 -0.6822705
v 1.510644E-07 1.400072E-07 -0.9272263
v -0.241462 -0.3939088 -0.6822707
v -0.241462 -0.4792267 -0.2766814
v -7.823439E-08 -0.4018055 -1.543641E-07
v -3.502185E-08 -0.3479739 -0.2009024
v -0.241462 -0.276682 -0.479226
v 1.75747E-08 -0.2009032 -0.347973
v 0.2414621 0.5533611 -7.784976E-09
v 3.502148E-08 0.3479717 0.2009022
v 0.2414622 0.6822704 -0.393909
v 2.210944E-07 0.4636132 -0.8030015
v -0.2414619 1.659716E-07 -0.7878182
v -0.2414619 -9.252276E-07 -0.5533624
v 6.546207E-08 -9.951264E-07 -0.4018045
v 0.241462 0.4792246 0.2766812
v -1.757507E-08 0.2009011 0.3479728
v 0.2414621 0.7878181 9.881776E-08
v 2.318824E-07 0.8030015 -0.4636132
v -0.2414618 0.3939092 -0.6822706
v -0.2414619 0.2766801 -0.4792259
v 9.580889E-08 0.2009012 -0.3479729
v 0.241462 0.2766799 0.4792258
v -6.546244E-08 -1.055797E-06 0.4018044
v 0.2414621 0.6822704 0.3939092
v 1.805376E-07 0.9272263 7.000364E-08
v -0.2414618 0.6822705 -0.3939091
v -0.2414619 0.4792248 -0.2766813
v 1.004837E-07 0.3479718 -0.2009023
v 0.2414619 -1.102812E-06 0.5533622
v -9.580927E-08 -0.2009032 0.3479728
v 0.241462 0.3939089 0.6822706
v -0.2414618 0.7878182 2.013946E-08
v -0.2414619 0.5533613 -8.646327E-08
v 7.823402E-08 0.4018034 -5.856642E-08
v 8.081796E-08 0.8030014 0.4636133
v 0.2414619 -0.2766822 0.4792257
v -1.004841E-07 -0.3479739 0.200902
v -0.2414619 0.6822705 0.3939092
v -0.2414619 0.4792247 0.2766811
v 3.502148E-08 0.3479717 0.2009022
v 0.2414619 -4.701436E-08 0.7878182
v -4.055677E-08 0.463613 0.8030016
v 0.2414619 -0.479227 0.2766809
v -7.823439E-08 -0.4018055 -1.543641E-07
v 0.2414619 -0.5533634 -1.397168E-07
v -0.241462 0.393909 0.6822705
v -0.241462 0.2766801 0.4792257
v -1.757507E-08 0.2009011 0.3479728
v 0.2414618 -0.3939091 0.6822707
v 0.2414618 -0.6822707 0.3939089
v 0.2414618 -0.7878182 -8.901272E-08
v -1.510643E-07 2.131628E-14 0.9272263
v -0.2414621 4.701441E-08 0.7878181
v -0.2414621 -1.008783E-06 0.5533621
v -6.546244E-08 -1.055797E-06 0.4018044
v -2.210944E-07 -0.4636131 0.8030016
v -2.318823E-07 -0.8030017 0.4636129
v -1.805376E-07 -0.9272263 -1.510643E-07
v -0.2414622 -0.3939089 0.6822706
v -0.2414621 -0.2766821 0.4792257
v -9.580927E-08 -0.2009032 0.3479728
v -0.2414622 -0.6822706 0.3939088
v -0.2414621 -0.7878181 -1.67691E-07
v -0.2414621 -0.4792269 0.2766809
v -1.004841E-07 -0.3479739 0.200902
v -0.2414621 -0.5533633 -2.183951E-07
v -7.823439E-08 -0.4018055 -1.543641E-07
v -0.1189123 -0.5966001 0.2059442
v 0.1189123 -0.5966001 0.2059442
v 0.1851923 -1.454665 0.1596685
v -0.1851922 -1.454665 0.1596685
v -0.2378246 -0.5992856 -5.215406E-07
v 0.2121432 -1.885076 -0.1670097
v -0.3703845 -1.30989 -0.1265638
v -0.1189123 -0.6019711 -0.2059453
v -0.2121429 -1.885076 -0.1670097
v 0.2104221 -2.067165 -0.4050641
v -0.1851922 -1.165116 -0.4127962
v 0.1189123 -0.6019711 -0.2059453
v -0.424286 -1.620085 -0.4215567
v -0.2104219 -2.067165 -0.4050641
v 0.2087011 -2.435233 -0.4864075
v 0.1851923 -1.165116 -0.4127962
v 0.2378247 -0.5992856 -5.364418E-07
v -0.212143 -1.355095 -0.6761037
v -0.420844 -1.879901 -0.7177374
v -0.2087007 -2.435233 -0.4864075
v 0.2069801 -3.06596 -0.3405815
v 0.3703847 -1.30989 -0.1265638
v 0.1189123 -0.5966001 0.2059442
v 0.1851923 -1.454665 0.1596685
v 0.2121431 -1.355095 -0.6761037
v 0.4242862 -1.620085 -0.4215567
v 0.2121432 -1.885076 -0.1670097
v -0.210422 -1.692637 -1.030411
v -0.4174018 -2.439368 -0.8478645
v -0.2069797 -3.06596 -0.3405815
v 0.182528 -3.321723 -0.05576766
v 0.4208443 -1.879901 -0.7177374
v 0.2104221 -2.067165 -0.4050641
v 0.2104222 -1.692637 -1.030411
v -0.2087008 -2.443502 -1.209321
v -0.4139596 -3.271875 -0.6340454
v -0.1825277 -3.321723 -0.05576766
v 0.1383162 -3.211756 0.4813137
v 0.4174021 -2.439368 -0.8478645
v 0.2087011 -2.435233 -0.4864075
v 0.2087011 -2.443502 -1.209321
v -0.2069798 -3.47779 -0.9275093
v -0.3650557 -3.634408 -0.10243
v -0.1383159 -3.211756 0.4813137
v 0.09410444 -2.404269 1.242887
v -0.09410391 -2.404269 1.242887
v -0.276632 -3.410873 0.6145303
v -0.1882081 -2.485172 1.384384
v 0.41396 -3.271875 -0.6340454
v 0.2069801 -3.06596 -0.3405815
v 0.2069801 -3.47779 -0.9275093
v -0.1825278 -3.947093 -0.1490923
v -0.1383159 -3.609989 0.7477469
v -0.09410393 -2.566076 1.525881
v 0.1825281 -3.947093 -0.1490923
v 0.365056 -3.634408 -0.10243
v 0.182528 -3.321723 -0.05576766
v 0.1383162 -3.609989 0.7477469
v 0.09410446 -2.566076 1.525881
v 0.2766323 -3.410873 0.6145303
v 0.1383162 -3.211756 0.4813137
v 0.1882087 -2.485172 1.384384
v 0.09410444 -2.404269 1.242887
v 0.1882087 -2.485172 1.384384
v -0.09410391 -2.404269 1.242887
v 0.09410444 -2.404269 1.242887
v 0.09410446 -2.566076 1.525881
v -0.1882081 -2.485172 1.384384
v -0.09410393 -2.566076 1.525881
vt 0.9165039 0
vt 1 0.166626
vt 1 0
vt 0.9165039 0.166626
vt 0.8334961 0
vt 1 0.333252
vt 0.8334961 0.166626
vt 0.75 0
vt 0.9165039 0.333252
vt 1 0.5
vt 0.75 0.166626
vt 0.6665039 0
vt 0.8334961 0.333252
vt 0.9165039 0.5
vt 1 0.6665039
vt 0.6665039 0.166626
vt 0.5834961 0
vt 0.75 0.333252
vt 0.8334961 0.5
vt 0.9165039 0.6665039
vt 1 0.8334961
vt 0.5834961 0.166626
vt 0.5 0
vt 0.6665039 0.333252
vt 0.75 0.5
vt 0.8334961 0.6665039
vt 0.9165039 0.8334961
vt 1 1
vt 0.9165039 1
vt 0.8334961 0.8334961
vt 0.8334961 1
vt 0.5 0.166626
vt 0.416748 0
vt 0.5834961 0.333252
vt 0.6665039 0.5
vt 0.75 0.6665039
vt 0.75 0.8334961
vt 0.75 1
vt 0.416748 0.166626
vt 0.333252 0
vt 0.5 0.333252
vt 0.5834961 0.5
vt 0.6665039 0.6665039
vt 0.6665039 0.8334961
vt 0.6665039 1
vt 0.333252 0.166626
vt 0.25 0
vt 0.416748 0.333252
vt 0.5 0.5
vt 0.5834961 0.6665039
vt 0.5834961 0.8334961
vt 0.5834961 1
vt 0.25 0.166626
vt 0.166626 0
vt 0.333252 0.333252
vt 0.5 0.6665039
vt 0.5 0.8334961
vt 0.5 1
vt 0.416748 0.5
vt 0.166626 0.166626
vt 0.08331299 0
vt 0.416748 0.6665039
vt 0.416748 0.8334961
vt 0.416748 1
vt 0.25 0.333252
vt 0.333252 0.5
vt 0.08331299 0.166626
vt 0 0
vt 0 0.166626
vt 0.333252 0.6665039
vt 0.333252 0.8334961
vt 0.333252 1
vt 0.166626 0.333252
vt 0.08331299 0.333252
vt 0 0.333252
vt 0.25 0.5
vt 0.25 0.6665039
vt 0.25 0.8334961
vt 0.25 1
vt 0.166626 0.5
vt 0.08331299 0.5
vt 0 0.5
vt 0.166626 0.6665039
vt 0.166626 0.8334961
vt 0.166626 1
vt 0.08331299 0.6665039
vt 0 0.6665039
vt 0.08331299 0.8334961
vt 0.08331299 1
vt 0 0.8334961
vt 0 1
vt 0 0.166626
vt 0 0
vt 0.125 0
vt 0.125 0.166626
vt 0 0.333252
vt 0.25 0
vt 0.125 0.333252
vt 0 0.5
vt 0.25 0.166626
vt 0.375 0
vt 0.125 0.5
vt 0 0.6665039
vt 0.25 0.333252
vt 0.375 0.166626
vt 0.5 0
vt 0.125 0.6665039
vt 0 0.8334961
vt 0.25 0.5
vt 0.375 0.333252
vt 0.5 0.166626
vt 0.625 0
vt 0.125 0.8334961
vt 0 1
vt 0.125 1
vt 0.25 0.6665039
vt 0.25 0.8334961
vt 0.25 1
vt 0.375 0.5
vt 0.5 0.333252
vt 0.625 0.166626
vt 0.75 0
vt 0.375 0.8334961
vt 0.375 1
vt 0.375 0.6665039
vt 0.5 0.5
vt 0.625 0.333252
vt 0.75 0.166626
vt 0.875 0
vt 0.5 0.8334961
vt 0.5 1
vt 0.5 0.6665039
vt 0.625 0.5
vt 0.75 0.333252
vt 0.875 0.166626
vt 1 0
vt 1 0.166626
vt 0.875 0.333252
vt 1 0.333252
vt 0.625 0.8334961
vt 0.625 1
vt 0.625 0.6665039
vt 0.75 0.5
vt 0.875 0.5
vt 1 0.5
vt 0.75 0.6665039
vt 0.75 0.8334961
vt 0.75 1
vt 0.875 0.6665039
vt 1 0.6665039
vt 0.875 0.8334961
vt 0.875 1
vt 1 0.8334961
vt 1 1
vt 0 0
vt 0 0
vt 0 0
vt 0 0
vt 0 0
vt 0 0
vn 0 0.8662109 0.5
vn 0.9086914 0.4174805 0
vn 0 1 0
vn 0.9086914 0.3615723 0.2087402
vn 0 0.5 0.8662109
vn 0.8300781 -0.5571289 0
vn 0.9086914 0.2087402 0.3615723
vn 0 0 1
vn 0.8300781 -0.482666 -0.2785645
vn 0 -1 0
vn 0.9086914 0 0.4174805
vn 0 -0.5 0.8662109
vn 0.8300781 -0.2785645 -0.482666
vn 0 -0.8662109 -0.5
vn -0.8300781 -0.5571289 0
vn 0.9086914 -0.2087402 0.3615723
vn 0 -0.8662109 0.5
vn 0.8300781 0 -0.5571289
vn 0 -0.5 -0.8662109
vn -0.8300781 -0.482666 -0.2785645
vn -0.9086914 0.4174805 0
vn 0.9086914 -0.3615723 0.2087402
vn 0 -1 0
vn 0.8300781 0.2785645 -0.482666
vn 0 0 -1
vn -0.8300781 -0.2785645 -0.482666
vn -0.9086914 0.3615723 0.2087402
vn 0 1 0
vn 0 0.8662109 0.5
vn -0.9086914 0.2087402 0.3615723
vn 0 0.5 0.8662109
vn 0.9086914 -0.4174805 0
vn 0 -0.8662109 -0.5
vn 0.8300781 0.482666 -0.2785645
vn 0 0.5 -0.8662109
vn -0.8300781 0 -0.5571289
vn -0.9086914 0 0.4174805
vn 0 0 1
vn 0.9086914 -0.3615723 -0.2087402
vn 0 -0.5 -0.8662109
vn 0.8300781 0.5571289 0
vn 0 0.8662109 -0.5
vn -0.8300781 0.2785645 -0.482666
vn -0.9086914 -0.2087402 0.3615723
vn 0 -0.5 0.8662109
vn 0.9086914 -0.2087402 -0.3615723
vn 0 0 -1
vn 0.8300781 0.482666 0.2785645
vn 0 1 0
vn -0.8300781 0.482666 -0.2785645
vn -0.9086914 -0.3615723 0.2087402
vn 0 -0.8662109 0.5
vn 0.9086914 0 -0.4174805
vn 0 0.5 -0.8662109
vn 0.8300781 0.2785645 0.482666
vn -0.8300781 0.5571289 0
vn -0.9086914 -0.4174805 0
vn 0 -1 0
vn 0 0.8662109 0.5
vn 0.9086914 0.2087402 -0.3615723
vn 0 0.8662109 -0.5
vn -0.8300781 0.482666 0.2785645
vn -0.9086914 -0.3615723 -0.2087402
vn 0 -0.8662109 -0.5
vn 0.8300781 0 0.5571289
vn 0 0.5 0.8662109
vn 0.9086914 0.3615723 -0.2087402
vn 0 1 0
vn 0.9086914 0.4174805 0
vn -0.8300781 0.2785645 0.482666
vn -0.9086914 -0.2087402 -0.3615723
vn 0 -0.5 -0.8662109
vn 0.8300781 -0.2785645 0.482666
vn 0.8300781 -0.482666 0.2785645
vn 0.8300781 -0.5571289 0
vn 0 0 1
vn -0.8300781 0 0.5571289
vn -0.9086914 0 -0.4174805
vn 0 0 -1
vn 0 -0.5 0.8662109
vn 0 -0.8662109 0.5
vn 0 -1 0
vn -0.8300781 -0.2785645 0.482666
vn -0.9086914 0.2087402 -0.3615723
vn 0 0.5 -0.8662109
vn -0.8300781 -0.482666 0.2785645
vn -0.8300781 -0.5571289 0
vn -0.9086914 0.3615723 -0.2087402
vn 0 0.8662109 -0.5
vn -0.9086914 0.4174805 0
vn 0 1 0
vn -0.454834 -0.006561279 0.890625
vn 0.454834 -0.006561279 0.890625
vn 0.4665527 -0.2834473 0.8378906
vn -0.4665527 -0.2834473 0.8378906
vn -0.9814453 0.1622314 0.1020508
vn 0.4870605 -0.6054688 0.6293945
vn -0.9848633 0.09515381 0.1462402
vn -0.5107422 0.3408203 -0.7890625
vn -0.4870605 -0.6054688 0.6293945
vn 0.5585938 -0.4460449 0.6992188
vn -0.5410156 0.5478516 -0.6376953
vn 0.5107422 0.3408203 -0.7890625
vn -0.9985352 0.0328064 0.04544067
vn -0.5585938 -0.4460449 0.6992188
vn 0.5292969 0.002746582 0.8481445
vn 0.5410156 0.5478516 -0.6376953
vn 0.9814453 0.1622314 0.1020508
vn -0.4926758 0.6757813 -0.5483398
vn -0.9951172 0.0401001 -0.09020996
vn -0.5292969 0.002746582 0.8481445
vn 0.546875 0.4189453 0.7250977
vn 0.9848633 0.09515381 0.1462402
vn 0.454834 -0.006561279 0.890625
vn 0.4665527 -0.2834473 0.8378906
vn 0.4926758 0.6757813 -0.5483398
vn 0.9985352 0.0328064 0.04544067
vn 0.4870605 -0.6054688 0.6293945
vn -0.4667969 0.4411621 -0.7666016
vn -0.9970703 -0.006103516 -0.07611084
vn -0.546875 0.4189453 0.7250977
vn 0.5791016 0.7753906 0.251709
vn 0.9951172 0.0401001 -0.09020996
vn 0.5585938 -0.4460449 0.6992188
vn 0.4667969 0.4411621 -0.7666016
vn -0.4663086 -0.0149231 -0.8842773
vn -0.9941406 -0.09259033 -0.0592041
vn -0.5791016 0.7753906 0.251709
vn 0.5429688 0.7509766 -0.3759766
vn 0.9970703 -0.006103516 -0.07611084
vn 0.5292969 0.002746582 0.8481445
vn 0.4663086 -0.0149231 -0.8842773
vn -0.4606934 -0.5380859 -0.7055664
vn -0.9868164 -0.1486816 0.06512451
vn -0.5429688 0.7509766 -0.3759766
vn 0.3818359 0.9047852 -0.1877441
vn -0.3818359 0.9047852 -0.1877441
vn -0.9907227 -0.03927612 0.1297607
vn -0.7719727 0.5214844 0.3630371
vn 0.9941406 -0.09259033 -0.0592041
vn 0.546875 0.4189453 0.7250977
vn 0.4606934 -0.5380859 -0.7055664
vn -0.453125 -0.8886719 -0.07177734
vn -0.4558105 -0.703125 0.5458984
vn -0.3828125 0.1384277 0.9135742
vn 0.453125 -0.8886719 -0.07177734
vn 0.9868164 -0.1486816 0.06512451
vn 0.5791016 0.7753906 0.251709
vn 0.4558105 -0.703125 0.5458984
vn 0.3828125 0.1384277 0.9135742
vn 0.9907227 -0.03927612 0.1297607
vn 0.5429688 0.7509766 -0.3759766
vn 0.7719727 0.5214844 0.3630371
vn 0.3818359 0.9047852 -0.1877441
vn 0 0.8681641 0.4963379
vn 0 0.8681641 0.4963379
vn 0 0.8681641 0.4963379
vn 0 0.8681641 0.4963379
vn 0 0.8681641 0.4963379
vn 0 0.8681641 0.4963379
g Hook_0
f 3/3/3 2/2/2 1/1/1
f 2/2/2 4/4/4 1/1/1
f 1/1/1 4/4/4 5/5/5
f 2/2/2 6/6/6 4/4/4
f 4/4/4 7/7/7 5/5/5
f 5/5/5 7/7/7 8/8/8
f 6/6/6 9/9/9 4/4/4
f 4/4/4 9/9/9 7/7/7
f 6/6/6 10/10/10 9/9/9
f 7/7/7 11/11/11 8/8/8
f 8/8/8 11/11/11 12/12/12
f 9/9/9 13/13/13 7/7/7
f 7/7/7 13/13/13 11/11/11
f 10/10/10 14/14/14 9/9/9
f 9/9/9 14/14/14 13/13/13
f 10/10/10 15/15/15 14/14/14
f 11/11/11 16/16/16 12/12/12
f 12/12/12 16/16/16 17/17/17
f 13/13/13 18/18/18 11/11/11
f 11/11/11 18/18/18 16/16/16
f 14/14/14 19/19/19 13/13/13
f 13/13/13 19/19/19 18/18/18
f 15/15/15 20/20/20 14/14/14
f 14/14/14 20/20/20 19/19/19
f 15/15/15 21/21/21 20/20/20
f 16/16/16 22/22/22 17/17/17
f 17/17/17 22/22/22 23/23/23
f 18/18/18 24/24/24 16/16/16
f 16/16/16 24/24/24 22/22/22
f 19/19/19 25/25/25 18/18/18
f 18/18/18 25/25/25 24/24/24
f 20/20/20 26/26/26 19/19/19
f 19/19/19 26/26/26 25/25/25
f 21/21/21 27/27/27 20/20/20
f 20/20/20 27/27/27 26/26/26
f 21/21/21 28/28/28 27/27/27
f 28/28/28 29/29/29 27/27/27
f 27/27/27 29/29/29 30/30/30
f 27/27/27 30/30/30 26/26/26
f 29/29/29 31/31/31 30/30/30
f 22/22/22 32/32/32 23/23/23
f 23/23/23 32/32/32 33/33/33
f 24/24/24 34/34/34 22/22/22
f 22/22/22 34/34/34 32/32/32
f 25/25/25 35/35/35 24/24/24
f 24/24/24 35/35/35 34/34/34
f 26/26/26 36/36/36 25/25/25
f 26/26/26 30/30/30 36/36/36
f 25/25/25 36/36/36 35/35/35
f 30/30/30 31/31/31 37/37/37
f 30/30/30 37/37/37 36/36/36
f 31/31/31 38/38/38 37/37/37
f 32/32/32 39/39/39 33/33/33
f 33/33/33 39/39/39 40/40/40
f 34/34/34 41/41/41 32/32/32
f 32/32/32 41/41/41 39/39/39
f 35/35/35 42/42/42 34/34/34
f 34/34/34 42/42/42 41/41/41
f 36/36/36 43/43/43 35/35/35
f 36/36/36 37/37/37 43/43/43
f 35/35/35 43/43/43 42/42/42
f 37/37/37 38/38/38 44/44/44
f 37/37/37 44/44/44 43/43/43
f 38/38/38 45/45/45 44/44/44
f 39/39/39 46/46/46 40/40/40
f 40/40/40 46/46/46 47/47/47
f 41/41/41 48/48/48 39/39/39
f 39/39/39 48/48/48 46/46/46
f 42/42/42 49/49/49 41/41/41
f 41/41/41 49/49/49 48/48/48
f 43/43/43 50/50/50 42/42/42
f 43/43/43 44/44/44 50/50/50
f 42/42/42 50/50/50 49/49/49
f 44/44/44 45/45/45 51/51/51
f 44/44/44 51/51/51 50/50/50
f 45/45/45 52/52/52 51/51/51
f 46/46/46 53/53/53 47/47/47
f 47/47/47 53/53/53 54/54/54
f 48/48/48 55/55/55 46/46/46
f 46/46/46 55/55/55 53/53/53
f 50/50/50 56/56/56 49/49/49
f 50/50/50 51/51/51 56/56/56
f 51/51/51 52/52/52 57/57/57
f 51/51/51 57/57/57 56/56/56
f 52/52/52 58/58/58 57/57/57
f 49/49/49 59/59/59 48/48/48
f 49/49/49 56/56/56 59/59/59
f 48/48/48 59/59/59 55/55/55
f 53/53/53 60/60/60 54/54/54
f 54/54/54 60/60/60 61/61/61
f 56/56/56 57/57/57 62/62/62
f 56/56/56 62/62/62 59/59/59
f 57/57/57 58/58/58 63/63/63
f 57/57/57 63/63/63 62/62/62
f 58/58/58 64/64/64 63/63/63
f 55/55/55 65/65/65 53/53/53
f 53/53/53 65/65/65 60/60/60
f 59/59/59 66/66/66 55/55/55
f 59/59/59 62/62/62 66/66/66
f 55/55/55 66/66/66 65/65/65
f 60/60/60 67/67/67 61/61/61
f 61/61/61 67/67/67 68/68/68
f 67/67/67 69/69/69 68/68/68
f 62/62/62 63/63/63 70/70/70
f 62/62/62 70/70/70 66/66/66
f 63/63/63 64/64/64 71/71/71
f 63/63/63 71/71/71 70/70/70
f 64/64/64 72/72/72 71/71/71
f 65/65/65 73/73/73 60/60/60
f 60/60/60 73/73/73 67/67/67
f 67/67/67 74/74/74 69/69/69
f 73/73/73 74/74/74 67/67/67
f 74/74/74 75/75/75 69/69/69
f 66/66/66 76/76/76 65/65/65
f 66/66/66 70/70/70 76/76/76
f 65/65/65 76/76/76 73/73/73
f 70/70/70 71/71/71 77/77/77
f 70/70/70 77/77/77 76/76/76
f 71/71/71 72/72/72 78/78/78
f 71/71/71 78/78/78 77/77/77
f 72/72/72 79/79/79 78/78/78
f 76/76/76 80/80/80 73/73/73
f 73/73/73 80/80/80 74/74/74
f 76/76/76 77/77/77 80/80/80
f 74/74/74 81/81/81 75/75/75
f 80/80/80 81/81/81 74/74/74
f 81/81/81 82/82/82 75/75/75
f 77/77/77 83/83/83 80/80/80
f 77/77/77 78/78/78 83/83/83
f 80/80/80 83/83/83 81/81/81
f 78/78/78 79/79/79 84/84/84
f 78/78/78 84/84/84 83/83/83
f 79/79/79 85/85/85 84/84/84
f 81/81/81 86/86/86 82/82/82
f 83/83/83 86/86/86 81/81/81
f 83/83/83 84/84/84 86/86/86
f 86/86/86 87/87/87 82/82/82
f 84/84/84 85/85/85 88/88/88
f 84/84/84 88/88/88 86/86/86
f 86/86/86 88/88/88 87/87/87
f 85/85/85 89/89/89 88/88/88
f 88/88/88 90/90/90 87/87/87
f 88/88/88 89/89/89 90/90/90
f 89/89/89 91/91/91 90/90/90
f 94/94/94 93/93/93 92/92/92
f 95/95/95 94/94/94 92/92/92
f 95/95/95 92/92/92 96/96/96
f 97/97/97 94/94/94 95/95/95
f 98/98/98 95/95/95 96/96/96
f 98/98/98 96/96/96 99/99/99
f 100/100/100 97/97/97 95/95/95
f 100/100/100 95/95/95 98/98/98
f 101/101/101 97/97/97 100/100/100
f 102/102/102 98/98/98 99/99/99
f 102/102/102 99/99/99 103/103/103
f 104/104/104 100/100/100 98/98/98
f 104/104/104 98/98/98 102/102/102
f 105/105/105 101/101/101 100/100/100
f 105/105/105 100/100/100 104/104/104
f 106/106/106 101/101/101 105/105/105
f 107/107/107 102/102/102 103/103/103
f 107/107/107 103/103/103 108/108/108
f 109/109/109 104/104/104 102/102/102
f 109/109/109 102/102/102 107/107/107
f 110/110/110 105/105/105 104/104/104
f 110/110/110 104/104/104 109/109/109
f 111/111/111 106/106/106 105/105/105
f 111/111/111 105/105/105 110/110/110
f 112/112/112 106/106/106 111/111/111
f 113/113/113 107/107/107 108/108/108
f 113/113/113 108/108/108 114/114/114
f 115/115/115 113/113/113 114/114/114
f 116/116/116 109/109/109 107/107/107
f 116/116/116 107/107/107 113/113/113
f 117/117/117 113/113/113 115/115/115
f 117/117/117 116/116/116 113/113/113
f 118/118/118 117/117/117 115/115/115
f 119/119/119 110/110/110 109/109/109
f 119/119/119 109/109/109 116/116/116
f 120/120/120 111/111/111 110/110/110
f 120/120/120 110/110/110 119/119/119
f 121/121/121 112/112/112 111/111/111
f 121/121/121 111/111/111 120/120/120
f 122/122/122 112/112/112 121/121/121
f 123/123/123 117/117/117 118/118/118
f 124/124/124 123/123/123 118/118/118
f 125/125/125 116/116/116 117/117/117
f 125/125/125 119/119/119 116/116/116
f 123/123/123 125/125/125 117/117/117
f 126/126/126 120/120/120 119/119/119
f 126/126/126 119/119/119 125/125/125
f 127/127/127 121/121/121 120/120/120
f 127/127/127 120/120/120 126/126/126
f 128/128/128 122/122/122 121/121/121
f 128/128/128 121/121/121 127/127/127
f 129/129/129 122/122/122 128/128/128
f 130/130/130 123/123/123 124/124/124
f 131/131/131 130/130/130 124/124/124
f 132/132/132 125/125/125 123/123/123
f 132/132/132 126/126/126 125/125/125
f 130/130/130 132/132/132 123/123/123
f 133/133/133 127/127/127 126/126/126
f 133/133/133 126/126/126 132/132/132
f 134/134/134 128/128/128 127/127/127
f 134/134/134 127/127/127 133/133/133
f 135/135/135 129/129/129 128/128/128
f 135/135/135 128/128/128 134/134/134
f 136/136/136 129/129/129 135/135/135
f 137/137/137 136/136/136 135/135/135
f 137/137/137 135/135/135 138/138/138
f 138/138/138 135/135/135 134/134/134
f 139/139/139 137/137/137 138/138/138
f 140/140/140 130/130/130 131/131/131
f 141/141/141 140/140/140 131/131/131
f 142/142/142 132/132/132 130/130/130
f 142/142/142 133/133/133 132/132/132
f 140/140/140 142/142/142 130/130/130
f 143/143/143 134/134/134 133/133/133
f 138/138/138 134/134/134 143/143/143
f 143/143/143 133/133/133 142/142/142
f 139/139/139 138/138/138 144/144/144
f 144/144/144 138/138/138 143/143/143
f 145/145/145 139/139/139 144/144/144
f 146/146/146 143/143/143 142/142/142
f 146/146/146 142/142/142 140/140/140
f 144/144/144 143/143/143 146/146/146
f 147/147/147 140/140/140 141/141/141
f 147/147/147 146/146/146 140/140/140
f 148/148/148 147/147/147 141/141/141
f 145/145/145 144/144/144 149/149/149
f 149/149/149 144/144/144 146/146/146
f 149/149/149 146/146/146 147/147/147
f 150/150/150 145/145/145 149/149/149
f 151/151/151 147/147/147 148/148/148
f 151/151/151 149/149/149 147/147/147
f 150/150/150 149/149/149 151/151/151
f 152/152/152 151/151/151 148/148/148
f 153/153/153 150/150/150 151/151/151
f 153/153/153 151/151/151 152/152/152
f 154/154/154 153/153/153 152/152/152
f 157/157/157 156/156/156 155/155/155
f 155/155/155 156/156/156 158/158/158
f 158/158/158 156/156/156 159/159/159
f 159/159/159 160/160/160 158/158/158
