g HopPlant_S
v 0.01492962 0.4689323 -0.0852454
v 0.01269138 0.5918466 -0.007327328
v 4.706795E-09 0.5918466 -0.0146547
v 0.03307547 0.4675987 -0.07497019
v -0.03635464 0.1919034 -0.01402001
v 0.01269138 0.5918466 0.007327417
v -0.006886076 0.1884759 0.00288872
v -5.508671E-09 3.237198E-09 -0.04287799
v 0.03713341 1.618599E-09 -0.02143899
v 0.03307547 0.4649315 -0.05441978
v 3.425637E-09 0.5918466 0.01465479
v -0.00536722 0.1920396 0.03670618
v 0.03713341 -1.618599E-09 0.02143899
v 0.01492962 0.4635979 -0.04414456
v -0.01269137 0.5918466 0.007327413
v -0.03331693 0.1990309 0.05361489
v -9.257183E-09 -3.237198E-09 0.04287799
v -0.003216209 0.4649315 -0.05441979
v -0.01269137 0.5918466 -0.007327323
v -0.06278549 0.2024585 0.03670616
v -0.03713341 -1.618598E-09 0.02143898
v -0.003216209 0.4675987 -0.07497018
v 4.706795E-09 0.5918466 -0.0146547
v 0.01492962 0.4689323 -0.0852454
v -0.06430434 0.1988947 0.002888738
v -0.03713341 1.618598E-09 -0.02143898
v -0.03635464 0.1919034 -0.01402001
v -5.508671E-09 3.237198E-09 -0.04287799
v -0.01269137 0.5918466 -0.007327323
v 4.706795E-09 0.5918466 -0.0146547
v 0.01269138 0.5918466 -0.007327328
v 0.01269138 0.5918466 0.007327417
v -0.01269137 0.5918466 0.007327413
v 3.425637E-09 0.5918466 0.01465479
v 0.03713341 1.618599E-09 -0.02143899
v -5.508671E-09 3.237198E-09 -0.04287799
v -0.03713341 1.618598E-09 -0.02143898
v 0.03713341 -1.618599E-09 0.02143899
v -0.03713341 -1.618598E-09 0.02143898
v -9.257183E-09 -3.237198E-09 0.04287799
v -0.1939334 0.1736865 -0.5617635
v -0.1591177 0.2664925 -0.4565616
v -0.2635782 0.2831544 -0.4185542
v -0.2883925 0.3445537 -0.3076822
v -0.1266016 0.3162048 -0.366108
v -0.2464525 0.3791245 -0.1924317
v -0.08294314 0.3505601 -0.2514929
v -0.1796725 0.3793998 -0.1416756
v -0.06320584 0.3568079 -0.2016362
v -0.1033664 0.3710217 -0.1381238
v -0.05286312 0.3669642 -0.1740582
v -0.05725761 0.3653789 -0.112309
v -0.03655496 0.3637156 -0.1270395
v -0.02551926 0.3192324 -0.04045956
v -0.00481661 0.3175691 -0.05519001
v 0.01975536 0.3231821 -0.05886969
v -0.011983 0.3693286 -0.1307192
v 0.007079173 0.3806568 -0.1830346
v -0.1939334 0.1736865 -0.5617635
v -0.06152771 0.300781 -0.5007144
v -0.1591177 0.2664925 -0.4565616
v 0.02387008 0.3717951 -0.4346583
v -0.1266016 0.3162048 -0.366108
v 0.06914978 0.4066573 -0.3207659
v -0.08294314 0.3505601 -0.2514929
v 0.05720683 0.4000649 -0.2379984
v -0.06320584 0.3568079 -0.2016362
v 0.007079173 0.3806568 -0.1830346
v -0.05286312 0.3669642 -0.1740582
v -0.2943041 0.3031351 0.2072159
v -0.2284818 0.3712977 0.1593466
v -0.1785451 0.3835352 0.2239368
v -0.09542947 0.4286307 0.2165195
v -0.172464 0.4078095 0.1163821
v -0.02416898 0.4540218 0.1614201
v -0.1020322 0.4330422 0.06022235
v -0.003582515 0.4542239 0.1033552
v -0.07156165 0.437631 0.03527119
v -0.01815085 0.4480705 0.04917491
v -0.05457853 0.4450904 0.02187179
v -0.0103945 0.4439261 0.01114633
v -0.0253272 0.4427044 -4.596646E-05
v 0.03278095 0.4100332 -0.02711626
v 0.01784823 0.4088115 -0.03830853
v 0.00978234 0.4129341 -0.05467763
v -0.03339308 0.446827 -0.01641506
v -0.07425494 0.4551472 -0.01805992
v -0.2943041 0.3031351 0.2072159
v -0.2811826 0.3964813 0.1009366
v -0.2284818 0.3712977 0.1593466
v -0.2540525 0.4486385 0.02642671
v -0.172464 0.4078095 0.1163821
v -0.1844886 0.4742435 -0.03070587
v -0.1020322 0.4330422 0.06022235
v -0.1239124 0.4694016 -0.04084743
v -0.07156165 0.437631 0.03527119
v -0.07425494 0.4551472 -0.01805992
v -0.05457853 0.4450904 0.02187179
v 0.4419011 0.1273814 0.1587484
v 0.341317 0.2201873 0.1122466
v 0.3849824 0.2368492 0.01002189
v 0.3210214 0.2982485 -0.08387865
v 0.2530694 0.2698997 0.07414784
v 0.2082331 0.3328193 -0.1320496
v 0.1395701 0.3042549 0.02766559
v 0.125538 0.3330947 -0.1180036
v 0.08968872 0.3105028 0.007990778
v 0.07078484 0.3247166 -0.06473702
v 0.06249002 0.3206591 -0.003311841
v 0.02042438 0.3190738 -0.04872934
v 0.01702411 0.3174105 -0.0235495
v -0.05371275 0.2729273 -0.07467847
v -0.05711303 0.271264 -0.04949862
v -0.07122403 0.2768769 -0.02904865
v 0.002913106 0.3230234 -0.003099536
v 0.02806681 0.3343517 0.04657501
v 0.4419011 0.1273814 0.1587484
v 0.3068335 0.2544759 0.2136574
v 0.341317 0.2201873 0.1122466
v 0.2002447 0.3254899 0.2308336
v 0.2530694 0.2698997 0.07414784
v 0.08616462 0.3603521 0.1860286
v 0.1395701 0.3042549 0.02766559
v 0.03391803 0.3537597 0.1207341
v 0.08968872 0.3105028 0.007990778
v 0.02806681 0.3343517 0.04657501
v 0.06249002 0.3206591 -0.003311841
vt 0.1556396 0.8569336
vt 0.1539307 0.8579102
vt 0.1556396 0.8579102
vt 0.1539307 0.8569336
vt 0.1556396 0.8544922
vt 0.1522217 0.8579102
vt 0.1539307 0.8544922
vt 0.1556396 0.8530273
vt 0.1539307 0.8530273
vt 0.1522217 0.8569336
vt 0.1505127 0.8579102
vt 0.1522217 0.8544922
vt 0.1522217 0.8530273
vt 0.1505127 0.8569336
vt 0.1488037 0.8579102
vt 0.1505127 0.8544922
vt 0.1505127 0.8530273
vt 0.1488037 0.8569336
vt 0.1470947 0.8579102
vt 0.1488037 0.8544922
vt 0.1488037 0.8530273
vt 0.1470947 0.8569336
vt 0.1453857 0.8579102
vt 0.1453857 0.8569336
vt 0.1470947 0.8544922
vt 0.1470947 0.8530273
vt 0.1453857 0.8544922
vt 0.1453857 0.8530273
vt 0.145874 0.8515625
vt 0.1479492 0.8530273
vt 0.1500244 0.8515625
vt 0.1500244 0.8491211
vt 0.145874 0.8491211
vt 0.1479492 0.8476563
vt 0.1551514 0.8515625
vt 0.1530762 0.8530273
vt 0.151001 0.8515625
vt 0.1551514 0.8491211
vt 0.151001 0.8491211
vt 0.1530762 0.8476563
vt 0.02792358 0.8540039
vt 0.02792358 0.8583984
vt 0.03570557 0.8540039
vt 0.03570557 0.8579102
vt 0.02792358 0.8623047
vt 0.03570557 0.8618164
vt 0.02792358 0.8666992
vt 0.03570557 0.8657227
vt 0.02792358 0.8686523
vt 0.03570557 0.8696289
vt 0.02792358 0.8696289
vt 0.03570557 0.8696289
vt 0.02792358 0.8696289
vt 0.03570557 0.8696289
vt 0.02792358 0.8696289
vt 0.03570557 0.8696289
vt 0.03570557 0.8696289
vt 0.03570557 0.8696289
vt 0.02792358 0.8540039
vt 0.03570557 0.8540039
vt 0.02792358 0.8583984
vt 0.03570557 0.8579102
vt 0.02792358 0.8623047
vt 0.03570557 0.8618164
vt 0.02792358 0.8666992
vt 0.03570557 0.8657227
vt 0.02792358 0.8686523
vt 0.03570557 0.8696289
vt 0.02792358 0.8696289
vt 0.02792358 0.8540039
vt 0.02792358 0.8583984
vt 0.03570557 0.8540039
vt 0.03570557 0.8579102
vt 0.02792358 0.8623047
vt 0.03570557 0.8618164
vt 0.02792358 0.8666992
vt 0.03570557 0.8657227
vt 0.02792358 0.8686523
vt 0.03570557 0.8696289
vt 0.02792358 0.8696289
vt 0.03570557 0.8696289
vt 0.02792358 0.8696289
vt 0.03570557 0.8696289
vt 0.02792358 0.8696289
vt 0.03570557 0.8696289
vt 0.03570557 0.8696289
vt 0.03570557 0.8696289
vt 0.02792358 0.8540039
vt 0.03570557 0.8540039
vt 0.02792358 0.8583984
vt 0.03570557 0.8579102
vt 0.02792358 0.8623047
vt 0.03570557 0.8618164
vt 0.02792358 0.8666992
vt 0.03570557 0.8657227
vt 0.02792358 0.8686523
vt 0.03570557 0.8696289
vt 0.02792358 0.8696289
vt 0.02792358 0.8540039
vt 0.02792358 0.8583984
vt 0.03570557 0.8540039
vt 0.03570557 0.8579102
vt 0.02792358 0.8623047
vt 0.03570557 0.8618164
vt 0.02792358 0.8666992
vt 0.03570557 0.8657227
vt 0.02792358 0.8686523
vt 0.03570557 0.8696289
vt 0.02792358 0.8696289
vt 0.03570557 0.8696289
vt 0.02792358 0.8696289
vt 0.03570557 0.8696289
vt 0.02792358 0.8696289
vt 0.03570557 0.8696289
vt 0.03570557 0.8696289
vt 0.03570557 0.8696289
vt 0.02792358 0.8540039
vt 0.03570557 0.8540039
vt 0.02792358 0.8583984
vt 0.03570557 0.8579102
vt 0.02792358 0.8623047
vt 0.03570557 0.8618164
vt 0.02792358 0.8666992
vt 0.03570557 0.8657227
vt 0.02792358 0.8686523
vt 0.03570557 0.8696289
vt 0.02792358 0.8696289
vn 0.02671814 0.1346436 -0.9907227
vn 0.6328125 0.7324219 -0.2512207
vn -0.02587891 0.7949219 -0.605957
vn 0.8232422 0.065979 -0.5639648
vn -0.07751465 -0.05557251 -0.9956055
vn 0.6635742 0.5410156 0.5166016
vn 0.8696289 0.01879883 -0.4936523
vn 0.04797363 -0.550293 -0.8334961
vn 0.7421875 -0.5078125 -0.4377441
vn 0.9282227 -0.02903748 0.371582
vn -0.02758789 0.4470215 0.894043
vn 0.831543 0.09802246 0.546875
vn 0.753418 -0.5483398 0.3632813
vn 0.07177734 -0.03726196 0.996582
vn -0.7163086 0.4833984 0.503418
vn -0.03237915 0.135376 0.9902344
vn 0.04595947 -0.6269531 0.777832
vn -0.9038086 0.05236816 0.4250488
vn -0.7080078 0.6523438 -0.2705078
vn -0.8383789 0.1162109 0.5327148
vn -0.644043 -0.6635742 0.3808594
vn -0.8007813 0.1241455 -0.5859375
vn -0.02587891 0.7949219 -0.605957
vn 0.02671814 0.1346436 -0.9907227
vn -0.9116211 0.003454208 -0.4104004
vn -0.65625 -0.6293945 -0.4160156
vn -0.07751465 -0.05557251 -0.9956055
vn 0.04797363 -0.550293 -0.8334961
vn -0.7080078 0.6523438 -0.2705078
vn -0.02587891 0.7949219 -0.605957
vn 0.6328125 0.7324219 -0.2512207
vn 0.6635742 0.5410156 0.5166016
vn -0.7163086 0.4833984 0.503418
vn -0.02758789 0.4470215 0.894043
vn 0.7421875 -0.5078125 -0.4377441
vn 0.04797363 -0.550293 -0.8334961
vn -0.65625 -0.6293945 -0.4160156
vn 0.753418 -0.5483398 0.3632813
vn -0.644043 -0.6635742 0.3808594
vn 0.04595947 -0.6269531 0.777832
vn -0.1099854 0.7631836 -0.6367188
vn -0.07116699 0.8203125 -0.5673828
vn -0.05029297 0.8476563 -0.527832
vn 0.0244751 0.9267578 -0.375
vn 0.01334381 0.9169922 -0.3991699
vn 0.078125 0.965332 -0.2485352
vn 0.08380127 0.96875 -0.2337646
vn 0.09838867 0.9814453 -0.1656494
vn -0.1237793 0.987793 -0.09265137
vn 0.06555176 0.9907227 -0.1205444
vn -0.1015015 0.9941406 -0.03092957
vn 0.2214355 0.9536133 0.2034912
vn 0.03106689 0.9614258 0.2739258
vn 0.3479004 0.8510742 0.3930664
vn 0.1291504 0.859375 0.494873
vn -0.1012573 0.815918 0.5688477
vn -0.1611328 0.9272461 0.338623
vn -0.279541 0.9599609 0.01018524
vn -0.4772949 0.7314453 -0.4870605
vn -0.456543 0.8125 -0.3625488
vn -0.4650879 0.7861328 -0.4069824
vn -0.4150391 0.8886719 -0.196167
vn -0.4223633 0.8789063 -0.2218018
vn -0.3708496 0.9262695 -0.0657959
vn -0.3649902 0.9296875 -0.05114746
vn -0.3300781 0.9438477 0.008666992
vn -0.1237793 0.987793 -0.09265137
vn -0.279541 0.9599609 0.01018524
vn -0.1015015 0.9941406 -0.03092957
vn -0.5732422 0.7631836 0.298584
vn -0.5185547 0.8203125 0.2403564
vn -0.487793 0.8476563 0.2086182
vn -0.3647461 0.9267578 0.09082031
vn -0.3842773 0.9169922 0.1087036
vn -0.260498 0.965332 0.001168251
vn -0.2481689 0.96875 -0.008682251
vn -0.1877441 0.9814453 -0.04333496
vn -0.05059814 0.987793 0.1461182
vn -0.1347656 0.9907227 -0.02572632
vn 0.001419067 0.9941406 0.1060791
vn 0.1264648 0.9536133 -0.2729492
vn 0.2514648 0.9614258 -0.1129761
vn 0.2685547 0.8510742 -0.4511719
vn 0.4321289 0.859375 -0.2736816
vn 0.5727539 0.815918 -0.07666016
vn 0.371582 0.9272461 0.05044556
vn 0.09472656 0.9599609 0.2631836
vn -0.3188477 0.7314453 0.6030273
vn -0.2064209 0.8125 0.5454102
vn -0.2460938 0.7861328 0.5668945
vn -0.06057739 0.8886719 0.4550781
vn -0.08276367 0.8789063 0.4697266
vn 0.0501709 0.9262695 0.373291
vn 0.06237793 0.9296875 0.3632813
vn 0.1087036 0.9438477 0.3117676
vn -0.05059814 0.987793 0.1461182
vn 0.09472656 0.9599609 0.2631836
vn 0.001419067 0.9941406 0.1060791
vn 0.5400391 0.7631836 0.3549805
vn 0.4626465 0.8203125 0.3356934
vn 0.4196777 0.8476563 0.3242188
vn 0.2570801 0.9267578 0.2741699
vn 0.2822266 0.9169922 0.2824707
vn 0.1279297 0.965332 0.2269287
vn 0.1133423 0.96875 0.2209473
vn 0.05361938 0.9814453 0.1850586
vn 0.1522217 0.987793 -0.02700806
vn 0.04321289 0.9907227 0.130249
vn 0.09197998 0.9941406 -0.052948
vn -0.2998047 0.9536133 0.02249146
vn -0.2211914 0.9614258 -0.1646729
vn -0.5249023 0.8510742 -0.01462555
vn -0.4494629 0.859375 -0.2440186
vn -0.3459473 0.815918 -0.4628906
vn -0.1369629 0.9272461 -0.348877
vn 0.1835938 0.9599609 -0.2109375
vn 0.6816406 0.7314453 -0.01540375
vn 0.5766602 0.8125 -0.08544922
vn 0.6147461 0.7861328 -0.06124878
vn 0.4267578 0.8886719 -0.1688232
vn 0.4504395 0.8789063 -0.1566162
vn 0.3015137 0.9262695 -0.225708
vn 0.2868652 0.9296875 -0.2314453
vn 0.2192383 0.9438477 -0.2468262
vn 0.1522217 0.987793 -0.02700806
vn 0.1835938 0.9599609 -0.2109375
vn 0.09197998 0.9941406 -0.052948
g HopPlant_S_0
f 3/3/3 2/2/2 1/1/1
f 2/2/2 4/4/4 1/1/1
f 1/1/1 4/4/4 5/5/5
f 2/2/2 6/6/6 4/4/4
f 4/4/4 7/7/7 5/5/5
f 5/5/5 7/7/7 8/8/8
f 7/7/7 9/9/9 8/8/8
f 6/6/6 10/10/10 4/4/4
f 4/4/4 10/10/10 7/7/7
f 6/6/6 11/11/11 10/10/10
f 7/7/7 12/12/12 9/9/9
f 10/10/10 12/12/12 7/7/7
f 12/12/12 13/13/13 9/9/9
f 11/11/11 14/14/14 10/10/10
f 10/10/10 14/14/14 12/12/12
f 11/11/11 15/15/15 14/14/14
f 12/12/12 16/16/16 13/13/13
f 14/14/14 16/16/16 12/12/12
f 16/16/16 17/17/17 13/13/13
f 15/15/15 18/18/18 14/14/14
f 14/14/14 18/18/18 16/16/16
f 15/15/15 19/19/19 18/18/18
f 16/16/16 20/20/20 17/17/17
f 18/18/18 20/20/20 16/16/16
f 20/20/20 21/21/21 17/17/17
f 19/19/19 22/22/22 18/18/18
f 18/18/18 22/22/22 20/20/20
f 19/19/19 23/23/23 22/22/22
f 23/23/23 24/24/24 22/22/22
f 20/20/20 25/25/25 21/21/21
f 22/22/22 25/25/25 20/20/20
f 22/22/22 24/24/24 25/25/25
f 25/25/25 26/26/26 21/21/21
f 24/24/24 27/27/27 25/25/25
f 25/25/25 27/27/27 26/26/26
f 27/27/27 28/28/28 26/26/26
f 31/31/31 30/30/30 29/29/29
f 29/29/29 32/32/32 31/31/31
f 29/29/29 33/33/33 32/32/32
f 33/33/33 34/34/34 32/32/32
f 37/37/37 36/36/36 35/35/35
f 35/35/35 38/38/38 37/37/37
f 38/38/38 39/39/39 37/37/37
f 38/38/38 40/40/40 39/39/39
f 43/43/43 42/42/42 41/41/41
f 43/43/43 44/44/44 42/42/42
f 44/44/44 45/45/45 42/42/42
f 44/44/44 46/46/46 45/45/45
f 46/46/46 47/47/47 45/45/45
f 46/46/46 48/48/48 47/47/47
f 48/48/48 49/49/49 47/47/47
f 48/48/48 50/50/50 49/49/49
f 50/50/50 51/51/51 49/49/49
f 50/50/50 52/52/52 51/51/51
f 52/52/52 53/53/53 51/51/51
f 52/52/52 54/54/54 53/53/53
f 54/54/54 55/55/55 53/53/53
f 55/55/55 56/56/56 53/53/53
f 56/56/56 57/57/57 53/53/53
f 53/53/53 57/57/57 51/51/51
f 57/57/57 58/58/58 51/51/51
f 61/61/61 60/60/60 59/59/59
f 62/62/62 60/60/60 61/61/61
f 63/63/63 62/62/62 61/61/61
f 64/64/64 62/62/62 63/63/63
f 65/65/65 64/64/64 63/63/63
f 66/66/66 64/64/64 65/65/65
f 67/67/67 66/66/66 65/65/65
f 68/68/68 66/66/66 67/67/67
f 69/69/69 68/68/68 67/67/67
f 72/72/72 71/71/71 70/70/70
f 72/72/72 73/73/73 71/71/71
f 73/73/73 74/74/74 71/71/71
f 73/73/73 75/75/75 74/74/74
f 75/75/75 76/76/76 74/74/74
f 75/75/75 77/77/77 76/76/76
f 77/77/77 78/78/78 76/76/76
f 77/77/77 79/79/79 78/78/78
f 79/79/79 80/80/80 78/78/78
f 79/79/79 81/81/81 80/80/80
f 81/81/81 82/82/82 80/80/80
f 81/81/81 83/83/83 82/82/82
f 83/83/83 84/84/84 82/82/82
f 84/84/84 85/85/85 82/82/82
f 85/85/85 86/86/86 82/82/82
f 82/82/82 86/86/86 80/80/80
f 86/86/86 87/87/87 80/80/80
f 90/90/90 89/89/89 88/88/88
f 91/91/91 89/89/89 90/90/90
f 92/92/92 91/91/91 90/90/90
f 93/93/93 91/91/91 92/92/92
f 94/94/94 93/93/93 92/92/92
f 95/95/95 93/93/93 94/94/94
f 96/96/96 95/95/95 94/94/94
f 97/97/97 95/95/95 96/96/96
f 98/98/98 97/97/97 96/96/96
f 101/101/101 100/100/100 99/99/99
f 101/101/101 102/102/102 100/100/100
f 102/102/102 103/103/103 100/100/100
f 102/102/102 104/104/104 103/103/103
f 104/104/104 105/105/105 103/103/103
f 104/104/104 106/106/106 105/105/105
f 106/106/106 107/107/107 105/105/105
f 106/106/106 108/108/108 107/107/107
f 108/108/108 109/109/109 107/107/107
f 108/108/108 110/110/110 109/109/109
f 110/110/110 111/111/111 109/109/109
f 110/110/110 112/112/112 111/111/111
f 112/112/112 113/113/113 111/111/111
f 113/113/113 114/114/114 111/111/111
f 114/114/114 115/115/115 111/111/111
f 111/111/111 115/115/115 109/109/109
f 115/115/115 116/116/116 109/109/109
f 119/119/119 118/118/118 117/117/117
f 120/120/120 118/118/118 119/119/119
f 121/121/121 120/120/120 119/119/119
f 122/122/122 120/120/120 121/121/121
f 123/123/123 122/122/122 121/121/121
f 124/124/124 122/122/122 123/123/123
f 125/125/125 124/124/124 123/123/123
f 126/126/126 124/124/124 125/125/125
f 127/127/127 126/126/126 125/125/125
