g Log_03_LOD2
v 0.00921726 -0.02180234 -0.008732483
v 0.009202919 -0.01643432 -0.01207237
v 0.003802369 -0.01653032 -0.01207841
v 0.003758109 -0.02193695 -0.008717117
v -0.001419586 -0.002712495 -0.01225876
v -0.001255241 -0.01144143 -0.008801565
v 0.01326536 -0.01131823 -0.008899649
v 0.01302347 -0.00270131 -0.01227271
v 0.01301706 0.004749946 -0.0104003
v -0.001154934 0.004732682 -0.0104129
v -0.01232935 -0.002615353 -0.01195164
v 0.01807589 0.004367312 -0.009309947
v 0.0128666 0.008789522 -0.003089974
v 0.01698425 0.008604418 -0.002971648
v -0.01230569 0.004766618 -0.01004327
v -0.0007645036 0.008706054 -0.003024882
v 0.0176785 -0.002528193 -0.01159112
v 0.01760439 -0.01036837 -0.008339175
v 0.01326536 -0.01131823 -0.008899649
v 0.01775274 -0.002242934 -0.006112546
v 0.01749409 0.001847369 -0.004965112
v 0.01798269 -0.005822459 -0.004615524
v 0.01782201 0.00412403 -0.001896543
v 0.01792547 -0.008108449 0.000955013
v 0.01707966 0.008201617 0.00610433
v 0.01778999 0.003788601 0.00342666
v 0.01759756 -0.01407656 0.001771725
v 0.01785033 -0.006015791 0.004880503
v 0.01750929 -0.01024752 0.009098021
v 0.0132858 -0.01534503 0.001431709
v 0.01777698 -0.0005943348 0.005982079
v 0.01757796 -0.0002243906 0.0115358
v 0.01308994 -0.0003377325 0.01222948
v 0.01301398 0.008320199 0.00650025
v 0.01311422 -0.0107276 0.009464976
v -0.001382722 -0.01550021 0.001612615
v -0.001604416 -0.0108371 0.00972895
v -0.001604416 -0.0108371 0.00972895
v -0.00054665 0.008025254 0.006893937
v -0.001186665 -0.0004251605 0.01260544
v -0.01207468 0.00867039 -0.002740231
v -0.01220472 -0.0002791558 0.01245708
v -0.01198941 0.008139445 0.006697397
v -0.01813109 0.008616059 -0.00260017
v -0.01814082 0.00818956 0.006359999
v -0.01834335 -0.0001471721 0.01172481
v -0.01911321 0.004313506 -0.008735531
v -0.01854803 -0.002448285 -0.01108603
v -0.01221183 -0.01069204 -0.008240833
v -0.01697103 0.003133676 0.003568446
v -0.01693335 -0.001245431 0.006146234
v -0.01703809 0.003446716 -0.001683475
v -0.01663155 0.001264288 -0.004852337
v -0.01690172 -0.002867881 -0.005905946
v -0.0171742 -0.006600174 0.005029091
v -0.01710645 -0.006385274 -0.004349562
v -0.0181195 -0.01008409 0.009354587
v -0.01805285 -0.01015209 -0.007909725
v -0.01803541 -0.01383437 0.002107279
v -0.01719742 -0.008647602 0.001150553
v -0.01224321 -0.01445595 0.002140315
v -0.01225126 -0.0105524 0.009706443
v -0.001382722 -0.01550021 0.001612615
v -0.001255241 -0.01144143 -0.008801565
v -0.01224321 -0.01445595 0.002140315
v -0.001382722 -0.01550021 0.001612615
v 0.0007380738 -0.01282234 -0.008555964
v -0.001255241 -0.01144143 -0.008801565
v 0.0006209486 -0.01667196 -0.0004764322
v 0.0132858 -0.01534503 0.001431709
v 0.01216191 -0.0165208 -0.0006064473
v 0.01213987 -0.01270469 -0.008623332
v 0.009708009 -0.01581277 -0.0116007
v 0.003296227 -0.01591524 -0.0116013
v 0.003236963 -0.02151504 -0.007657922
v 0.009724929 -0.02136821 -0.007685262
v 0.009202919 -0.01643432 -0.01207237
v 0.003802369 -0.01653032 -0.01207841
v 0.00921726 -0.02180234 -0.008732483
v 0.003758109 -0.02193695 -0.008717117
v -0.001255241 -0.01144143 -0.008801565
v -0.01232935 -0.002615353 -0.01195164
v -0.01221183 -0.01069204 -0.008240833
v -0.01693335 -0.001245431 0.006146234
v -0.009981223 -0.00640677 0.005406845
v -0.00957963 -0.001358964 0.006584322
v -0.0171742 -0.006600174 0.005029091
v -0.01719742 -0.008647602 0.001150553
v -0.01010173 -0.008305652 0.001749069
v -0.01710645 -0.006385274 -0.004349562
v -0.0005683605 -0.006050594 0.005973408
v -0.00957963 -0.001358964 0.006584322
v -0.0002492977 -0.0009356107 0.007198688
v -0.009295832 0.00275513 0.004037616
v -0.009963686 -0.006151544 -0.003427717
v -0.0006347116 -0.007960858 0.002276011
v 0.01048611 -0.005121419 0.00528245
v -0.009655702 -0.002947366 -0.005108784
v -0.01690172 -0.002867881 -0.005905946
v 0.01081692 -0.0001055194 0.006443771
v 0.01112866 0.003974809 0.003931293
v 9.689759E-06 0.00324811 0.004583634
v 1.043158E-06 0.00349651 -0.0004329419
v -0.00946163 0.001244965 -0.004425034
v -0.01663155 0.001264288 -0.004852337
v -0.009347435 0.003017531 -0.0009431754
v -0.01703809 0.003446716 -0.001683475
v -0.0001659453 0.00170943 -0.003976206
v -0.0002755622 -0.002531788 -0.004679718
v 0.01116252 0.004239842 -0.00103402
v 0.01778999 0.003788601 0.00342666
v 0.01782201 0.00412403 -0.001896543
v 0.01749409 0.001847369 -0.004965112
v 0.01093189 0.002481646 -0.004481444
v -0.00946163 0.001244965 -0.004425034
v -0.009347435 0.003017531 -0.0009431754
v -0.01703809 0.003446716 -0.001683475
v -0.01697103 0.003133676 0.003568446
v 0.01082497 -0.001690859 -0.005166051
v -0.0004821478 -0.005785936 -0.002940718
v 0.01044229 -0.007016091 0.001643592
v 0.01063757 -0.004872625 -0.003509141
v 0.01798269 -0.005822459 -0.004615524
v 0.01775274 -0.002242934 -0.006112546
v 0.01093189 0.002481646 -0.004481444
v 0.01792547 -0.008108449 0.000955013
v 0.01785033 -0.006015791 0.004880503
v 0.01777698 -0.0005943348 0.005982079
v 0.01081692 -0.0001055194 0.006443771
v -0.00957963 -0.001358964 0.006584322
v -0.009295832 0.00275513 0.004037616
v -0.01693335 -0.001245431 0.006146234
v 0.01112866 0.003974809 0.003931293
v 0.01081692 -0.0001055194 0.006443771
v 0.01777698 -0.0005943348 0.005982079
v 0.01326536 -0.01131823 -0.008899649
v 0.0132858 -0.01534503 0.001431709
v 0.01759756 -0.01407656 0.001771725
vt 0.9187138 0.4198221
vt 0.9187139 0.4198221
vt 0.9187139 0.4198222
vt 0.9187138 0.4198222
vt 0.9187138 0.4198222
vt 0.9187137 0.4198222
vt 0.9187138 0.4198222
vt 0.9187138 0.4198222
vt 0.9187138 0.4198222
vt 0.9187138 0.4198222
vt 0.9187138 0.4198222
vt 0.9187138 0.4198222
vt 0.9187138 0.4198222
vt 0.9187138 0.4198222
vt 0.9187138 0.4198222
vt 0.9187138 0.4198222
vt 0.9187138 0.4198222
vt 0.9187139 0.4198222
vt 0.9187138 0.4198222
vt 0.9187138 0.4198222
vt 0.9187138 0.4198222
vt 0.9187138 0.4198222
vt 0.9187138 0.4198222
vt 0.9187138 0.4198222
vt 0.9187139 0.4198222
vt 0.9187138 0.4198222
vt 0.9187139 0.4198222
vt 0.9187138 0.4198222
vt 0.9187139 0.4198222
vt 0.9187138 0.4198222
vt 0.9187138 0.4198222
vt 0.9187138 0.4198222
vt 0.9187138 0.4198222
vt 0.9187139 0.4198222
vt 0.9187139 0.4198222
vt 0.9187138 0.4198222
vt 0.9187139 0.4198222
vt 0.9187139 0.4198222
vt 0.9187139 0.4198222
vt 0.9187138 0.4198222
vt 0.9187138 0.4198222
vt 0.9187138 0.4198222
vt 0.9187139 0.4198222
vt 0.9187138 0.4198222
vt 0.9187139 0.4198222
vt 0.9187138 0.4198222
vt 0.9187138 0.4198222
vt 0.9187138 0.4198222
vt 0.9187139 0.4198222
vt 0.9187138 0.4198222
vt 0.9187138 0.4198222
vt 0.9187138 0.4198222
vt 0.9187138 0.4198222
vt 0.9187138 0.4198222
vt 0.9187138 0.4198222
vt 0.9187138 0.4198222
vt 0.9187139 0.4198222
vt 0.9187139 0.4198222
vt 0.9187139 0.4198222
vt 0.9187138 0.4198222
vt 0.9187139 0.4198222
vt 0.9187139 0.4198222
vt 0.9187138 0.4198222
vt 0.9187138 0.4198222
vt 0.9187139 0.4198222
vt 0.9187137 0.4198222
vt 0.9187139 0.4198222
vt 0.9187138 0.4198222
vt 0.9187139 0.4198222
vt 0.9187138 0.4198222
vt 0.9187139 0.4198222
vt 0.9187139 0.4198222
vt 0.9187139 0.4198222
vt 0.9187139 0.4198222
vt 0.9187139 0.4198222
vt 0.9187139 0.4198222
vt 0.9187139 0.4198222
vt 0.9187139 0.4198222
vt 0.9187138 0.4198222
vt 0.9187138 0.4198222
vt 0.9187137 0.4198222
vt 0.9187138 0.4198222
vt 0.9187139 0.4198222
vt 0.4157343 0.2509305
vt 0.4157343 0.2509305
vt 0.4157344 0.2509305
vt 0.4157344 0.2509305
vt 0.4157344 0.2509305
vt 0.4157343 0.2509305
vt 0.4157344 0.2509305
vt 0.4157343 0.2509305
vt 0.4157344 0.2509305
vt 0.4157344 0.2509305
vt 0.4157343 0.2509305
vt 0.4157343 0.2509305
vt 0.4157343 0.2509305
vt 0.4157343 0.2509305
vt 0.4157343 0.2509305
vt 0.4157344 0.2509305
vt 0.4157344 0.2509305
vt 0.4157343 0.2509305
vt 0.4157343 0.2509305
vt 0.4157344 0.2509305
vt 0.4157344 0.2509305
vt 0.4157344 0.2509305
vt 0.4157344 0.2509305
vt 0.4157343 0.2509305
vt 0.4157344 0.2509305
vt 0.4157343 0.2509305
vt 0.4157344 0.2509305
vt 0.4157344 0.2509305
vt 0.4157343 0.2509305
vt 0.4157344 0.2509305
vt 0.4157344 0.2509305
vt 0.4157344 0.2509305
vt 0.4157344 0.2509305
vt 0.4157343 0.2509305
vt 0.4157344 0.2509305
vt 0.4157343 0.2509305
vt 0.4157343 0.2509305
vt 0.4157343 0.2509305
vt 0.4157343 0.2509305
vt 0.4157344 0.2509305
vt 0.4157344 0.2509305
vt 0.4157344 0.2509305
vt 0.4157344 0.2509305
vt 0.4157344 0.2509305
vt 0.4157343 0.2509305
vt 0.4157344 0.2509305
vt 0.4157344 0.2509305
vt 0.4157343 0.2509305
vt 0.4157343 0.2509305
vt 0.4157343 0.2509305
vt 0.4157344 0.2509305
vt 0.4157343 0.2509305
vt 0.9187138 0.4198222
vt 0.9187138 0.4198222
vt 0.9187139 0.4198222
vn 0.4197993 -0.8398427 -0.3441408
vn 0.3969375 -0.0007324695 -0.9178454
vn -0.3945267 -0.007599376 -0.918853
vn -0.3971104 -0.8502533 -0.3455032
vn -0.02188227 -0.07214739 -0.9971539
vn -0.1733174 -0.627257 -0.7592823
vn 0.2735419 -0.5705224 -0.7743894
vn 0.08990828 -0.06137323 -0.9940572
vn 0.07858764 0.6030648 -0.7938115
vn -0.01260468 0.6114337 -0.7911952
vn -0.0939684 -0.07239137 -0.9929398
vn 0.724454 0.4419419 -0.5290119
vn 0.0363793 0.9722002 -0.2313077
vn 0.6214566 0.7649871 -0.1690748
vn -0.08005118 0.6087918 -0.7892808
vn -0.006958392 0.9760671 -0.2173582
vn 0.6993757 -0.03729434 -0.7137806
vn 0.7009321 -0.5003606 -0.5082651
vn 0.2735419 -0.5705224 -0.7743894
vn 0.8280075 0.06445586 0.5569999
vn 0.7838777 -0.320723 0.5316696
vn 0.8696976 0.3582311 0.3395535
vn 0.8323757 -0.5221499 0.1857693
vn 0.8709894 0.4912992 -0.001556483
vn 0.6054424 0.7037147 0.3717865
vn 0.8591877 -0.4257789 -0.2837407
vn 0.7005431 -0.7097905 0.07373495
vn 0.8432776 0.3464241 -0.4109418
vn 0.6699244 -0.4473792 0.5924974
vn 0.2559358 -0.9425005 0.2149177
vn 0.8003533 -0.06466916 -0.5960305
vn 0.6634862 0.1398998 0.7349926
vn 0.07458951 0.1579991 0.9846181
vn 0.04144548 0.8653498 0.4994515
vn 0.09192407 -0.6119115 0.7855663
vn -0.1404178 -0.9740742 0.1773763
vn -0.005249294 -0.6167004 0.7871804
vn -0.005249294 -0.6167004 0.7871804
vn 0.0002746765 0.8642544 0.5030549
vn 0.005310303 0.1599805 0.987106
vn -0.02661279 0.9735946 -0.2267275
vn -0.04977589 0.1636409 0.9852635
vn -0.0191355 0.8665909 0.4986522
vn -0.7198925 0.6794543 -0.1417628
vn -0.6855443 0.6409563 0.3452595
vn -0.7286342 0.1251877 0.6733649
vn -0.8152409 0.3760021 -0.4404596
vn -0.7740372 -0.06610537 -0.6296797
vn -0.09750904 -0.7234285 -0.6834788
vn -0.745522 -0.5742179 -0.3383353
vn -0.6834409 -0.1185966 -0.7203078
vn -0.7028285 -0.678291 0.2143674
vn -0.6464285 -0.4339229 0.6275676
vn -0.6924791 0.05621624 0.7192444
vn -0.7345001 0.4128606 -0.5385683
vn -0.7490984 0.4669771 0.4698765
vn -0.7143871 -0.4357187 0.5475401
vn -0.7212038 -0.5100402 -0.4687474
vn -0.7124192 -0.7005776 0.04062159
vn -0.7625817 0.64667 -0.01693812
vn -0.09137446 -0.9930944 0.07358177
vn -0.06842405 -0.6200585 0.7815661
vn -0.1404178 -0.9740742 0.1773763
vn -0.1733174 -0.627257 -0.7592823
vn -0.09137446 -0.9930944 0.07358177
vn -0.1404178 -0.9740742 0.1773763
vn -0.53512 -0.3065938 -0.7871764
vn -0.1733174 -0.627257 -0.7592823
vn -0.4037037 -0.8979263 0.1753615
vn 0.2559358 -0.9425005 0.2149177
vn 0.530945 -0.8254261 0.191753
vn 0.633817 -0.2518727 -0.731325
vn 0.6240889 0.2775729 -0.7303876
vn -0.6252099 0.273846 -0.7308357
vn -0.600749 -0.7897573 0.1240319
vn 0.6210879 -0.773102 0.1286977
vn 0.3969375 -0.0007324695 -0.9178454
vn -0.3945267 -0.007599376 -0.918853
vn 0.4197993 -0.8398427 -0.3441408
vn -0.3971104 -0.8502533 -0.3455032
vn -0.1733174 -0.627257 -0.7592823
vn -0.0939684 -0.07239137 -0.9929398
vn -0.09750904 -0.7234285 -0.6834788
vn -0.6834409 -0.1185966 -0.7203078
vn 0.02673478 0.6112376 -0.7909955
vn 0.05868866 -0.1571135 -0.9858351
vn -0.7345001 0.4128606 -0.5385683
vn -0.7625817 0.64667 -0.01693812
vn -0.0383317 0.9980891 -0.04846397
vn -0.7490984 0.4669771 0.4698765
vn -0.03579891 0.6106569 -0.7910858
vn 0.05868866 -0.1571135 -0.9858351
vn 0.007141476 -0.1556781 -0.9877821
vn 0.03589028 -0.8552935 -0.5168994
vn -0.08218846 0.7375292 0.6702952
vn -0.05990845 0.996592 -0.05670397
vn -0.04129295 0.5940935 -0.8033355
vn -0.07864687 0.1514646 0.985329
vn -0.6924791 0.05621624 0.7192444
vn -0.05841414 -0.1764632 -0.9825723
vn -0.01928816 -0.8600625 -0.5098238
vn 0.04834296 -0.8524109 -0.5206329
vn 0.05835299 -0.9785418 0.1976128
vn -0.04721297 -0.5799229 0.813302
vn -0.6464285 -0.4339229 0.6275676
vn -0.009644133 -0.9756139 0.219282
vn -0.7028285 -0.678291 0.2143674
vn 0.03512775 -0.5962257 0.802048
vn -0.01092594 0.1662695 0.9860198
vn 0.03012224 -0.9757226 0.216929
vn 0.8591877 -0.4257789 -0.2837407
vn 0.8323757 -0.5221499 0.1857693
vn 0.7838777 -0.320723 0.5316696
vn 0.06241152 -0.6008598 0.7969143
vn -0.04721297 -0.5799229 0.813302
vn -0.009644133 -0.9756139 0.219282
vn -0.7028285 -0.678291 0.2143674
vn -0.745522 -0.5742179 -0.3383353
vn 0.08603229 0.1191451 0.9891425
vn -0.04647987 0.7466992 0.663536
vn 0.02490376 0.9984391 -0.04999063
vn 0.0809378 0.7230687 0.686018
vn 0.8696976 0.3582311 0.3395535
vn 0.8280075 0.06445586 0.5569999
vn 0.06241152 -0.6008598 0.7969143
vn 0.8709894 0.4912992 -0.001556483
vn 0.8432776 0.3464241 -0.4109418
vn 0.8003533 -0.06466916 -0.5960305
vn -0.05841414 -0.1764632 -0.9825723
vn 0.05868866 -0.1571135 -0.9858351
vn 0.03589028 -0.8552935 -0.5168994
vn -0.6834409 -0.1185966 -0.7203078
vn -0.01928816 -0.8600625 -0.5098238
vn -0.05841414 -0.1764632 -0.9825723
vn 0.8003533 -0.06466916 -0.5960305
vn 0.2735419 -0.5705224 -0.7743894
vn 0.2559358 -0.9425005 0.2149177
vn 0.7005431 -0.7097905 0.07373495
g Log_03_LOD2_0
f 3/3/3 2/2/2 1/1/1
f 4/4/4 3/3/3 1/1/1
f 7/7/7 6/6/6 5/5/5
f 8/8/8 7/7/7 5/5/5
f 9/9/9 8/8/8 5/5/5
f 10/10/10 9/9/9 5/5/5
f 5/5/5 11/11/11 10/10/10
f 8/8/8 9/9/9 12/12/12
f 13/13/13 9/9/9 10/10/10
f 12/12/12 9/9/9 14/14/14
f 9/9/9 13/13/13 14/14/14
f 11/11/11 15/15/15 10/10/10
f 16/16/16 13/13/13 10/10/10
f 10/10/10 15/15/15 16/16/16
f 17/17/17 8/8/8 12/12/12
f 17/17/17 18/18/18 8/8/8
f 18/18/18 19/19/19 8/8/8
f 20/20/20 17/17/17 12/12/12
f 18/18/18 17/17/17 20/20/20
f 21/21/21 20/20/20 12/12/12
f 21/21/21 12/12/12 14/14/14
f 22/22/22 18/18/18 20/20/20
f 23/23/23 21/21/21 14/14/14
f 22/22/22 24/24/24 18/18/18
f 23/23/23 14/14/14 25/25/25
f 14/14/14 13/13/13 25/25/25
f 26/26/26 23/23/23 25/25/25
f 24/24/24 27/27/27 18/18/18
f 24/24/24 28/28/28 27/27/27
f 28/28/28 29/29/29 27/27/27
f 30/30/30 27/27/27 29/29/29
f 28/28/28 31/31/31 29/29/29
f 31/31/31 26/26/26 32/32/32
f 26/26/26 25/25/25 32/32/32
f 31/31/31 32/32/32 29/29/29
f 33/33/33 32/32/32 25/25/25
f 29/29/29 32/32/32 33/33/33
f 13/13/13 34/34/34 25/25/25
f 34/34/34 33/33/33 25/25/25
f 34/34/34 13/13/13 16/16/16
f 35/35/35 30/30/30 29/29/29
f 35/35/35 29/29/29 33/33/33
f 30/30/30 35/35/35 36/36/36
f 35/35/35 37/37/37 36/36/36
f 38/38/38 35/35/35 33/33/33
f 39/39/39 34/34/34 16/16/16
f 34/34/34 39/39/39 33/33/33
f 40/40/40 38/38/38 33/33/33
f 39/39/39 40/40/40 33/33/33
f 16/16/16 41/41/41 39/39/39
f 15/15/15 41/41/41 16/16/16
f 40/40/40 39/39/39 42/42/42
f 38/38/38 40/40/40 42/42/42
f 41/41/41 43/43/43 39/39/39
f 39/39/39 43/43/43 42/42/42
f 41/41/41 15/15/15 44/44/44
f 45/45/45 43/43/43 41/41/41
f 44/44/44 45/45/45 41/41/41
f 46/46/46 42/42/42 43/43/43
f 45/45/45 46/46/46 43/43/43
f 15/15/15 47/47/47 44/44/44
f 15/15/15 11/11/11 47/47/47
f 11/11/11 48/48/48 47/47/47
f 11/11/11 49/49/49 48/48/48
f 45/45/45 44/44/44 50/50/50
f 45/45/45 50/50/50 51/51/51
f 46/46/46 45/45/45 51/51/51
f 44/44/44 52/52/52 50/50/50
f 44/44/44 47/47/47 52/52/52
f 47/47/47 53/53/53 52/52/52
f 47/47/47 48/48/48 53/53/53
f 48/48/48 54/54/54 53/53/53
f 46/46/46 51/51/51 55/55/55
f 54/54/54 48/48/48 56/56/56
f 57/57/57 46/46/46 55/55/55
f 46/46/46 57/57/57 42/42/42
f 48/48/48 58/58/58 56/56/56
f 49/49/49 58/58/58 48/48/48
f 56/56/56 58/58/58 59/59/59
f 59/59/59 58/58/58 49/49/49
f 59/59/59 57/57/57 55/55/55
f 60/60/60 56/56/56 59/59/59
f 60/60/60 59/59/59 55/55/55
f 61/61/61 59/59/59 49/49/49
f 57/57/57 59/59/59 61/61/61
f 57/57/57 62/62/62 42/42/42
f 62/62/62 57/57/57 61/61/61
f 62/62/62 38/38/38 42/42/42
f 62/62/62 61/61/61 38/38/38
f 61/61/61 63/63/63 38/38/38
f 65/65/65 49/49/49 64/64/64
f 66/66/66 65/65/65 64/64/64
f 68/68/68 67/67/67 63/63/63
f 67/67/67 68/68/68 19/19/19
f 67/67/67 69/69/69 63/63/63
f 63/63/63 69/69/69 70/70/70
f 70/70/70 71/71/71 19/19/19
f 69/69/69 71/71/71 70/70/70
f 72/72/72 67/67/67 19/19/19
f 71/71/71 72/72/72 19/19/19
f 67/67/67 72/72/72 73/73/73
f 73/73/73 72/72/72 71/71/71
f 69/69/69 67/67/67 74/74/74
f 74/74/74 67/67/67 73/73/73
f 71/71/71 69/69/69 75/75/75
f 75/75/75 69/69/69 74/74/74
f 76/76/76 73/73/73 71/71/71
f 76/76/76 71/71/71 75/75/75
f 73/73/73 77/77/77 74/74/74
f 77/77/77 78/78/78 74/74/74
f 74/74/74 78/78/78 75/75/75
f 79/79/79 77/77/77 73/73/73
f 76/76/76 79/79/79 73/73/73
f 78/78/78 80/80/80 75/75/75
f 80/80/80 79/79/79 76/76/76
f 75/75/75 80/80/80 76/76/76
f 83/83/83 82/82/82 81/81/81
f 82/82/82 5/5/5 81/81/81
f 86/86/86 85/85/85 84/84/84
f 85/85/85 87/87/87 84/84/84
f 87/87/87 85/85/85 88/88/88
f 85/85/85 89/89/89 88/88/88
f 90/90/90 88/88/88 89/89/89
f 85/85/85 91/91/91 89/89/89
f 91/91/91 85/85/85 92/92/92
f 93/93/93 91/91/91 92/92/92
f 93/93/93 92/92/92 94/94/94
f 95/95/95 90/90/90 89/89/89
f 91/91/91 96/96/96 89/89/89
f 95/95/95 89/89/89 96/96/96
f 97/97/97 91/91/91 93/93/93
f 91/91/91 97/97/97 96/96/96
f 90/90/90 95/95/95 98/98/98
f 99/99/99 90/90/90 98/98/98
f 100/100/100 97/97/97 93/93/93
f 101/101/101 100/100/100 93/93/93
f 102/102/102 93/93/93 94/94/94
f 102/102/102 101/101/101 93/93/93
f 101/101/101 102/102/102 103/103/103
f 103/103/103 102/102/102 94/94/94
f 99/99/99 98/98/98 104/104/104
f 105/105/105 99/99/99 104/104/104
f 105/105/105 104/104/104 106/106/106
f 107/107/107 105/105/105 106/106/106
f 104/104/104 98/98/98 108/108/108
f 109/109/109 98/98/98 95/95/95
f 98/98/98 109/109/109 108/108/108
f 110/110/110 101/101/101 103/103/103
f 103/103/103 108/108/108 110/110/110
f 111/111/111 101/101/101 110/110/110
f 112/112/112 111/111/111 110/110/110
f 112/112/112 110/110/110 113/113/113
f 110/110/110 114/114/114 113/113/113
f 108/108/108 114/114/114 110/110/110
f 108/108/108 109/109/109 114/114/114
f 115/115/115 108/108/108 103/103/103
f 116/116/116 115/115/115 103/103/103
f 116/116/116 103/103/103 94/94/94
f 116/116/116 94/94/94 117/117/117
f 94/94/94 118/118/118 117/117/117
f 109/109/109 119/119/119 114/114/114
f 109/109/109 120/120/120 119/119/119
f 120/120/120 109/109/109 95/95/95
f 120/120/120 95/95/95 96/96/96
f 120/120/120 96/96/96 121/121/121
f 97/97/97 121/121/121 96/96/96
f 120/120/120 122/122/122 119/119/119
f 122/122/122 120/120/120 121/121/121
f 119/119/119 122/122/122 123/123/123
f 122/122/122 121/121/121 123/123/123
f 124/124/124 119/119/119 123/123/123
f 125/125/125 119/119/119 124/124/124
f 113/113/113 125/125/125 124/124/124
f 121/121/121 126/126/126 123/123/123
f 127/127/127 126/126/126 121/121/121
f 97/97/97 127/127/127 121/121/121
f 128/128/128 127/127/127 97/97/97
f 129/129/129 128/128/128 97/97/97
f 118/118/118 131/131/131 130/130/130
f 132/132/132 118/118/118 130/130/130
f 135/135/135 134/134/134 133/133/133
f 111/111/111 135/135/135 133/133/133
f 137/137/137 136/136/136 18/18/18
f 138/138/138 137/137/137 18/18/18
