g Log_01_LOD2
v -0.03537956 0.01045528 0.00239915
v -0.03638985 0.005348425 0.01180894
v -0.03561987 0.004522997 0.007297807
v -0.03602113 0.01445051 0.004292787
v -0.03534693 0.01148359 -0.0004087001
v -0.03681876 -0.004069425 0.009312598
v -0.03589941 -0.001615089 0.005670818
v -0.03597106 0.01602826 -1.538217E-05
v -0.03548343 0.008968922 -0.005839104
v -0.03702818 -0.007927751 0.000980565
v -0.01896535 -0.007784022 0.009350962
v -0.0360359 -0.004129756 0.0002404088
v -0.01853644 0.001633829 0.0118473
v -0.01816771 0.01073591 0.004331151
v -0.03692799 -0.004769526 -0.007643166
v -0.0359706 -0.002071379 -0.005380112
v -0.0361805 0.01216994 -0.008347411
v -0.03574176 0.00335427 -0.007898331
v -0.03657687 0.00355521 -0.01150694
v -0.01811766 0.01231367 2.298176E-05
v 0.01046085 0.01568027 -0.001465636
v 0.01038329 0.01323566 0.005209516
v -0.01917477 -0.01164235 0.001018929
v -0.01907458 -0.008484121 -0.007604804
v -0.008370717 -0.01037725 0.0008970934
v -0.01872345 -0.0001593864 -0.01146858
v -0.01832709 0.008455341 -0.008309047
v -0.0009636703 -0.006363425 -0.007809039
v -0.0002161823 0.01057604 -0.008513281
v -0.0006125497 0.001961309 -0.01167281
v 0.01711566 -0.004958279 -0.007983523
v 0.01746678 0.003366456 -0.0118473
v 0.01701547 -0.008116506 0.0006402105
v 0.01786315 0.01198118 -0.008687767
v 0.03500065 -0.007957324 -0.00797491
v 0.03490045 -0.01111555 0.0006488234
v 0.03535177 0.0003674075 -0.01183868
v 0.0364551 -0.00435475 -0.005159731
v 0.03666538 0.0006307064 -0.00747364
v 0.03639511 -0.006246127 4.789233E-06
v 0.03690275 0.005789832 -0.005581481
v 0.03510987 -0.007257226 0.008980851
v 0.03652052 -0.00393548 0.004994616
v 0.03574813 0.008982134 -0.008679152
v 0.03702818 0.00810048 -0.0005916565
v 0.01722489 -0.00425818 0.008972239
v 0.03553878 0.002160625 0.0114772
v 0.03677738 0.001704613 0.006489604
v 0.01972967 0.01640066 -0.00155509
v 0.03595756 0.01284046 -0.0003471226
v 0.01965212 0.01395605 0.005120063
v 0.0369982 0.007155604 0.001988385
v 0.03590751 0.0112627 0.003961043
v 0.01765379 0.005159671 0.01146858
v -0.008161291 -0.006518922 0.009229121
v -0.000425536 0.003754524 0.01164307
v 0.01184902 0.01753839 -0.001032981
v 0.02054499 0.01776714 -0.001177351
v 0.01171882 0.01527956 0.005308762
v 0.0204148 0.0155083 0.005164392
v -0.007770503 -0.008504404 0.008770775
v -0.01778489 -0.009987131 0.008869671
v -0.007864641 -0.01206969 0.0009392208
v -0.01787903 -0.01355241 0.001038112
v 0.02464317 0.02463577 0.0007213599
v 0.0242484 0.02331074 0.005387221
v 0.01882666 0.02687822 0.00114176
v 0.01843189 0.02555319 0.005807621
v -0.005017092 -0.02249374 0.005541356
v -0.009467619 -0.02550984 0.005478587
v -0.004298921 -0.0239943 0.001236044
v -0.008749447 -0.0270104 0.001173274
v 0.01988512 0.02829502 0.001471655
v 0.02526484 0.02567769 0.001009381
v 0.01945022 0.02711163 0.005883295
v 0.02482994 0.02449431 0.005421022
v -0.008673704 -0.02699154 0.005154896
v -0.007877994 -0.02829502 0.001186176
v -0.004754268 -0.02382908 0.005233096
v -0.00395856 -0.02513255 0.001264376
v -0.0178159 0.008812496 0.00293321
v -0.03534693 0.01148359 -0.0004087001
v -0.03537956 0.01045528 0.00239915
v -0.01778675 0.009731214 0.0004245931
v -0.03548343 0.008968922 -0.005839104
v -0.0180306 0.003512419 0.007309814
v -0.03561987 0.004522997 0.007297807
v -0.0179087 0.007484538 -0.004427087
v -0.03574176 0.00335427 -0.007898331
v -0.01828035 -0.001971529 0.005856213
v -0.03589941 -0.001615089 0.005670818
v -0.0181395 0.002468243 -0.006266861
v -0.0359706 -0.002071379 -0.005380112
v -0.0184023 -0.004218205 0.001004527
v -0.0360359 -0.004129756 0.0002404088
v -0.01834396 -0.002379191 -0.004017012
v -0.0004413356 0.00250184 0.007321821
v -0.0002522406 0.00716971 0.003467269
v -0.0002265677 0.007978839 0.001257887
v -0.0006612917 -0.002327969 0.00604161
v -0.0003339711 0.006000154 -0.00301507
v -0.0005372425 0.001582215 -0.004635391
v -0.0007686949 -0.004306654 0.001768646
v -0.000717311 -0.002687004 -0.002653911
v 0.01816802 0.002103227 0.006905714
v 0.01837298 0.007162657 0.002727827
v 0.01840081 0.008039659 0.0003331155
v 0.01792961 -0.003131724 0.005518113
v 0.01828439 0.005894992 -0.004298276
v 0.01806407 0.001106461 -0.006054515
v 0.01781321 -0.005276391 0.0008867174
v 0.0178689 -0.003520877 -0.003906821
v 0.0369982 0.007155604 0.001988385
v 0.03702818 0.00810048 -0.0005916565
v 0.03677738 0.001704613 0.006489604
v 0.03690275 0.005789832 -0.005581481
v 0.03666538 0.0006307064 -0.00747364
v 0.03652052 -0.00393548 0.004994616
v 0.0364551 -0.00435475 -0.005159731
v 0.03639511 -0.006246127 4.789233E-06
vt 0.9187137 0.4198221
vt 0.9187137 0.4198221
vt 0.9187137 0.4198221
vt 0.9187137 0.4198221
vt 0.9187137 0.4198221
vt 0.9187137 0.4198221
vt 0.9187137 0.4198221
vt 0.9187137 0.4198221
vt 0.9187137 0.4198221
vt 0.9187137 0.4198221
vt 0.9187137 0.4198221
vt 0.9187137 0.4198221
vt 0.9187137 0.4198221
vt 0.9187137 0.4198221
vt 0.9187137 0.4198221
vt 0.9187137 0.4198221
vt 0.9187137 0.4198221
vt 0.9187137 0.4198221
vt 0.9187137 0.4198221
vt 0.9187137 0.4198221
vt 0.9187137 0.4198221
vt 0.9187137 0.4198221
vt 0.9187137 0.4198221
vt 0.9187137 0.4198221
vt 0.9187137 0.4198221
vt 0.9187137 0.4198221
vt 0.9187137 0.4198221
vt 0.9187137 0.4198221
vt 0.9187137 0.4198221
vt 0.9187137 0.4198221
vt 0.9187137 0.4198221
vt 0.9187137 0.4198221
vt 0.9187137 0.4198221
vt 0.9187137 0.4198221
vt 0.9187137 0.4198221
vt 0.9187137 0.4198221
vt 0.9187137 0.4198221
vt 0.9187137 0.4198221
vt 0.9187137 0.4198221
vt 0.9187137 0.4198221
vt 0.9187137 0.4198221
vt 0.9187137 0.4198221
vt 0.9187137 0.4198221
vt 0.9187137 0.4198221
vt 0.9187137 0.4198221
vt 0.9187137 0.4198221
vt 0.9187137 0.4198221
vt 0.9187137 0.4198221
vt 0.9187137 0.4198221
vt 0.9187137 0.4198221
vt 0.9187137 0.4198221
vt 0.9187137 0.4198221
vt 0.9187137 0.4198221
vt 0.9187137 0.4198221
vt 0.9187137 0.4198221
vt 0.9187137 0.4198221
vt 0.9187137 0.4198221
vt 0.9187137 0.4198221
vt 0.9187137 0.4198221
vt 0.9187137 0.4198221
vt 0.9187137 0.4198221
vt 0.9187137 0.4198221
vt 0.9187137 0.4198221
vt 0.9187137 0.4198221
vt 0.9187137 0.4198221
vt 0.9187137 0.4198221
vt 0.9187137 0.4198221
vt 0.9187137 0.4198221
vt 0.9187137 0.4198221
vt 0.9187137 0.4198221
vt 0.9187137 0.4198221
vt 0.9187137 0.4198221
vt 0.9187137 0.4198221
vt 0.9187137 0.4198221
vt 0.9187137 0.4198221
vt 0.9187137 0.4198221
vt 0.9187137 0.4198221
vt 0.9187137 0.4198221
vt 0.9187137 0.4198221
vt 0.9187137 0.4198221
vt 0.4157343 0.2509305
vt 0.4157343 0.2509305
vt 0.4157343 0.2509305
vt 0.4157343 0.2509305
vt 0.4157343 0.2509305
vt 0.4157343 0.2509305
vt 0.4157343 0.2509305
vt 0.4157343 0.2509305
vt 0.4157343 0.2509305
vt 0.4157343 0.2509305
vt 0.4157343 0.2509305
vt 0.4157343 0.2509305
vt 0.4157343 0.2509305
vt 0.4157343 0.2509305
vt 0.4157343 0.2509305
vt 0.4157343 0.2509305
vt 0.4157343 0.2509305
vt 0.4157343 0.2509305
vt 0.4157343 0.2509305
vt 0.4157343 0.2509305
vt 0.4157343 0.2509305
vt 0.4157343 0.2509305
vt 0.4157343 0.2509305
vt 0.4157343 0.2509305
vt 0.4157343 0.2509305
vt 0.4157343 0.2509305
vt 0.4157343 0.2509305
vt 0.4157343 0.2509305
vt 0.4157343 0.2509305
vt 0.4157343 0.2509305
vt 0.4157343 0.2509305
vt 0.4157343 0.2509305
vt 0.4157343 0.2509305
vt 0.4157343 0.2509305
vt 0.4157343 0.2509305
vt 0.4157343 0.2509305
vt 0.4157343 0.2509305
vt 0.4157343 0.2509305
vt 0.4157343 0.2509305
vt 0.4157343 0.2509305
vn -0.7283796 -0.5503286 -0.4081685
vn -0.6435548 0.2298388 0.7300763
vn -0.7583416 -0.1129211 -0.6420023
vn -0.6357521 0.644084 0.4254116
vn -0.7749151 -0.6305589 0.04361205
vn -0.7294249 -0.3985285 0.5559805
vn -0.7211756 0.472808 -0.5063184
vn -0.5920401 0.8052467 -0.03265545
vn -0.7628767 -0.4085096 0.5011377
vn -0.7756231 -0.6305944 0.02755913
vn -0.1917199 -0.5103986 0.838294
vn -0.6961665 0.7178045 -0.01043746
vn 0.01007115 0.1648311 0.9862704
vn 0.03949179 0.8058584 0.5907898
vn -0.7581269 -0.4481131 -0.4737492
vn -0.7071603 0.5275243 0.4707891
vn -0.6277229 0.5578945 -0.542879
vn -0.7346393 0.0643355 0.6754006
vn -0.6971195 0.03302177 -0.7161941
vn 0.04504672 0.9981083 -0.04184217
vn -0.3100148 0.9097186 -0.27623
vn -0.2253844 0.6741391 0.7033764
vn -0.3514019 -0.9189125 -0.1792107
vn -0.03637914 -0.7527002 -0.6573576
vn 0.4481089 -0.7548847 -0.4789024
vn -0.00814847 -0.08029447 -0.9967379
vn 0.0228893 0.6512464 -0.758521
vn 0.06228967 -0.7296529 -0.6809748
vn -0.08270688 0.6637303 -0.7433853
vn -0.00756866 -0.03643943 -0.9993073
vn -0.0336017 -0.7182097 -0.695015
vn -0.005096649 -0.01159716 -0.9999198
vn -0.03958268 -0.9984785 0.03839245
vn 0.0282914 0.656043 -0.7541931
vn 0.4746334 -0.6674227 -0.5738205
vn 0.4601322 -0.887121 0.03598168
vn 0.5296545 -0.07974575 -0.8444564
vn 0.9178504 0.2753399 0.2858994
vn 0.913694 -0.02395784 0.4056962
vn 0.9100332 0.4138928 -0.02307204
vn 0.9001931 -0.3191999 0.2962494
vn 0.4897497 -0.5870161 0.6446373
vn 0.9036552 0.2515732 -0.3465807
vn 0.5969273 0.4989908 -0.6282402
vn 0.8839446 -0.4674249 0.01248216
vn -0.02075316 -0.6209773 0.7835538
vn 0.5573069 0.1134695 0.8225167
vn 0.9008839 -0.1195116 -0.4172833
vn 0.3470626 0.6995575 -0.6246333
vn 0.6436448 0.7639504 -0.04583947
vn 0.2805633 0.4448788 0.8505099
vn 0.8493499 -0.4495175 -0.2766567
vn 0.6372377 0.6138906 0.4659038
vn 0.01870807 0.2214755 0.9749864
vn 0.206524 -0.4067 0.8899118
vn -0.01809786 0.2085985 0.9778339
vn -0.5929306 0.5697664 -0.5690339
vn 0.6146267 -0.146004 -0.7751883
vn -0.5334483 0.332173 0.777878
vn 0.6691989 -0.3778607 0.6398392
vn 0.7581654 0.03479223 0.6511335
vn -0.4823524 -0.4497887 0.7516823
vn 0.6569566 0.1545188 -0.7379242
vn -0.6546166 -0.4253833 -0.624921
vn 0.6390696 -0.1636738 -0.7515324
vn 0.6578264 -0.3766769 0.6522108
vn -0.5698233 0.558165 -0.6031197
vn -0.5407059 0.3421184 0.7685
vn 0.7327337 0.03347948 0.6796914
vn -0.4975825 -0.4677349 0.7305038
vn 0.7056312 0.1582718 -0.6906769
vn -0.6182316 -0.3922354 -0.6811321
vn -0.1634613 0.9054765 -0.3916539
vn 0.8149791 0.3694324 -0.4464623
vn -0.2254754 0.6818891 0.6958363
vn 0.7736307 0.1361461 0.6188375
vn -0.2163178 -0.7703882 0.5997571
vn -0.06396819 -0.8807223 -0.4692934
vn 0.7360869 -0.2276715 0.6374496
vn 0.8157072 -0.3441913 -0.4649238
vn -0.05856672 -0.8141658 -0.5776711
vn -0.7749151 -0.6305589 0.04361205
vn -0.7283796 -0.5503286 -0.4081685
vn -0.1011412 -0.9940161 0.04126219
vn -0.7628767 -0.4085096 0.5011377
vn -0.01159737 -0.2135442 -0.9768646
vn -0.7583416 -0.1129211 -0.6420023
vn -0.1154857 -0.6702687 0.7330778
vn -0.7346393 0.0643355 0.6754006
vn 0.02102741 0.6421447 -0.766295
vn -0.7211756 0.472808 -0.5063184
vn -0.08990838 0.04544248 0.9949127
vn -0.7071603 0.5275243 0.4707891
vn 0.006805819 0.9991125 -0.04156738
vn -0.6961665 0.7178045 -0.01043746
vn -0.03933926 0.7365506 0.6752375
vn -0.01879981 -0.2075304 -0.9780478
vn -0.04068168 -0.8097577 -0.5853524
vn -0.04803669 -0.998394 0.03003056
vn 0.01351986 0.6380583 -0.7698693
vn -0.03476148 -0.6802142 0.7321886
vn -0.006622704 0.04577906 0.9989296
vn 0.02835183 0.9982044 -0.05276677
vn 0.01956252 0.7429485 0.6690627
vn -0.02639922 -0.2129333 -0.97671
vn -0.02322476 -0.8157966 -0.5778724
vn 0.005279723 -0.9991496 0.04089497
vn 0.006195284 0.6427531 -0.7660484
vn 0.04669395 -0.6781915 0.7334003
vn 0.07696947 0.03824058 0.9962998
vn 0.05008174 0.997881 -0.04153641
vn 0.07843373 0.7326077 0.6761171
vn 0.8493499 -0.4495175 -0.2766567
vn 0.8839446 -0.4674249 0.01248216
vn 0.9008839 -0.1195116 -0.4172833
vn 0.9001931 -0.3191999 0.2962494
vn 0.913694 -0.02395784 0.4056962
vn 0.9036552 0.2515732 -0.3465807
vn 0.9178504 0.2753399 0.2858994
vn 0.9100332 0.4138928 -0.02307204
g Log_01_LOD2_0
f 3/3/3 2/2/2 1/1/1
f 2/2/2 4/4/4 1/1/1
f 1/1/1 4/4/4 5/5/5
f 6/6/6 2/2/2 3/3/3
f 7/7/7 6/6/6 3/3/3
f 4/4/4 8/8/8 5/5/5
f 5/5/5 8/8/8 9/9/9
f 10/10/10 6/6/6 7/7/7
f 11/11/11 6/6/6 10/10/10
f 12/12/12 10/10/10 7/7/7
f 13/13/13 2/2/2 6/6/6
f 11/11/11 13/13/13 6/6/6
f 14/14/14 4/4/4 2/2/2
f 13/13/13 14/14/14 2/2/2
f 15/15/15 10/10/10 12/12/12
f 16/16/16 15/15/15 12/12/12
f 8/8/8 17/17/17 9/9/9
f 9/9/9 17/17/17 18/18/18
f 18/18/18 19/19/19 16/16/16
f 19/19/19 15/15/15 16/16/16
f 17/17/17 19/19/19 18/18/18
f 20/20/20 8/8/8 4/4/4
f 14/14/14 20/20/20 4/4/4
f 21/21/21 20/20/20 14/14/14
f 22/22/22 14/14/14 13/13/13
f 22/22/22 21/21/21 14/14/14
f 23/23/23 10/10/10 15/15/15
f 23/23/23 11/11/11 10/10/10
f 24/24/24 15/15/15 19/19/19
f 24/24/24 23/23/23 15/15/15
f 25/25/25 23/23/23 24/24/24
f 26/26/26 19/19/19 17/17/17
f 26/26/26 24/24/24 19/19/19
f 27/27/27 17/17/17 8/8/8
f 20/20/20 27/27/27 8/8/8
f 27/27/27 26/26/26 17/17/17
f 28/28/28 24/24/24 26/26/26
f 28/28/28 25/25/25 24/24/24
f 29/29/29 27/27/27 20/20/20
f 21/21/21 29/29/29 20/20/20
f 30/30/30 26/26/26 27/27/27
f 30/30/30 28/28/28 26/26/26
f 29/29/29 30/30/30 27/27/27
f 31/31/31 28/28/28 30/30/30
f 32/32/32 30/30/30 29/29/29
f 32/32/32 31/31/31 30/30/30
f 33/33/33 25/25/25 28/28/28
f 31/31/31 33/33/33 28/28/28
f 34/34/34 29/29/29 21/21/21
f 34/34/34 32/32/32 29/29/29
f 35/35/35 31/31/31 32/32/32
f 36/36/36 33/33/33 31/31/31
f 35/35/35 36/36/36 31/31/31
f 37/37/37 32/32/32 34/34/34
f 37/37/37 35/35/35 32/32/32
f 36/36/36 35/35/35 38/38/38
f 38/38/38 35/35/35 39/39/39
f 35/35/35 37/37/37 39/39/39
f 40/40/40 36/36/36 38/38/38
f 39/39/39 37/37/37 41/41/41
f 42/42/42 36/36/36 40/40/40
f 36/36/36 42/42/42 33/33/33
f 43/43/43 42/42/42 40/40/40
f 37/37/37 44/44/44 41/41/41
f 44/44/44 37/37/37 34/34/34
f 41/41/41 44/44/44 45/45/45
f 42/42/42 46/46/46 33/33/33
f 33/33/33 46/46/46 25/25/25
f 47/47/47 42/42/42 43/43/43
f 42/42/42 47/47/47 46/46/46
f 48/48/48 47/47/47 43/43/43
f 44/44/44 34/34/34 49/49/49
f 49/49/49 34/34/34 21/21/21
f 44/44/44 50/50/50 45/45/45
f 50/50/50 44/44/44 49/49/49
f 50/50/50 49/49/49 51/51/51
f 45/45/45 50/50/50 52/52/52
f 52/52/52 53/53/53 48/48/48
f 50/50/50 53/53/53 52/52/52
f 53/53/53 47/47/47 48/48/48
f 53/53/53 50/50/50 51/51/51
f 47/47/47 53/53/53 54/54/54
f 47/47/47 54/54/54 46/46/46
f 53/53/53 51/51/51 54/54/54
f 46/46/46 54/54/54 55/55/55
f 46/46/46 55/55/55 25/25/25
f 54/54/54 51/51/51 56/56/56
f 54/54/54 56/56/56 55/55/55
f 21/21/21 57/57/57 49/49/49
f 49/49/49 58/58/58 51/51/51
f 57/57/57 58/58/58 49/49/49
f 59/59/59 57/57/57 21/21/21
f 22/22/22 59/59/59 21/21/21
f 51/51/51 22/22/22 56/56/56
f 56/56/56 22/22/22 13/13/13
f 56/56/56 13/13/13 11/11/11
f 55/55/55 56/56/56 11/11/11
f 51/51/51 60/60/60 22/22/22
f 58/58/58 60/60/60 51/51/51
f 60/60/60 59/59/59 22/22/22
f 55/55/55 61/61/61 25/25/25
f 11/11/11 62/62/62 55/55/55
f 62/62/62 61/61/61 55/55/55
f 61/61/61 63/63/63 25/25/25
f 25/25/25 63/63/63 23/23/23
f 23/23/23 64/64/64 11/11/11
f 64/64/64 62/62/62 11/11/11
f 63/63/63 64/64/64 23/23/23
f 58/58/58 65/65/65 60/60/60
f 60/60/60 66/66/66 59/59/59
f 65/65/65 66/66/66 60/60/60
f 67/67/67 65/65/65 58/58/58
f 57/57/57 67/67/67 58/58/58
f 59/59/59 68/68/68 57/57/57
f 66/66/66 68/68/68 59/59/59
f 68/68/68 67/67/67 57/57/57
f 61/61/61 69/69/69 63/63/63
f 62/62/62 70/70/70 61/61/61
f 70/70/70 69/69/69 61/61/61
f 63/63/63 71/71/71 64/64/64
f 69/69/69 71/71/71 63/63/63
f 64/64/64 72/72/72 62/62/62
f 72/72/72 70/70/70 62/62/62
f 71/71/71 72/72/72 64/64/64
f 67/67/67 73/73/73 65/65/65
f 65/65/65 74/74/74 66/66/66
f 73/73/73 74/74/74 65/65/65
f 75/75/75 73/73/73 67/67/67
f 68/68/68 75/75/75 67/67/67
f 74/74/74 73/73/73 75/75/75
f 66/66/66 76/76/76 68/68/68
f 76/76/76 75/75/75 68/68/68
f 76/76/76 74/74/74 75/75/75
f 74/74/74 76/76/76 66/66/66
f 70/70/70 77/77/77 69/69/69
f 72/72/72 78/78/78 70/70/70
f 78/78/78 77/77/77 70/70/70
f 77/77/77 79/79/79 69/69/69
f 69/69/69 79/79/79 71/71/71
f 79/79/79 77/77/77 78/78/78
f 80/80/80 78/78/78 72/72/72
f 71/71/71 80/80/80 72/72/72
f 80/80/80 79/79/79 78/78/78
f 79/79/79 80/80/80 71/71/71
f 83/83/83 82/82/82 81/81/81
f 82/82/82 84/84/84 81/81/81
f 82/82/82 85/85/85 84/84/84
f 83/83/83 81/81/81 86/86/86
f 87/87/87 83/83/83 86/86/86
f 85/85/85 88/88/88 84/84/84
f 85/85/85 89/89/89 88/88/88
f 87/87/87 86/86/86 90/90/90
f 91/91/91 87/87/87 90/90/90
f 89/89/89 92/92/92 88/88/88
f 89/89/89 93/93/93 92/92/92
f 91/91/91 90/90/90 94/94/94
f 95/95/95 91/91/91 94/94/94
f 93/93/93 95/95/95 96/96/96
f 93/93/93 96/96/96 92/92/92
f 95/95/95 94/94/94 96/96/96
f 86/86/86 81/81/81 97/97/97
f 81/81/81 84/84/84 98/98/98
f 81/81/81 98/98/98 97/97/97
f 84/84/84 88/88/88 99/99/99
f 84/84/84 99/99/99 98/98/98
f 90/90/90 86/86/86 100/100/100
f 86/86/86 97/97/97 100/100/100
f 88/88/88 92/92/92 101/101/101
f 88/88/88 101/101/101 99/99/99
f 92/92/92 96/96/96 102/102/102
f 92/92/92 102/102/102 101/101/101
f 94/94/94 90/90/90 103/103/103
f 90/90/90 100/100/100 103/103/103
f 96/96/96 94/94/94 104/104/104
f 96/96/96 104/104/104 102/102/102
f 94/94/94 103/103/103 104/104/104
f 97/97/97 98/98/98 105/105/105
f 98/98/98 99/99/99 106/106/106
f 98/98/98 106/106/106 105/105/105
f 99/99/99 101/101/101 107/107/107
f 99/99/99 107/107/107 106/106/106
f 100/100/100 97/97/97 108/108/108
f 97/97/97 105/105/105 108/108/108
f 101/101/101 102/102/102 109/109/109
f 101/101/101 109/109/109 107/107/107
f 102/102/102 104/104/104 110/110/110
f 102/102/102 110/110/110 109/109/109
f 103/103/103 100/100/100 111/111/111
f 100/100/100 108/108/108 111/111/111
f 104/104/104 103/103/103 112/112/112
f 104/104/104 112/112/112 110/110/110
f 103/103/103 111/111/111 112/112/112
f 106/106/106 107/107/107 113/113/113
f 107/107/107 114/114/114 113/113/113
f 107/107/107 109/109/109 114/114/114
f 106/106/106 113/113/113 115/115/115
f 109/109/109 116/116/116 114/114/114
f 109/109/109 110/110/110 116/116/116
f 105/105/105 106/106/106 115/115/115
f 110/110/110 117/117/117 116/116/116
f 110/110/110 112/112/112 117/117/117
f 105/105/105 115/115/115 118/118/118
f 112/112/112 119/119/119 117/117/117
f 112/112/112 111/111/111 119/119/119
f 108/108/108 105/105/105 118/118/118
f 111/111/111 120/120/120 119/119/119
f 108/108/108 118/118/118 120/120/120
f 111/111/111 108/108/108 120/120/120
