g Log_02_LOD2
v -0.0274163 0.002409166 0.002336739
v -0.02819059 -0.002465775 0.01183889
v -0.02759607 -0.00332015 0.007067794
v -0.02790498 0.006636307 0.004322736
v -0.02739189 0.00340229 -0.0003750396
v -0.02852282 -0.01188362 0.009342548
v -0.02780518 -0.009248227 0.005496471
v -0.02786621 0.008214065 1.456737E-05
v -0.01182738 0.005079716 5.293131E-05
v -0.027494 0.0009736597 -0.005619646
v -0.01186615 0.003501956 0.0043611
v -0.02802843 0.004355737 -0.008317461
v -0.02768725 -0.004448891 -0.007608418
v -0.01299914 -0.004817931 0.01187725
v -0.002577604 0.005145467 0.005775498
v -0.02868503 -0.01574195 0.001010514
v -0.0279073 -0.01167685 0.0002518594
v -0.01333136 -0.01423578 0.009380911
v -0.02860742 -0.01258373 -0.007613217
v -0.02785844 -0.009688905 -0.005176359
v -0.02833545 -0.00425899 -0.01147699
v -0.01283697 0.002003581 -0.008279097
v -0.01349358 -0.0180941 0.001048878
v 0.0002358007 -0.00301581 0.01156423
v -0.01341597 -0.01493588 -0.007574855
v -0.01314399 -0.006611146 -0.01143863
v -0.0001834023 -0.01231842 0.009306768
v 2.245829E-05 -0.01597263 0.0009739935
v 0.0003155279 -0.0126194 -0.007861659
v 9.040236E-05 -0.004771451 -0.01187725
v 2.945274E-05 0.003505074 -0.008904088
v 0.01421155 -0.004952295 0.01149853
v 0.01387932 -0.01437015 0.009002188
v 0.01371711 -0.01822847 0.0006701601
v 0.01379472 -0.01507025 -0.007953574
v 0.01406669 -0.00674551 -0.01181735
v 0.01575943 0.00384408 0.005150013
v 0.02719214 -0.01507143 0.0090108
v 0.02702993 -0.01892975 0.0006787729
v 0.02752437 -0.005653574 0.01150715
v 0.02710754 -0.01577152 -0.00794496
v 0.02780998 0.003448505 0.003990992
v 0.02818068 -0.01426488 4.890561E-05
v 0.02822847 -0.01231957 -0.005262888
v 0.02828059 -0.01188834 0.005181026
v 0.02848522 -0.006087417 0.006718645
v 0.028396 -0.007191948 -0.007642781
v 0.02866115 -0.0004809838 0.002089068
v 0.02737951 -0.007446792 -0.01180874
v 0.0285851 -0.001885703 -0.005696665
v 0.02784875 0.005026258 -0.000317173
v 0.02868503 0.0004908365 -0.0005645489
v 0.02768653 0.001167935 -0.008649202
v 0.01437371 0.001869217 -0.008657818
v 0.0158195 0.006288689 -0.00152514
v -0.002766327 0.007336485 -0.001335107
v -0.00299947 0.00878103 -0.0005848062
v -0.0116462 0.006689937 0.0007034456
v -0.002824314 0.006747526 0.006014616
v -0.01168219 0.005225602 0.0047019
v -0.01057271 0.01623058 0.004557784
v -0.01059217 0.0154383 0.006721161
v -0.004286084 0.01623981 0.007431412
v -0.004380853 0.01734005 0.003860769
v -0.01038972 0.01733515 0.00709621
v -0.004557586 0.01800286 0.00769456
v -0.004637424 0.01892975 0.004686467
v -0.01037332 0.01800262 0.005273669
v -0.0135761 0.002432166 0.003238132
v -0.02739189 0.00340229 -0.0003750396
v -0.0274163 0.002409166 0.002336739
v -0.01355095 0.00345563 0.0004434979
v -0.027494 0.0009736597 -0.005619646
v -0.01376137 -0.0034722 0.008113734
v -0.02759607 -0.00332015 0.007067794
v -0.01365618 0.0009527993 -0.004961348
v -0.02768725 -0.004448891 -0.007608418
v -0.01397688 -0.0095814 0.006494403
v -0.02780518 -0.009248227 0.005496471
v -0.01385534 -0.004635429 -0.007010883
v -0.02785844 -0.009688905 -0.005176359
v -0.01408211 -0.01208423 0.001089551
v -0.0279073 -0.01167685 0.0002518594
v -0.01403176 -0.01003554 -0.004504517
v 7.332578E-05 -0.00362425 0.009159676
v 0.0002640885 0.002455165 0.004139524
v 0.0002899879 0.00350897 0.001262035
v -0.0001485698 -0.009914574 0.007492335
v 0.000181637 0.0009319389 -0.004303048
v -2.342686E-05 -0.004821966 -0.006413348
v -0.0002569203 -0.01249161 0.001927245
v -0.0002050833 -0.01038218 -0.003832675
v 0.01427927 -0.004855833 0.007939161
v 0.01446262 0.0009870904 0.003114297
v 0.01448751 0.001999904 0.0003487432
v 0.01406601 -0.01090146 0.006336681
v 0.01438337 -0.0004768819 -0.004999857
v 0.01418628 -0.006006957 -0.007028065
v 0.01396188 -0.01337825 0.0009880745
v 0.0140117 -0.01135088 -0.004547781
v 0.02866115 -0.0004809838 0.002089068
v 0.02868503 0.0004908365 -0.0005645489
v 0.02848522 -0.006087417 0.006718645
v 0.0285851 -0.001885703 -0.005696665
v 0.028396 -0.007191948 -0.007642781
v 0.02828059 -0.01188834 0.005181026
v 0.02822847 -0.01231957 -0.005262888
v 0.02818068 -0.01426488 4.890561E-05
vt 0.9187137 0.4198221
vt 0.9187137 0.4198221
vt 0.9187137 0.4198221
vt 0.9187137 0.4198221
vt 0.9187137 0.4198221
vt 0.9187137 0.4198221
vt 0.9187137 0.4198221
vt 0.9187137 0.4198221
vt 0.9187137 0.4198221
vt 0.9187137 0.4198221
vt 0.9187137 0.4198221
vt 0.9187137 0.4198221
vt 0.9187137 0.4198221
vt 0.9187137 0.4198221
vt 0.9187137 0.4198221
vt 0.9187137 0.4198221
vt 0.9187137 0.4198221
vt 0.9187137 0.4198221
vt 0.9187137 0.4198221
vt 0.9187137 0.4198221
vt 0.9187137 0.4198221
vt 0.9187137 0.4198221
vt 0.9187137 0.4198221
vt 0.9187137 0.4198221
vt 0.9187137 0.4198221
vt 0.9187137 0.4198221
vt 0.9187137 0.4198221
vt 0.9187137 0.4198221
vt 0.9187137 0.4198221
vt 0.9187137 0.4198221
vt 0.9187137 0.4198221
vt 0.9187137 0.4198221
vt 0.9187137 0.4198221
vt 0.9187137 0.4198221
vt 0.9187137 0.4198221
vt 0.9187137 0.4198221
vt 0.9187137 0.4198221
vt 0.9187137 0.4198221
vt 0.9187137 0.4198221
vt 0.9187137 0.4198221
vt 0.9187137 0.4198221
vt 0.9187137 0.4198221
vt 0.9187137 0.4198221
vt 0.9187137 0.4198221
vt 0.9187137 0.4198221
vt 0.9187137 0.4198221
vt 0.9187137 0.4198221
vt 0.9187137 0.4198221
vt 0.9187137 0.4198221
vt 0.9187137 0.4198221
vt 0.9187137 0.4198221
vt 0.9187137 0.4198221
vt 0.9187137 0.4198221
vt 0.9187137 0.4198221
vt 0.9187137 0.4198221
vt 0.9187137 0.4198221
vt 0.9187137 0.4198221
vt 0.9187137 0.4198221
vt 0.9187137 0.4198221
vt 0.9187137 0.4198221
vt 0.9187137 0.4198221
vt 0.9187137 0.4198221
vt 0.9187137 0.4198221
vt 0.9187137 0.4198221
vt 0.9187137 0.4198221
vt 0.9187137 0.4198221
vt 0.9187137 0.4198221
vt 0.9187137 0.4198221
vt 0.4157343 0.2509305
vt 0.4157343 0.2509305
vt 0.4157343 0.2509305
vt 0.4157343 0.2509305
vt 0.4157343 0.2509305
vt 0.4157343 0.2509305
vt 0.4157343 0.2509305
vt 0.4157343 0.2509305
vt 0.4157343 0.2509305
vt 0.4157343 0.2509305
vt 0.4157343 0.2509305
vt 0.4157343 0.2509305
vt 0.4157343 0.2509305
vt 0.4157343 0.2509305
vt 0.4157343 0.2509305
vt 0.4157343 0.2509305
vt 0.4157343 0.2509305
vt 0.4157343 0.2509305
vt 0.4157343 0.2509305
vt 0.4157343 0.2509305
vt 0.4157343 0.2509305
vt 0.4157343 0.2509305
vt 0.4157343 0.2509305
vt 0.4157343 0.2509305
vt 0.4157343 0.2509305
vt 0.4157343 0.2509305
vt 0.4157343 0.2509305
vt 0.4157343 0.2509305
vt 0.4157343 0.2509305
vt 0.4157343 0.2509305
vt 0.4157343 0.2509305
vt 0.4157343 0.2509305
vt 0.4157343 0.2509305
vt 0.4157343 0.2509305
vt 0.4157343 0.2509305
vt 0.4157343 0.2509305
vt 0.4157343 0.2509305
vt 0.4157343 0.2509305
vt 0.4157343 0.2509305
vt 0.4157343 0.2509305
vn -0.7126638 -0.5654677 -0.4151585
vn -0.6349491 0.2218125 0.7400262
vn -0.7533065 -0.1177738 -0.6470385
vn -0.6280178 0.6513342 0.4258606
vn -0.7609087 -0.6473461 0.04428359
vn -0.7043515 -0.4262915 0.5675952
vn -0.7304688 0.464558 -0.5006008
vn -0.58679 0.809518 -0.01892182
vn -0.2882529 0.9005272 -0.3255167
vn -0.7603767 -0.4134997 0.5008445
vn -0.2343283 0.6000428 0.7648783
vn -0.6241868 0.5621099 -0.5426079
vn -0.7471943 0.05929824 0.6619551
vn 0.001525967 0.1738687 0.9847677
vn 0.2071657 0.5730629 0.7928942
vn -0.7414317 -0.6704136 0.0287185
vn -0.7177152 0.6962603 -0.01031542
vn 0.00180063 -0.6644934 0.7472919
vn -0.7274986 -0.4818759 -0.4884071
vn -0.7298351 0.509029 0.4563224
vn -0.6801744 0.01577826 -0.7328805
vn -0.01065124 0.667244 -0.744763
vn -0.0006408952 -0.9992777 0.03799593
vn -0.0005798666 0.2317635 0.972772
vn -0.003540208 -0.7560175 -0.6545418
vn -0.01120038 -0.08285842 -0.9964983
vn 0.0121162 -0.617102 0.7867898
vn -0.002319467 -0.9993242 0.03668421
vn -0.01538149 -0.7196949 -0.69412
vn -0.01464901 -0.01782296 -0.9997339
vn -0.02563603 0.6708095 -0.7411865
vn 0.02716197 0.1801541 0.9832634
vn -0.06106834 -0.6493204 0.7580593
vn -0.1056584 -0.9938356 0.0335714
vn -0.08365233 -0.7403277 -0.6670213
vn -0.007629648 -0.05789376 -0.9982936
vn 0.07004241 0.8000705 0.595803
vn 0.5388159 -0.55493 0.633822
vn 0.5280454 -0.8484982 0.03491411
vn 0.5670434 0.1390447 0.8118671
vn 0.5312531 -0.6340428 -0.5619252
vn 0.6150575 0.6377334 0.4636813
vn 0.8972942 0.4410326 -0.01879981
vn 0.9045945 0.3040036 0.2988153
vn 0.8853707 0.2900878 -0.3632737
vn 0.8718011 -0.113408 -0.4765517
vn 0.8945526 -0.002441548 0.4469558
vn 0.8068442 -0.4952095 -0.3221334
vn 0.5520998 -0.05722427 -0.831812
vn 0.8709886 -0.3437993 0.3509713
vn 0.6105061 0.7911186 -0.03759965
vn 0.8457457 -0.5331385 0.02185169
vn 0.5856708 0.519657 -0.6220501
vn 0.06225906 0.6459073 -0.7608729
vn 0.08114985 0.9921402 -0.09524961
vn 0.1505498 0.9034516 -0.4013848
vn 0.5985116 0.4302289 -0.6757861
vn -0.7735108 0.3204828 -0.5467832
vn 0.6603359 -0.01763988 0.7507632
vn -0.7388121 -0.04815952 0.6721885
vn -0.7628919 0.3268316 -0.5578325
vn -0.7334718 -0.04849526 0.6779876
vn 0.6663381 -0.01745731 0.7454454
vn 0.6119683 0.4244592 -0.6673299
vn -0.6094717 0.4056634 0.6811618
vn 0.4853188 0.4855935 0.7270932
vn 0.454772 0.8209456 -0.3452983
vn -0.6147453 0.7314196 -0.2951498
vn 0.03888089 -0.8161936 -0.5764688
vn -0.7609087 -0.6473461 0.04428359
vn -0.7126638 -0.5654677 -0.4151585
vn 0.001373358 -0.9991335 0.0415975
vn -0.7603767 -0.4134997 0.5008445
vn 0.0712324 -0.2156199 -0.9738757
vn -0.7533065 -0.1177738 -0.6470385
vn -0.03601255 -0.676456 0.7356021
vn -0.7471943 0.05929824 0.6619551
vn 0.07062011 0.6400977 -0.765041
vn -0.7304688 0.464558 -0.5006008
vn -0.04254319 0.04278734 0.998178
vn -0.7298351 0.509029 0.4563224
vn 0.03192253 0.9986319 -0.04141384
vn -0.7177152 0.6962603 -0.01031542
vn -0.01440513 0.7363095 0.6764916
vn -0.01550391 -0.2187944 -0.9756478
vn -0.04291021 -0.8127303 -0.5810578
vn -0.05066169 -0.9983709 0.02624642
vn 0.02560573 0.6284238 -0.7774497
vn -0.03427342 -0.6886119 0.7243197
vn 0.001434405 0.03329651 0.9994444
vn 0.04565629 0.9973274 -0.05703984
vn 0.03506653 0.7387471 0.6730699
vn -0.1016596 -0.2089959 -0.9726182
vn -0.1250986 -0.8087615 -0.5746784
vn -0.1029107 -0.993796 0.0421775
vn -0.0175178 0.6435198 -0.7652289
vn -0.03097731 -0.6764954 0.735795
vn 0.04648094 0.03958357 0.9981346
vn 0.05942049 0.9973609 -0.04171947
vn 0.08386663 0.732368 0.6757244
vn 0.8068442 -0.4952095 -0.3221334
vn 0.8457457 -0.5331385 0.02185169
vn 0.8718011 -0.113408 -0.4765517
vn 0.8709886 -0.3437993 0.3509713
vn 0.8945526 -0.002441548 0.4469558
vn 0.8853707 0.2900878 -0.3632737
vn 0.9045945 0.3040036 0.2988153
vn 0.8972942 0.4410326 -0.01879981
g Log_02_LOD2_0
f 3/3/3 2/2/2 1/1/1
f 2/2/2 4/4/4 1/1/1
f 1/1/1 4/4/4 5/5/5
f 6/6/6 2/2/2 3/3/3
f 7/7/7 6/6/6 3/3/3
f 4/4/4 8/8/8 5/5/5
f 9/9/9 8/8/8 4/4/4
f 5/5/5 8/8/8 10/10/10
f 11/11/11 4/4/4 2/2/2
f 11/11/11 9/9/9 4/4/4
f 8/8/8 12/12/12 10/10/10
f 10/10/10 12/12/12 13/13/13
f 14/14/14 2/2/2 6/6/6
f 14/14/14 11/11/11 2/2/2
f 15/15/15 11/11/11 14/14/14
f 16/16/16 6/6/6 7/7/7
f 17/17/17 16/16/16 7/7/7
f 18/18/18 14/14/14 6/6/6
f 18/18/18 6/6/6 16/16/16
f 19/19/19 16/16/16 17/17/17
f 20/20/20 19/19/19 17/17/17
f 13/13/13 21/21/21 20/20/20
f 12/12/12 21/21/21 13/13/13
f 21/21/21 19/19/19 20/20/20
f 22/22/22 12/12/12 8/8/8
f 9/9/9 22/22/22 8/8/8
f 23/23/23 16/16/16 19/19/19
f 23/23/23 18/18/18 16/16/16
f 24/24/24 14/14/14 18/18/18
f 24/24/24 15/15/15 14/14/14
f 25/25/25 19/19/19 21/21/21
f 25/25/25 23/23/23 19/19/19
f 26/26/26 21/21/21 12/12/12
f 22/22/22 26/26/26 12/12/12
f 26/26/26 25/25/25 21/21/21
f 27/27/27 18/18/18 23/23/23
f 27/27/27 24/24/24 18/18/18
f 28/28/28 23/23/23 25/25/25
f 28/28/28 27/27/27 23/23/23
f 29/29/29 25/25/25 26/26/26
f 29/29/29 28/28/28 25/25/25
f 30/30/30 26/26/26 22/22/22
f 30/30/30 29/29/29 26/26/26
f 31/31/31 30/30/30 22/22/22
f 31/31/31 22/22/22 9/9/9
f 32/32/32 24/24/24 27/27/27
f 33/33/33 27/27/27 28/28/28
f 33/33/33 32/32/32 27/27/27
f 34/34/34 28/28/28 29/29/29
f 34/34/34 33/33/33 28/28/28
f 35/35/35 29/29/29 30/30/30
f 35/35/35 34/34/34 29/29/29
f 36/36/36 30/30/30 31/31/31
f 36/36/36 35/35/35 30/30/30
f 32/32/32 37/37/37 24/24/24
f 37/37/37 15/15/15 24/24/24
f 38/38/38 33/33/33 34/34/34
f 39/39/39 34/34/34 35/35/35
f 39/39/39 38/38/38 34/34/34
f 40/40/40 32/32/32 33/33/33
f 38/38/38 40/40/40 33/33/33
f 41/41/41 35/35/35 36/36/36
f 41/41/41 39/39/39 35/35/35
f 42/42/42 37/37/37 32/32/32
f 40/40/40 42/42/42 32/32/32
f 38/38/38 39/39/39 43/43/43
f 43/43/43 39/39/39 44/44/44
f 39/39/39 41/41/41 44/44/44
f 45/45/45 38/38/38 43/43/43
f 40/40/40 38/38/38 45/45/45
f 46/46/46 40/40/40 45/45/45
f 42/42/42 40/40/40 46/46/46
f 44/44/44 41/41/41 47/47/47
f 48/48/48 42/42/42 46/46/46
f 41/41/41 49/49/49 47/47/47
f 49/49/49 41/41/41 36/36/36
f 47/47/47 49/49/49 50/50/50
f 51/51/51 42/42/42 48/48/48
f 52/52/52 51/51/51 48/48/48
f 42/42/42 51/51/51 37/37/37
f 50/50/50 53/53/53 52/52/52
f 49/49/49 53/53/53 50/50/50
f 53/53/53 51/51/51 52/52/52
f 49/49/49 36/36/36 54/54/54
f 53/53/53 49/49/49 54/54/54
f 54/54/54 36/36/36 31/31/31
f 51/51/51 55/55/55 37/37/37
f 51/51/51 53/53/53 55/55/55
f 53/53/53 54/54/54 55/55/55
f 37/37/37 55/55/55 15/15/15
f 54/54/54 31/31/31 56/56/56
f 55/55/55 54/54/54 56/56/56
f 55/55/55 56/56/56 15/15/15
f 56/56/56 31/31/31 9/9/9
f 56/56/56 57/57/57 15/15/15
f 9/9/9 58/58/58 56/56/56
f 58/58/58 57/57/57 56/56/56
f 57/57/57 59/59/59 15/15/15
f 15/15/15 59/59/59 11/11/11
f 11/11/11 60/60/60 9/9/9
f 60/60/60 58/58/58 9/9/9
f 59/59/59 60/60/60 11/11/11
f 58/58/58 61/61/61 57/57/57
f 60/60/60 62/62/62 58/58/58
f 62/62/62 61/61/61 58/58/58
f 59/59/59 63/63/63 60/60/60
f 63/63/63 62/62/62 60/60/60
f 57/57/57 64/64/64 59/59/59
f 61/61/61 64/64/64 57/57/57
f 64/64/64 63/63/63 59/59/59
f 62/62/62 65/65/65 61/61/61
f 63/63/63 66/66/66 62/62/62
f 66/66/66 65/65/65 62/62/62
f 67/67/67 66/66/66 63/63/63
f 64/64/64 67/67/67 63/63/63
f 66/66/66 67/67/67 65/65/65
f 61/61/61 68/68/68 64/64/64
f 65/65/65 68/68/68 61/61/61
f 67/67/67 68/68/68 65/65/65
f 68/68/68 67/67/67 64/64/64
f 71/71/71 70/70/70 69/69/69
f 70/70/70 72/72/72 69/69/69
f 70/70/70 73/73/73 72/72/72
f 71/71/71 69/69/69 74/74/74
f 75/75/75 71/71/71 74/74/74
f 73/73/73 76/76/76 72/72/72
f 73/73/73 77/77/77 76/76/76
f 75/75/75 74/74/74 78/78/78
f 79/79/79 75/75/75 78/78/78
f 77/77/77 80/80/80 76/76/76
f 77/77/77 81/81/81 80/80/80
f 79/79/79 78/78/78 82/82/82
f 83/83/83 79/79/79 82/82/82
f 81/81/81 83/83/83 84/84/84
f 81/81/81 84/84/84 80/80/80
f 83/83/83 82/82/82 84/84/84
f 74/74/74 69/69/69 85/85/85
f 69/69/69 72/72/72 86/86/86
f 69/69/69 86/86/86 85/85/85
f 72/72/72 76/76/76 87/87/87
f 72/72/72 87/87/87 86/86/86
f 78/78/78 74/74/74 88/88/88
f 74/74/74 85/85/85 88/88/88
f 76/76/76 80/80/80 89/89/89
f 76/76/76 89/89/89 87/87/87
f 80/80/80 84/84/84 90/90/90
f 80/80/80 90/90/90 89/89/89
f 82/82/82 78/78/78 91/91/91
f 78/78/78 88/88/88 91/91/91
f 84/84/84 82/82/82 92/92/92
f 84/84/84 92/92/92 90/90/90
f 82/82/82 91/91/91 92/92/92
f 85/85/85 86/86/86 93/93/93
f 86/86/86 87/87/87 94/94/94
f 86/86/86 94/94/94 93/93/93
f 87/87/87 89/89/89 95/95/95
f 87/87/87 95/95/95 94/94/94
f 88/88/88 85/85/85 96/96/96
f 85/85/85 93/93/93 96/96/96
f 89/89/89 90/90/90 97/97/97
f 89/89/89 97/97/97 95/95/95
f 90/90/90 92/92/92 98/98/98
f 90/90/90 98/98/98 97/97/97
f 91/91/91 88/88/88 99/99/99
f 88/88/88 96/96/96 99/99/99
f 92/92/92 91/91/91 100/100/100
f 92/92/92 100/100/100 98/98/98
f 91/91/91 99/99/99 100/100/100
f 94/94/94 95/95/95 101/101/101
f 95/95/95 102/102/102 101/101/101
f 95/95/95 97/97/97 102/102/102
f 94/94/94 101/101/101 103/103/103
f 97/97/97 104/104/104 102/102/102
f 97/97/97 98/98/98 104/104/104
f 93/93/93 94/94/94 103/103/103
f 98/98/98 105/105/105 104/104/104
f 98/98/98 100/100/100 105/105/105
f 93/93/93 103/103/103 106/106/106
f 100/100/100 107/107/107 105/105/105
f 100/100/100 99/99/99 107/107/107
f 96/96/96 93/93/93 106/106/106
f 99/99/99 108/108/108 107/107/107
f 96/96/96 106/106/106 108/108/108
f 99/99/99 96/96/96 108/108/108
