g Milk
v -0.3568141 0.01953804 -0.8614267
v -2.180224E-08 0.01953804 -0.9324012
v 0.3568146 0.01953804 -0.8614264
v -0.6593071 0.01953793 -0.6593075
v 0.6593073 0.01953793 -0.6593072
v -0.8614264 0.01953793 -0.3568147
v 0.8614264 0.01953793 -0.3568145
v -0.9324012 0.01953793 -2.893891E-09
v 0.9324012 0.01953793 4.836724E-08
v -0.8614264 0.01953793 0.3568147
v 0.8614264 0.01953793 0.3568146
v 0.6593073 0.01953793 0.6593072
v -0.6593071 0.01953793 0.6593075
v 0.3568146 0.01953781 0.8614264
v -0.3568143 0.01953781 0.8614265
v 1.397684E-07 0.01953781 0.9324012
vt 0.1685791 0.4465332
vt 0.25 0.4626465
vt 0.3312988 0.4465332
vt 0.09960938 0.4003906
vt 0.4003906 0.4003906
vt 0.0534668 0.3312988
vt 0.4465332 0.3312988
vt 0.03729248 0.25
vt 0.4626465 0.25
vt 0.0534668 0.1685791
vt 0.4465332 0.1685791
vt 0.4003906 0.09960938
vt 0.09960938 0.09960938
vt 0.3312988 0.0534668
vt 0.1685791 0.0534668
vt 0.25 0.03729248
vn 0 1 0
vn 0 1 0
vn 0 1 0
vn 0 1 0
vn 0 1 0
vn 0 1 0
vn 0 1 0
vn 0 1 0
vn 0 1 0
vn 0 1 0
vn 0 1 0
vn 0 1 0
vn 0 1 0
vn 0 1 0
vn 0 1 0
vn 0 1 0
g Milk_0
f 3/3/3 2/2/2 1/1/1
f 1/1/1 4/4/4 3/3/3
f 4/4/4 5/5/5 3/3/3
f 4/4/4 6/6/6 5/5/5
f 6/6/6 7/7/7 5/5/5
f 6/6/6 8/8/8 7/7/7
f 8/8/8 9/9/9 7/7/7
f 8/8/8 10/10/10 9/9/9
f 10/10/10 11/11/11 9/9/9
f 10/10/10 12/12/12 11/11/11
f 10/10/10 13/13/13 12/12/12
f 13/13/13 14/14/14 12/12/12
f 13/13/13 15/15/15 14/14/14
f 15/15/15 16/16/16 14/14/14
