g Nenuphar
v 0.08849186 0.1999999 -0.1958309
v -0.1501606 0.1999999 -0.1501605
v -0.08126599 0.1999999 -0.1961946
v 0.08849186 0.1999999 -0.1958309
v 0.1501604 0.1999999 -0.1501605
v -0.1501606 0.1999999 -0.1501605
v -0.006390341 0.1999999 -0.2135618
v 0.04683676 0.1999999 -0.2138435
v 0.08849186 0.1999999 -0.1958309
v -0.08126599 0.1999999 -0.1961946
v 0.1501604 0.1999999 -0.1501605
v -0.1961944 0.1999999 -0.08126621
v -0.1501606 0.1999999 -0.1501605
v 0.1961941 0.1999999 -0.08126633
v 0.212359 0.1999999 1.065679E-07
v -0.2123592 0.1999999 1.1596E-07
v 0.1961942 0.1999999 0.08126636
v -0.1961944 0.1999999 0.08126636
v -0.1501606 0.1999999 0.1501607
v 0.1501604 0.1999999 0.1501606
v 0.08126622 0.1999999 0.1961942
v -0.08126646 0.1999999 0.1961944
v -5.288983E-08 0.1999999 0.2123592
v 0.08849186 0.1999999 -0.1958309
v 0.7186478 0.2000001 -1.734969
v 1.327888 0.2 -1.327888
v 0.1501604 0.1999999 -0.1501605
v -0.1501606 0.1999999 -0.1501605
v -0.718647 0.2000001 -1.73497
v -0.08126599 0.1999999 -0.1961946
v -1.327888 0.2 -1.327888
v -0.1961944 0.1999999 -0.08126621
v -1.734969 0.2 -0.7186481
v -0.2123592 0.1999999 1.1596E-07
v -1.877917 0.1999999 -1.056486E-08
v -0.1961944 0.1999999 0.08126636
v -1.734969 0.1999999 0.7186481
v -0.1501606 0.1999999 0.1501607
v -1.327888 0.1999998 1.327888
v -0.08126646 0.1999999 0.1961944
v -0.7186475 0.1999998 1.734969
v -5.288983E-08 0.1999999 0.2123592
v 2.0016E-07 0.1999998 1.877917
v 0.08126622 0.1999999 0.1961942
v 0.7186479 0.1999998 1.734969
v 0.1501604 0.1999999 0.1501606
v 1.327888 0.1999998 1.327888
v 0.1961942 0.1999999 0.08126636
v 1.734969 0.1999999 0.718648
v 0.212359 0.1999999 1.065679E-07
v 1.877917 0.1999999 9.391545E-08
v 0.1961941 0.1999999 -0.08126633
v 1.734969 0.2 -0.7186478
v 0.1501604 0.1999999 -0.1501605
v 1.327888 0.2 -1.327888
v 0.000492949 0.09999978 1.978524
v 0.7572754 0.09999979 1.827991
v 1.398844 0.09999982 1.399308
v 1.827527 0.09999987 0.7577389
v 1.978061 0.09999993 0.0009562002
v 1.827527 0.09999999 -0.7558265
v 1.398844 0.1 -1.397396
v -0.7562895 0.09999979 1.827991
v 0.6717017 0.1000001 -1.862298
v 0.7186478 0.2000001 -1.734969
v -1.397859 0.09999982 1.399308
v -1.826542 0.09999987 0.7577389
v -1.977076 0.09999993 0.0009560903
v -1.826542 0.09999999 -0.7558268
v -1.397859 0.1 -1.397396
v -0.7562889 0.1000001 -1.826079
v -0.1712059 0.2000001 -1.843862
v -0.7186475 -2.054924E-07 1.734969
v -1.327888 -1.747586E-07 1.327888
v 2.00602E-07 -2.162846E-07 1.877917
v -1.734969 -1.287622E-07 0.7186481
v -1.877917 -7.450581E-08 -2.566444E-08
v 0.7186479 -2.054923E-07 1.734969
v -1.734969 -2.024938E-08 -0.7186481
v 1.327888 -1.747586E-07 1.327888
v -1.327888 2.574698E-08 -1.327888
v 1.734969 -1.287622E-07 0.718648
v 1.877917 -7.450581E-08 7.881587E-08
v 1.734969 -2.02494E-08 -0.7186478
v 1.327888 2.574695E-08 -1.327888
v 0.7186478 5.648073E-08 -1.734969
v -0.718647 5.648077E-08 -1.73497
v 0.01334809 -4.880949E-08 -0.340358
v -0.09422439 0.1000001 -1.956026
v -0.1712059 6.470194E-08 -1.843862
v 0.05316983 0.09999997 -0.5956239
v 0.01334809 0.2 -0.340358
v -0.006390341 0.1999999 -0.2135618
v 0.04683676 0.1999999 -0.2138435
v 0.08849186 0.1999999 -0.1958309
v -0.08126599 0.1999999 -0.1961946
v -0.718647 0.2000001 -1.73497
v -0.1712059 0.2000001 -1.843862
v -0.006390341 0.1999999 -0.2135618
vt 0.2338867 0.9262695
vt 0.2313232 0.9169922
vt 0.2307129 0.9174805
vt 0.2338867 0.9262695
vt 0.2307129 0.9199219
vt 0.2313232 0.9169922
vt 0.2346191 0.9111328
vt 0.2531738 0.9194336
vt 0.2338867 0.9262695
vt 0.2307129 0.9174805
vt 0.2307129 0.9199219
vt 0.2318115 0.9169922
vt 0.2313232 0.9169922
vt 0.2313232 0.9204102
vt 0.2318115 0.9204102
vt 0.2322998 0.9169922
vt 0.2321777 0.9204102
vt 0.232666 0.9174805
vt 0.2329102 0.9179688
vt 0.2325439 0.9199219
vt 0.2329102 0.9194336
vt 0.2330322 0.918457
vt 0.2330322 0.9189453
vt 0.2322998 0.9262695
vt 0.2236328 0.9267578
vt 0.2247314 0.9282227
vt 0.229248 0.9199219
vt 0.2297363 0.9169922
vt 0.225708 0.9086914
vt 0.229126 0.9174805
vt 0.2279053 0.9082031
vt 0.2303467 0.9169922
vt 0.2304688 0.9086914
vt 0.2307129 0.9169922
vt 0.2330322 0.909668
vt 0.2312012 0.9174805
vt 0.2354736 0.9116211
vt 0.2314453 0.9179688
vt 0.2371826 0.9140625
vt 0.2315674 0.918457
vt 0.2381592 0.9169922
vt 0.2315674 0.9189453
vt 0.2380371 0.9204102
vt 0.2313232 0.9194336
vt 0.2369385 0.9233398
vt 0.2310791 0.9199219
vt 0.2348633 0.9262695
vt 0.2307129 0.9204102
vt 0.2322998 0.9277344
vt 0.2302246 0.9204102
vt 0.2294922 0.9287109
vt 0.2297363 0.9204102
vt 0.2268066 0.9287109
vt 0.229248 0.9199219
vt 0.2247314 0.9282227
vt 0.2387695 0.9204102
vt 0.2375488 0.9238281
vt 0.2353516 0.9267578
vt 0.2325439 0.9282227
vt 0.2296143 0.9291992
vt 0.2268066 0.9291992
vt 0.2244873 0.9282227
vt 0.2387695 0.9169922
vt 0.2232666 0.9267578
vt 0.2236328 0.9267578
vt 0.237793 0.9140625
vt 0.2358398 0.9111328
vt 0.2333984 0.9091797
vt 0.2305908 0.9082031
vt 0.2277832 0.9077148
vt 0.2255859 0.9082031
vt 0.2247314 0.9091797
vt 0.2393799 0.9169922
vt 0.2382813 0.9135742
vt 0.2393799 0.9204102
vt 0.2363281 0.9106445
vt 0.2336426 0.9086914
vt 0.2382813 0.9243164
vt 0.2307129 0.9072266
vt 0.2358398 0.9272461
vt 0.2277832 0.9072266
vt 0.2327881 0.9291992
vt 0.2296143 0.9296875
vt 0.2266846 0.9296875
vt 0.2242432 0.9287109
vt 0.2230225 0.9272461
vt 0.2253418 0.9077148
vt 0.2229004 0.9179688
vt 0.2244873 0.9091797
vt 0.2241211 0.9091797
vt 0.2242432 0.9179688
vt 0.2255859 0.9179688
vt 0.2331543 0.9111328
vt 0.251709 0.9194336
vt 0.2322998 0.9262695
vt 0.229126 0.9174805
vt 0.225708 0.9086914
vt 0.2247314 0.9091797
vt 0.2331543 0.9111328
vn 0 1 0
vn 0 1 0
vn 0 1 0
vn 0 1 0
vn 0 1 0
vn 0 1 0
vn 0 1 0
vn 0 1 0
vn 0 1 0
vn 0 1 0
vn 0 1 0
vn 0 1 0
vn 0 1 0
vn 0 1 0
vn 0 1 0
vn 0 1 0
vn 0 1 0
vn 0 1 0
vn 0 1 0
vn 0 1 0
vn 0 1 0
vn 0 1 0
vn 0 1 0
vn 0 1 0
vn -0.1043091 0.8935547 -0.4365234
vn 0.3037109 0.9008789 -0.3103027
vn 0 1 0
vn 0 1 0
vn -0.1628418 0.9042969 -0.3942871
vn 0 1 0
vn -0.3007813 0.9047852 -0.3007813
vn 0 1 0
vn -0.392334 0.9052734 -0.1628418
vn 0 1 0
vn -0.4240723 0.9057617 -0.0003967285
vn 0 1 0
vn -0.3911133 0.90625 0.161499
vn 0 1 0
vn -0.2988281 0.9067383 0.2980957
vn 0 1 0
vn -0.161499 0.9072266 0.388916
vn 0 1 0
vn -0.0001831055 0.9072266 0.4204102
vn 0 1 0
vn 0.1607666 0.9072266 0.3881836
vn 0 1 0
vn 0.2973633 0.9072266 0.2971191
vn 0 1 0
vn 0.388916 0.9072266 0.1607666
vn 0 1 0
vn 0.4216309 0.9067383 -0.0003967285
vn 0 1 0
vn 0.3903809 0.90625 -0.1621094
vn 0 1 0
vn 0.3037109 0.9008789 -0.3103027
vn 0.0003662109 0 1
vn 0.3828125 0 0.9238281
vn 0.7070313 0 0.7075195
vn 0.9238281 0 0.3830566
vn 1 0 0.0007324219
vn 0.9243164 0 -0.3818359
vn 0.7016602 0 -0.7124023
vn -0.3820801 0 0.9243164
vn -0.3254395 0 -0.9458008
vn -0.1043091 0.8935547 -0.4365234
vn -0.706543 0 0.7075195
vn -0.9233398 0 0.3835449
vn -1 0 0.0007324219
vn -0.9243164 0 -0.3820801
vn -0.7075195 0 -0.7070313
vn -0.3815918 0 -0.9243164
vn 0.2885742 0.8896484 -0.3544922
vn -0.270752 -0.7084961 0.6518555
vn -0.5004883 -0.7070313 0.4995117
vn -0.0003356934 -0.7094727 0.7050781
vn -0.6547852 -0.7055664 0.2705078
vn -0.7099609 -0.7041016 -0.0006713867
vn 0.2695313 -0.7094727 0.6508789
vn -0.6567383 -0.703125 -0.2727051
vn 0.4985352 -0.7094727 0.4980469
vn -0.503418 -0.7021484 -0.503418
vn 0.6518555 -0.7089844 0.2695313
vn 0.706543 -0.7075195 -0.0006713867
vn 0.6538086 -0.7060547 -0.2717285
vn 0.5068359 -0.6889648 -0.5175781
vn -0.1394043 -0.800293 -0.5834961
vn -0.2724609 -0.7006836 -0.659668
vn 0.05456543 -0.9467773 -0.3168945
vn 0.6044922 0 -0.7963867
vn 0.3881836 -0.7885742 -0.4768066
vn 0.2597656 0 -0.9658203
vn 0.005737305 0.9995117 -0.03341675
vn 0 1 0
vn 0 1 0
vn 0 1 0
vn 0 1 0
vn -0.1628418 0.9042969 -0.3942871
vn 0.2885742 0.8896484 -0.3544922
vn 0 1 0
g Nenuphar_0
f 3/3/3 2/2/2 1/1/1
f 6/6/6 5/5/5 4/4/4
f 9/9/9 8/8/8 7/7/7
f 7/7/7 10/10/10 9/9/9
f 13/13/13 12/12/12 11/11/11
f 12/12/12 14/14/14 11/11/11
f 12/12/12 15/15/15 14/14/14
f 12/12/12 16/16/16 15/15/15
f 16/16/16 17/17/17 15/15/15
f 16/16/16 18/18/18 17/17/17
f 18/18/18 19/19/19 17/17/17
f 19/19/19 20/20/20 17/17/17
f 19/19/19 21/21/21 20/20/20
f 19/19/19 22/22/22 21/21/21
f 22/22/22 23/23/23 21/21/21
f 26/26/26 25/25/25 24/24/24
f 27/27/27 26/26/26 24/24/24
f 30/30/30 29/29/29 28/28/28
f 29/29/29 31/31/31 28/28/28
f 28/28/28 31/31/31 32/32/32
f 31/31/31 33/33/33 32/32/32
f 32/32/32 33/33/33 34/34/34
f 33/33/33 35/35/35 34/34/34
f 34/34/34 35/35/35 36/36/36
f 35/35/35 37/37/37 36/36/36
f 36/36/36 37/37/37 38/38/38
f 37/37/37 39/39/39 38/38/38
f 38/38/38 39/39/39 40/40/40
f 39/39/39 41/41/41 40/40/40
f 40/40/40 41/41/41 42/42/42
f 41/41/41 43/43/43 42/42/42
f 42/42/42 43/43/43 44/44/44
f 43/43/43 45/45/45 44/44/44
f 44/44/44 45/45/45 46/46/46
f 45/45/45 47/47/47 46/46/46
f 46/46/46 47/47/47 48/48/48
f 47/47/47 49/49/49 48/48/48
f 48/48/48 49/49/49 50/50/50
f 49/49/49 51/51/51 50/50/50
f 50/50/50 51/51/51 52/52/52
f 51/51/51 53/53/53 52/52/52
f 52/52/52 53/53/53 54/54/54
f 53/53/53 55/55/55 54/54/54
f 56/56/56 43/43/43 41/41/41
f 57/57/57 45/45/45 43/43/43
f 56/56/56 57/57/57 43/43/43
f 58/58/58 47/47/47 45/45/45
f 57/57/57 58/58/58 45/45/45
f 59/59/59 49/49/49 47/47/47
f 58/58/58 59/59/59 47/47/47
f 60/60/60 51/51/51 49/49/49
f 59/59/59 60/60/60 49/49/49
f 61/61/61 53/53/53 51/51/51
f 60/60/60 61/61/61 51/51/51
f 62/62/62 55/55/55 53/53/53
f 61/61/61 62/62/62 53/53/53
f 63/63/63 56/56/56 41/41/41
f 63/63/63 41/41/41 39/39/39
f 62/62/62 64/64/64 55/55/55
f 64/64/64 65/65/65 55/55/55
f 66/66/66 63/63/63 39/39/39
f 66/66/66 39/39/39 37/37/37
f 67/67/67 66/66/66 37/37/37
f 67/67/67 37/37/37 35/35/35
f 68/68/68 67/67/67 35/35/35
f 68/68/68 35/35/35 33/33/33
f 69/69/69 68/68/68 33/33/33
f 69/69/69 33/33/33 31/31/31
f 70/70/70 69/69/69 31/31/31
f 70/70/70 31/31/31 29/29/29
f 71/71/71 70/70/70 29/29/29
f 71/71/71 29/29/29 72/72/72
f 73/73/73 63/63/63 66/66/66
f 74/74/74 73/73/73 66/66/66
f 74/74/74 66/66/66 67/67/67
f 73/73/73 75/75/75 63/63/63
f 76/76/76 74/74/74 67/67/67
f 76/76/76 67/67/67 68/68/68
f 75/75/75 56/56/56 63/63/63
f 77/77/77 76/76/76 68/68/68
f 77/77/77 68/68/68 69/69/69
f 75/75/75 78/78/78 56/56/56
f 79/79/79 77/77/77 69/69/69
f 78/78/78 57/57/57 56/56/56
f 79/79/79 69/69/69 70/70/70
f 78/78/78 80/80/80 57/57/57
f 81/81/81 79/79/79 70/70/70
f 80/80/80 58/58/58 57/57/57
f 80/80/80 82/82/82 58/58/58
f 82/82/82 59/59/59 58/58/58
f 82/82/82 83/83/83 59/59/59
f 83/83/83 60/60/60 59/59/59
f 83/83/83 84/84/84 60/60/60
f 84/84/84 61/61/61 60/60/60
f 84/84/84 85/85/85 61/61/61
f 85/85/85 62/62/62 61/61/61
f 85/85/85 86/86/86 62/62/62
f 81/81/81 70/70/70 71/71/71
f 86/86/86 64/64/64 62/62/62
f 87/87/87 81/81/81 71/71/71
f 86/86/86 88/88/88 64/64/64
f 87/87/87 71/71/71 89/89/89
f 90/90/90 87/87/87 89/89/89
f 89/89/89 71/71/71 72/72/72
f 88/88/88 91/91/91 64/64/64
f 88/88/88 90/90/90 91/91/91
f 90/90/90 89/89/89 91/91/91
f 64/64/64 91/91/91 65/65/65
f 89/89/89 72/72/72 92/92/92
f 91/91/91 89/89/89 92/92/92
f 91/91/91 92/92/92 65/65/65
f 92/92/92 72/72/72 93/93/93
f 94/94/94 92/92/92 93/93/93
f 65/65/65 92/92/92 94/94/94
f 95/95/95 65/65/65 94/94/94
f 98/98/98 97/97/97 96/96/96
f 99/99/99 98/98/98 96/96/96
