g Plant_Pepper_S
v -0.07305394 0.1776324 0.02938758
v -0.0719984 0.1878049 0.002941638
v -0.06215732 0.1928491 0.01235232
v -0.04415682 0.1958981 0.05164813
v -0.07402342 0.1513188 0.07537344
v -0.03496423 0.1779166 0.09858664
v -0.07194111 0.08943287 0.1279792
v -0.043897 0.1062393 0.1413847
v -0.06698692 0.03095835 0.1396556
v -0.06312918 0.03521484 0.1426643
v -0.1058691 0.1758379 0.03595752
v -0.0832224 0.1860017 0.006996438
v -0.0719984 0.1878049 0.002941638
v -0.07305394 0.1776324 0.02938758
v -0.1177167 0.1510172 0.07754657
v -0.07402342 0.1513188 0.07537344
v -0.1023888 0.08722606 0.1265129
v -0.07194111 0.08943287 0.1279792
v -0.07172004 0.0324223 0.1404801
v -0.06698692 0.03095835 0.1396556
v 0.09357077 0.2411802 0.03560919
v 0.07569182 0.2500824 0.01631791
v 0.09172398 0.2531233 0.01207913
v 0.1370835 0.2532911 0.01912195
v 0.1238603 0.2172603 0.07032703
v 0.1776798 0.2352957 0.04343829
v 0.1555641 0.1587925 0.1143647
v 0.1912837 0.16947 0.0935971
v 0.1584543 0.1020338 0.130223
v 0.1646063 0.1053933 0.1276337
v 0.07210369 0.2463358 0.06937935
v 0.06954358 0.2507491 0.02923413
v 0.07569182 0.2500824 0.01631791
v 0.09357077 0.2411802 0.03560919
v 0.09054597 0.2259691 0.1108304
v 0.1238603 0.2172603 0.07032703
v 0.1296951 0.1628777 0.1412317
v 0.1555641 0.1587925 0.1143647
v 0.1555606 0.104425 0.13463
v 0.1584543 0.1020338 0.130223
v -0.006463666 0.1915937 -0.07643395
v -0.0209733 0.2031078 -0.04566394
v -0.03380335 0.2070408 -0.06285203
v -0.04726395 0.2072579 -0.1206771
v 0.02055999 0.1606555 -0.1295462
v -0.03769885 0.1839825 -0.1811311
v 0.05808267 0.08503315 -0.1888572
v 0.01591107 0.09884343 -0.2216823
v 0.07571357 0.01162133 -0.1999852
v 0.0696352 0.0159665 -0.2061156
v 0.04442382 0.1982619 -0.06699002
v -0.002506368 0.2039701 -0.04452629
v -0.0209733 0.2031078 -0.04566394
v -0.006463666 0.1915937 -0.07643395
v 0.08524898 0.1719196 -0.1091401
v 0.02055999 0.1606555 -0.1295462
v 0.1028141 0.09031692 -0.1707971
v 0.05808267 0.08503315 -0.1888572
v 0.08239894 0.01471409 -0.198642
v 0.07571357 0.01162133 -0.1999852
v 0.02971712 0.006033455 0.002890422
v -0.01336791 0.1716547 -0.1167273
v -0.0326184 0.1696752 -0.1059644
v 0.00873931 0.006033454 0.01115489
v 0.03781836 0.001574301 0.02345387
v -0.02289946 0.1765927 -0.08730882
v -0.003648961 0.1785723 -0.09807171
v 0.01684055 0.001574301 0.03171834
v -0.0003632805 0.001574303 -0.002689316
v 0.06522473 0.1183233 0.02915578
v 0.08578714 0.1255701 0.02496617
v 0.02061453 0.001574304 -0.01095379
v -0.008464521 0.006033457 -0.02325277
v 0.08069074 0.1275935 0.003453036
v 0.01251329 0.006033457 -0.03151724
v 0.06012833 0.1203467 0.007642654
v 0.1175863 0.22364 0.03274717
v 0.1176534 0.2197734 0.0546087
v 0.09669585 0.2310286 0.0341182
v 0.09676301 0.227162 0.05597972
v -0.0802881 0.1546542 0.03399191
v -0.01674188 0.006033455 -0.00297179
v 0.0001117215 0.006033454 0.01200573
v -0.09476878 0.1495529 0.0503806
v -0.06515405 0.1609754 0.04933162
v -0.03142356 0.001574302 0.01354892
v -0.01456997 0.001574301 0.02852644
v -0.07963477 0.1558741 0.0657203
vt 0.037323 0.8564453
vt 0.037323 0.8574219
vt 0.04257202 0.8574219
vt 0.04257202 0.8564453
vt 0.037323 0.8515625
vt 0.04257202 0.8515625
vt 0.037323 0.8496094
vt 0.04257202 0.8496094
vt 0.037323 0.847168
vt 0.04257202 0.847168
vt 0.03210449 0.8564453
vt 0.03210449 0.8574219
vt 0.037323 0.8574219
vt 0.037323 0.8564453
vt 0.03210449 0.8515625
vt 0.037323 0.8515625
vt 0.03210449 0.8496094
vt 0.037323 0.8496094
vt 0.03210449 0.847168
vt 0.037323 0.847168
vt 0.037323 0.8564453
vt 0.037323 0.8574219
vt 0.04257202 0.8574219
vt 0.04257202 0.8564453
vt 0.037323 0.8515625
vt 0.04257202 0.8515625
vt 0.037323 0.8496094
vt 0.04257202 0.8496094
vt 0.037323 0.847168
vt 0.04257202 0.847168
vt 0.03210449 0.8564453
vt 0.03210449 0.8574219
vt 0.037323 0.8574219
vt 0.037323 0.8564453
vt 0.03210449 0.8515625
vt 0.037323 0.8515625
vt 0.03210449 0.8496094
vt 0.037323 0.8496094
vt 0.03210449 0.847168
vt 0.037323 0.847168
vt 0.037323 0.8564453
vt 0.037323 0.8574219
vt 0.04257202 0.8574219
vt 0.04257202 0.8564453
vt 0.037323 0.8515625
vt 0.04257202 0.8515625
vt 0.037323 0.8496094
vt 0.04257202 0.8496094
vt 0.037323 0.847168
vt 0.04257202 0.847168
vt 0.03210449 0.8564453
vt 0.03210449 0.8574219
vt 0.037323 0.8574219
vt 0.037323 0.8564453
vt 0.03210449 0.8515625
vt 0.037323 0.8515625
vt 0.03210449 0.8496094
vt 0.037323 0.8496094
vt 0.03210449 0.847168
vt 0.037323 0.847168
vt 0.03210449 0.847168
vt 0.03210449 0.847168
vt 0.03210449 0.847168
vt 0.03210449 0.847168
vt 0.03210449 0.847168
vt 0.03210449 0.847168
vt 0.03210449 0.847168
vt 0.03210449 0.847168
vt 0.03210449 0.847168
vt 0.03210449 0.847168
vt 0.03210449 0.847168
vt 0.03210449 0.847168
vt 0.03210449 0.847168
vt 0.03210449 0.847168
vt 0.03210449 0.847168
vt 0.03210449 0.847168
vt 0.03210449 0.847168
vt 0.03210449 0.847168
vt 0.03210449 0.847168
vt 0.03210449 0.847168
vt 0.03210449 0.847168
vt 0.03210449 0.847168
vt 0.03210449 0.847168
vt 0.03210449 0.847168
vt 0.03210449 0.847168
vt 0.03210449 0.847168
vt 0.03210449 0.847168
vt 0.03210449 0.847168
vn -0.6538086 0.6967773 0.295166
vn -0.6386719 0.7299805 0.2436523
vn -0.6386719 0.7299805 0.2436523
vn -0.6650391 0.6655273 0.3393555
vn -0.6616211 0.5644531 0.4931641
vn -0.6611328 0.5605469 0.4985352
vn -0.5869141 0.2910156 0.7558594
vn -0.6137695 0.3740234 0.6953125
vn -0.5253906 0.1418457 0.8388672
vn -0.5253906 0.1418457 0.8388672
vn 0.02723694 0.8842773 0.4663086
vn 0.007167816 0.9379883 0.347168
vn 0.007167816 0.9379883 0.347168
vn 0.01890564 0.9086914 0.4174805
vn 0.009277344 0.7504883 0.6606445
vn 0.01107788 0.7592773 0.6503906
vn -0.0176239 0.4758301 0.8793945
vn -0.01860046 0.4306641 0.9023438
vn -0.02233887 0.2139893 0.9765625
vn -0.02233887 0.2139893 0.9765625
vn -0.03686523 0.8598633 0.5092773
vn -0.06719971 0.8876953 0.4558105
vn -0.06719971 0.8876953 0.4558105
vn -0.01176453 0.8344727 0.5512695
vn 0.1004028 0.7353516 0.6704102
vn 0.1012573 0.734375 0.6708984
vn 0.3137207 0.4460449 0.8383789
vn 0.2556152 0.5449219 0.7983398
vn 0.3928223 0.2839355 0.8745117
vn 0.3928223 0.2839355 0.8745117
vn 0.4470215 0.8789063 0.1674805
vn 0.3479004 0.9331055 0.0894165
vn 0.3479004 0.9331055 0.0894165
vn 0.4064941 0.9038086 0.1351318
vn 0.5717773 0.7514648 0.3291016
vn 0.5629883 0.7641602 0.3151855
vn 0.6933594 0.4929199 0.5258789
vn 0.7041016 0.4545898 0.5454102
vn 0.7392578 0.2352295 0.6313477
vn 0.7392578 0.2352295 0.6313477
vn 0.486084 0.8598633 -0.1558838
vn 0.447998 0.8876953 -0.1078491
vn 0.447998 0.8876953 -0.1078491
vn 0.515625 0.8344727 -0.1949463
vn 0.5844727 0.7353516 -0.3435059
vn 0.5844727 0.734375 -0.3444824
vn 0.6606445 0.4460449 -0.6040039
vn 0.6455078 0.5449219 -0.5351563
vn 0.6645508 0.2839355 -0.690918
vn 0.6645508 0.2839355 -0.690918
vn -0.01161957 0.8789063 -0.4772949
vn -0.04699707 0.9331055 -0.3562012
vn -0.04699707 0.9331055 -0.3562012
vn -0.026474 0.9038086 -0.4274902
vn 0.09173584 0.7514648 -0.6533203
vn 0.08221436 0.7641602 -0.6396484
vn 0.2290039 0.4929199 -0.8393555
vn 0.243042 0.4545898 -0.8569336
vn 0.3093262 0.2352295 -0.9213867
vn 0.3093262 0.2352295 -0.9213867
vn 0.5751953 -0.376709 -0.7260742
vn 0.3581543 -0.4838867 -0.7983398
vn -0.8056641 -0.4658203 -0.3659668
vn -0.9594727 -0.2766113 -0.05047607
vn 0.6904297 0.5117188 0.5112305
vn -0.4316406 0.4377441 0.7885742
vn 0.9453125 0.3039551 0.1181641
vn -0.105896 0.543457 0.8325195
vn -0.5703125 0.1127319 0.8134766
vn -0.4667969 -0.06842041 0.8818359
vn 0.7651367 -0.4553223 0.4555664
vn 0.7724609 -0.5205078 0.3642578
vn -0.7919922 0.5405273 -0.2832031
vn 0.5390625 -0.01637268 -0.8417969
vn 0.2462158 0.1464844 -0.9580078
vn -0.7626953 0.4853516 -0.4274902
vn 0.6264648 -0.01213837 -0.7792969
vn 0.7036133 -0.4084473 0.5810547
vn -0.7587891 0.3840332 -0.5258789
vn -0.6049805 -0.02998352 0.7958984
vn -0.1153564 0.1898193 -0.9750977
vn 0.01454163 0.2436523 -0.9697266
vn 0.9155273 0.3999023 -0.04580688
vn -0.9018555 -0.4135742 0.1254883
vn 0.9243164 0.3703613 0.09069824
vn -0.9213867 -0.3879395 -0.013237
vn 0.2033691 -0.1503906 0.9672852
vn 0.08166504 -0.2041016 0.9755859
g Plant_Pepper_S_0
f 3/3/3 2/2/2 1/1/1
f 4/4/4 3/3/3 1/1/1
f 4/4/4 1/1/1 5/5/5
f 6/6/6 4/4/4 5/5/5
f 6/6/6 5/5/5 7/7/7
f 8/8/8 6/6/6 7/7/7
f 8/8/8 7/7/7 9/9/9
f 10/10/10 8/8/8 9/9/9
f 13/13/13 12/12/12 11/11/11
f 14/14/14 13/13/13 11/11/11
f 14/14/14 11/11/11 15/15/15
f 16/16/16 14/14/14 15/15/15
f 16/16/16 15/15/15 17/17/17
f 18/18/18 16/16/16 17/17/17
f 18/18/18 17/17/17 19/19/19
f 20/20/20 18/18/18 19/19/19
f 23/23/23 22/22/22 21/21/21
f 24/24/24 23/23/23 21/21/21
f 24/24/24 21/21/21 25/25/25
f 26/26/26 24/24/24 25/25/25
f 26/26/26 25/25/25 27/27/27
f 28/28/28 26/26/26 27/27/27
f 28/28/28 27/27/27 29/29/29
f 30/30/30 28/28/28 29/29/29
f 33/33/33 32/32/32 31/31/31
f 34/34/34 33/33/33 31/31/31
f 34/34/34 31/31/31 35/35/35
f 36/36/36 34/34/34 35/35/35
f 36/36/36 35/35/35 37/37/37
f 38/38/38 36/36/36 37/37/37
f 38/38/38 37/37/37 39/39/39
f 40/40/40 38/38/38 39/39/39
f 43/43/43 42/42/42 41/41/41
f 44/44/44 43/43/43 41/41/41
f 44/44/44 41/41/41 45/45/45
f 46/46/46 44/44/44 45/45/45
f 46/46/46 45/45/45 47/47/47
f 48/48/48 46/46/46 47/47/47
f 48/48/48 47/47/47 49/49/49
f 50/50/50 48/48/48 49/49/49
f 53/53/53 52/52/52 51/51/51
f 54/54/54 53/53/53 51/51/51
f 54/54/54 51/51/51 55/55/55
f 56/56/56 54/54/54 55/55/55
f 56/56/56 55/55/55 57/57/57
f 58/58/58 56/56/56 57/57/57
f 58/58/58 57/57/57 59/59/59
f 60/60/60 58/58/58 59/59/59
f 63/63/63 62/62/62 61/61/61
f 64/64/64 63/63/63 61/61/61
f 61/61/61 62/62/62 65/65/65
f 66/66/66 63/63/63 64/64/64
f 62/62/62 67/67/67 65/65/65
f 68/68/68 66/66/66 64/64/64
f 65/65/65 67/67/67 68/68/68
f 67/67/67 66/66/66 68/68/68
f 71/71/71 70/70/70 69/69/69
f 72/72/72 71/71/71 69/69/69
f 69/69/69 70/70/70 73/73/73
f 74/74/74 71/71/71 72/72/72
f 75/75/75 74/74/74 72/72/72
f 73/73/73 76/76/76 75/75/75
f 70/70/70 76/76/76 73/73/73
f 76/76/76 74/74/74 75/75/75
f 74/74/74 77/77/77 71/71/71
f 77/77/77 78/78/78 71/71/71
f 71/71/71 78/78/78 70/70/70
f 79/79/79 77/77/77 74/74/74
f 76/76/76 79/79/79 74/74/74
f 78/78/78 80/80/80 70/70/70
f 80/80/80 79/79/79 76/76/76
f 70/70/70 80/80/80 76/76/76
f 83/83/83 82/82/82 81/81/81
f 81/81/81 82/82/82 84/84/84
f 85/85/85 83/83/83 81/81/81
f 82/82/82 86/86/86 84/84/84
f 87/87/87 83/83/83 85/85/85
f 84/84/84 86/86/86 88/88/88
f 88/88/88 87/87/87 85/85/85
f 86/86/86 87/87/87 88/88/88
