g Plate
v -0.4069418 0.03544759 -0.9824458
v -1.441309E-08 0.0354476 -1.063392
v 0.4069423 0.03544759 -0.9824456
v -0.7519311 0.03544757 -0.7519316
v 0.7519314 0.03544757 -0.7519314
v -0.9824456 0.03544755 -0.4069425
v 0.9824456 0.03544755 -0.4069423
v -1.063392 0.03544752 3.77678E-09
v 1.063392 0.03544752 5.553812E-08
v -0.9824456 0.03544749 0.4069425
v 0.9824456 0.03544749 0.4069424
v 0.7519314 0.03544746 0.7519314
v -0.7519312 0.03544746 0.7519316
v 0.4069424 0.03544744 0.9824456
v -0.4069421 0.03544744 0.9824457
v 1.659747E-07 0.03544743 1.063392
v -0.4585077 -0.03544745 -1.106937
v 2.739113E-16 -0.03544744 -1.19814
v 2.737738E-16 0.03544762 -1.268415
v -0.4854009 0.03544761 -1.171863
v -0.8472124 -0.03544747 -0.8472129
v -0.4854009 0.1077666 -1.171863
v -1.71837E-16 0.1077666 -1.268415
v -0.8969046 0.1077666 -0.8969052
v -0.8969046 0.03544759 -0.8969052
v -1.106937 -0.0354475 -0.4585084
v -1.171863 0.1077666 -0.4854017
v -1.171863 0.03544756 -0.4854017
v -1.19814 -0.03544753 -1.696389E-08
v -1.268415 0.1077665 -6.989551E-09
v -1.268415 0.03544752 -1.244948E-08
v -1.106937 -0.03544756 0.4585084
v -1.171863 0.1077665 0.4854016
v -1.171863 0.03544749 0.4854016
v -0.8472124 -0.03544759 0.8472129
v -0.8969046 0.1077665 0.8969052
v -0.8969046 0.03544746 0.8969052
v -0.4585079 -0.03544761 1.106937
v -0.4854012 0.1077664 1.171863
v -0.4854012 0.03544743 1.171863
v 1.809141E-07 -0.03544762 1.19814
v 1.915253E-07 0.1077664 1.268415
v 1.915253E-07 0.03544743 1.268415
v 0.4585083 -0.03544761 1.106937
v 0.4854015 0.1077664 1.171863
v 0.4854015 0.03544743 1.171863
v 0.8472127 -0.03544759 0.8472127
v 0.8969048 0.1077665 0.8969048
v 0.8969048 0.03544746 0.8969048
v 1.106937 -0.03544756 0.4585083
v 1.171863 0.1077665 0.4854015
v 1.171863 0.03544749 0.4854015
v 1.19814 -0.03544753 4.969613E-08
v 1.268415 0.1077665 6.358033E-08
v 1.268415 0.03544752 5.81204E-08
v 1.106937 -0.0354475 -0.4585082
v 1.171863 0.1077666 -0.4854014
v 1.171863 0.03544756 -0.4854014
v 0.8472127 -0.03544747 -0.8472127
v 0.8969048 0.1077666 -0.8969048
v 0.8969048 0.03544759 -0.8969048
v 0.4585082 -0.03544745 -1.106937
v 0.4854014 0.1077666 -1.171863
v 0.4854014 0.03544761 -1.171863
v 2.739113E-16 -0.03544744 -1.19814
v -1.71837E-16 0.1077666 -1.268415
v 2.737738E-16 0.03544762 -1.268415
v 0.4585082 -0.03544745 -1.106937
v 2.739113E-16 -0.03544744 -1.19814
v -0.4585077 -0.03544745 -1.106937
v -0.8472124 -0.03544747 -0.8472129
v 0.8472127 -0.03544747 -0.8472127
v -1.106937 -0.0354475 -0.4585084
v 1.106937 -0.0354475 -0.4585082
v -1.19814 -0.03544753 -1.696389E-08
v 1.19814 -0.03544753 4.969613E-08
v -1.106937 -0.03544756 0.4585084
v 1.106937 -0.03544756 0.4585083
v 0.8472127 -0.03544759 0.8472127
v -0.8472124 -0.03544759 0.8472129
v 0.4585083 -0.03544761 1.106937
v -0.4585079 -0.03544761 1.106937
v 1.809141E-07 -0.03544762 1.19814
v 0.8107402 0.1077666 -0.8107402
v 0.8969048 0.1077666 -0.8969048
v 1.171863 0.1077666 -0.4854014
v 0.4387695 0.1077666 -1.059283
v 0.4854014 0.1077666 -1.171863
v 1.059283 0.1077666 -0.4387694
v 1.268415 0.1077665 6.358033E-08
v -1.554035E-08 0.1077666 -1.14656
v -1.71837E-16 0.1077666 -1.268415
v 1.14656 0.1077665 1.350301E-07
v 1.171863 0.1077665 0.4854015
v -0.4387689 0.1077666 -1.059283
v -0.4854009 0.1077666 -1.171863
v 1.059283 0.1077665 0.4387696
v 0.8969048 0.1077665 0.8969048
v -0.8107399 0.1077666 -0.8107404
v -0.8969046 0.1077666 -0.8969052
v 0.8107402 0.1077665 0.8107403
v 0.4854015 0.1077664 1.171863
v -1.059283 0.1077666 -0.4387695
v -1.171863 0.1077666 -0.4854017
v 0.4387695 0.1077664 1.059283
v 1.915253E-07 0.1077664 1.268415
v -1.14656 0.1077665 7.922051E-08
v -1.268415 0.1077665 -6.989551E-09
v 1.789556E-07 0.1077664 1.14656
v -0.4854012 0.1077664 1.171863
v -1.059283 0.1077665 0.4387697
v -1.171863 0.1077665 0.4854016
v -0.4387692 0.1077664 1.059283
v -0.8969046 0.1077665 0.8969052
v -0.81074 0.1077665 0.8107405
v 0.7519314 0.03544746 0.7519314
v 0.4069424 0.03544744 0.9824456
v 0.9824456 0.03544749 0.4069424
v 1.659747E-07 0.03544743 1.063392
v -0.4069421 0.03544744 0.9824457
v 1.063392 0.03544752 5.553812E-08
v -0.7519312 0.03544746 0.7519316
v -0.9824456 0.03544749 0.4069425
v 0.9824456 0.03544755 -0.4069423
v -1.063392 0.03544752 3.77678E-09
v 0.7519314 0.03544757 -0.7519314
v -0.9824456 0.03544755 -0.4069425
v 0.4069423 0.03544759 -0.9824456
v -0.7519311 0.03544757 -0.7519316
v -1.441309E-08 0.0354476 -1.063392
v -0.4069418 0.03544759 -0.9824458
vt 0.612793 0.9555664
vt 0.6142578 0.9555664
vt 0.6157227 0.9555664
vt 0.6118164 0.9545898
vt 0.6171875 0.9545898
vt 0.6108398 0.9536133
vt 0.6181641 0.9536133
vt 0.6108398 0.9521484
vt 0.6181641 0.9521484
vt 0.6108398 0.9506836
vt 0.6181641 0.9506836
vt 0.6171875 0.9492188
vt 0.6118164 0.9492188
vt 0.6157227 0.9487305
vt 0.612793 0.9487305
vt 0.6142578 0.9482422
vt 0.5996094 0.9467773
vt 0.5981445 0.9467773
vt 0.5981445 0.9555664
vt 0.5996094 0.9555664
vt 0.6005859 0.9467773
vt 0.5996094 0.9555664
vt 0.5981445 0.9555664
vt 0.6005859 0.9555664
vt 0.6005859 0.9555664
vt 0.6015625 0.9467773
vt 0.6015625 0.9555664
vt 0.6015625 0.9555664
vt 0.6025391 0.9467773
vt 0.6025391 0.9555664
vt 0.6025391 0.9555664
vt 0.6040039 0.9467773
vt 0.6040039 0.9555664
vt 0.6040039 0.9555664
vt 0.6049805 0.9467773
vt 0.6049805 0.9555664
vt 0.6049805 0.9555664
vt 0.605957 0.9467773
vt 0.605957 0.9555664
vt 0.605957 0.9555664
vt 0.6074219 0.9467773
vt 0.6074219 0.9555664
vt 0.6074219 0.9555664
vt 0.6083984 0.9467773
vt 0.6083984 0.9555664
vt 0.6083984 0.9555664
vt 0.609375 0.9467773
vt 0.609375 0.9555664
vt 0.609375 0.9555664
vt 0.6103516 0.9467773
vt 0.6103516 0.9555664
vt 0.6103516 0.9555664
vt 0.6118164 0.9467773
vt 0.6118164 0.9555664
vt 0.6118164 0.9555664
vt 0.612793 0.9467773
vt 0.612793 0.9555664
vt 0.612793 0.9555664
vt 0.6137695 0.9467773
vt 0.6137695 0.9555664
vt 0.6137695 0.9555664
vt 0.6152344 0.9467773
vt 0.6152344 0.9555664
vt 0.6152344 0.9555664
vt 0.6162109 0.9467773
vt 0.6162109 0.9555664
vt 0.6162109 0.9555664
vt 0.3378906 0.9599609
vt 0.3361816 0.9599609
vt 0.3347168 0.9599609
vt 0.333252 0.9589844
vt 0.3393555 0.9589844
vt 0.3322754 0.9575195
vt 0.340332 0.9575195
vt 0.3320313 0.9560547
vt 0.3405762 0.9560547
vt 0.3322754 0.9541016
vt 0.340332 0.9541016
vt 0.3393555 0.953125
vt 0.333252 0.953125
vt 0.3378906 0.9521484
vt 0.3347168 0.9521484
vt 0.3361816 0.9516602
vt 0.6054688 0.9448242
vt 0.605957 0.9453125
vt 0.6069336 0.9438477
vt 0.6040039 0.9458008
vt 0.6044922 0.9462891
vt 0.6064453 0.9438477
vt 0.6069336 0.9423828
vt 0.6025391 0.9458008
vt 0.6025391 0.9462891
vt 0.6064453 0.9423828
vt 0.6069336 0.9404297
vt 0.6010742 0.9458008
vt 0.6010742 0.9462891
vt 0.6064453 0.940918
vt 0.605957 0.9394531
vt 0.6000977 0.9448242
vt 0.5996094 0.9453125
vt 0.6054688 0.9394531
vt 0.6044922 0.9384766
vt 0.5991211 0.9438477
vt 0.5986328 0.9438477
vt 0.6040039 0.9389648
vt 0.6025391 0.9379883
vt 0.5991211 0.9423828
vt 0.5986328 0.9423828
vt 0.6025391 0.9384766
vt 0.6010742 0.9384766
vt 0.5991211 0.940918
vt 0.5986328 0.9404297
vt 0.6010742 0.9389648
vt 0.5996094 0.9394531
vt 0.6000977 0.9394531
vt 0.6054688 0.9394531
vt 0.6040039 0.9389648
vt 0.6064453 0.940918
vt 0.6025391 0.9384766
vt 0.6010742 0.9389648
vt 0.6064453 0.9423828
vt 0.6000977 0.9394531
vt 0.5991211 0.940918
vt 0.6064453 0.9438477
vt 0.5991211 0.9423828
vt 0.6054688 0.9448242
vt 0.5991211 0.9438477
vt 0.6040039 0.9458008
vt 0.6000977 0.9448242
vt 0.6025391 0.9458008
vt 0.6010742 0.9458008
vn 0.1483154 0.921875 0.3579102
vn 0 0.921875 0.3874512
vn -0.1483154 0.921875 0.3579102
vn 0.2739258 0.921875 0.2739258
vn -0.2739258 0.921875 0.2739258
vn 0.3579102 0.921875 0.1483154
vn -0.3579102 0.921875 0.1483154
vn 0.3874512 0.921875 0
vn -0.3874512 0.921875 0
vn 0.3579102 0.921875 -0.1483154
vn -0.3579102 0.921875 -0.1483154
vn -0.2739258 0.921875 -0.2739258
vn 0.2739258 0.921875 -0.2739258
vn -0.1483154 0.921875 -0.3579102
vn 0.1483154 0.921875 -0.3579102
vn 0 0.921875 -0.3874512
vn -0.1623535 -0.9057617 -0.3918457
vn 0 -0.9057617 -0.4240723
vn 0 -0.3649902 -0.9311523
vn -0.3562012 -0.3649902 -0.8603516
vn -0.2998047 -0.9057617 -0.2998047
vn -0.2856445 0.6655273 -0.6894531
vn 0 0.6655273 -0.7460938
vn -0.527832 0.6655273 -0.527832
vn -0.6582031 -0.3649902 -0.6582031
vn -0.3918457 -0.9057617 -0.1623535
vn -0.6894531 0.6655273 -0.2856445
vn -0.8603516 -0.3649902 -0.3562012
vn -0.4240723 -0.9057617 0
vn -0.7460938 0.6655273 0
vn -0.9311523 -0.3649902 0
vn -0.3918457 -0.9057617 0.1623535
vn -0.6894531 0.6655273 0.2856445
vn -0.8603516 -0.3649902 0.3562012
vn -0.2998047 -0.9057617 0.2998047
vn -0.527832 0.6655273 0.527832
vn -0.6582031 -0.3649902 0.6582031
vn -0.1623535 -0.9057617 0.3918457
vn -0.2856445 0.6655273 0.6894531
vn -0.3562012 -0.3649902 0.8603516
vn 0 -0.9057617 0.4240723
vn 0 0.6655273 0.7460938
vn 0 -0.3649902 0.9311523
vn 0.1623535 -0.9057617 0.3918457
vn 0.2856445 0.6655273 0.6894531
vn 0.3562012 -0.3649902 0.8603516
vn 0.2998047 -0.9057617 0.2998047
vn 0.527832 0.6655273 0.527832
vn 0.6582031 -0.3649902 0.6582031
vn 0.3918457 -0.9057617 0.1623535
vn 0.6894531 0.6655273 0.2856445
vn 0.8603516 -0.3649902 0.3562012
vn 0.4240723 -0.9057617 0
vn 0.7460938 0.6655273 0
vn 0.9311523 -0.3649902 0
vn 0.3918457 -0.9057617 -0.1623535
vn 0.6894531 0.6655273 -0.2856445
vn 0.8603516 -0.3649902 -0.3562012
vn 0.2998047 -0.9057617 -0.2998047
vn 0.527832 0.6655273 -0.527832
vn 0.6582031 -0.3649902 -0.6582031
vn 0.1623535 -0.9057617 -0.3918457
vn 0.2856445 0.6655273 -0.6894531
vn 0.3562012 -0.3649902 -0.8603516
vn 0 -0.9057617 -0.4240723
vn 0 0.6655273 -0.7460938
vn 0 -0.3649902 -0.9311523
vn 0.1623535 -0.9057617 -0.3918457
vn 0 -0.9057617 -0.4240723
vn -0.1623535 -0.9057617 -0.3918457
vn -0.2998047 -0.9057617 -0.2998047
vn 0.2998047 -0.9057617 -0.2998047
vn -0.3918457 -0.9057617 -0.1623535
vn 0.3918457 -0.9057617 -0.1623535
vn -0.4240723 -0.9057617 0
vn 0.4240723 -0.9057617 0
vn -0.3918457 -0.9057617 0.1623535
vn 0.3918457 -0.9057617 0.1623535
vn 0.2998047 -0.9057617 0.2998047
vn -0.2998047 -0.9057617 0.2998047
vn 0.1623535 -0.9057617 0.3918457
vn -0.1623535 -0.9057617 0.3918457
vn 0 -0.9057617 0.4240723
vn -0.2197266 0.9506836 0.2197266
vn 0.527832 0.6655273 -0.527832
vn 0.6894531 0.6655273 -0.2856445
vn -0.1188965 0.9506836 0.2871094
vn 0.2856445 0.6655273 -0.6894531
vn -0.2871094 0.9506836 0.1188965
vn 0.7460938 0.6655273 0
vn 0 0.9506836 0.310791
vn 0 0.6655273 -0.7460938
vn -0.310791 0.9506836 0
vn 0.6894531 0.6655273 0.2856445
vn 0.1188965 0.9506836 0.2871094
vn -0.2856445 0.6655273 -0.6894531
vn -0.2871094 0.9506836 -0.1188965
vn 0.527832 0.6655273 0.527832
vn 0.2197266 0.9506836 0.2197266
vn -0.527832 0.6655273 -0.527832
vn -0.2197266 0.9506836 -0.2197266
vn 0.2856445 0.6655273 0.6894531
vn 0.2871094 0.9506836 0.1188965
vn -0.6894531 0.6655273 -0.2856445
vn -0.1188965 0.9506836 -0.2871094
vn 0 0.6655273 0.7460938
vn 0.310791 0.9506836 0
vn -0.7460938 0.6655273 0
vn 0 0.9506836 -0.310791
vn -0.2856445 0.6655273 0.6894531
vn 0.2871094 0.9506836 -0.1188965
vn -0.6894531 0.6655273 0.2856445
vn 0.1188965 0.9506836 -0.2871094
vn -0.527832 0.6655273 0.527832
vn 0.2197266 0.9506836 -0.2197266
vn -0.2739258 0.921875 -0.2739258
vn -0.1483154 0.921875 -0.3579102
vn -0.3579102 0.921875 -0.1483154
vn 0 0.921875 -0.3874512
vn 0.1483154 0.921875 -0.3579102
vn -0.3874512 0.921875 0
vn 0.2739258 0.921875 -0.2739258
vn 0.3579102 0.921875 -0.1483154
vn -0.3579102 0.921875 0.1483154
vn 0.3874512 0.921875 0
vn -0.2739258 0.921875 0.2739258
vn 0.3579102 0.921875 0.1483154
vn -0.1483154 0.921875 0.3579102
vn 0.2739258 0.921875 0.2739258
vn 0 0.921875 0.3874512
vn 0.1483154 0.921875 0.3579102
g Plate_0
f 3/3/3 2/2/2 1/1/1
f 1/1/1 4/4/4 3/3/3
f 4/4/4 5/5/5 3/3/3
f 4/4/4 6/6/6 5/5/5
f 6/6/6 7/7/7 5/5/5
f 6/6/6 8/8/8 7/7/7
f 8/8/8 9/9/9 7/7/7
f 8/8/8 10/10/10 9/9/9
f 10/10/10 11/11/11 9/9/9
f 10/10/10 12/12/12 11/11/11
f 10/10/10 13/13/13 12/12/12
f 13/13/13 14/14/14 12/12/12
f 13/13/13 15/15/15 14/14/14
f 15/15/15 16/16/16 14/14/14
f 19/19/19 18/18/18 17/17/17
f 20/20/20 19/19/19 17/17/17
f 20/20/20 17/17/17 21/21/21
f 20/20/20 22/22/22 19/19/19
f 22/22/22 23/23/23 19/19/19
f 24/24/24 22/22/22 20/20/20
f 25/25/25 20/20/20 21/21/21
f 25/25/25 24/24/24 20/20/20
f 25/25/25 21/21/21 26/26/26
f 27/27/27 24/24/24 25/25/25
f 28/28/28 25/25/25 26/26/26
f 28/28/28 27/27/27 25/25/25
f 28/28/28 26/26/26 29/29/29
f 30/30/30 27/27/27 28/28/28
f 31/31/31 28/28/28 29/29/29
f 31/31/31 30/30/30 28/28/28
f 31/31/31 29/29/29 32/32/32
f 33/33/33 30/30/30 31/31/31
f 34/34/34 31/31/31 32/32/32
f 34/34/34 33/33/33 31/31/31
f 34/34/34 32/32/32 35/35/35
f 36/36/36 33/33/33 34/34/34
f 37/37/37 34/34/34 35/35/35
f 37/37/37 36/36/36 34/34/34
f 37/37/37 35/35/35 38/38/38
f 39/39/39 36/36/36 37/37/37
f 40/40/40 37/37/37 38/38/38
f 40/40/40 39/39/39 37/37/37
f 40/40/40 38/38/38 41/41/41
f 42/42/42 39/39/39 40/40/40
f 43/43/43 40/40/40 41/41/41
f 43/43/43 42/42/42 40/40/40
f 43/43/43 41/41/41 44/44/44
f 45/45/45 42/42/42 43/43/43
f 46/46/46 43/43/43 44/44/44
f 46/46/46 45/45/45 43/43/43
f 46/46/46 44/44/44 47/47/47
f 48/48/48 45/45/45 46/46/46
f 49/49/49 46/46/46 47/47/47
f 49/49/49 48/48/48 46/46/46
f 49/49/49 47/47/47 50/50/50
f 51/51/51 48/48/48 49/49/49
f 52/52/52 49/49/49 50/50/50
f 52/52/52 51/51/51 49/49/49
f 52/52/52 50/50/50 53/53/53
f 54/54/54 51/51/51 52/52/52
f 55/55/55 52/52/52 53/53/53
f 55/55/55 54/54/54 52/52/52
f 55/55/55 53/53/53 56/56/56
f 57/57/57 54/54/54 55/55/55
f 58/58/58 55/55/55 56/56/56
f 58/58/58 57/57/57 55/55/55
f 58/58/58 56/56/56 59/59/59
f 60/60/60 57/57/57 58/58/58
f 61/61/61 58/58/58 59/59/59
f 61/61/61 60/60/60 58/58/58
f 61/61/61 59/59/59 62/62/62
f 63/63/63 60/60/60 61/61/61
f 64/64/64 61/61/61 62/62/62
f 64/64/64 63/63/63 61/61/61
f 64/64/64 62/62/62 65/65/65
f 66/66/66 63/63/63 64/64/64
f 67/67/67 64/64/64 65/65/65
f 67/67/67 66/66/66 64/64/64
f 70/70/70 69/69/69 68/68/68
f 68/68/68 71/71/71 70/70/70
f 68/68/68 72/72/72 71/71/71
f 72/72/72 73/73/73 71/71/71
f 72/72/72 74/74/74 73/73/73
f 74/74/74 75/75/75 73/73/73
f 74/74/74 76/76/76 75/75/75
f 76/76/76 77/77/77 75/75/75
f 76/76/76 78/78/78 77/77/77
f 78/78/78 79/79/79 77/77/77
f 79/79/79 80/80/80 77/77/77
f 79/79/79 81/81/81 80/80/80
f 81/81/81 82/82/82 80/80/80
f 81/81/81 83/83/83 82/82/82
f 86/86/86 85/85/85 84/84/84
f 84/84/84 85/85/85 87/87/87
f 85/85/85 88/88/88 87/87/87
f 89/89/89 86/86/86 84/84/84
f 90/90/90 86/86/86 89/89/89
f 87/87/87 88/88/88 91/91/91
f 88/88/88 92/92/92 91/91/91
f 93/93/93 90/90/90 89/89/89
f 94/94/94 90/90/90 93/93/93
f 91/91/91 92/92/92 95/95/95
f 92/92/92 96/96/96 95/95/95
f 97/97/97 94/94/94 93/93/93
f 98/98/98 94/94/94 97/97/97
f 95/95/95 96/96/96 99/99/99
f 96/96/96 100/100/100 99/99/99
f 101/101/101 98/98/98 97/97/97
f 102/102/102 98/98/98 101/101/101
f 99/99/99 100/100/100 103/103/103
f 100/100/100 104/104/104 103/103/103
f 105/105/105 102/102/102 101/101/101
f 106/106/106 102/102/102 105/105/105
f 103/103/103 104/104/104 107/107/107
f 104/104/104 108/108/108 107/107/107
f 109/109/109 106/106/106 105/105/105
f 110/110/110 106/106/106 109/109/109
f 107/107/107 108/108/108 111/111/111
f 108/108/108 112/112/112 111/111/111
f 113/113/113 110/110/110 109/109/109
f 114/114/114 110/110/110 113/113/113
f 112/112/112 114/114/114 115/115/115
f 111/111/111 112/112/112 115/115/115
f 115/115/115 114/114/114 113/113/113
f 105/105/105 101/101/101 116/116/116
f 117/117/117 105/105/105 116/116/116
f 109/109/109 105/105/105 117/117/117
f 116/116/116 101/101/101 118/118/118
f 119/119/119 109/109/109 117/117/117
f 113/113/113 109/109/109 119/119/119
f 101/101/101 97/97/97 118/118/118
f 120/120/120 113/113/113 119/119/119
f 115/115/115 113/113/113 120/120/120
f 118/118/118 97/97/97 121/121/121
f 122/122/122 115/115/115 120/120/120
f 111/111/111 115/115/115 122/122/122
f 97/97/97 93/93/93 121/121/121
f 123/123/123 111/111/111 122/122/122
f 121/121/121 93/93/93 124/124/124
f 107/107/107 111/111/111 123/123/123
f 93/93/93 89/89/89 124/124/124
f 125/125/125 107/107/107 123/123/123
f 124/124/124 89/89/89 126/126/126
f 103/103/103 107/107/107 125/125/125
f 89/89/89 84/84/84 126/126/126
f 127/127/127 103/103/103 125/125/125
f 126/126/126 84/84/84 128/128/128
f 99/99/99 103/103/103 127/127/127
f 84/84/84 87/87/87 128/128/128
f 129/129/129 99/99/99 127/127/127
f 128/128/128 87/87/87 130/130/130
f 95/95/95 99/99/99 129/129/129
f 87/87/87 91/91/91 130/130/130
f 131/131/131 95/95/95 129/129/129
f 130/130/130 91/91/91 131/131/131
f 91/91/91 95/95/95 131/131/131
