g Road_X
v 3 0 0.4500005
v 3 0 0.6000006
v 0.8817348 0 0.5999999
v 0.8816848 0 0.4499983
v 3 0 -0.45
v 0.7408674 0 0.6377452
v 0.8816848 0 -0.4499983
v 3 0 -0.6000001
v 0.8817348 0 -0.5999999
v 0.7408674 0 -0.6377451
v 0.6658411 0 0.5000949
v 0.6377453 0 0.7408671
v 0.6658411 0 -0.5000949
v 0.6377453 0 -0.7408671
v 0.5078331 0 0.6508127
v 0.5999985 0 0.8817344
v 0.5078331 0 -0.6508127
v 0.5999985 0 -0.8817344
v 0.4499969 0 0.4361469
v 0.4499989 0 -0.4361469
v 0.4499989 0 0.8617671
v 0.6 0 3
v 0.4499996 0 3
v -0.4499993 -8.06153E-07 3
v -0.4499989 0 0.4361469
v -0.4499987 -2.31572E-07 0.8617671
v -0.5999998 -8.06153E-07 3
v -0.5999984 -2.369376E-07 0.8817345
v -0.507833 -1.748849E-07 0.6508127
v -0.6377451 -1.990841E-07 0.7408673
v -0.6658411 -1.343844E-07 0.500095
v -0.7408673 -1.713734E-07 0.6377452
v -0.4499989 0 -0.4361469
v -0.8816848 -1.209225E-07 0.4499984
v -0.8817347 -1.612306E-07 0.6
v -3 -1.612307E-07 0.6000006
v -3 -1.20923E-07 0.4500005
v -0.5078332 1.748849E-07 -0.6508127
v -0.6658411 1.343843E-07 -0.5000948
v -0.8816848 1.209225E-07 -0.4499982
v -3 1.20923E-07 -0.45
v -0.881735 1.612306E-07 -0.5999998
v -3 1.612307E-07 -0.6000001
v -0.7408675 1.713734E-07 -0.6377451
v -0.6377454 1.990841E-07 -0.740867
v -0.5999986 2.369376E-07 -0.8817343
v -0.449999 2.31572E-07 -0.861767
v -0.5999995 0 -3
v -0.4499994 0 -3
v 0.4499989 0 -0.861767
v 0.4499997 0 -3
v 0.6000003 0 -3
vn 0 1 0
vn 0 1 0
vn 0 1 0
vn 0 1 0
vn 0 1 0
vn 0 1 0
vn 0 1 0
vn 0 1 0
vn 0 1 0
vn 0 1 0
vn 0 1 0
vn 0 1 0
vn 0 1 0
vn 0 1 0
vn 0 1 0
vn 0 1 0
vn 0 1 0
vn 0 1 0
vn 0 1 0
vn 0 1 0
vn 0 1 0
vn 0 1 0
vn 0 1 0
vn 0 1 0
vn 0 1 0
vn 0 1 0
vn 0 1 0
vn 0 1 0
vn 0 1 0
vn 0 1 0
vn 0 1 0
vn 0 1 0
vn 0 1 0
vn 0 1 0
vn 0 1 0
vn 0 1 0
vn 0 1 0
vn 0 1 0
vn 0 1 0
vn 0 1 0
vn 0 1 0
vn 0 1 0
vn 0 1 0
vn 0 1 0
vn 0 1 0
vn 0 1 0
vn 0 1 0
vn 0 1 0
vn 0 1 0
vn 0 1 0
vn 0 1 0
vn 0 1 0
g Road_X_0
f 3/3/3 2/2/2 1/1/1
f 4/4/4 3/3/3 1/1/1
f 4/4/4 1/1/1 5/5/5
f 3/3/3 4/4/4 6/6/6
f 7/7/7 4/4/4 5/5/5
f 7/7/7 5/5/5 8/8/8
f 9/9/9 7/7/7 8/8/8
f 7/7/7 9/9/9 10/10/10
f 4/4/4 11/11/11 6/6/6
f 11/11/11 4/4/4 7/7/7
f 6/6/6 11/11/11 12/12/12
f 13/13/13 7/7/7 10/10/10
f 13/13/13 11/11/11 7/7/7
f 13/13/13 10/10/10 14/14/14
f 11/11/11 15/15/15 12/12/12
f 12/12/12 15/15/15 16/16/16
f 17/17/17 13/13/13 14/14/14
f 17/17/17 14/14/14 18/18/18
f 11/11/11 13/13/13 19/19/19
f 11/11/11 19/19/19 15/15/15
f 13/13/13 20/20/20 19/19/19
f 17/17/17 20/20/20 13/13/13
f 15/15/15 21/21/21 16/16/16
f 22/22/22 16/16/16 21/21/21
f 23/23/23 22/22/22 21/21/21
f 23/23/23 21/21/21 24/24/24
f 15/15/15 19/19/19 25/25/25
f 19/19/19 20/20/20 25/25/25
f 21/21/21 26/26/26 24/24/24
f 27/27/27 24/24/24 26/26/26
f 28/28/28 27/27/27 26/26/26
f 15/15/15 29/29/29 21/21/21
f 29/29/29 26/26/26 21/21/21
f 26/26/26 29/29/29 28/28/28
f 29/29/29 15/15/15 25/25/25
f 29/29/29 30/30/30 28/28/28
f 29/29/29 31/31/31 30/30/30
f 29/29/29 25/25/25 31/31/31
f 31/31/31 32/32/32 30/30/30
f 20/20/20 33/33/33 25/25/25
f 31/31/31 25/25/25 33/33/33
f 31/31/31 34/34/34 32/32/32
f 34/34/34 35/35/35 32/32/32
f 35/35/35 34/34/34 36/36/36
f 34/34/34 37/37/37 36/36/36
f 33/33/33 20/20/20 38/38/38
f 20/20/20 17/17/17 38/38/38
f 39/39/39 31/31/31 33/33/33
f 31/31/31 39/39/39 34/34/34
f 39/39/39 33/33/33 38/38/38
f 34/34/34 40/40/40 37/37/37
f 39/39/39 40/40/40 34/34/34
f 40/40/40 41/41/41 37/37/37
f 40/40/40 42/42/42 41/41/41
f 42/42/42 43/43/43 41/41/41
f 42/42/42 40/40/40 44/44/44
f 40/40/40 39/39/39 44/44/44
f 44/44/44 39/39/39 45/45/45
f 39/39/39 38/38/38 45/45/45
f 45/45/45 38/38/38 46/46/46
f 38/38/38 47/47/47 46/46/46
f 47/47/47 38/38/38 17/17/17
f 48/48/48 46/46/46 47/47/47
f 49/49/49 48/48/48 47/47/47
f 50/50/50 47/47/47 17/17/17
f 49/49/49 47/47/47 50/50/50
f 50/50/50 17/17/17 18/18/18
f 51/51/51 49/49/49 50/50/50
f 18/18/18 52/52/52 50/50/50
f 52/52/52 51/51/51 50/50/50
