g Road_L
v 3 0 -0.4500002
v -0.1773981 0 -0.5999998
v 3 0 -0.6000001
v -0.04500648 0 -0.4499998
v 3 0 0.4499997
v -0.2475032 0 -0.3957409
v -0.388699 0 -0.5433818
v 0.7493432 0 0.4499999
v 3 0 0.5999997
v 0.8817348 0 0.5999999
v 0.7408674 0 0.6377452
v 0.5996716 0 0.4901043
v 0.6377453 0 0.7408671
v 0.4901043 0 0.5996714
v 0.6 0 0.8817344
v -0.3957411 0 -0.2475029
v -0.543382 0 -0.3886986
v 0.45 0 0.7493429
v -0.45 0 -0.04500602
v -0.6 0 -0.1773975
v -0.6 0 3
v -0.45 0 3
v 0.45 0 3
v 0.6 0 3
vn 0 1 0
vn 0 1 0
vn 0 1 0
vn 0 1 0
vn 0 1 0
vn 0 1 0
vn 0 1 0
vn 0 1 0
vn 0 1 0
vn 0 1 0
vn 0 1 0
vn 0 1 0
vn 0 1 0
vn 0 1 0
vn 0 1 0
vn 0 1 0
vn 0 1 0
vn 0 1 0
vn 0 1 0
vn 0 1 0
vn 0 1 0
vn 0 1 0
vn 0 1 0
vn 0 1 0
g Road_L_0
f 3/3/3 2/2/2 1/1/1
f 2/2/2 4/4/4 1/1/1
f 1/1/1 4/4/4 5/5/5
f 6/6/6 4/4/4 2/2/2
f 7/7/7 6/6/6 2/2/2
f 4/4/4 8/8/8 5/5/5
f 5/5/5 8/8/8 9/9/9
f 8/8/8 10/10/10 9/9/9
f 11/11/11 10/10/10 8/8/8
f 12/12/12 8/8/8 4/4/4
f 12/12/12 11/11/11 8/8/8
f 6/6/6 12/12/12 4/4/4
f 13/13/13 11/11/11 12/12/12
f 14/14/14 13/13/13 12/12/12
f 14/14/14 12/12/12 6/6/6
f 13/13/13 14/14/14 15/15/15
f 16/16/16 6/6/6 7/7/7
f 16/16/16 14/14/14 6/6/6
f 17/17/17 16/16/16 7/7/7
f 14/14/14 18/18/18 15/15/15
f 14/14/14 16/16/16 18/18/18
f 16/16/16 17/17/17 19/19/19
f 16/16/16 19/19/19 18/18/18
f 17/17/17 20/20/20 19/19/19
f 20/20/20 21/21/21 19/19/19
f 21/21/21 22/22/22 19/19/19
f 19/19/19 22/22/22 18/18/18
f 22/22/22 23/23/23 18/18/18
f 18/18/18 23/23/23 15/15/15
f 23/23/23 24/24/24 15/15/15
