g Rock_C_02_LOD2
v -0.01120865 0.001482977 0.02522362
v -0.01837987 0.008422595 0.01590479
v -0.009555292 0.006711444 0.02520817
v -0.01870639 0.001720303 0.01591649
v -0.01993599 0.0001302854 0.008691323
v -0.01997302 0.00717947 0.00873627
v -0.01842549 0.01453533 0.008646443
v -0.01715873 0.01493936 0.01583683
v -0.01199034 0.01169577 0.001417803
v -0.01352589 0.004940717 0.001489513
v -0.01688745 -0.007227769 0.01593087
v -0.01993599 0.0001302854 0.008691323
v -0.009281371 0.01752148 0.001837056
v -0.01296781 0.02087148 0.008590913
v -0.004207856 0.01025065 -0.0008644175
v -0.002639415 0.01756611 -1.503646E-05
v 0.002840295 0.01618908 -0.0005088079
v 0.001687822 0.00862241 -0.001436566
v -0.005895783 0.002414565 -0.0007311713
v -0.01352589 0.004940717 0.001489513
v 0.0002552247 0.000454571 -0.001305008
v -0.01434665 -0.001541019 0.001436098
v -0.007435932 -0.004947639 -0.0008791327
v -0.008928776 -0.0115211 0.0001312762
v -0.01416556 -0.00760629 0.001836712
v -0.001417178 -0.00715897 -0.00139945
v -0.003303965 -0.0138156 -0.0002467376
v -0.003969132 0.02254852 0.007694932
v 0.002840295 0.01618908 -0.0005088079
v 0.00318422 0.02090517 0.00744695
v -0.003377201 0.02258907 0.01632831
v -0.01237227 0.02089591 0.01550343
v -0.01842549 0.01453533 0.008646443
v -0.01715873 0.01493936 0.01583683
v -0.008269694 0.01151757 0.02534945
v -0.009555292 0.006711444 0.02520817
v -0.01837987 0.008422595 0.01590479
v -0.006751666 0.01692675 0.0242609
v -0.0001670504 0.01739278 0.02714953
v 0.0038062 0.0209926 0.01657823
v -0.003969132 0.02254852 0.007694932
v 0.00318422 0.02090517 0.00744695
v 0.005278351 0.01612189 0.02795347
v 0.004945125 0.008246342 0.03249952
v -0.0009415775 0.01001835 0.03098583
v 0.009901773 0.01309954 0.02689445
v 0.0100646 0.005225571 0.03088485
v 0.01436285 0.00103841 0.02550321
v 0.009349912 0.01750634 0.007510001
v 0.009886133 0.0174195 0.01618275
v 0.007703688 0.01383174 -0.0003101367
v 0.002840295 0.01618908 -0.0005088079
v 0.007395112 0.006520289 -0.001416031
v 0.01499435 0.01054293 0.01502653
v 0.01364945 0.008070537 0.02381576
v 0.01480471 0.01125491 0.00775723
v 0.0124193 0.01025364 0.0007951937
v 0.01425541 0.003819515 -0.0001432812
v 0.01713016 0.003152798 0.007539413
v 0.01428775 -0.003135287 -7.41899E-06
v 0.01664442 -0.004127468 0.008005281
v 0.01693817 0.002040646 0.01541518
v 0.01616363 -0.004614161 0.01614413
v 0.01713016 0.003152798 0.007539413
v 0.01386967 -0.004811052 0.02674327
v 0.01664442 -0.004127468 0.008005281
v 0.0140092 -0.01021631 0.008627266
v 0.01227889 -0.009365987 0.0007190335
v 0.013294 -0.009799764 0.01657998
v 0.01428775 -0.003135287 -7.41899E-06
v 0.008532623 -0.01503544 0.009198523
v 0.008757125 -0.01455699 0.001781162
v 0.002113161 -0.01636055 0.009132346
v 0.00259812 -0.01505795 9.389073E-05
v 0.007303575 -0.01391309 0.01680903
v 0.0140092 -0.01021631 0.008627266
v 0.013294 -0.009799764 0.01657998
v 0.001885654 -0.01631417 0.01820594
v -0.004161849 -0.01423536 0.008976195
v -0.004002981 -0.01487255 0.01849097
v -0.001417178 -0.00715897 -0.00139945
v -0.01063843 -0.01133919 0.008614703
v 0.004880482 -0.00858415 -0.001165869
v 0.006572026 -0.001327198 -0.001356668
v 0.0002552247 0.000454571 -0.001305008
v 0.01428775 -0.003135287 -7.41899E-06
v 0.01425541 0.003819515 -0.0001432812
v 0.0124193 0.01025364 0.0007951937
v -0.01037903 -0.01221442 0.0176239
v -0.007492462 -0.01192252 0.02763977
v -0.001847404 -0.01433469 0.02908968
v -0.01260418 -0.007511946 0.02461896
v -0.01731282 -0.006725928 0.008639733
v -0.01416556 -0.00760629 0.001836712
v -0.01434665 -0.001541019 0.001436098
v -0.01352589 0.004940717 0.001489513
v -0.01997302 0.00717947 0.00873627
v -0.004804793 -0.002745239 0.03023863
v -0.001847404 -0.01433469 0.02908968
v -0.002710515 0.003632741 0.03090707
v -0.009555292 0.006711444 0.02520817
v 0.001038753 -0.006385293 0.03246446
v 0.003241479 0.0007356611 0.03317785
v -0.008269694 0.01151757 0.02534945
v 0.00700865 -0.008955562 0.03216404
v -0.0001670504 0.01739278 0.02714953
v -0.006751666 0.01692675 0.0242609
v 0.003913276 -0.01537051 0.02890044
v -0.004002981 -0.01487255 0.01849097
v 0.001885654 -0.01631417 0.01820594
v 0.009010675 -0.0139972 0.02622634
v 0.009010675 -0.0139972 0.02622634
v 0.0123263 -0.009720779 0.02724487
v 0.01386967 -0.004811052 0.02674327
v 0.01616363 -0.004614161 0.01614413
v 0.0123263 -0.009720779 0.02724487
v 0.008967578 -0.002192482 0.0322868
v 0.01386967 -0.004811052 0.02674327
v 0.003241479 0.0007356611 0.03317785
v 0.001038753 -0.006385293 0.03246446
v 0.003241479 0.0007356611 0.03317785
v 0.004945125 0.008246342 0.03249952
v 0.008967578 -0.002192482 0.0322868
v 0.0038062 0.0209926 0.01657823
v 0.009886133 0.0174195 0.01618275
v 0.005278351 0.01612189 0.02795347
v 0.0002552247 0.000454571 -0.001305008
v 0.006572026 -0.001327198 -0.001356668
v 0.001687822 0.00862241 -0.001436566
v -0.004161849 -0.01423536 0.008976195
v -0.003303965 -0.0138156 -0.0002467376
v -0.01063843 -0.01133919 0.008614703
v -0.001417178 -0.00715897 -0.00139945
v 0.0002552247 0.000454571 -0.001305008
v -0.005895783 0.002414565 -0.0007311713
v 0.004945125 0.008246342 0.03249952
v 0.003241479 0.0007356611 0.03317785
v -0.002710515 0.003632741 0.03090707
vt 0.2420244 0.7492069
vt 0.2420244 0.749207
vt 0.2420245 0.7492069
vt 0.2420244 0.7492069
vt 0.2420244 0.7492069
vt 0.2420244 0.749207
vt 0.2420244 0.7492069
vt 0.2420244 0.7492069
vt 0.2420244 0.7492069
vt 0.2420245 0.7492069
vt 0.2420244 0.7492069
vt 0.2420244 0.7492069
vt 0.2420245 0.7492069
vt 0.2420244 0.7492069
vt 0.2420244 0.7492069
vt 0.2420244 0.7492069
vt 0.2420245 0.7492069
vt 0.2420245 0.7492069
vt 0.2420244 0.7492069
vt 0.2420244 0.7492069
vt 0.2420244 0.749207
vt 0.2420244 0.7492069
vt 0.2420244 0.7492069
vt 0.2420244 0.7492069
vt 0.2420245 0.7492068
vt 0.2420245 0.7492069
vt 0.2420245 0.7492069
vt 0.2420244 0.7492069
vt 0.2420245 0.7492069
vt 0.2420244 0.749207
vt 0.2420244 0.7492069
vt 0.2420244 0.7492069
vt 0.2420244 0.7492069
vt 0.2420244 0.7492069
vt 0.2420244 0.7492069
vt 0.2420245 0.7492069
vt 0.2420244 0.749207
vt 0.2420245 0.7492069
vt 0.2420244 0.7492069
vt 0.2420244 0.749207
vt 0.2420244 0.7492069
vt 0.2420244 0.749207
vt 0.2420245 0.7492069
vt 0.2420245 0.7492069
vt 0.2420244 0.7492069
vt 0.2420244 0.7492069
vt 0.2420244 0.7492069
vt 0.2420244 0.7492069
vt 0.2420244 0.7492069
vt 0.2420244 0.7492069
vt 0.2420244 0.7492069
vt 0.2420245 0.7492069
vt 0.2420244 0.7492069
vt 0.2420244 0.7492069
vt 0.2420245 0.7492069
vt 0.2420244 0.7492069
vt 0.2420245 0.7492069
vt 0.2420244 0.7492069
vt 0.2420244 0.7492069
vt 0.2420245 0.7492069
vt 0.2420244 0.749207
vt 0.2420244 0.7492069
vt 0.2420244 0.749207
vt 0.2420244 0.7492069
vt 0.2420245 0.7492069
vt 0.2420244 0.749207
vt 0.2420244 0.7492069
vt 0.2420244 0.7492069
vt 0.2420244 0.7492069
vt 0.2420245 0.7492069
vt 0.2420244 0.7492069
vt 0.2420245 0.7492069
vt 0.2420244 0.7492069
vt 0.2420244 0.7492069
vt 0.2420244 0.7492069
vt 0.2420244 0.7492069
vt 0.2420244 0.7492069
vt 0.2420244 0.7492069
vt 0.2420244 0.749207
vt 0.2420244 0.749207
vt 0.2420245 0.7492069
vt 0.2420244 0.7492069
vt 0.2420244 0.7492069
vt 0.2420244 0.7492069
vt 0.2420244 0.749207
vt 0.2420244 0.7492069
vt 0.2420244 0.7492069
vt 0.2420245 0.749207
vt 0.2420244 0.7492069
vt 0.2420244 0.7492069
vt 0.2420245 0.7492069
vt 0.2420245 0.7492069
vt 0.2420244 0.7492069
vt 0.2420245 0.749207
vt 0.2420244 0.7492069
vt 0.2420245 0.7492069
vt 0.2420244 0.749207
vt 0.2420244 0.7492069
vt 0.2420245 0.7492069
vt 0.2420244 0.7492069
vt 0.2420244 0.7492069
vt 0.2420245 0.7492069
vt 0.2420244 0.749207
vt 0.2420244 0.7492069
vt 0.2420244 0.7492069
vt 0.2420244 0.7492069
vt 0.2420245 0.7492068
vt 0.2420244 0.7492069
vt 0.2420244 0.749207
vt 0.2420244 0.7492069
vt 0.2420245 0.749207
vt 0.2420245 0.7492069
vt 0.2420244 0.7492069
vt 0.2420245 0.7492069
vt 0.2420244 0.749207
vt 0.2420244 0.7492069
vt 0.2420244 0.7492069
vt 0.2420244 0.7492069
vt 0.2420244 0.749207
vt 0.2420245 0.7492069
vt 0.2420244 0.749207
vt 0.2420245 0.7492069
vt 0.2420244 0.7492069
vt 0.2420244 0.749207
vt 0.2420244 0.7492069
vt 0.2420245 0.7492069
vt 0.2420244 0.749207
vt 0.2420244 0.7492069
vt 0.2420245 0.7492069
vt 0.2420244 0.749207
vt 0.2420245 0.7492069
vt 0.2420244 0.7492069
vt 0.2420245 0.7492069
vt 0.2420244 0.749207
vt 0.2420244 0.7492069
vt 0.2420245 0.7492069
vt 0.2420244 0.749207
vt 0.2420244 0.7492069
vn -0.6924899 0.06467105 0.7185231
vn -0.8859016 0.1332454 0.4443241
vn -0.6528864 0.1409353 0.7442289
vn -0.9186816 -0.03354033 0.3935724
vn -0.9684263 -0.1058396 -0.2257179
vn -0.9584869 0.1120666 -0.2621907
vn -0.8754698 0.3922921 -0.2822403
vn -0.8225635 0.3892162 0.4146084
vn -0.4974101 0.2084496 -0.8420997
vn -0.5333892 0.07755003 -0.8423075
vn -0.8401068 -0.4884016 0.2359758
vn -0.9684263 -0.1058396 -0.2257179
vn -0.3660731 0.5353609 -0.7611697
vn -0.5208459 0.8061422 -0.28081
vn -0.1694416 0.08990903 -0.9814306
vn -0.06268685 0.5628082 -0.8242069
vn 0.177713 0.5389988 -0.8233458
vn -0.01892191 0.06409035 -0.9977647
vn -0.1806102 0.03537127 -0.9829185
vn -0.5333892 0.07755003 -0.8423075
vn -0.04101709 0.003967426 -0.9991506
vn -0.5987533 -0.03936958 -0.7999654
vn -0.2090547 -0.02734497 -0.9775215
vn -0.4324031 -0.614331 -0.660019
vn -0.6621472 -0.4388984 -0.6073956
vn -0.04626637 -0.07593056 -0.9960392
vn -0.2433615 -0.6970322 -0.6744784
vn -0.006805741 0.9607692 -0.2772653
vn 0.177713 0.5389988 -0.8233458
vn 0.3308288 0.9051098 -0.267074
vn -0.01925777 0.9729292 0.2302997
vn -0.5113186 0.7976192 0.3199327
vn -0.8754698 0.3922921 -0.2822403
vn -0.8225635 0.3892162 0.4146084
vn -0.5985515 0.2752568 0.7523096
vn -0.6528864 0.1409353 0.7442289
vn -0.8859016 0.1332454 0.4443241
vn -0.4395965 0.602843 0.6658342
vn -0.1227187 0.7220899 0.6808277
vn 0.3545403 0.9203644 0.1650168
vn -0.006805741 0.9607692 -0.2772653
vn 0.3308288 0.9051098 -0.267074
vn 0.2953038 0.7083812 0.6410863
vn 0.1267771 0.2925578 0.9478066
vn -0.3310137 0.2977781 0.8954095
vn 0.671001 0.5383329 0.5098582
vn 0.6045038 0.1968216 0.7719044
vn 0.9055392 0.07840417 0.4169552
vn 0.6057849 0.7623203 -0.2277988
vn 0.66623 0.7341959 0.1307435
vn 0.3902789 0.4861701 -0.7818702
vn 0.177713 0.5389988 -0.8233458
vn 0.1359309 0.07016282 -0.9882307
vn 0.9012368 0.4164672 0.1196969
vn 0.8825538 0.3191391 0.3453246
vn 0.8644847 0.472436 -0.1716701
vn 0.6467025 0.3897 -0.6556751
vn 0.6660523 0.09973694 -0.7392069
vn 0.9825687 0.1052916 -0.1532069
vn 0.666914 -0.1579694 -0.7281974
vn 0.9631639 -0.2375941 -0.1259538
vn 0.9891501 0.06955272 0.1294004
vn 0.9614571 -0.2471778 0.1204301
vn 0.9825687 0.1052916 -0.1532069
vn 0.8763274 -0.1721281 0.4499136
vn 0.9631639 -0.2375941 -0.1259538
vn 0.8137705 -0.5794117 -0.04538242
vn 0.6184371 -0.4190259 -0.6647954
vn 0.7965238 -0.5980261 0.08896381
vn 0.666914 -0.1579694 -0.7281974
vn 0.4685321 -0.8834113 0.007873978
vn 0.4349269 -0.7513483 -0.4963007
vn -0.02056983 -0.9991016 -0.03705011
vn 0.02056991 -0.7539147 -0.6566501
vn 0.4789135 -0.8761871 0.0542028
vn 0.8137705 -0.5794117 -0.04538242
vn 0.7965238 -0.5980261 0.08896381
vn 0.02179039 -0.9990927 0.036592
vn -0.3344292 -0.9398688 -0.06930907
vn -0.3277712 -0.9437919 0.04269571
vn -0.04626637 -0.07593056 -0.9960392
vn -0.5009338 -0.8617869 -0.07992846
vn 0.1162454 -0.159002 -0.9804108
vn 0.0951882 -0.04040692 -0.9946389
vn -0.04101709 0.003967426 -0.9991506
vn 0.666914 -0.1579694 -0.7281974
vn 0.6660523 0.09973694 -0.7392069
vn 0.6467025 0.3897 -0.6556751
vn -0.5338433 -0.8416303 0.0816696
vn -0.565949 -0.5618289 0.6033656
vn -0.3133124 -0.7196174 0.6196662
vn -0.7534664 -0.3127947 0.5783147
vn -0.8367805 -0.5229497 -0.1622411
vn -0.6621472 -0.4388984 -0.6073956
vn -0.5987533 -0.03936958 -0.7999654
vn -0.5333892 0.07755003 -0.8423075
vn -0.9584869 0.1120666 -0.2621907
vn -0.476368 -0.01028484 0.8791858
vn -0.3133124 -0.7196174 0.6196662
vn -0.4449719 0.1042541 0.8894555
vn -0.6528864 0.1409353 0.7442289
vn -0.187601 -0.1678856 0.9677914
vn -0.06112989 0.03491393 0.997519
vn -0.5985515 0.2752568 0.7523096
vn 0.3130351 -0.3322621 0.8897251
vn -0.1227187 0.7220899 0.6808277
vn -0.4395965 0.602843 0.6658342
vn 0.1274164 -0.8352106 0.5349658
vn -0.3277712 -0.9437919 0.04269571
vn 0.02179039 -0.9990927 0.036592
vn 0.5450183 -0.8006502 0.248826
vn 0.5450183 -0.8006502 0.248826
vn 0.7610992 -0.4940522 0.4202862
vn 0.8763274 -0.1721281 0.4499136
vn 0.9614571 -0.2471778 0.1204301
vn 0.7610992 -0.4940522 0.4202862
vn 0.4716686 -0.04007122 0.880865
vn 0.8763274 -0.1721281 0.4499136
vn -0.06112989 0.03491393 0.997519
vn -0.187601 -0.1678856 0.9677914
vn -0.06112989 0.03491393 0.997519
vn 0.1267771 0.2925578 0.9478066
vn 0.4716686 -0.04007122 0.880865
vn 0.3545403 0.9203644 0.1650168
vn 0.66623 0.7341959 0.1307435
vn 0.2953038 0.7083812 0.6410863
vn -0.04101709 0.003967426 -0.9991506
vn 0.0951882 -0.04040692 -0.9946389
vn -0.01892191 0.06409035 -0.9977647
vn -0.3344292 -0.9398688 -0.06930907
vn -0.2433615 -0.6970322 -0.6744784
vn -0.5009338 -0.8617869 -0.07992846
vn -0.04626637 -0.07593056 -0.9960392
vn -0.04101709 0.003967426 -0.9991506
vn -0.1806102 0.03537127 -0.9829185
vn 0.1267771 0.2925578 0.9478066
vn -0.06112989 0.03491393 0.997519
vn -0.4449719 0.1042541 0.8894555
g Rock_C_02_LOD2_0
f 3/3/3 2/2/2 1/1/1
f 2/2/2 4/4/4 1/1/1
f 5/5/5 4/4/4 2/2/2
f 6/6/6 5/5/5 2/2/2
f 7/7/7 6/6/6 2/2/2
f 8/8/8 7/7/7 2/2/2
f 7/7/7 9/9/9 6/6/6
f 9/9/9 10/10/10 6/6/6
f 4/4/4 11/11/11 1/1/1
f 4/4/4 12/12/12 11/11/11
f 9/9/9 7/7/7 13/13/13
f 7/7/7 14/14/14 13/13/13
f 9/9/9 13/13/13 15/15/15
f 16/16/16 13/13/13 14/14/14
f 13/13/13 16/16/16 15/15/15
f 16/16/16 17/17/17 15/15/15
f 17/17/17 18/18/18 15/15/15
f 15/15/15 19/19/19 9/9/9
f 15/15/15 18/18/18 19/19/19
f 19/19/19 20/20/20 9/9/9
f 18/18/18 21/21/21 19/19/19
f 20/20/20 19/19/19 22/22/22
f 19/19/19 23/23/23 22/22/22
f 22/22/22 23/23/23 24/24/24
f 25/25/25 22/22/22 24/24/24
f 23/23/23 26/26/26 24/24/24
f 26/26/26 27/27/27 24/24/24
f 28/28/28 16/16/16 14/14/14
f 29/29/29 16/16/16 28/28/28
f 30/30/30 29/29/29 28/28/28
f 28/28/28 14/14/14 31/31/31
f 14/14/14 32/32/32 31/31/31
f 14/14/14 33/33/33 32/32/32
f 33/33/33 34/34/34 32/32/32
f 32/32/32 34/34/34 35/35/35
f 35/35/35 34/34/34 36/36/36
f 34/34/34 37/37/37 36/36/36
f 38/38/38 32/32/32 35/35/35
f 32/32/32 38/38/38 39/39/39
f 31/31/31 32/32/32 39/39/39
f 31/31/31 39/39/39 40/40/40
f 31/31/31 40/40/40 41/41/41
f 40/40/40 42/42/42 41/41/41
f 39/39/39 43/43/43 40/40/40
f 44/44/44 43/43/43 39/39/39
f 45/45/45 44/44/44 39/39/39
f 46/46/46 43/43/43 44/44/44
f 47/47/47 46/46/46 44/44/44
f 47/47/47 48/48/48 46/46/46
f 49/49/49 42/42/42 40/40/40
f 50/50/50 49/49/49 40/40/40
f 49/49/49 51/51/51 42/42/42
f 51/51/51 52/52/52 42/42/42
f 52/52/52 51/51/51 53/53/53
f 18/18/18 52/52/52 53/53/53
f 50/50/50 54/54/54 49/49/49
f 46/46/46 55/55/55 50/50/50
f 55/55/55 54/54/54 50/50/50
f 48/48/48 55/55/55 46/46/46
f 54/54/54 55/55/55 48/48/48
f 49/49/49 56/56/56 51/51/51
f 54/54/54 56/56/56 49/49/49
f 56/56/56 57/57/57 51/51/51
f 58/58/58 57/57/57 56/56/56
f 59/59/59 58/58/58 56/56/56
f 59/59/59 56/56/56 54/54/54
f 58/58/58 59/59/59 60/60/60
f 59/59/59 61/61/61 60/60/60
f 62/62/62 59/59/59 54/54/54
f 62/62/62 54/54/54 48/48/48
f 63/63/63 62/62/62 48/48/48
f 64/64/64 62/62/62 63/63/63
f 65/65/65 63/63/63 48/48/48
f 66/66/66 64/64/64 63/63/63
f 67/67/67 66/66/66 63/63/63
f 67/67/67 68/68/68 66/66/66
f 69/69/69 67/67/67 63/63/63
f 68/68/68 70/70/70 66/66/66
f 67/67/67 71/71/71 68/68/68
f 71/71/71 72/72/72 68/68/68
f 72/72/72 71/71/71 73/73/73
f 68/68/68 72/72/72 74/74/74
f 74/74/74 72/72/72 73/73/73
f 73/73/73 71/71/71 75/75/75
f 71/71/71 76/76/76 75/75/75
f 76/76/76 77/77/77 75/75/75
f 78/78/78 73/73/73 75/75/75
f 73/73/73 78/78/78 79/79/79
f 74/74/74 73/73/73 79/79/79
f 78/78/78 80/80/80 79/79/79
f 27/27/27 74/74/74 79/79/79
f 74/74/74 27/27/27 81/81/81
f 82/82/82 79/79/79 80/80/80
f 83/83/83 68/68/68 74/74/74
f 83/83/83 74/74/74 81/81/81
f 83/83/83 84/84/84 68/68/68
f 84/84/84 83/83/83 81/81/81
f 85/85/85 84/84/84 81/81/81
f 84/84/84 86/86/86 68/68/68
f 84/84/84 53/53/53 86/86/86
f 53/53/53 87/87/87 86/86/86
f 53/53/53 51/51/51 87/87/87
f 51/51/51 88/88/88 87/87/87
f 89/89/89 82/82/82 80/80/80
f 90/90/90 89/89/89 80/80/80
f 91/91/91 90/90/90 80/80/80
f 89/89/89 11/11/11 82/82/82
f 89/89/89 90/90/90 92/92/92
f 11/11/11 89/89/89 92/92/92
f 1/1/1 92/92/92 90/90/90
f 11/11/11 92/92/92 1/1/1
f 11/11/11 93/93/93 82/82/82
f 12/12/12 93/93/93 11/11/11
f 93/93/93 94/94/94 82/82/82
f 94/94/94 24/24/24 82/82/82
f 94/94/94 93/93/93 95/95/95
f 93/93/93 12/12/12 95/95/95
f 95/95/95 12/12/12 96/96/96
f 12/12/12 97/97/97 96/96/96
f 98/98/98 1/1/1 90/90/90
f 98/98/98 90/90/90 99/99/99
f 1/1/1 98/98/98 100/100/100
f 101/101/101 1/1/1 100/100/100
f 98/98/98 102/102/102 100/100/100
f 102/102/102 98/98/98 99/99/99
f 102/102/102 103/103/103 100/100/100
f 101/101/101 100/100/100 45/45/45
f 104/104/104 101/101/101 45/45/45
f 102/102/102 99/99/99 105/105/105
f 104/104/104 45/45/45 106/106/106
f 107/107/107 104/104/104 106/106/106
f 99/99/99 108/108/108 105/105/105
f 108/108/108 99/99/99 109/109/109
f 110/110/110 108/108/108 109/109/109
f 108/108/108 111/111/111 105/105/105
f 112/112/112 108/108/108 110/110/110
f 75/75/75 112/112/112 110/110/110
f 112/112/112 75/75/75 77/77/77
f 113/113/113 112/112/112 77/77/77
f 113/113/113 77/77/77 114/114/114
f 77/77/77 115/115/115 114/114/114
f 111/111/111 116/116/116 105/105/105
f 105/105/105 116/116/116 117/117/117
f 116/116/116 118/118/118 117/117/117
f 117/117/117 118/118/118 48/48/48
f 47/47/47 117/117/117 48/48/48
f 117/117/117 119/119/119 105/105/105
f 119/119/119 120/120/120 105/105/105
f 47/47/47 122/122/122 121/121/121
f 123/123/123 47/47/47 121/121/121
f 46/46/46 125/125/125 124/124/124
f 126/126/126 46/46/46 124/124/124
f 53/53/53 128/128/128 127/127/127
f 129/129/129 53/53/53 127/127/127
f 24/24/24 131/131/131 130/130/130
f 132/132/132 24/24/24 130/130/130
f 135/135/135 134/134/134 133/133/133
f 23/23/23 135/135/135 133/133/133
f 138/138/138 137/137/137 136/136/136
f 45/45/45 138/138/138 136/136/136
