g Rock_B_05_LOD3
v 0.02077666 -0.003880359 0.009276933
v 0.02134889 -0.01788437 0.004278647
v 0.01990275 -0.01583708 0.008264374
v 0.01030687 -0.01867615 0.009070118
v 0.02372888 -0.00479923 0.004377095
v 0.009872738 -0.02377791 0.004500099
v 0.008685667 -0.02160224 0.0003018458
v 0.01925813 -0.0171671 0.0009151493
v -0.006214653 -0.02374338 0.004976213
v 0.0113601 -0.00404916 0.01115919
v -0.00327793 -0.01828073 0.008551626
v -0.002200789 -0.003563395 0.01023682
v 0.009968941 0.009273289 0.01012608
v -0.01549886 -0.01552466 0.007878827
v 0.02095908 0.00680461 0.004214444
v 0.01870498 0.007240206 0.008598781
v 0.02011402 -0.005062016 0.0008195032
v 0.01768122 0.005970986 0.0008744577
v 0.01751707 -0.004945748 0.0004094926
v 0.017883 -0.01623587 0.0005112638
v -0.005622219 -0.02161529 0.0005265336
v 0.008237975 -0.01913082 -3.356009E-05
v 0.007520595 -0.005486591 -0.0002135009
v -0.02037521 -0.01829133 0.005599997
v 0.01538592 0.005863933 0.0004342362
v 0.01348849 0.01679188 0.0009141632
v 0.01249122 0.01593866 0.0005112638
v 0.01554584 0.01796973 0.003880408
v 0.004472075 0.02190877 0.0003614631
v 0.004291906 0.01953324 -1.587061E-05
v 0.005994989 0.007569163 -0.0001816295
v -0.005370271 -0.005270946 -0.0001657453
v -0.004837211 -0.0191351 0.0001070795
v -0.01844767 -0.01754269 0.001634549
v -0.02467941 -0.004683034 0.005398111
v -0.01595761 -0.003123429 0.008465998
v -0.01443552 0.008907519 0.01039387
v -0.002237957 0.009916699 0.01045604
v 0.007020594 0.0209238 0.007958963
v -0.003248515 0.0218684 0.009514261
v 0.01510102 0.01720321 0.007096413
v 0.005770447 0.0242894 0.004046445
v -0.006242369 0.02549038 0.004567022
v -0.00619456 0.02275568 0.0003653841
v -0.01192562 0.0198705 0.0112554
v -0.01621703 0.02114577 0.005260341
v -0.005653443 0.02031374 0.0001026641
v -0.01500058 0.01928541 0.0005068034
v -0.02238635 0.00849423 0.005404503
v -0.005642568 0.008085459 -9.010587E-05
v -0.01375918 0.01818144 0.0005388099
v -0.01965457 0.007371234 0.0007201562
v -0.02158003 -0.004826329 0.0009951581
v -0.01646227 0.00719343 0.0005943401
v -0.01778527 -0.004603037 0.0005305768
v -0.01646053 -0.01653783 0.0009742372
vt 0.2507739 0.7448322
vt 0.2507739 0.7448322
vt 0.250774 0.7448322
vt 0.2507739 0.7448322
vt 0.2507739 0.7448322
vt 0.2507739 0.7448322
vt 0.2507739 0.7448322
vt 0.2507739 0.7448322
vt 0.2507739 0.7448322
vt 0.2507739 0.7448322
vt 0.2507739 0.7448322
vt 0.2507739 0.7448322
vt 0.2507739 0.7448322
vt 0.2507739 0.7448322
vt 0.2507739 0.7448322
vt 0.2507739 0.7448322
vt 0.2507739 0.7448322
vt 0.2507739 0.7448322
vt 0.2507739 0.7448322
vt 0.2507739 0.7448322
vt 0.2507739 0.7448322
vt 0.2507739 0.7448322
vt 0.2507739 0.7448322
vt 0.2507739 0.7448322
vt 0.2507739 0.7448322
vt 0.2507739 0.7448322
vt 0.2507739 0.7448322
vt 0.2507739 0.7448322
vt 0.2507739 0.7448322
vt 0.2507739 0.7448322
vt 0.2507739 0.7448322
vt 0.2507739 0.7448322
vt 0.2507739 0.7448322
vt 0.2507739 0.7448322
vt 0.2507739 0.7448322
vt 0.2507739 0.7448322
vt 0.2507739 0.7448322
vt 0.2507739 0.7448322
vt 0.2507739 0.7448322
vt 0.2507739 0.7448322
vt 0.2507739 0.7448322
vt 0.2507739 0.7448322
vt 0.2507739 0.7448322
vt 0.2507739 0.7448322
vt 0.2507739 0.7448322
vt 0.2507739 0.7448322
vt 0.2507739 0.7448322
vt 0.2507739 0.7448322
vt 0.2507739 0.7448322
vt 0.2507739 0.7448322
vt 0.2507739 0.7448322
vt 0.2507739 0.7448322
vt 0.2507739 0.7448322
vt 0.2507739 0.7448322
vt 0.2507739 0.7448322
vt 0.250774 0.7448322
vn 0.6005804 0.02212617 0.7992582
vn 0.8030914 -0.5958332 -0.005188324
vn 0.5226984 -0.3494117 0.7776233
vn 0.1158803 -0.4402656 0.8903583
vn 0.9929912 0.02804681 -0.1148118
vn 0.2141186 -0.964602 0.1539359
vn 0.1266855 -0.6006498 -0.7894115
vn 0.4711523 -0.3826167 -0.7947453
vn -0.1818026 -0.949115 0.2571543
vn 0.07437555 -0.03158749 0.99673
vn -0.07425261 -0.3531958 0.9325981
vn -0.06192224 -0.06338714 0.9960662
vn 0.12058 0.1301018 0.9841412
vn -0.2045075 -0.2347518 0.950299
vn 0.9377161 0.3044945 -0.1672476
vn 0.60623 0.2530028 0.7539726
vn 0.5039886 0.02160736 -0.8634399
vn 0.4714217 0.1505791 -0.8689578
vn 0.1261667 0.009033703 -0.9919679
vn 0.1272948 -0.06216723 -0.9899148
vn -0.138161 -0.6203663 -0.7720473
vn 0.0374769 -0.08890082 -0.9953352
vn 0.02877924 -0.002502543 -0.9995827
vn -0.7253201 -0.6278111 0.282425
vn 0.1364222 0.0408351 -0.9898088
vn 0.4302039 0.3767947 -0.8203356
vn 0.1468875 0.09350994 -0.9847232
vn 0.742039 0.6536865 -0.1485665
vn 0.1725575 0.5380902 -0.825035
vn 0.05652044 0.09598099 -0.9937772
vn 0.0314649 0.01449644 -0.9993998
vn -0.03570722 -0.009827116 -0.999314
vn -0.05154716 -0.1024229 -0.9934044
vn -0.4723471 -0.4776574 -0.7407642
vn -0.9614249 -0.07373509 0.2650007
vn -0.2534568 -0.05694767 0.965669
vn -0.3048563 0.0421165 0.9514667
vn 0.02392682 0.02728389 0.9993413
vn 0.26591 0.5695717 0.7777402
vn 0.03607405 0.5353426 0.8438643
vn 0.5541672 0.4966996 0.6679732
vn 0.3085766 0.9504501 -0.03775188
vn -0.1352899 0.9907629 0.009247201
vn -0.109656 0.5606099 -0.8207874
vn -0.2651808 0.4097194 0.8728168
vn -0.6998044 0.7034361 0.1243045
vn -0.0257888 0.05591133 -0.9981027
vn -0.4387134 0.4137487 -0.7977107
vn -0.9462033 0.2325834 0.2249537
vn -0.03396761 0.009857628 -0.9993743
vn -0.04385619 0.01684664 -0.9988958
vn -0.5238913 0.1431347 -0.8396727
vn -0.5690581 -0.05563622 -0.820413
vn -0.05542221 0.00418108 -0.9984542
vn -0.09845378 -0.02395729 -0.9948532
vn -0.1266528 -0.1095623 -0.9858779
g Rock_B_05_LOD3_0
f 3/3/3 2/2/2 1/1/1
f 4/4/4 3/3/3 1/1/1
f 2/2/2 3/3/3 4/4/4
f 2/2/2 5/5/5 1/1/1
f 6/6/6 2/2/2 4/4/4
f 2/2/2 6/6/6 7/7/7
f 5/5/5 2/2/2 8/8/8
f 8/8/8 2/2/2 7/7/7
f 6/6/6 4/4/4 9/9/9
f 7/7/7 6/6/6 9/9/9
f 10/10/10 4/4/4 1/1/1
f 4/4/4 11/11/11 9/9/9
f 11/11/11 4/4/4 10/10/10
f 12/12/12 11/11/11 10/10/10
f 13/13/13 10/10/10 1/1/1
f 10/10/10 13/13/13 12/12/12
f 11/11/11 14/14/14 9/9/9
f 14/14/14 11/11/11 12/12/12
f 5/5/5 15/15/15 1/1/1
f 16/16/16 13/13/13 1/1/1
f 15/15/15 16/16/16 1/1/1
f 17/17/17 5/5/5 8/8/8
f 17/17/17 18/18/18 5/5/5
f 18/18/18 15/15/15 5/5/5
f 19/19/19 17/17/17 8/8/8
f 18/18/18 17/17/17 19/19/19
f 20/20/20 8/8/8 7/7/7
f 20/20/20 19/19/19 8/8/8
f 21/21/21 7/7/7 9/9/9
f 22/22/22 20/20/20 7/7/7
f 22/22/22 7/7/7 21/21/21
f 23/23/23 19/19/19 20/20/20
f 22/22/22 23/23/23 20/20/20
f 14/14/14 24/24/24 9/9/9
f 9/9/9 24/24/24 21/21/21
f 25/25/25 18/18/18 19/19/19
f 25/25/25 19/19/19 23/23/23
f 18/18/18 26/26/26 15/15/15
f 25/25/25 27/27/27 18/18/18
f 27/27/27 26/26/26 18/18/18
f 26/26/26 28/28/28 15/15/15
f 15/15/15 28/28/28 16/16/16
f 26/26/26 27/27/27 29/29/29
f 28/28/28 26/26/26 29/29/29
f 30/30/30 27/27/27 25/25/25
f 27/27/27 30/30/30 29/29/29
f 31/31/31 25/25/25 23/23/23
f 31/31/31 30/30/30 25/25/25
f 23/23/23 32/32/32 31/31/31
f 23/23/23 22/22/22 32/32/32
f 22/22/22 33/33/33 32/32/32
f 33/33/33 22/22/22 21/21/21
f 33/33/33 21/21/21 34/34/34
f 24/24/24 34/34/34 21/21/21
f 24/24/24 35/35/35 34/34/34
f 24/24/24 14/14/14 35/35/35
f 14/14/14 36/36/36 35/35/35
f 35/35/35 36/36/36 37/37/37
f 36/36/36 14/14/14 12/12/12
f 37/37/37 36/36/36 12/12/12
f 38/38/38 37/37/37 12/12/12
f 13/13/13 38/38/38 12/12/12
f 13/13/13 39/39/39 38/38/38
f 13/13/13 16/16/16 39/39/39
f 37/37/37 38/38/38 40/40/40
f 39/39/39 40/40/40 38/38/38
f 16/16/16 41/41/41 39/39/39
f 28/28/28 41/41/41 16/16/16
f 28/28/28 42/42/42 41/41/41
f 42/42/42 39/39/39 41/41/41
f 42/42/42 28/28/28 29/29/29
f 40/40/40 39/39/39 43/43/43
f 39/39/39 42/42/42 43/43/43
f 42/42/42 29/29/29 44/44/44
f 43/43/43 42/42/42 44/44/44
f 44/44/44 29/29/29 30/30/30
f 45/45/45 37/37/37 40/40/40
f 40/40/40 43/43/43 45/45/45
f 45/45/45 46/46/46 37/37/37
f 43/43/43 46/46/46 45/45/45
f 47/47/47 44/44/44 30/30/30
f 47/47/47 30/30/30 31/31/31
f 43/43/43 44/44/44 48/48/48
f 46/46/46 43/43/43 48/48/48
f 46/46/46 49/49/49 37/37/37
f 49/49/49 35/35/35 37/37/37
f 50/50/50 47/47/47 31/31/31
f 32/32/32 50/50/50 31/31/31
f 47/47/47 51/51/51 44/44/44
f 51/51/51 48/48/48 44/44/44
f 51/51/51 47/47/47 50/50/50
f 46/46/46 48/48/48 52/52/52
f 49/49/49 46/46/46 52/52/52
f 48/48/48 51/51/51 52/52/52
f 53/53/53 35/35/35 49/49/49
f 52/52/52 53/53/53 49/49/49
f 35/35/35 53/53/53 34/34/34
f 54/54/54 51/51/51 50/50/50
f 51/51/51 54/54/54 52/52/52
f 50/50/50 32/32/32 54/54/54
f 53/53/53 52/52/52 54/54/54
f 32/32/32 55/55/55 54/54/54
f 55/55/55 53/53/53 54/54/54
f 55/55/55 32/32/32 33/33/33
f 56/56/56 33/33/33 34/34/34
f 56/56/56 34/34/34 53/53/53
f 56/56/56 55/55/55 33/33/33
f 55/55/55 56/56/56 53/53/53
