g Rock_A_05_LOD2
v -0.006309094 0.01076747 0.02482943
v -0.007126151 0.01165034 0.01474037
v 0.0006612497 0.01376899 0.01554275
v 0.0002158111 0.01186956 0.02732715
v -0.009726075 0.00637922 0.02782481
v 0.005899851 0.01235166 0.01597237
v -0.007258882 0.0115488 0.008479718
v 0.0005505478 0.01405113 0.00863495
v -0.01247409 0.005380288 0.008379689
v -0.01248146 0.005706966 0.01573617
v -0.006391309 0.009898672 0.0007951939
v -0.009329082 0.00476498 -0.0004504955
v -0.01390234 0.0005808062 0.008449341
v 0.0001175399 0.01210187 -0.0001135796
v -0.002287111 0.006678333 0.03286124
v 0.005385978 0.0112882 0.02754024
v -0.01069416 0.002707961 0.02779608
v -0.01391566 0.000942246 0.01580604
v -0.004062527 0.002254001 0.03088296
v -0.01037438 -0.003736904 0.02451256
v -0.006154918 -0.00479528 0.02371745
v 0.002212572 0.001104007 0.03033192
v -0.01235852 -0.007771599 0.01509781
v -0.005895026 -0.01124811 0.01522891
v 0.004411273 0.005565597 0.0326544
v -0.001358446 -0.005504142 0.02346112
v -0.01230773 -0.008158184 0.009157437
v -0.005256177 -0.012164 0.009307497
v -0.01032442 0.001058183 -0.0003245729
v -0.0100818 -0.005453966 0.001837056
v -0.0014899 0.00463301 -0.001526176
v -0.00241291 0.0002590462 -0.001187227
v -0.00372852 -0.007376614 0.001510847
v 0.003987018 -0.0005171073 -0.001093201
v 0.004897284 0.003939062 -0.001338721
v 0.001680569 -0.007726617 0.001561616
v 0.0007071589 -0.01191155 0.009342706
v 0.005510103 0.0114768 0.0004789047
v -0.0001550713 -0.01112748 0.01522631
v 0.007057204 -0.006260571 0.02425706
v 0.006081854 0.01280236 0.009218309
v 0.01146995 0.008660077 0.009751031
v 0.0109142 0.008873322 0.001760746
v 0.01435935 0.002216907 0.008834044
v 0.01088985 0.008071747 0.0160583
v 0.01173774 0.002612469 -0.0003443521
v 0.010843 -0.001525102 -0.0003158334
v 0.007511405 -0.007300156 0.001818694
v 0.007375311 -0.009530384 0.00923093
v 0.01273593 -0.002442346 0.008703387
v 0.01296672 -0.002268463 0.01637873
v 0.007492268 -0.009271807 0.01524985
v 0.01427901 0.002335592 0.01661984
v 0.01082158 -0.0005268577 0.02833065
v 0.01187268 0.003615909 0.02913552
v 0.01047245 0.009011871 0.02623562
vt 0.4060766 0.7492069
vt 0.4060766 0.7492069
vt 0.4060766 0.7492069
vt 0.4060766 0.7492069
vt 0.4060766 0.7492069
vt 0.4060766 0.7492069
vt 0.4060766 0.7492069
vt 0.4060766 0.7492069
vt 0.4060766 0.7492069
vt 0.4060766 0.7492069
vt 0.4060766 0.749207
vt 0.4060766 0.7492069
vt 0.4060766 0.7492069
vt 0.4060766 0.7492069
vt 0.4060766 0.7492069
vt 0.4060766 0.7492069
vt 0.4060766 0.7492069
vt 0.4060766 0.7492069
vt 0.4060766 0.7492069
vt 0.4060766 0.7492069
vt 0.4060766 0.7492069
vt 0.4060766 0.7492069
vt 0.4060766 0.7492069
vt 0.4060766 0.7492069
vt 0.4060766 0.7492069
vt 0.4060766 0.7492069
vt 0.4060766 0.7492069
vt 0.4060766 0.7492069
vt 0.4060766 0.7492069
vt 0.4060766 0.749207
vt 0.4060766 0.7492069
vt 0.4060766 0.7492069
vt 0.4060766 0.7492069
vt 0.4060766 0.7492069
vt 0.4060766 0.7492069
vt 0.4060766 0.7492069
vt 0.4060766 0.7492069
vt 0.4060766 0.7492069
vt 0.4060766 0.7492069
vt 0.4060766 0.7492069
vt 0.4060766 0.7492069
vt 0.4060766 0.7492069
vt 0.4060767 0.7492069
vt 0.4060766 0.7492069
vt 0.4060766 0.7492069
vt 0.4060766 0.7492069
vt 0.4060766 0.7492069
vt 0.4060766 0.749207
vt 0.4060766 0.7492069
vt 0.4060766 0.7492069
vt 0.4060766 0.7492069
vt 0.4060766 0.7492069
vt 0.4060766 0.7492069
vt 0.4060766 0.7492069
vt 0.4060766 0.7492069
vt 0.4060767 0.7492068
vn -0.4800983 0.8294522 0.2855076
vn -0.5275273 0.8473094 0.06149654
vn -0.02450703 0.9960902 0.08487429
vn -0.07010172 0.8956968 0.4391048
vn -0.7247105 0.4204639 0.5458981
vn 0.4059982 0.9102989 0.08075405
vn -0.5570331 0.8215415 -0.1215878
vn -0.04367278 0.9951962 -0.08762023
vn -0.8769579 0.4514036 -0.1648626
vn -0.8751988 0.4768928 0.08124208
vn -0.466582 0.6472879 -0.60276
vn -0.5833945 0.2969769 -0.7559468
vn -0.9815843 0.03863712 -0.1870818
vn -0.0543238 0.7240325 -0.6876233
vn -0.2133576 0.2624931 0.9410504
vn 0.3398612 0.8249936 0.4515308
vn -0.7537104 -0.1477145 0.6403913
vn -0.9910458 0.04059036 0.1272035
vn -0.2450421 -0.4258099 0.8709996
vn -0.6228015 -0.5373483 0.5686608
vn -0.1769501 -0.7411885 0.6475557
vn 0.01864728 -0.5520022 0.8336341
vn -0.7647603 -0.6004426 0.2336886
vn -0.2151306 -0.918875 0.3307377
vn 0.221053 0.1249469 0.9672249
vn -0.02627688 -0.7771364 0.6287834
vn -0.7728418 -0.6003463 -0.20567
vn -0.2120794 -0.958096 -0.192547
vn -0.6258521 -0.05768082 -0.777806
vn -0.5714079 -0.4710307 -0.6720291
vn -0.05096707 0.09604392 -0.9940714
vn -0.06851553 -0.1858618 -0.9801841
vn -0.1371838 -0.634708 -0.7604777
vn 0.04437426 -0.2084431 -0.9770273
vn 0.1246994 0.09033537 -0.9880736
vn 0.06610519 -0.6764947 -0.7334747
vn 0.1349559 -0.9774384 -0.1624842
vn 0.3085804 0.700631 -0.6433463
vn 0.08011266 -0.9423996 0.3247539
vn 0.3209692 -0.7878196 0.5256606
vn 0.4065134 0.9130986 -0.03158719
vn 0.7842774 0.6200851 -0.02008151
vn 0.6750853 0.5538935 -0.4873005
vn 0.9943036 0.04446594 -0.09686677
vn 0.770969 0.6334201 0.06622605
vn 0.6929966 0.05649081 -0.7187242
vn 0.5891777 -0.3618384 -0.722456
vn 0.4278427 -0.6848413 -0.5898669
vn 0.5378001 -0.8337398 -0.1250961
vn 0.886129 -0.4485427 -0.1165534
vn 0.8760485 -0.4684975 0.1142327
vn 0.4957811 -0.8433619 0.207224
vn 0.9934329 0.06579956 0.09360261
vn 0.5631127 -0.544618 0.6215267
vn 0.765399 0.04547408 0.6419476
vn 0.6973068 0.6474991 0.3074217
g Rock_A_05_LOD2_0
f 3/3/3 2/2/2 1/1/1
f 4/4/4 3/3/3 1/1/1
f 5/5/5 1/1/1 2/2/2
f 4/4/4 1/1/1 5/5/5
f 6/6/6 3/3/3 4/4/4
f 7/7/7 2/2/2 3/3/3
f 3/3/3 6/6/6 8/8/8
f 8/8/8 7/7/7 3/3/3
f 2/2/2 7/7/7 9/9/9
f 10/10/10 5/5/5 2/2/2
f 10/10/10 2/2/2 9/9/9
f 7/7/7 8/8/8 11/11/11
f 7/7/7 11/11/11 9/9/9
f 11/11/11 12/12/12 9/9/9
f 10/10/10 9/9/9 13/13/13
f 13/13/13 9/9/9 12/12/12
f 8/8/8 14/14/14 11/11/11
f 12/12/12 11/11/11 14/14/14
f 15/15/15 4/4/4 5/5/5
f 16/16/16 6/6/6 4/4/4
f 4/4/4 15/15/15 16/16/16
f 5/5/5 10/10/10 17/17/17
f 18/18/18 10/10/10 13/13/13
f 10/10/10 18/18/18 17/17/17
f 15/15/15 5/5/5 19/19/19
f 5/5/5 17/17/17 19/19/19
f 20/20/20 17/17/17 18/18/18
f 21/21/21 19/19/19 17/17/17
f 20/20/20 21/21/21 17/17/17
f 15/15/15 19/19/19 22/22/22
f 19/19/19 21/21/21 22/22/22
f 23/23/23 20/20/20 18/18/18
f 18/18/18 13/13/13 23/23/23
f 24/24/24 21/21/21 20/20/20
f 23/23/23 24/24/24 20/20/20
f 15/15/15 25/25/25 16/16/16
f 25/25/25 15/15/15 22/22/22
f 21/21/21 26/26/26 22/22/22
f 26/26/26 21/21/21 24/24/24
f 13/13/13 27/27/27 23/23/23
f 24/24/24 23/23/23 28/28/28
f 23/23/23 27/27/27 28/28/28
f 13/13/13 29/29/29 27/27/27
f 29/29/29 13/13/13 12/12/12
f 28/28/28 27/27/27 30/30/30
f 29/29/29 30/30/30 27/27/27
f 29/29/29 12/12/12 31/31/31
f 31/31/31 12/12/12 14/14/14
f 30/30/30 29/29/29 32/32/32
f 32/32/32 29/29/29 31/31/31
f 33/33/33 30/30/30 32/32/32
f 33/33/33 28/28/28 30/30/30
f 34/34/34 32/32/32 31/31/31
f 32/32/32 34/34/34 33/33/33
f 31/31/31 14/14/14 35/35/35
f 35/35/35 34/34/34 31/31/31
f 33/33/33 36/36/36 28/28/28
f 34/34/34 36/36/36 33/33/33
f 24/24/24 28/28/28 37/37/37
f 36/36/36 37/37/37 28/28/28
f 14/14/14 38/38/38 35/35/35
f 38/38/38 14/14/14 8/8/8
f 39/39/39 24/24/24 37/37/37
f 39/39/39 26/26/26 24/24/24
f 40/40/40 26/26/26 39/39/39
f 26/26/26 40/40/40 22/22/22
f 41/41/41 38/38/38 8/8/8
f 6/6/6 41/41/41 8/8/8
f 38/38/38 41/41/41 42/42/42
f 41/41/41 6/6/6 42/42/42
f 35/35/35 38/38/38 43/43/43
f 43/43/43 38/38/38 42/42/42
f 42/42/42 44/44/44 43/43/43
f 6/6/6 45/45/45 42/42/42
f 42/42/42 45/45/45 44/44/44
f 45/45/45 6/6/6 16/16/16
f 46/46/46 35/35/35 43/43/43
f 44/44/44 46/46/46 43/43/43
f 35/35/35 46/46/46 34/34/34
f 46/46/46 47/47/47 34/34/34
f 47/47/47 46/46/46 44/44/44
f 36/36/36 34/34/34 47/47/47
f 48/48/48 36/36/36 47/47/47
f 37/37/37 36/36/36 48/48/48
f 48/48/48 47/47/47 49/49/49
f 49/49/49 37/37/37 48/48/48
f 50/50/50 47/47/47 44/44/44
f 47/47/47 50/50/50 49/49/49
f 51/51/51 50/50/50 44/44/44
f 50/50/50 51/51/51 49/49/49
f 37/37/37 49/49/49 52/52/52
f 51/51/51 52/52/52 49/49/49
f 39/39/39 37/37/37 52/52/52
f 52/52/52 40/40/40 39/39/39
f 40/40/40 52/52/52 51/51/51
f 45/45/45 53/53/53 44/44/44
f 53/53/53 51/51/51 44/44/44
f 54/54/54 40/40/40 51/51/51
f 40/40/40 54/54/54 22/22/22
f 22/22/22 54/54/54 25/25/25
f 54/54/54 51/51/51 55/55/55
f 54/54/54 55/55/55 25/25/25
f 51/51/51 53/53/53 55/55/55
f 16/16/16 25/25/25 55/55/55
f 56/56/56 45/45/45 16/16/16
f 45/45/45 56/56/56 53/53/53
f 56/56/56 55/55/55 53/53/53
f 56/56/56 16/16/16 55/55/55
