g Rock_C_05_LOD2
v -0.005866966 -0.02062714 0.007161766
v 0.003585366 -0.02172354 -1.913905E-06
v -0.004650946 -0.01999075 -0.0002448034
v 0.002918757 -0.02359607 0.00730818
v -0.005641373 -0.02151107 0.01480748
v -0.01493413 -0.01657235 0.006875579
v -0.01456622 -0.01779133 0.01410875
v 0.002600936 -0.02352684 0.01457146
v 0.01018542 -0.02017419 0.01344722
v 0.01190609 -0.02174548 0.007358818
v 0.02003167 -0.01447711 0.006850508
v 0.01907167 -0.01400504 0.01330702
v 0.01190609 -0.02174548 0.007358818
v 0.01222039 -0.02107564 0.00142493
v 0.01748941 -0.01318558 0.0004346037
v 0.003585366 -0.02172354 -1.913905E-06
v 0.002918757 -0.02359607 0.00730818
v 0.005409107 -0.02213329 0.02322609
v 0.002600936 -0.02352684 0.01457146
v -0.005641373 -0.02151107 0.01480748
v -0.002586321 -0.02068243 0.02335735
v 0.01257536 -0.02029194 0.02098107
v -0.01456622 -0.01779133 0.01410875
v -0.0104719 -0.0173488 0.02217092
v 0.01907167 -0.01400504 0.01330702
v -0.01768543 -0.01121258 0.01969517
v 0.01745831 -0.0138148 0.02189269
v 0.01953172 -0.006920935 0.0214861
v 0.02298532 -0.006654376 0.01295933
v 0.02003167 -0.01447711 0.006850508
v 0.02359745 -0.005868965 0.006308424
v 0.01748941 -0.01318558 0.0004346037
v 0.02020273 -0.004431803 -0.0001406348
v 0.02364049 0.002157839 0.01237022
v 0.02390812 0.003714083 0.005990493
v 0.01985072 0.004630201 -0.0001589262
v 0.02390812 0.003714083 0.005990493
v -0.02368202 -0.01081473 0.0127447
v -0.01493413 -0.01657235 0.006875579
v -0.02623181 0.002502819 0.01281865
v -0.01548074 0.002108781 0.02021322
v -0.02573023 0.01188198 0.01277409
v -0.01319767 0.009434356 0.02015796
v -0.02807228 0.0002012309 0.00691455
v -0.02427754 -0.01011216 0.006911787
v -0.02005503 -0.002182367 0.001108644
v -0.01987137 -0.01134466 0.00146937
v -0.01250253 -0.01678719 6.364822E-05
v -0.005866966 -0.02062714 0.007161766
v -0.02805593 0.01007761 0.006955316
v -0.004650946 -0.01999075 -0.0002448034
v -0.02400733 0.02019442 0.01276449
v -0.01155996 0.01541299 0.02031056
v -0.0258078 0.01964066 0.00683657
v -0.01677351 0.01566015 0.001108601
v -0.01890046 0.006887344 0.001187129
v -0.0130335 0.02383421 0.001469645
v -0.01819451 0.02852422 0.006872731
v -0.003721296 0.02382821 -5.385399E-05
v -0.005595915 0.03083449 0.006059779
v -0.01736076 0.02855841 0.01240274
v -0.009491916 0.02300159 0.01940872
v -0.0002467926 0.02355281 0.021803
v -0.0002467926 0.02355281 0.021803
v -0.001200065 0.01319829 0.02484757
v -0.004767158 0.03089166 0.01315105
v 0.005277071 0.02866328 0.01334713
v 0.007292335 0.02174748 0.0224726
v 0.004405211 0.02853701 0.005857825
v 0.006808016 0.01069135 0.02607942
v 0.007292335 0.02174748 0.0224726
v 0.01303678 0.0237964 0.005940617
v 0.01379399 0.02368408 0.01299809
v 0.0209525 0.01406425 0.01202122
v 0.01379439 0.006555206 0.02480165
v 0.01373247 0.01758496 0.0216147
v 0.01071243 0.0186318 -0.0002836275
v 0.003915746 0.021906 -0.0004504585
v 0.02068701 0.01506102 0.006205784
v 0.01734743 0.01365924 0.0006361551
v 0.02001188 0.0007509037 0.02045175
v 0.01906965 0.01060289 0.01905261
v 0.01953172 -0.006920935 0.0214861
v 0.01251378 -0.003056558 0.02597192
v 0.00480079 0.001076227 0.02663368
v 0.009892978 -0.01241625 0.02596006
v 0.01745831 -0.0138148 0.02189269
v 0.001788519 -0.008810149 0.02612646
v 0.01985072 0.004630201 -0.0001589262
v 0.01028755 0.008418973 -0.001137567
v 0.01071243 0.0186318 -0.0002836275
v 0.02020273 -0.004431803 -0.0001406348
v 0.02001188 0.0007509037 0.02045175
v 0.02298532 -0.006654376 0.01295933
v 0.01953172 -0.006920935 0.0214861
v 0.01379399 0.02368408 0.01299809
v 0.01373247 0.01758496 0.0216147
v 0.007292335 0.02174748 0.0224726
v 0.005277071 0.02866328 0.01334713
v 0.009401349 -0.001842152 -0.001096668
v 0.007023776 -0.0119786 -0.0009723067
v 0.01748941 -0.01318558 0.0004346037
v 0.0005188955 0.0006792322 -0.001040959
v 0.002325856 0.0113693 -0.001157949
v -0.005894572 0.01364211 -0.0006975221
v 0.003585366 -0.02172354 -1.913905E-06
v 0.01222039 -0.02107564 0.00142493
v -0.001819656 -0.009970075 -0.001132903
v -0.01025988 -0.006895761 -0.0007137322
v -0.01987137 -0.01134466 0.00146937
v -0.02005503 -0.002182367 0.001108644
v -0.008126551 0.003408751 -0.0005831528
v -0.001819656 -0.009970075 -0.001132903
v -0.01890046 0.006887344 0.001187129
v -0.01677351 0.01566015 0.001108601
v -0.0130335 0.02383421 0.001469645
v -0.01677351 0.01566015 0.001108601
v -0.005894572 0.01364211 -0.0006975221
v -0.003721296 0.02382821 -5.385399E-05
v 0.003915746 0.021906 -0.0004504585
v -0.003721296 0.02382821 -5.385399E-05
v 0.002325856 0.0113693 -0.001157949
v 0.01071243 0.0186318 -0.0002836275
v -0.01319767 0.009434356 0.02015796
v -0.00637661 -0.003762655 0.02429954
v -0.01548074 0.002108781 0.02021322
v -0.003444871 0.005135247 0.02478931
v -0.01155996 0.01541299 0.02031056
v 0.006808016 0.01069135 0.02607942
v 0.001788519 -0.008810149 0.02612646
v -0.002586321 -0.02068243 0.02335735
v -0.0104719 -0.0173488 0.02217092
v 0.005409107 -0.02213329 0.02322609
v 0.01745831 -0.0138148 0.02189269
v 0.004405211 0.02853701 0.005857825
v -0.005595915 0.03083449 0.006059779
v -0.003721296 0.02382821 -5.385399E-05
v 0.003915746 0.021906 -0.0004504585
v -0.01890046 0.006887344 0.001187129
v -0.02805593 0.01007761 0.006955316
v -0.02807228 0.0002012309 0.00691455
v -0.02005503 -0.002182367 0.001108644
v -0.0104719 -0.0173488 0.02217092
v -0.01768543 -0.01121258 0.01969517
v -0.01548074 0.002108781 0.02021322
v -0.00637661 -0.003762655 0.02429954
vt 0.2420244 0.7535816
vt 0.2420244 0.7535816
vt 0.2420244 0.7535815
vt 0.2420244 0.7535816
vt 0.2420244 0.7535816
vt 0.2420244 0.7535816
vt 0.2420244 0.7535816
vt 0.2420244 0.7535816
vt 0.2420244 0.7535815
vt 0.2420244 0.7535815
vt 0.2420244 0.7535816
vt 0.2420244 0.7535816
vt 0.2420244 0.7535815
vt 0.2420244 0.7535816
vt 0.2420244 0.7535815
vt 0.2420244 0.7535816
vt 0.2420244 0.7535816
vt 0.2420244 0.7535816
vt 0.2420244 0.7535816
vt 0.2420244 0.7535816
vt 0.2420244 0.7535815
vt 0.2420244 0.7535816
vt 0.2420244 0.7535816
vt 0.2420244 0.7535815
vt 0.2420244 0.7535816
vt 0.2420244 0.7535816
vt 0.2420244 0.7535815
vt 0.2420244 0.7535815
vt 0.2420244 0.7535816
vt 0.2420244 0.7535816
vt 0.2420244 0.7535816
vt 0.2420244 0.7535815
vt 0.2420244 0.7535815
vt 0.2420244 0.7535816
vt 0.2420244 0.7535816
vt 0.2420244 0.7535816
vt 0.2420244 0.7535816
vt 0.2420244 0.7535815
vt 0.2420244 0.7535816
vt 0.2420244 0.7535816
vt 0.2420244 0.7535816
vt 0.2420244 0.7535816
vt 0.2420244 0.7535815
vt 0.2420244 0.7535816
vt 0.2420244 0.7535815
vt 0.2420244 0.7535816
vt 0.2420244 0.7535816
vt 0.2420244 0.7535815
vt 0.2420244 0.7535816
vt 0.2420244 0.7535816
vt 0.2420244 0.7535815
vt 0.2420244 0.7535816
vt 0.2420244 0.7535815
vt 0.2420244 0.7535816
vt 0.2420244 0.7535815
vt 0.2420244 0.7535815
vt 0.2420244 0.7535816
vt 0.2420244 0.7535815
vt 0.2420244 0.7535816
vt 0.2420244 0.7535816
vt 0.2420244 0.7535815
vt 0.2420244 0.7535816
vt 0.2420244 0.7535815
vt 0.2420244 0.7535816
vt 0.2420244 0.7535816
vt 0.2420244 0.7535816
vt 0.2420244 0.7535816
vt 0.2420244 0.7535815
vt 0.2420244 0.7535816
vt 0.2420244 0.7535816
vt 0.2420244 0.7535815
vt 0.2420244 0.7535816
vt 0.2420244 0.7535816
vt 0.2420244 0.7535815
vt 0.2420244 0.7535816
vt 0.2420244 0.7535816
vt 0.2420244 0.7535815
vt 0.2420244 0.7535815
vt 0.2420244 0.7535815
vt 0.2420244 0.7535816
vt 0.2420244 0.7535815
vt 0.2420244 0.7535816
vt 0.2420244 0.7535815
vt 0.2420244 0.7535816
vt 0.2420244 0.7535816
vt 0.2420244 0.7535816
vt 0.2420244 0.7535816
vt 0.2420244 0.7535816
vt 0.2420244 0.7535816
vt 0.2420244 0.7535816
vt 0.2420244 0.7535816
vt 0.2420244 0.7535815
vt 0.2420244 0.7535816
vt 0.2420244 0.7535816
vt 0.2420244 0.7535815
vt 0.2420244 0.7535816
vt 0.2420244 0.7535815
vt 0.2420244 0.7535815
vt 0.2420244 0.7535816
vt 0.2420244 0.7535816
vt 0.2420244 0.7535816
vt 0.2420244 0.7535815
vt 0.2420244 0.7535816
vt 0.2420244 0.7535816
vt 0.2420244 0.7535816
vt 0.2420244 0.7535816
vt 0.2420244 0.7535816
vt 0.2420244 0.7535816
vt 0.2420244 0.7535816
vt 0.2420244 0.7535816
vt 0.2420244 0.7535815
vt 0.2420244 0.7535816
vt 0.2420244 0.7535816
vt 0.2420244 0.7535815
vt 0.2420244 0.7535816
vt 0.2420244 0.7535816
vt 0.2420244 0.7535816
vt 0.2420244 0.7535816
vt 0.2420244 0.7535815
vt 0.2420244 0.7535815
vt 0.2420244 0.7535815
vt 0.2420244 0.7535816
vt 0.2420244 0.7535816
vt 0.2420244 0.7535815
vt 0.2420244 0.7535816
vt 0.2420244 0.7535816
vt 0.2420244 0.7535816
vt 0.2420244 0.7535815
vt 0.2420244 0.7535816
vt 0.2420244 0.7535816
vt 0.2420244 0.7535815
vt 0.2420244 0.7535815
vt 0.2420244 0.7535816
vt 0.2420244 0.7535816
vt 0.2420244 0.7535816
vt 0.2420244 0.7535816
vt 0.2420244 0.7535816
vt 0.2420244 0.7535815
vt 0.2420244 0.7535815
vt 0.2420244 0.7535816
vt 0.2420244 0.7535816
vt 0.2420244 0.7535816
vt 0.2420244 0.7535815
vt 0.2420244 0.7535816
vt 0.2420244 0.7535816
vt 0.2420244 0.7535816
vn -0.3342431 -0.9345196 -0.1222893
vn -0.0001525952 -0.6980926 -0.7160074
vn -0.2265733 -0.6524053 -0.7232094
vn -0.02111911 -0.997695 -0.06448654
vn -0.3303121 -0.9409151 0.07465061
vn -0.5024095 -0.8528937 -0.141976
vn -0.5308873 -0.8362047 0.1375515
vn 0.00769083 -0.9971527 0.0750161
vn 0.4707548 -0.8772978 0.09347954
vn 0.4686516 -0.8833759 0.003540218
vn 0.8170115 -0.570199 -0.08582132
vn 0.796962 -0.5825913 0.1594962
vn 0.4686516 -0.8833759 0.003540218
vn 0.396361 -0.6846514 -0.6116784
vn 0.5435174 -0.3589675 -0.7587696
vn -0.0001525952 -0.6980926 -0.7160074
vn -0.02111911 -0.997695 -0.06448654
vn 0.1190572 -0.7816693 0.6122242
vn 0.00769083 -0.9971527 0.0750161
vn -0.3303121 -0.9409151 0.07465061
vn -0.2567904 -0.6635839 0.7026487
vn 0.5290809 -0.7608439 0.3757525
vn -0.5308873 -0.8362047 0.1375515
vn -0.454436 -0.530857 0.7153171
vn 0.796962 -0.5825913 0.1594962
vn -0.5973547 -0.2844706 0.7498292
vn 0.6999257 -0.4563525 0.5494054
vn 0.7706904 -0.1424311 0.6210874
vn 0.9522337 -0.2212041 0.2105224
vn 0.8170115 -0.570199 -0.08582132
vn 0.9552884 -0.2097295 -0.2084171
vn 0.5435174 -0.3589675 -0.7587696
vn 0.5653965 -0.112005 -0.817179
vn 0.9716059 0.08292039 0.2215992
vn 0.9628605 0.1205521 -0.2415926
vn 0.548673 0.09564697 -0.8305477
vn 0.9628605 0.1205521 -0.2415926
vn -0.7972749 -0.4810079 0.3646699
vn -0.5024095 -0.8528937 -0.141976
vn -0.8210917 -0.02816933 0.5701008
vn -0.4864375 0.04834161 0.872377
vn -0.7806871 0.1268388 0.6119146
vn -0.4443592 0.09729514 0.8905497
vn -0.947493 -0.1074269 -0.301192
vn -0.8288616 -0.4994411 -0.2520857
vn -0.4250785 -0.03161842 -0.9046041
vn -0.5456847 -0.4197927 -0.7252602
vn -0.3740732 -0.592102 -0.7137818
vn -0.3342431 -0.9345196 -0.1222893
vn -0.9387152 0.1136237 -0.3254282
vn -0.2265733 -0.6524053 -0.7232094
vn -0.7404524 0.3704703 0.560787
vn -0.4087079 0.1870803 0.8932855
vn -0.8511432 0.3851187 -0.3567055
vn -0.3319252 0.1427071 -0.9324486
vn -0.3554907 0.05322595 -0.9331631
vn -0.2515394 0.3900051 -0.8857899
vn -0.5056982 0.7760956 -0.3767559
vn -0.03067215 0.416012 -0.9088417
vn -0.009857829 0.9168391 -0.3991353
vn -0.4692946 0.7613944 0.4472597
vn -0.3122131 0.4499164 0.8367187
vn -0.06436419 0.5637132 0.8234589
vn -0.06436419 0.5637132 0.8234589
vn -0.2129605 0.1840286 0.9595735
vn -0.01394733 0.9380416 0.3462416
vn 0.3427928 0.901876 0.2628933
vn 0.2544744 0.5750242 0.7775539
vn 0.312273 0.8624741 -0.3982763
vn 0.08539332 0.183971 0.9792154
vn 0.2544744 0.5750242 0.7775539
vn 0.5815859 0.7340935 -0.3505203
vn 0.6493322 0.728927 0.2168714
vn 0.8880756 0.4112756 0.2053631
vn 0.4391708 0.144142 0.8867649
vn 0.5695492 0.45791 0.6825923
vn 0.3069007 0.3794753 -0.8728175
vn 0.1420366 0.405204 -0.9031254
vn 0.8441319 0.4614816 -0.2729031
vn 0.5235643 0.3148405 -0.7916792
vn 0.790983 0.07809729 0.6068334
vn 0.7927065 0.2764737 0.5433034
vn 0.7706904 -0.1424311 0.6210874
vn 0.3265808 -0.01113933 0.9451037
vn -0.03585931 0.02801604 0.9989641
vn 0.2173595 -0.2109199 0.9530308
vn 0.6999257 -0.4563525 0.5494054
vn -0.1147816 -0.09170935 0.9891484
vn 0.548673 0.09564697 -0.8305477
vn 0.07791439 0.04208538 -0.9960713
vn 0.3069007 0.3794753 -0.8728175
vn 0.5653965 -0.112005 -0.817179
vn 0.790983 0.07809729 0.6068334
vn 0.9522337 -0.2212041 0.2105224
vn 0.7706904 -0.1424311 0.6210874
vn 0.6493322 0.728927 0.2168714
vn 0.5695492 0.45791 0.6825923
vn 0.2544744 0.5750242 0.7775539
vn 0.3427928 0.901876 0.2628933
vn 0.05050949 -0.01959341 -0.9985313
vn 0.06476199 -0.08798718 -0.9940142
vn 0.5435174 -0.3589675 -0.7587696
vn -0.02407938 0.002655141 -0.9997064
vn -0.01153632 0.03485311 -0.9993259
vn -0.09927817 0.0508751 -0.9937583
vn -0.0001525952 -0.6980926 -0.7160074
vn 0.396361 -0.6846514 -0.6116784
vn -0.02636828 -0.03766025 -0.9989427
vn -0.120216 -0.01202466 -0.9926749
vn -0.5456847 -0.4197927 -0.7252602
vn -0.4250785 -0.03161842 -0.9046041
vn -0.1037633 0.02063058 -0.994388
vn -0.02636828 -0.03766025 -0.9989427
vn -0.3554907 0.05322595 -0.9331631
vn -0.3319252 0.1427071 -0.9324486
vn -0.2515394 0.3900051 -0.8857899
vn -0.3319252 0.1427071 -0.9324486
vn -0.09927817 0.0508751 -0.9937583
vn -0.03067215 0.416012 -0.9088417
vn 0.1420366 0.405204 -0.9031254
vn -0.03067215 0.416012 -0.9088417
vn -0.01153632 0.03485311 -0.9993259
vn 0.3069007 0.3794753 -0.8728175
vn -0.4443592 0.09729514 0.8905497
vn -0.2999757 0.0009461031 0.9539464
vn -0.4864375 0.04834161 0.872377
vn -0.2816252 0.06869727 0.9570621
vn -0.4087079 0.1870803 0.8932855
vn 0.08539332 0.183971 0.9792154
vn -0.1147816 -0.09170935 0.9891484
vn -0.2567904 -0.6635839 0.7026487
vn -0.454436 -0.530857 0.7153171
vn 0.1190572 -0.7816693 0.6122242
vn 0.6999257 -0.4563525 0.5494054
vn 0.312273 0.8624741 -0.3982763
vn -0.009857829 0.9168391 -0.3991353
vn -0.03067215 0.416012 -0.9088417
vn 0.1420366 0.405204 -0.9031254
vn -0.3554907 0.05322595 -0.9331631
vn -0.9387152 0.1136237 -0.3254282
vn -0.947493 -0.1074269 -0.301192
vn -0.4250785 -0.03161842 -0.9046041
vn -0.454436 -0.530857 0.7153171
vn -0.5973547 -0.2844706 0.7498292
vn -0.4864375 0.04834161 0.872377
vn -0.2999757 0.0009461031 0.9539464
g Rock_C_05_LOD2_0
f 3/3/3 2/2/2 1/1/1
f 2/2/2 4/4/4 1/1/1
f 1/1/1 4/4/4 5/5/5
f 6/6/6 1/1/1 5/5/5
f 7/7/7 6/6/6 5/5/5
f 4/4/4 8/8/8 5/5/5
f 8/8/8 4/4/4 9/9/9
f 4/4/4 10/10/10 9/9/9
f 12/12/12 9/9/9 11/11/11
f 9/9/9 13/13/13 11/11/11
f 13/13/13 14/14/14 11/11/11
f 14/14/14 15/15/15 11/11/11
f 16/16/16 14/14/14 13/13/13
f 17/17/17 16/16/16 13/13/13
f 19/19/19 9/9/9 18/18/18
f 19/19/19 18/18/18 20/20/20
f 18/18/18 21/21/21 20/20/20
f 9/9/9 22/22/22 18/18/18
f 23/23/23 20/20/20 21/21/21
f 24/24/24 23/23/23 21/21/21
f 22/22/22 9/9/9 25/25/25
f 24/24/24 26/26/26 23/23/23
f 27/27/27 22/22/22 25/25/25
f 27/27/27 25/25/25 28/28/28
f 25/25/25 29/29/29 28/28/28
f 25/25/25 30/30/30 29/29/29
f 30/30/30 31/31/31 29/29/29
f 30/30/30 32/32/32 31/31/31
f 32/32/32 33/33/33 31/31/31
f 29/29/29 31/31/31 34/34/34
f 35/35/35 31/31/31 33/33/33
f 36/36/36 35/35/35 33/33/33
f 31/31/31 37/37/37 34/34/34
f 26/26/26 38/38/38 23/23/23
f 23/23/23 38/38/38 39/39/39
f 38/38/38 26/26/26 40/40/40
f 26/26/26 41/41/41 40/40/40
f 42/42/42 40/40/40 41/41/41
f 43/43/43 42/42/42 41/41/41
f 40/40/40 44/44/44 38/38/38
f 44/44/44 40/40/40 42/42/42
f 44/44/44 45/45/45 38/38/38
f 38/38/38 45/45/45 39/39/39
f 45/45/45 44/44/44 46/46/46
f 47/47/47 45/45/45 46/46/46
f 45/45/45 47/47/47 39/39/39
f 47/47/47 48/48/48 39/39/39
f 49/49/49 39/39/39 48/48/48
f 50/50/50 44/44/44 42/42/42
f 51/51/51 49/49/49 48/48/48
f 52/52/52 42/42/42 43/43/43
f 53/53/53 52/52/52 43/43/43
f 54/54/54 50/50/50 42/42/42
f 52/52/52 54/54/54 42/42/42
f 50/50/50 54/54/54 55/55/55
f 56/56/56 50/50/50 55/55/55
f 57/57/57 55/55/55 54/54/54
f 58/58/58 57/57/57 54/54/54
f 59/59/59 57/57/57 58/58/58
f 60/60/60 59/59/59 58/58/58
f 58/58/58 54/54/54 61/61/61
f 54/54/54 52/52/52 61/61/61
f 60/60/60 58/58/58 61/61/61
f 53/53/53 62/62/62 52/52/52
f 62/62/62 61/61/61 52/52/52
f 63/63/63 62/62/62 53/53/53
f 61/61/61 62/62/62 64/64/64
f 65/65/65 63/63/63 53/53/53
f 66/66/66 60/60/60 61/61/61
f 66/66/66 61/61/61 64/64/64
f 60/60/60 66/66/66 67/67/67
f 66/66/66 64/64/64 67/67/67
f 64/64/64 68/68/68 67/67/67
f 69/69/69 60/60/60 67/67/67
f 63/63/63 65/65/65 70/70/70
f 71/71/71 63/63/63 70/70/70
f 72/72/72 69/69/69 67/67/67
f 73/73/73 72/72/72 67/67/67
f 72/72/72 73/73/73 74/74/74
f 70/70/70 75/75/75 71/71/71
f 75/75/75 76/76/76 71/71/71
f 72/72/72 77/77/77 69/69/69
f 77/77/77 78/78/78 69/69/69
f 72/72/72 79/79/79 77/77/77
f 79/79/79 72/72/72 74/74/74
f 79/79/79 80/80/80 77/77/77
f 75/75/75 81/81/81 76/76/76
f 81/81/81 82/82/82 76/76/76
f 83/83/83 81/81/81 75/75/75
f 84/84/84 75/75/75 70/70/70
f 84/84/84 83/83/83 75/75/75
f 85/85/85 84/84/84 70/70/70
f 84/84/84 86/86/86 83/83/83
f 84/84/84 85/85/85 86/86/86
f 86/86/86 87/87/87 83/83/83
f 85/85/85 88/88/88 86/86/86
f 79/79/79 74/74/74 37/37/37
f 80/80/80 79/79/79 37/37/37
f 89/89/89 80/80/80 37/37/37
f 74/74/74 34/34/34 37/37/37
f 80/80/80 89/89/89 90/90/90
f 91/91/91 80/80/80 90/90/90
f 89/89/89 92/92/92 90/90/90
f 34/34/34 74/74/74 93/93/93
f 94/94/94 34/34/34 93/93/93
f 95/95/95 94/94/94 93/93/93
f 74/74/74 82/82/82 93/93/93
f 82/82/82 74/74/74 96/96/96
f 97/97/97 82/82/82 96/96/96
f 97/97/97 96/96/96 98/98/98
f 96/96/96 99/99/99 98/98/98
f 92/92/92 100/100/100 90/90/90
f 100/100/100 92/92/92 101/101/101
f 92/92/92 102/102/102 101/101/101
f 100/100/100 103/103/103 90/90/90
f 100/100/100 101/101/101 103/103/103
f 103/103/103 104/104/104 90/90/90
f 105/105/105 104/104/104 103/103/103
f 101/101/101 102/102/102 106/106/106
f 102/102/102 107/107/107 106/106/106
f 101/101/101 106/106/106 51/51/51
f 108/108/108 101/101/101 51/51/51
f 101/101/101 108/108/108 103/103/103
f 108/108/108 51/51/51 48/48/48
f 109/109/109 108/108/108 48/48/48
f 48/48/48 110/110/110 109/109/109
f 110/110/110 111/111/111 109/109/109
f 109/109/109 111/111/111 112/112/112
f 112/112/112 105/105/105 103/103/103
f 109/109/109 112/112/112 113/113/113
f 112/112/112 103/103/103 113/113/113
f 111/111/111 114/114/114 112/112/112
f 105/105/105 112/112/112 114/114/114
f 115/115/115 105/105/105 114/114/114
f 118/118/118 117/117/117 116/116/116
f 119/119/119 118/118/118 116/116/116
f 118/118/118 121/121/121 120/120/120
f 122/122/122 118/118/118 120/120/120
f 120/120/120 123/123/123 122/122/122
f 123/123/123 90/90/90 122/122/122
f 126/126/126 125/125/125 124/124/124
f 125/125/125 127/127/127 124/124/124
f 128/128/128 124/124/124 127/127/127
f 65/65/65 128/128/128 127/127/127
f 129/129/129 65/65/65 127/127/127
f 85/85/85 129/129/129 127/127/127
f 127/127/127 125/125/125 85/85/85
f 125/125/125 130/130/130 85/85/85
f 130/130/130 125/125/125 131/131/131
f 125/125/125 132/132/132 131/131/131
f 130/130/130 131/131/131 133/133/133
f 86/86/86 130/130/130 133/133/133
f 86/86/86 133/133/133 134/134/134
f 133/133/133 22/22/22 134/134/134
f 137/137/137 136/136/136 135/135/135
f 138/138/138 137/137/137 135/135/135
f 141/141/141 140/140/140 139/139/139
f 142/142/142 141/141/141 139/139/139
f 145/145/145 144/144/144 143/143/143
f 146/146/146 145/145/145 143/143/143
