g Rock_B_06_LOD2
v -0.008716772 -0.02207024 0.01315715
v -0.01557512 -0.01892673 0.009477718
v -0.01819434 -0.01002729 0.009510172
v -0.009682687 -0.01125141 0.01397819
v -0.009923073 -0.0006972796 0.01197967
v -0.0003215972 -0.01129007 0.01361998
v -0.01950927 -0.001304924 0.009383621
v -0.02172763 -0.01038709 0.00692864
v -2.774283E-05 -0.02282054 0.0130013
v -0.009126674 -0.02571686 0.009847553
v -0.01557512 -0.01892673 0.009477718
v -0.01715634 -0.02028889 0.007050195
v -0.02234901 -0.01065387 0.002194928
v -0.01752971 -0.02057013 0.002305498
v -0.00959779 0.009471506 0.01114849
v -9.177387E-05 -0.0004066247 0.01154521
v 0.0005430981 0.009912909 0.01074869
v 0.008768752 -0.000417451 0.009132932
v 0.008296145 -0.0102067 0.009878203
v 0.0158521 -0.0009364298 0.006516542
v 0.009540419 0.008846816 0.009112556
v 0.008504111 -0.02104079 0.009602172
v 0.0005574193 -0.02725075 0.01015776
v 0.0157595 -0.00842448 0.006395102
v 0.01563856 -0.0168594 0.006319176
v 0.01860644 -0.008605167 0.005276924
v 0.0009854463 -0.02849512 0.001628043
v 0.01023447 -0.02505906 0.007911974
v -0.009102213 -0.02654063 0.00209067
v 0.0178106 -0.01819811 0.005265037
v 0.01563856 -0.0168594 0.006319176
v -0.00810126 -0.02205181 -0.0002359056
v 0.01117795 -0.02643065 0.00156961
v 0.01863087 -0.01887243 0.001864341
v 0.01909202 -0.008789329 0.001804523
v 0.0004879969 -0.02305828 -0.0006986284
v -0.001284901 -0.01198283 -0.0004527759
v 0.01579627 -0.01783101 0.0004390154
v 0.009040306 -0.02186269 -0.0003839576
v 0.007015912 -0.01113886 -0.0002928257
v 0.01470712 -0.008920837 0.0003705168
v -0.01535094 -0.01902187 0.0005130545
v -0.009734615 -0.01160121 -0.0002164602
v -0.01780508 -0.01030526 0.0003848004
v -0.01896242 -0.001819794 0.000464859
v -0.0106832 -0.001365155 -0.0001048827
v -0.01885691 0.006859076 0.0005844855
v -0.02415455 -0.00211178 0.002328262
v 0.01812783 -0.0006766254 0.00200778
v 0.01358277 -0.0003571953 0.0004628944
v 0.005853381 -0.0005699747 -0.0001897287
v -0.002276202 -0.0009385476 -0.0003017282
v -0.01032431 0.009060921 -7.114887E-05
v 0.006198001 0.01010754 -0.000245173
v -0.001770603 0.01028112 -0.0003304863
v 0.01828753 -0.0010942 0.005393789
v -0.00813547 0.02004011 0.0002250934
v 0.01347926 0.008185863 0.0004273176
v 0.0179447 0.007477732 0.00204731
v 0.01861024 0.006374197 0.005678131
v 0.008877051 0.02105794 -8.800148E-05
v 0.01638704 0.006376524 0.006876469
v 0.01876593 0.01579817 0.006036065
v 0.01706175 0.01435919 0.007125273
v 0.01106698 0.01843448 0.008819304
v 0.01451896 0.01696806 0.0005112638
v 0.01257688 0.02511935 0.001827814
v 0.0008441014 0.02178506 -0.000154171
v 0.01795756 0.01752963 0.002147557
v 0.01306135 0.02255252 0.007398148
v 0.002162673 0.02012542 0.009914713
v -0.007851145 0.01960023 0.01017482
v 0.00327515 0.02469263 0.008205288
v 0.002849736 0.02689158 0.001922292
v -0.008217485 0.02451319 0.002394127
v -0.01901906 0.01771478 0.003019757
v -0.007929497 0.02344177 0.008290028
v -0.01964549 0.007431016 0.009570362
v -0.01708539 0.01654257 0.009404073
v -0.02382095 0.007113428 0.007798393
v -0.01901078 0.01780799 0.007856569
v -0.0164312 0.01620585 0.0009729516
v -0.0241015 0.006768905 0.002525116
v -0.02361108 -0.001775351 0.007372749
v -0.007851145 0.01960023 0.01017482
v -0.01901078 0.01780799 0.007856569
v -0.01708539 0.01654257 0.009404073
v -0.01715634 -0.02028889 0.007050195
v -0.01819434 -0.01002729 0.009510172
v -0.01557512 -0.01892673 0.009477718
v 0.01876593 0.01579817 0.006036065
v 0.01706175 0.01435919 0.007125273
v 0.01106698 0.01843448 0.008819304
v 0.0178106 -0.01819811 0.005265037
v 0.01563856 -0.0168594 0.006319176
v 0.0157595 -0.00842448 0.006395102
vt 0.2507739 0.7448322
vt 0.2507739 0.7448322
vt 0.2507739 0.7448322
vt 0.2507739 0.7448322
vt 0.2507739 0.7448322
vt 0.2507739 0.7448322
vt 0.2507739 0.7448322
vt 0.2507739 0.7448322
vt 0.2507739 0.7448322
vt 0.2507739 0.7448322
vt 0.250774 0.7448322
vt 0.2507739 0.7448322
vt 0.2507739 0.7448322
vt 0.2507739 0.7448322
vt 0.2507739 0.7448322
vt 0.2507739 0.7448321
vt 0.2507739 0.7448322
vt 0.2507739 0.7448322
vt 0.2507739 0.7448322
vt 0.2507739 0.7448322
vt 0.2507739 0.7448322
vt 0.2507739 0.7448322
vt 0.2507739 0.7448322
vt 0.2507739 0.7448322
vt 0.250774 0.7448322
vt 0.2507739 0.7448322
vt 0.2507739 0.7448322
vt 0.2507739 0.7448322
vt 0.2507739 0.7448322
vt 0.2507739 0.7448322
vt 0.2507739 0.7448322
vt 0.2507739 0.7448322
vt 0.2507739 0.7448322
vt 0.2507739 0.7448322
vt 0.2507739 0.7448322
vt 0.2507739 0.7448322
vt 0.2507739 0.7448322
vt 0.2507739 0.7448322
vt 0.2507739 0.7448322
vt 0.2507739 0.7448322
vt 0.2507739 0.7448322
vt 0.2507739 0.7448322
vt 0.2507739 0.7448322
vt 0.2507739 0.7448322
vt 0.2507739 0.7448322
vt 0.2507739 0.7448322
vt 0.2507739 0.7448322
vt 0.2507739 0.7448322
vt 0.2507739 0.7448322
vt 0.2507739 0.7448322
vt 0.2507739 0.7448322
vt 0.2507739 0.7448321
vt 0.2507739 0.7448322
vt 0.2507739 0.7448322
vt 0.2507739 0.7448322
vt 0.2507739 0.7448322
vt 0.2507739 0.7448322
vt 0.2507739 0.7448322
vt 0.2507739 0.7448322
vt 0.2507739 0.7448322
vt 0.2507739 0.7448322
vt 0.2507739 0.7448322
vt 0.2507739 0.7448322
vt 0.2507739 0.7448322
vt 0.2507739 0.7448322
vt 0.250774 0.7448322
vt 0.2507739 0.7448322
vt 0.2507739 0.7448322
vt 0.2507739 0.7448322
vt 0.2507739 0.7448322
vt 0.2507739 0.7448322
vt 0.2507739 0.7448322
vt 0.2507739 0.7448322
vt 0.2507739 0.7448322
vt 0.2507739 0.7448322
vt 0.2507739 0.7448322
vt 0.2507739 0.7448322
vt 0.2507739 0.7448322
vt 0.250774 0.7448322
vt 0.2507739 0.7448322
vt 0.2507739 0.7448322
vt 0.2507739 0.7448322
vt 0.2507739 0.7448322
vt 0.2507739 0.7448322
vt 0.2507739 0.7448322
vt 0.2507739 0.7448322
vt 0.2507739 0.7448322
vt 0.2507739 0.7448322
vt 0.2507739 0.7448322
vt 0.2507739 0.7448322
vt 0.2507739 0.7448322
vt 0.250774 0.7448322
vt 0.2507739 0.7448322
vt 0.2507739 0.7448322
vt 0.250774 0.7448322
vt 0.2507739 0.7448322
vn -0.2717126 -0.3561288 0.8940606
vn -0.5745571 -0.3001882 0.761427
vn -0.5038786 -0.09625883 0.8583943
vn -0.2100635 0.01379467 0.9775904
vn -0.12876 0.09442601 0.98717
vn 0.1940702 0.05102776 0.9796596
vn -0.3784437 -0.0125741 0.9255389
vn -0.8298867 -0.2687244 0.4889532
vn 0.1642526 -0.3003362 0.9395846
vn -0.3716325 -0.8057683 0.4611148
vn -0.5745571 -0.3001882 0.761427
vn -0.731335 -0.5634176 0.3843301
vn -0.8348486 -0.2687812 -0.4804003
vn -0.6946779 -0.5763856 -0.4303512
vn -0.07394817 0.07416181 0.9945008
vn 0.1575094 0.1023613 0.9821981
vn 0.1091662 0.05545289 0.9924756
vn 0.3126344 0.02871817 0.9494393
vn 0.3807924 0.02636889 0.9242845
vn 0.385494 -0.02408002 0.9223961
vn 0.2415858 -0.003936908 0.9703715
vn 0.4026977 -0.1532357 0.9024153
vn 0.09210613 -0.8227598 0.5608768
vn 0.3965308 -0.00537131 0.9180056
vn 0.423214 -0.05557603 0.9043236
vn 0.8068265 -0.002380469 0.5907836
vn 0.01748744 -0.8892043 -0.457176
vn 0.471638 -0.6522179 0.5934387
vn -0.3489617 -0.8284559 -0.4380486
vn 0.7664323 -0.2966786 0.5697046
vn 0.423214 -0.05557603 0.9043236
vn -0.1419451 -0.2373789 -0.9609906
vn 0.4471436 -0.7921988 -0.4153115
vn 0.8352854 -0.3741068 -0.4029171
vn 0.8592648 0.02371333 -0.510981
vn -0.01315373 -0.2119551 -0.9771909
vn -0.007233055 0.01205509 -0.9999012
vn 0.2617954 -0.09552569 -0.9603842
vn 0.1297356 -0.181465 -0.9748021
vn 0.05417197 0.01730451 -0.9983817
vn 0.2168071 0.02569701 -0.9758762
vn -0.269666 -0.211924 -0.9393446
vn -0.05932817 -0.00329601 -0.9982331
vn -0.2456803 -0.06653206 -0.967065
vn -0.2180264 -0.00488301 -0.9759306
vn -0.05050907 0.005890182 -0.9987062
vn -0.2486704 0.07449736 -0.965719
vn -0.8557468 -0.0846286 -0.5104268
vn 0.7959756 0.04086543 -0.6039477
vn 0.2021259 0.01794504 -0.9791951
vn 0.04770069 0.005645955 -0.9988457
vn -0.00704994 0.005096709 -0.9999622
vn -0.06399791 0.02649031 -0.9975984
vn 0.04873815 -0.00021363 -0.9988116
vn -0.01336713 0.01107824 -0.9998493
vn 0.8462582 0.002258398 0.5327682
vn -0.1567763 0.2600832 -0.9527737
vn 0.2209879 -0.004852518 -0.9752645
vn 0.7716135 -0.004150592 -0.6360783
vn 0.8971323 -0.03952192 0.4399904
vn 0.113133 0.1875682 -0.9757146
vn 0.3923251 -0.04980744 0.9184772
vn 0.872698 0.2057913 0.4427733
vn 0.4002007 0.01788436 0.916253
vn 0.2404284 0.1297361 0.9619577
vn 0.2642657 0.07870902 -0.9612327
vn 0.4649324 0.7938093 -0.3920521
vn -0.03674554 0.2325285 -0.9718952
vn 0.8059552 0.3208805 -0.4974655
vn 0.4791279 0.6015117 0.6392339
vn 0.07733606 0.2142154 0.9737202
vn -0.0966249 0.280261 0.9550484
vn 0.06009215 0.7298954 0.6809123
vn 0.005340803 0.9208766 -0.3898176
vn -0.322588 0.8545378 -0.4070652
vn -0.6733513 0.5962285 -0.437161
vn -0.2524888 0.7720241 0.5832908
vn -0.324019 0.06912527 0.9435218
vn -0.2794657 0.2541957 0.925896
vn -0.8359523 0.1612941 0.5245646
vn -0.6473801 0.5827093 0.4912727
vn -0.2735449 0.2375626 -0.9320607
vn -0.8459318 0.1774693 -0.5028958
vn -0.8302969 -0.1031538 0.5476919
vn -0.0966249 0.280261 0.9550484
vn -0.6473801 0.5827093 0.4912727
vn -0.2794657 0.2541957 0.925896
vn -0.731335 -0.5634176 0.3843301
vn -0.5038786 -0.09625883 0.8583943
vn -0.5745571 -0.3001882 0.761427
vn 0.872698 0.2057913 0.4427733
vn 0.4002007 0.01788436 0.916253
vn 0.2404284 0.1297361 0.9619577
vn 0.7664323 -0.2966786 0.5697046
vn 0.423214 -0.05557603 0.9043236
vn 0.3965308 -0.00537131 0.9180056
g Rock_B_06_LOD2_0
f 3/3/3 2/2/2 1/1/1
f 4/4/4 3/3/3 1/1/1
f 3/3/3 4/4/4 5/5/5
f 6/6/6 4/4/4 1/1/1
f 4/4/4 6/6/6 5/5/5
f 7/7/7 3/3/3 5/5/5
f 3/3/3 7/7/7 8/8/8
f 9/9/9 6/6/6 1/1/1
f 1/1/1 10/10/10 9/9/9
f 10/10/10 1/1/1 11/11/11
f 12/12/12 10/10/10 11/11/11
f 12/12/12 8/8/8 13/13/13
f 12/12/12 14/14/14 10/10/10
f 14/14/14 12/12/12 13/13/13
f 5/5/5 15/15/15 7/7/7
f 6/6/6 16/16/16 5/5/5
f 15/15/15 5/5/5 17/17/17
f 5/5/5 16/16/16 17/17/17
f 16/16/16 6/6/6 18/18/18
f 6/6/6 9/9/9 19/19/19
f 6/6/6 19/19/19 18/18/18
f 20/20/20 18/18/18 19/19/19
f 16/16/16 18/18/18 21/21/21
f 17/17/17 16/16/16 21/21/21
f 18/18/18 20/20/20 21/21/21
f 9/9/9 22/22/22 19/19/19
f 10/10/10 23/23/23 9/9/9
f 9/9/9 23/23/23 22/22/22
f 24/24/24 20/20/20 19/19/19
f 19/19/19 22/22/22 24/24/24
f 22/22/22 25/25/25 24/24/24
f 24/24/24 26/26/26 20/20/20
f 23/23/23 10/10/10 27/27/27
f 23/23/23 28/28/28 22/22/22
f 28/28/28 23/23/23 27/27/27
f 10/10/10 29/29/29 27/27/27
f 14/14/14 29/29/29 10/10/10
f 28/28/28 30/30/30 22/22/22
f 30/30/30 31/31/31 22/22/22
f 29/29/29 32/32/32 27/27/27
f 29/29/29 14/14/14 32/32/32
f 33/33/33 28/28/28 27/27/27
f 34/34/34 30/30/30 28/28/28
f 33/33/33 34/34/34 28/28/28
f 30/30/30 34/34/34 35/35/35
f 26/26/26 30/30/30 35/35/35
f 32/32/32 36/36/36 27/27/27
f 33/33/33 27/27/27 36/36/36
f 37/37/37 36/36/36 32/32/32
f 34/34/34 33/33/33 38/38/38
f 34/34/34 38/38/38 35/35/35
f 39/39/39 33/33/33 36/36/36
f 39/39/39 36/36/36 37/37/37
f 33/33/33 39/39/39 38/38/38
f 39/39/39 40/40/40 38/38/38
f 40/40/40 39/39/39 37/37/37
f 38/38/38 41/41/41 35/35/35
f 40/40/40 41/41/41 38/38/38
f 14/14/14 42/42/42 32/32/32
f 32/32/32 42/42/42 43/43/43
f 43/43/43 37/37/37 32/32/32
f 44/44/44 42/42/42 14/14/14
f 42/42/42 44/44/44 43/43/43
f 13/13/13 44/44/44 14/14/14
f 43/43/43 44/44/44 45/45/45
f 45/45/45 44/44/44 13/13/13
f 43/43/43 46/46/46 37/37/37
f 46/46/46 43/43/43 45/45/45
f 45/45/45 47/47/47 46/46/46
f 48/48/48 45/45/45 13/13/13
f 47/47/47 45/45/45 48/48/48
f 48/48/48 13/13/13 8/8/8
f 49/49/49 35/35/35 41/41/41
f 50/50/50 41/41/41 40/40/40
f 50/50/50 49/49/49 41/41/41
f 51/51/51 40/40/40 37/37/37
f 51/51/51 50/50/50 40/40/40
f 46/46/46 52/52/52 37/37/37
f 52/52/52 51/51/51 37/37/37
f 47/47/47 53/53/53 46/46/46
f 46/46/46 53/53/53 52/52/52
f 54/54/54 51/51/51 52/52/52
f 50/50/50 51/51/51 54/54/54
f 53/53/53 55/55/55 52/52/52
f 55/55/55 54/54/54 52/52/52
f 35/35/35 49/49/49 56/56/56
f 26/26/26 35/35/35 56/56/56
f 53/53/53 47/47/47 57/57/57
f 53/53/53 57/57/57 55/55/55
f 58/58/58 50/50/50 54/54/54
f 59/59/59 49/49/49 50/50/50
f 58/58/58 59/59/59 50/50/50
f 60/60/60 56/56/56 49/49/49
f 59/59/59 60/60/60 49/49/49
f 26/26/26 56/56/56 20/20/20
f 20/20/20 56/56/56 60/60/60
f 61/61/61 54/54/54 55/55/55
f 58/58/58 54/54/54 61/61/61
f 62/62/62 20/20/20 60/60/60
f 20/20/20 62/62/62 21/21/21
f 62/62/62 60/60/60 63/63/63
f 60/60/60 59/59/59 63/63/63
f 62/62/62 64/64/64 21/21/21
f 64/64/64 62/62/62 63/63/63
f 64/64/64 65/65/65 21/21/21
f 21/21/21 65/65/65 17/17/17
f 59/59/59 58/58/58 66/66/66
f 66/66/66 58/58/58 61/61/61
f 61/61/61 67/67/67 66/66/66
f 68/68/68 61/61/61 55/55/55
f 61/61/61 68/68/68 67/67/67
f 57/57/57 68/68/68 55/55/55
f 69/69/69 59/59/59 66/66/66
f 59/59/59 69/69/69 63/63/63
f 67/67/67 69/69/69 66/66/66
f 63/63/63 69/69/69 67/67/67
f 70/70/70 63/63/63 67/67/67
f 65/65/65 71/71/71 17/17/17
f 65/65/65 70/70/70 71/71/71
f 71/71/71 72/72/72 17/17/17
f 72/72/72 15/15/15 17/17/17
f 70/70/70 73/73/73 71/71/71
f 71/71/71 73/73/73 72/72/72
f 73/73/73 70/70/70 67/67/67
f 68/68/68 74/74/74 67/67/67
f 74/74/74 73/73/73 67/67/67
f 75/75/75 74/74/74 68/68/68
f 74/74/74 75/75/75 73/73/73
f 57/57/57 75/75/75 68/68/68
f 76/76/76 75/75/75 57/57/57
f 75/75/75 77/77/77 73/73/73
f 73/73/73 77/77/77 72/72/72
f 75/75/75 76/76/76 77/77/77
f 15/15/15 72/72/72 78/78/78
f 72/72/72 79/79/79 78/78/78
f 15/15/15 78/78/78 7/7/7
f 80/80/80 78/78/78 79/79/79
f 78/78/78 80/80/80 7/7/7
f 81/81/81 80/80/80 79/79/79
f 76/76/76 81/81/81 77/77/77
f 81/81/81 76/76/76 80/80/80
f 82/82/82 76/76/76 57/57/57
f 47/47/47 82/82/82 57/57/57
f 76/76/76 82/82/82 47/47/47
f 83/83/83 76/76/76 47/47/47
f 76/76/76 83/83/83 80/80/80
f 83/83/83 47/47/47 48/48/48
f 80/80/80 84/84/84 7/7/7
f 80/80/80 83/83/83 84/84/84
f 83/83/83 48/48/48 84/84/84
f 7/7/7 84/84/84 8/8/8
f 84/84/84 48/48/48 8/8/8
f 77/77/77 86/86/86 85/85/85
f 86/86/86 87/87/87 85/85/85
f 89/89/89 8/8/8 88/88/88
f 90/90/90 89/89/89 88/88/88
f 92/92/92 91/91/91 70/70/70
f 93/93/93 92/92/92 70/70/70
f 95/95/95 94/94/94 26/26/26
f 96/96/96 95/95/95 26/26/26
