g Seaweed
v 0 9.964093 0.1304119
v 0 12.00024 -0.003396082
v 0.06878869 10.99244 0.05035675
v 0.08191755 9.970733 0.1041096
v 0 8.495347 0.1452309
v 0.1091034 8.506936 0.1041095
v 0 6.979544 0.1605258
v 0.1273866 6.993258 0.1041093
v 0 5.960174 0.1708116
v 0.1285912 5.965275 0.1041093
v 0 4.940804 0.1810974
v 0.1297959 4.937292 0.1041092
v 0 3.597055 0.1599725
v 0.1322712 3.596522 0.07634428
v 0 2.253306 0.1388475
v 0.1347466 2.255752 0.04857939
v 0 1.148446 0.1214782
v 0.1367819 1.153341 0.02575025
v 0 0.04358534 0.1041088
v 0.1388172 0.05093012 0.002921108
v 0 9.964093 -0.173176
v 0.06878875 10.99244 -0.09039844
v 0 12.00024 -0.03664594
v 0.08191767 9.970733 -0.1441509
v 0 8.495347 -0.188701
v 0.1091035 8.506936 -0.144151
v 0 6.979544 -0.2047247
v 0.1273867 6.993258 -0.1441512
v 0 5.960174 -0.2155004
v 0.1285914 5.965275 -0.1441512
v 0 4.940804 -0.226276
v 0.129796 4.937292 -0.1441513
v 0 3.597055 -0.2037418
v 0.1322714 3.596522 -0.1163871
v 0 2.253306 -0.1812075
v 0.1347467 2.255752 -0.08862288
v 0 1.148446 -0.1626796
v 0.1367821 1.153341 -0.06579486
v 0 0.04358536 -0.1441517
v 0.1388174 0.05093012 -0.04296684
v 0.1367821 1.153341 -0.06579486
v 0.1388174 0.05093012 -0.04296684
v 0.9801547 0.06276084 -0.04296684
v 0.9847585 1.159428 -0.04296676
v 0.1347467 2.255752 -0.08862288
v 0.9893622 2.256095 -0.04296667
v 0.1322714 3.596522 -0.1163871
v 0.9770359 3.58988 -0.04296657
v 0.129796 4.937292 -0.1441513
v 0.9647096 4.923665 -0.04296647
v 0.1285914 5.965275 -0.1441512
v 0.9399727 5.98701 -0.04296639
v 0.1273867 6.993258 -0.1441512
v 0.9152358 7.050355 -0.04296631
v 0.1091035 8.506936 -0.144151
v 0.9399726 5.98701 0.002921556
v 0.9152356 7.050355 0.002921637
v 0.8211244 8.54651 -0.0429662
v 0.08191767 9.970733 -0.1441509
v 0.7252972 9.988176 -0.04296609
v 0.06878875 10.99244 -0.09039844
v 0.5743855 10.84563 -0.04296602
v 0 12.00024 -0.03664594
v 0.4234738 11.70308 -0.04296596
v 0.5743853 10.84563 0.002921923
v 0.4234737 11.70308 0.002921988
v 0.4234737 11.70308 0.002921988
v 0 12.00024 -0.003396082
v -0.4234737 11.70308 0.002921988
v -0.4234738 11.70308 -0.04296596
v -0.5743853 10.84563 0.002921923
v -0.06878869 10.99244 0.05035675
v -0.725297 9.988176 0.002921859
v -0.08191755 9.970733 0.1041096
v -0.8211243 8.54651 0.00292175
v -0.1091034 8.506936 0.1041095
v -0.7252972 9.988176 -0.04296609
v -0.8211244 8.54651 -0.0429662
v -0.9152356 7.050355 0.002921637
v -0.9152358 7.050355 -0.04296631
v -0.1273866 6.993258 0.1041093
v -0.9399726 5.98701 0.002921556
v -0.1285912 5.965275 0.1041093
v -0.9647096 4.923665 0.002921476
v -0.1297959 4.937292 0.1041092
v -0.9770359 3.58988 0.002921375
v -0.1322712 3.596522 0.07634428
v -0.9647096 4.923665 -0.04296647
v -0.9770359 3.58988 -0.04296657
v -0.9893622 2.256095 0.002921275
v -0.1347466 2.255752 0.04857939
v -0.9893622 2.256095 -0.04296667
v -0.9847584 1.159428 0.002921192
v -0.1367819 1.153341 0.02575025
v -0.9847585 1.159428 -0.04296676
v -0.9801546 0.06276084 0.002921109
v -0.1388172 0.05093012 0.002921108
v -0.9801547 0.06276084 -0.04296684
v -0.1388174 0.05093012 -0.04296684
v -0.9647096 4.923665 0.002921476
v -0.9399727 5.98701 -0.04296639
v -0.9399726 5.98701 0.002921556
v -0.9399726 5.98701 0.002921556
v -0.9152358 7.050355 -0.04296631
v -0.1273867 6.993258 -0.1441512
v -0.1091035 8.506936 -0.144151
v -0.1285914 5.965275 -0.1441512
v -0.8211244 8.54651 -0.0429662
v -0.9647096 4.923665 -0.04296647
v -0.08191767 9.970733 -0.1441509
v -0.129796 4.937292 -0.1441513
v -0.7252972 9.988176 -0.04296609
v -0.9770359 3.58988 -0.04296657
v -0.06878875 10.99244 -0.09039844
v -0.1322714 3.596522 -0.1163871
v -0.9893622 2.256095 -0.04296667
v -0.1347467 2.255752 -0.08862288
v -0.9847585 1.159428 -0.04296676
v -0.1367821 1.153341 -0.06579486
v -0.9801547 0.06276084 -0.04296684
v -0.1388174 0.05093012 -0.04296684
v -0.5743855 10.84563 -0.04296602
v 0 12.00024 -0.03664594
v -0.4234738 11.70308 -0.04296596
v -0.5743853 10.84563 0.002921923
v -0.725297 9.988176 0.002921859
v -0.5743853 10.84563 0.002921923
v 0.1388172 0.05093012 0.002921108
v 0.9801547 0.06276084 -0.04296684
v 0.1388174 0.05093012 -0.04296684
v 0.9801546 0.06276084 0.002921109
v 0.1367819 1.153341 0.02575025
v 0.9847585 1.159428 -0.04296676
v 0.9847584 1.159428 0.002921192
v 0.1347466 2.255752 0.04857939
v 0.9893622 2.256095 -0.04296667
v 0.9893622 2.256095 0.002921275
v 0.1322712 3.596522 0.07634428
v 0.9770359 3.58988 -0.04296657
v 0.9770359 3.58988 0.002921375
v 0.1297959 4.937292 0.1041092
v 0.9647096 4.923665 -0.04296647
v 0.9647096 4.923665 0.002921476
v 0.1285912 5.965275 0.1041093
v 0.9399726 5.98701 0.002921556
v 0.1273866 6.993258 0.1041093
v 0.1091034 8.506936 0.1041095
v 0.8211243 8.54651 0.00292175
v 0.08191755 9.970733 0.1041096
v 0.8211244 8.54651 -0.0429662
v 0.9152358 7.050355 -0.04296631
v 0.7252972 9.988176 -0.04296609
v 0.725297 9.988176 0.002921859
v 0.06878869 10.99244 0.05035675
v 0.5743853 10.84563 0.002921923
v 0 12.00024 -0.003396082
v 0.725297 9.988176 0.002921859
v 0.5743853 10.84563 0.002921923
v 0.9647096 4.923665 0.002921476
v 0.9399726 5.98701 0.002921556
v 0 9.964093 0.1304119
v -0.06878869 10.99244 0.05035675
v 0 12.00024 -0.003396082
v -0.08191755 9.970733 0.1041096
v 0 8.495347 0.1452309
v -0.1091034 8.506936 0.1041095
v 0 6.979544 0.1605258
v -0.1273866 6.993258 0.1041093
v 0 5.960174 0.1708116
v -0.1285912 5.965275 0.1041093
v 0 4.940804 0.1810974
v -0.1297959 4.937292 0.1041092
v 0 3.597055 0.1599725
v -0.1322712 3.596522 0.07634428
v 0 2.253306 0.1388475
v -0.1347466 2.255752 0.04857939
v 0 1.148446 0.1214782
v -0.1367819 1.153341 0.02575025
v 0 0.04358534 0.1041088
v -0.1388172 0.05093012 0.002921108
v 0 9.964093 -0.173176
v 0 12.00024 -0.03664594
v -0.06878875 10.99244 -0.09039844
v -0.08191767 9.970733 -0.1441509
v 0 8.495347 -0.188701
v -0.1091035 8.506936 -0.144151
v 0 6.979544 -0.2047247
v -0.1273867 6.993258 -0.1441512
v 0 5.960174 -0.2155004
v -0.1285914 5.965275 -0.1441512
v 0 4.940804 -0.226276
v -0.129796 4.937292 -0.1441513
v 0 3.597055 -0.2037418
v -0.1322714 3.596522 -0.1163871
v 0 2.253306 -0.1812075
v -0.1347467 2.255752 -0.08862288
v 0 1.148446 -0.1626796
v -0.1367821 1.153341 -0.06579486
v 0 0.04358536 -0.1441517
v -0.1388174 0.05093012 -0.04296684
vt 0.4223633 0.9248047
vt 0.4223633 0.9365234
vt 0.4257813 0.9311523
vt 0.4291992 0.9262695
vt 0.4223633 0.9179688
vt 0.4279785 0.9189453
vt 0.4223633 0.9106445
vt 0.4272461 0.9106445
vt 0.4223633 0.9057617
vt 0.4272461 0.9057617
vt 0.4223633 0.9008789
vt 0.4274902 0.9003906
vt 0.4223633 0.8969727
vt 0.4282227 0.8964844
vt 0.4223633 0.8925781
vt 0.4291992 0.8925781
vt 0.4223633 0.8891602
vt 0.4299316 0.8891602
vt 0.4223633 0.8857422
vt 0.4306641 0.8857422
vt 0.4223633 0.9248047
vt 0.4257813 0.9311523
vt 0.4223633 0.9365234
vt 0.4291992 0.9262695
vt 0.4223633 0.9179688
vt 0.4279785 0.9189453
vt 0.4223633 0.9106445
vt 0.4272461 0.9106445
vt 0.4223633 0.9057617
vt 0.4272461 0.9057617
vt 0.4223633 0.9008789
vt 0.4274902 0.9003906
vt 0.4223633 0.8969727
vt 0.4282227 0.8964844
vt 0.4223633 0.8925781
vt 0.4291992 0.8925781
vt 0.4223633 0.8891602
vt 0.4299316 0.8891602
vt 0.4223633 0.8857422
vt 0.4306641 0.8857422
vt 0.08398438 0.8891602
vt 0.0847168 0.8857422
vt 0.1016846 0.8857422
vt 0.1016846 0.8886719
vt 0.08331299 0.8925781
vt 0.1016846 0.8916016
vt 0.0824585 0.8964844
vt 0.1016846 0.8950195
vt 0.081604 0.9003906
vt 0.1016846 0.8984375
vt 0.08148193 0.9057617
vt 0.1016846 0.9047852
vt 0.08129883 0.9106445
vt 0.1016846 0.9111328
vt 0.08215332 0.9189453
vt 0.1016846 0.9047852
vt 0.1016846 0.9111328
vt 0.1016846 0.9238281
vt 0.08337402 0.9262695
vt 0.1016846 0.9301758
vt 0.07989502 0.9311523
vt 0.1016846 0.9331055
vt 0.07641602 0.9365234
vt 0.1016846 0.9365234
vt 0.1016846 0.9331055
vt 0.1016846 0.9365234
vt 0.1016846 0.9365234
vt 0.07641602 0.9365234
vt 0.1016846 0.9365234
vt 0.1016846 0.9365234
vt 0.1016846 0.9331055
vt 0.07989502 0.9311523
vt 0.1016846 0.9301758
vt 0.08337402 0.9262695
vt 0.1016846 0.9238281
vt 0.08215332 0.9189453
vt 0.1016846 0.9301758
vt 0.1016846 0.9238281
vt 0.1016846 0.9111328
vt 0.1016846 0.9111328
vt 0.08129883 0.9106445
vt 0.1016846 0.9047852
vt 0.08148193 0.9057617
vt 0.1016846 0.8984375
vt 0.081604 0.9003906
vt 0.1016846 0.8950195
vt 0.0824585 0.8964844
vt 0.1016846 0.8984375
vt 0.1016846 0.8950195
vt 0.1016846 0.8916016
vt 0.08331299 0.8925781
vt 0.1016846 0.8916016
vt 0.1016846 0.8886719
vt 0.08398438 0.8891602
vt 0.1016846 0.8886719
vt 0.1016846 0.8857422
vt 0.0847168 0.8857422
vt 0.1016846 0.8857422
vt 0.0847168 0.8857422
vt 0.1016846 0.8984375
vt 0.1016846 0.9047852
vt 0.1016846 0.9047852
vt 0.1016846 0.9047852
vt 0.1016846 0.9111328
vt 0.08129883 0.9106445
vt 0.08215332 0.9189453
vt 0.08148193 0.9057617
vt 0.1016846 0.9238281
vt 0.1016846 0.8984375
vt 0.08337402 0.9262695
vt 0.081604 0.9003906
vt 0.1016846 0.9301758
vt 0.1016846 0.8950195
vt 0.07989502 0.9311523
vt 0.0824585 0.8964844
vt 0.1016846 0.8916016
vt 0.08331299 0.8925781
vt 0.1016846 0.8886719
vt 0.08398438 0.8891602
vt 0.1016846 0.8857422
vt 0.0847168 0.8857422
vt 0.1016846 0.9331055
vt 0.07641602 0.9365234
vt 0.1016846 0.9365234
vt 0.1016846 0.9331055
vt 0.1016846 0.9301758
vt 0.1016846 0.9331055
vt 0.0847168 0.8857422
vt 0.1016846 0.8857422
vt 0.0847168 0.8857422
vt 0.1016846 0.8857422
vt 0.08398438 0.8891602
vt 0.1016846 0.8886719
vt 0.1016846 0.8886719
vt 0.08331299 0.8925781
vt 0.1016846 0.8916016
vt 0.1016846 0.8916016
vt 0.0824585 0.8964844
vt 0.1016846 0.8950195
vt 0.1016846 0.8950195
vt 0.081604 0.9003906
vt 0.1016846 0.8984375
vt 0.1016846 0.8984375
vt 0.08148193 0.9057617
vt 0.1016846 0.9047852
vt 0.08129883 0.9106445
vt 0.08215332 0.9189453
vt 0.1016846 0.9238281
vt 0.08337402 0.9262695
vt 0.1016846 0.9238281
vt 0.1016846 0.9111328
vt 0.1016846 0.9301758
vt 0.1016846 0.9301758
vt 0.07989502 0.9311523
vt 0.1016846 0.9331055
vt 0.07641602 0.9365234
vt 0.1016846 0.9301758
vt 0.1016846 0.9331055
vt 0.1016846 0.8984375
vt 0.1016846 0.9047852
vt 0.4223633 0.9248047
vt 0.4257813 0.9311523
vt 0.4223633 0.9365234
vt 0.4291992 0.9262695
vt 0.4223633 0.9179688
vt 0.4279785 0.9189453
vt 0.4223633 0.9106445
vt 0.4272461 0.9106445
vt 0.4223633 0.9057617
vt 0.4272461 0.9057617
vt 0.4223633 0.9008789
vt 0.4274902 0.9003906
vt 0.4223633 0.8969727
vt 0.4282227 0.8964844
vt 0.4223633 0.8925781
vt 0.4291992 0.8925781
vt 0.4223633 0.8891602
vt 0.4299316 0.8891602
vt 0.4223633 0.8857422
vt 0.4306641 0.8857422
vt 0.4223633 0.9248047
vt 0.4223633 0.9365234
vt 0.4257813 0.9311523
vt 0.4291992 0.9262695
vt 0.4223633 0.9179688
vt 0.4279785 0.9189453
vt 0.4223633 0.9106445
vt 0.4272461 0.9106445
vt 0.4223633 0.9057617
vt 0.4272461 0.9057617
vt 0.4223633 0.9008789
vt 0.4274902 0.9003906
vt 0.4223633 0.8969727
vt 0.4282227 0.8964844
vt 0.4223633 0.8925781
vt 0.4291992 0.8925781
vt 0.4223633 0.8891602
vt 0.4299316 0.8891602
vt 0.4223633 0.8857422
vt 0.4306641 0.8857422
vn 0 0.03417969 0.9995117
vn 0 0.8125 0.5830078
vn 0.1569824 0.04898071 0.9863281
vn 0.2093506 0.02926636 0.9775391
vn 0 0.007873535 1
vn 0.2490234 0.006530762 0.9682617
vn 0 0.006347656 1
vn 0.2697754 0.004608154 0.9628906
vn 0 0.005310059 1
vn 0.2958984 0.003173828 0.9550781
vn 0 -0.00579834 1
vn 0.315918 -0.00479126 0.9487305
vn 0 -0.01760864 1
vn 0.3195801 -0.01272583 0.9472656
vn 0 -0.01757813 1
vn 0.3166504 -0.0128479 0.9487305
vn 0 -0.01754761 1
vn 0.3134766 -0.01293945 0.949707
vn 0 -0.01754761 1
vn 0.2844238 -0.4702148 0.8354492
vn 0 0.03497314 -0.9995117
vn 0.1682129 0.04934692 -0.984375
vn 0 0.8125 -0.5830078
vn 0.2220459 0.02957153 -0.9746094
vn 0 0.008361816 -1
vn 0.2624512 0.006744385 -0.9648438
vn 0 0.00668335 -1
vn 0.2827148 0.004730225 -0.9589844
vn 0 0.005584717 -1
vn 0.3093262 0.003265381 -0.9511719
vn 0 -0.00592041 -1
vn 0.3283691 -0.004821777 -0.9443359
vn 0 -0.01809692 -1
vn 0.3288574 -0.01287842 -0.9443359
vn 0 -0.01809692 -1
vn 0.3222656 -0.01303101 -0.9467773
vn 0 -0.01806641 -1
vn 0.3161621 -0.01312256 -0.9487305
vn 0 -0.01806641 -1
vn 0.2856445 -0.470459 -0.8349609
vn 0.3161621 -0.01312256 -0.9487305
vn 0.2856445 -0.470459 -0.8349609
vn 0.5830078 -0.5756836 -0.5737305
vn 0.7167969 -0.01016235 -0.6972656
vn 0.3222656 -0.01303101 -0.9467773
vn 0.7275391 -0.005249023 -0.6860352
vn 0.3288574 -0.01287842 -0.9443359
vn 0.7373047 -0.0003967285 -0.6757813
vn 0.3283691 -0.004821777 -0.9443359
vn 0.7470703 0.008056641 -0.6645508
vn 0.3093262 0.003265381 -0.9511719
vn 0.7495117 0.01651001 -0.6621094
vn 0.2827148 0.004730225 -0.9589844
vn 0.7543945 0.03097534 -0.6557617
vn 0.2624512 0.006744385 -0.9648438
vn 0.7495117 0.01651001 0.6621094
vn 0.7543945 0.03097534 0.6557617
vn 0.7539063 0.04644775 -0.6552734
vn 0.2220459 0.02957153 -0.9746094
vn 0.7592773 0.09503174 -0.644043
vn 0.1682129 0.04934692 -0.984375
vn 0.7324219 0.1420898 -0.6660156
vn 0 0.8125 -0.5830078
vn 0.6704102 0.4233398 -0.609375
vn 0.7324219 0.1420898 0.6660156
vn 0.6704102 0.4233398 0.609375
vn 0.6704102 0.4233398 0.609375
vn 0 0.8125 0.5830078
vn -0.6704102 0.4233398 0.609375
vn -0.6704102 0.4233398 -0.609375
vn -0.7324219 0.1420898 0.6660156
vn -0.1569824 0.04898071 0.9863281
vn -0.7592773 0.09503174 0.644043
vn -0.2093506 0.02926636 0.9775391
vn -0.7539063 0.04644775 0.6552734
vn -0.2490234 0.006530762 0.9682617
vn -0.7592773 0.09503174 -0.644043
vn -0.7539063 0.04644775 -0.6552734
vn -0.7543945 0.03097534 0.6557617
vn -0.7543945 0.03097534 -0.6557617
vn -0.2697754 0.004608154 0.9628906
vn -0.7495117 0.01651001 0.6621094
vn -0.2958984 0.003173828 0.9550781
vn -0.7470703 0.008056641 0.6645508
vn -0.315918 -0.00479126 0.9487305
vn -0.7373047 -0.0003967285 0.6757813
vn -0.3195801 -0.01272583 0.9472656
vn -0.7470703 0.008056641 -0.6645508
vn -0.7373047 -0.0003967285 -0.6757813
vn -0.7275391 -0.005249023 0.6860352
vn -0.3166504 -0.0128479 0.9487305
vn -0.7275391 -0.005249023 -0.6860352
vn -0.7167969 -0.01016235 0.6972656
vn -0.3134766 -0.01293945 0.949707
vn -0.7167969 -0.01016235 -0.6972656
vn -0.5830078 -0.5756836 0.5737305
vn -0.2844238 -0.4702148 0.8354492
vn -0.5830078 -0.5756836 -0.5737305
vn -0.2856445 -0.470459 -0.8349609
vn -0.7470703 0.008056641 0.6645508
vn -0.7495117 0.01651001 -0.6621094
vn -0.7495117 0.01651001 0.6621094
vn -0.7495117 0.01651001 0.6621094
vn -0.7543945 0.03097534 -0.6557617
vn -0.2827148 0.004730225 -0.9589844
vn -0.2624512 0.006744385 -0.9648438
vn -0.3093262 0.003265381 -0.9511719
vn -0.7539063 0.04644775 -0.6552734
vn -0.7470703 0.008056641 -0.6645508
vn -0.2220459 0.02957153 -0.9746094
vn -0.3283691 -0.004821777 -0.9443359
vn -0.7592773 0.09503174 -0.644043
vn -0.7373047 -0.0003967285 -0.6757813
vn -0.1682129 0.04934692 -0.984375
vn -0.3288574 -0.01287842 -0.9443359
vn -0.7275391 -0.005249023 -0.6860352
vn -0.3222656 -0.01303101 -0.9467773
vn -0.7167969 -0.01016235 -0.6972656
vn -0.3161621 -0.01312256 -0.9487305
vn -0.5830078 -0.5756836 -0.5737305
vn -0.2856445 -0.470459 -0.8349609
vn -0.7324219 0.1420898 -0.6660156
vn 0 0.8125 -0.5830078
vn -0.6704102 0.4233398 -0.609375
vn -0.7324219 0.1420898 0.6660156
vn -0.7592773 0.09503174 0.644043
vn -0.7324219 0.1420898 0.6660156
vn 0.2844238 -0.4702148 0.8354492
vn 0.5830078 -0.5756836 -0.5737305
vn 0.2856445 -0.470459 -0.8349609
vn 0.5830078 -0.5756836 0.5737305
vn 0.3134766 -0.01293945 0.949707
vn 0.7167969 -0.01016235 -0.6972656
vn 0.7167969 -0.01016235 0.6972656
vn 0.3166504 -0.0128479 0.9487305
vn 0.7275391 -0.005249023 -0.6860352
vn 0.7275391 -0.005249023 0.6860352
vn 0.3195801 -0.01272583 0.9472656
vn 0.7373047 -0.0003967285 -0.6757813
vn 0.7373047 -0.0003967285 0.6757813
vn 0.315918 -0.00479126 0.9487305
vn 0.7470703 0.008056641 -0.6645508
vn 0.7470703 0.008056641 0.6645508
vn 0.2958984 0.003173828 0.9550781
vn 0.7495117 0.01651001 0.6621094
vn 0.2697754 0.004608154 0.9628906
vn 0.2490234 0.006530762 0.9682617
vn 0.7539063 0.04644775 0.6552734
vn 0.2093506 0.02926636 0.9775391
vn 0.7539063 0.04644775 -0.6552734
vn 0.7543945 0.03097534 -0.6557617
vn 0.7592773 0.09503174 -0.644043
vn 0.7592773 0.09503174 0.644043
vn 0.1569824 0.04898071 0.9863281
vn 0.7324219 0.1420898 0.6660156
vn 0 0.8125 0.5830078
vn 0.7592773 0.09503174 0.644043
vn 0.7324219 0.1420898 0.6660156
vn 0.7470703 0.008056641 0.6645508
vn 0.7495117 0.01651001 0.6621094
vn 0 0.03417969 0.9995117
vn -0.1569824 0.04898071 0.9863281
vn 0 0.8125 0.5830078
vn -0.2093506 0.02926636 0.9775391
vn 0 0.007873535 1
vn -0.2490234 0.006530762 0.9682617
vn 0 0.006347656 1
vn -0.2697754 0.004608154 0.9628906
vn 0 0.005310059 1
vn -0.2958984 0.003173828 0.9550781
vn 0 -0.00579834 1
vn -0.315918 -0.00479126 0.9487305
vn 0 -0.01760864 1
vn -0.3195801 -0.01272583 0.9472656
vn 0 -0.01757813 1
vn -0.3166504 -0.0128479 0.9487305
vn 0 -0.01754761 1
vn -0.3134766 -0.01293945 0.949707
vn 0 -0.01754761 1
vn -0.2844238 -0.4702148 0.8354492
vn 0 0.03497314 -0.9995117
vn 0 0.8125 -0.5830078
vn -0.1682129 0.04934692 -0.984375
vn -0.2220459 0.02957153 -0.9746094
vn 0 0.008361816 -1
vn -0.2624512 0.006744385 -0.9648438
vn 0 0.00668335 -1
vn -0.2827148 0.004730225 -0.9589844
vn 0 0.005584717 -1
vn -0.3093262 0.003265381 -0.9511719
vn 0 -0.00592041 -1
vn -0.3283691 -0.004821777 -0.9443359
vn 0 -0.01809692 -1
vn -0.3288574 -0.01287842 -0.9443359
vn 0 -0.01809692 -1
vn -0.3222656 -0.01303101 -0.9467773
vn 0 -0.01806641 -1
vn -0.3161621 -0.01312256 -0.9487305
vn 0 -0.01806641 -1
vn -0.2856445 -0.470459 -0.8349609
g Seaweed_0
f 3/3/3 2/2/2 1/1/1
f 4/4/4 3/3/3 1/1/1
f 4/4/4 1/1/1 5/5/5
f 6/6/6 4/4/4 5/5/5
f 6/6/6 5/5/5 7/7/7
f 8/8/8 6/6/6 7/7/7
f 8/8/8 7/7/7 9/9/9
f 10/10/10 8/8/8 9/9/9
f 10/10/10 9/9/9 11/11/11
f 12/12/12 10/10/10 11/11/11
f 12/12/12 11/11/11 13/13/13
f 14/14/14 12/12/12 13/13/13
f 14/14/14 13/13/13 15/15/15
f 16/16/16 14/14/14 15/15/15
f 16/16/16 15/15/15 17/17/17
f 18/18/18 16/16/16 17/17/17
f 18/18/18 17/17/17 19/19/19
f 20/20/20 18/18/18 19/19/19
f 23/23/23 22/22/22 21/21/21
f 22/22/22 24/24/24 21/21/21
f 21/21/21 24/24/24 25/25/25
f 24/24/24 26/26/26 25/25/25
f 25/25/25 26/26/26 27/27/27
f 26/26/26 28/28/28 27/27/27
f 27/27/27 28/28/28 29/29/29
f 28/28/28 30/30/30 29/29/29
f 29/29/29 30/30/30 31/31/31
f 30/30/30 32/32/32 31/31/31
f 31/31/31 32/32/32 33/33/33
f 32/32/32 34/34/34 33/33/33
f 33/33/33 34/34/34 35/35/35
f 34/34/34 36/36/36 35/35/35
f 35/35/35 36/36/36 37/37/37
f 36/36/36 38/38/38 37/37/37
f 37/37/37 38/38/38 39/39/39
f 38/38/38 40/40/40 39/39/39
f 43/43/43 42/42/42 41/41/41
f 44/44/44 43/43/43 41/41/41
f 44/44/44 41/41/41 45/45/45
f 46/46/46 44/44/44 45/45/45
f 46/46/46 45/45/45 47/47/47
f 48/48/48 46/46/46 47/47/47
f 48/48/48 47/47/47 49/49/49
f 50/50/50 48/48/48 49/49/49
f 50/50/50 49/49/49 51/51/51
f 52/52/52 50/50/50 51/51/51
f 52/52/52 51/51/51 53/53/53
f 54/54/54 52/52/52 53/53/53
f 54/54/54 53/53/53 55/55/55
f 52/52/52 54/54/54 56/56/56
f 54/54/54 57/57/57 56/56/56
f 58/58/58 54/54/54 55/55/55
f 58/58/58 55/55/55 59/59/59
f 60/60/60 58/58/58 59/59/59
f 60/60/60 59/59/59 61/61/61
f 62/62/62 60/60/60 61/61/61
f 62/62/62 61/61/61 63/63/63
f 64/64/64 62/62/62 63/63/63
f 62/62/62 64/64/64 65/65/65
f 64/64/64 66/66/66 65/65/65
f 64/64/64 63/63/63 67/67/67
f 63/63/63 68/68/68 67/67/67
f 68/68/68 63/63/63 69/69/69
f 63/63/63 70/70/70 69/69/69
f 69/69/69 71/71/71 68/68/68
f 71/71/71 72/72/72 68/68/68
f 71/71/71 73/73/73 72/72/72
f 73/73/73 74/74/74 72/72/72
f 73/73/73 75/75/75 74/74/74
f 75/75/75 76/76/76 74/74/74
f 73/73/73 77/77/77 75/75/75
f 77/77/77 78/78/78 75/75/75
f 75/75/75 79/79/79 76/76/76
f 75/75/75 78/78/78 79/79/79
f 78/78/78 80/80/80 79/79/79
f 79/79/79 81/81/81 76/76/76
f 79/79/79 82/82/82 81/81/81
f 82/82/82 83/83/83 81/81/81
f 82/82/82 84/84/84 83/83/83
f 84/84/84 85/85/85 83/83/83
f 84/84/84 86/86/86 85/85/85
f 86/86/86 87/87/87 85/85/85
f 84/84/84 88/88/88 86/86/86
f 88/88/88 89/89/89 86/86/86
f 86/86/86 90/90/90 87/87/87
f 86/86/86 89/89/89 90/90/90
f 90/90/90 91/91/91 87/87/87
f 89/89/89 92/92/92 90/90/90
f 90/90/90 93/93/93 91/91/91
f 90/90/90 92/92/92 93/93/93
f 93/93/93 94/94/94 91/91/91
f 92/92/92 95/95/95 93/93/93
f 93/93/93 96/96/96 94/94/94
f 93/93/93 95/95/95 96/96/96
f 96/96/96 97/97/97 94/94/94
f 95/95/95 98/98/98 96/96/96
f 96/96/96 98/98/98 97/97/97
f 98/98/98 99/99/99 97/97/97
f 101/101/101 88/88/88 100/100/100
f 102/102/102 101/101/101 100/100/100
f 104/104/104 101/101/101 103/103/103
f 79/79/79 104/104/104 103/103/103
f 101/101/101 104/104/104 105/105/105
f 105/105/105 104/104/104 106/106/106
f 107/107/107 101/101/101 105/105/105
f 104/104/104 108/108/108 106/106/106
f 109/109/109 101/101/101 107/107/107
f 106/106/106 108/108/108 110/110/110
f 111/111/111 109/109/109 107/107/107
f 108/108/108 112/112/112 110/110/110
f 113/113/113 109/109/109 111/111/111
f 110/110/110 112/112/112 114/114/114
f 115/115/115 113/113/113 111/111/111
f 116/116/116 113/113/113 115/115/115
f 117/117/117 116/116/116 115/115/115
f 118/118/118 116/116/116 117/117/117
f 119/119/119 118/118/118 117/117/117
f 120/120/120 118/118/118 119/119/119
f 121/121/121 120/120/120 119/119/119
f 112/112/112 122/122/122 114/114/114
f 114/114/114 122/122/122 123/123/123
f 122/122/122 124/124/124 123/123/123
f 124/124/124 122/122/122 125/125/125
f 69/69/69 124/124/124 125/125/125
f 122/122/122 77/77/77 126/126/126
f 127/127/127 122/122/122 126/126/126
f 130/130/130 129/129/129 128/128/128
f 129/129/129 131/131/131 128/128/128
f 128/128/128 131/131/131 132/132/132
f 129/129/129 133/133/133 131/131/131
f 131/131/131 134/134/134 132/132/132
f 133/133/133 134/134/134 131/131/131
f 132/132/132 134/134/134 135/135/135
f 133/133/133 136/136/136 134/134/134
f 134/134/134 137/137/137 135/135/135
f 136/136/136 137/137/137 134/134/134
f 135/135/135 137/137/137 138/138/138
f 136/136/136 139/139/139 137/137/137
f 137/137/137 140/140/140 138/138/138
f 139/139/139 140/140/140 137/137/137
f 138/138/138 140/140/140 141/141/141
f 139/139/139 142/142/142 140/140/140
f 140/140/140 143/143/143 141/141/141
f 142/142/142 143/143/143 140/140/140
f 141/141/141 143/143/143 144/144/144
f 143/143/143 145/145/145 144/144/144
f 144/144/144 145/145/145 146/146/146
f 145/145/145 57/57/57 146/146/146
f 146/146/146 57/57/57 147/147/147
f 57/57/57 148/148/148 147/147/147
f 147/147/147 148/148/148 149/149/149
f 150/150/150 148/148/148 57/57/57
f 151/151/151 150/150/150 57/57/57
f 150/150/150 152/152/152 148/148/148
f 148/148/148 153/153/153 149/149/149
f 152/152/152 153/153/153 148/148/148
f 149/149/149 153/153/153 154/154/154
f 153/153/153 155/155/155 154/154/154
f 154/154/154 155/155/155 156/156/156
f 155/155/155 66/66/66 156/156/156
f 152/152/152 62/62/62 157/157/157
f 62/62/62 158/158/158 157/157/157
f 52/52/52 160/160/160 159/159/159
f 142/142/142 52/52/52 159/159/159
f 163/163/163 162/162/162 161/161/161
f 162/162/162 164/164/164 161/161/161
f 161/161/161 164/164/164 165/165/165
f 164/164/164 166/166/166 165/165/165
f 165/165/165 166/166/166 167/167/167
f 166/166/166 168/168/168 167/167/167
f 167/167/167 168/168/168 169/169/169
f 168/168/168 170/170/170 169/169/169
f 169/169/169 170/170/170 171/171/171
f 170/170/170 172/172/172 171/171/171
f 171/171/171 172/172/172 173/173/173
f 172/172/172 174/174/174 173/173/173
f 173/173/173 174/174/174 175/175/175
f 174/174/174 176/176/176 175/175/175
f 175/175/175 176/176/176 177/177/177
f 176/176/176 178/178/178 177/177/177
f 177/177/177 178/178/178 179/179/179
f 178/178/178 180/180/180 179/179/179
f 183/183/183 182/182/182 181/181/181
f 184/184/184 183/183/183 181/181/181
f 184/184/184 181/181/181 185/185/185
f 186/186/186 184/184/184 185/185/185
f 186/186/186 185/185/185 187/187/187
f 188/188/188 186/186/186 187/187/187
f 188/188/188 187/187/187 189/189/189
f 190/190/190 188/188/188 189/189/189
f 190/190/190 189/189/189 191/191/191
f 192/192/192 190/190/190 191/191/191
f 192/192/192 191/191/191 193/193/193
f 194/194/194 192/192/192 193/193/193
f 194/194/194 193/193/193 195/195/195
f 196/196/196 194/194/194 195/195/195
f 196/196/196 195/195/195 197/197/197
f 198/198/198 196/196/196 197/197/197
f 198/198/198 197/197/197 199/199/199
f 200/200/200 198/198/198 199/199/199
