g Sign
v -0.8977871 -0.001111161 0.1511869
v -0.8977871 -0.001111148 -0.02675343
v -0.4578266 0.5389298 -0.02675338
v -0.4578266 0.5389298 0.151187
v 0.4759405 -0.5411521 -0.02675347
v 0.5600395 -0.4570531 -0.02675346
v 0.5600395 -0.001111148 -0.02675343
v -0.8977871 -0.001111148 -0.02675343
v -0.4578266 -0.5411521 -0.02675347
v 0.5600395 -0.001111148 -0.02675343
v 0.5600395 0.4548308 0.151187
v 0.5600395 0.4548308 -0.02675339
v 0.5600395 -0.001111161 0.1511869
v 0.5600395 -0.4570531 -0.02675346
v 0.5600395 -0.4570531 0.1511869
v 0.4759405 0.5389298 -0.02675338
v 0.4759405 0.5389298 0.151187
v -0.4578266 0.5389298 0.151187
v -0.4578266 0.5389298 -0.02675338
v 0.4759405 0.5389298 0.151187
v 0.5600395 0.4548308 0.151187
v 0.5600395 -0.001111161 0.1511869
v -0.8977871 -0.001111161 0.1511869
v -0.4578266 0.5389298 0.151187
v -0.4578266 -0.5411521 -0.02675347
v -0.4578266 -0.5411521 0.1511869
v 0.4759405 -0.5411521 0.1511869
v 0.4759405 -0.5411521 -0.02675347
v -0.8977871 -0.001111161 0.1511869
v 0.5600395 -0.001111161 0.1511869
v 0.5600395 -0.4570531 0.1511869
v 0.4759405 -0.5411521 0.1511869
v -0.4578266 -0.5411521 0.1511869
v -0.8977871 -0.001111148 -0.02675343
v 0.5600395 -0.001111148 -0.02675343
v 0.5600395 0.4548308 -0.02675339
v 0.4759405 0.5389298 -0.02675338
v -0.4578266 0.5389298 -0.02675338
v -0.4578266 -0.5411521 0.1511869
v -0.4578266 -0.5411521 -0.02675347
v -0.8977871 -0.001111148 -0.02675343
v -0.8977871 -0.001111161 0.1511869
v 0.4759405 -0.5411521 0.1511869
v 0.5600395 -0.4570531 0.1511869
v 0.5600395 -0.4570531 -0.02675346
v 0.4759405 -0.5411521 -0.02675347
v 0.4759405 0.5389298 -0.02675338
v 0.5600395 0.4548308 -0.02675339
v 0.5600395 0.4548308 0.151187
v 0.4759405 0.5389298 0.151187
vt 0.5 0
vt 0.5 0.25
vt 0.625 0.25
vt 0.625 0
vt 0.375 0.479248
vt 0.3945313 0.5
vt 0.5 0.5
vt 0.5 0.25
vt 0.375 0.25
vt 0.5 0.5
vt 0.6054688 0.75
vt 0.6054688 0.5
vt 0.5 0.75
vt 0.3945313 0.5
vt 0.3945313 0.75
vt 0.6455078 0.5
vt 0.6455078 0.75
vt 0.875 0.75
vt 0.875 0.5
vt 0.625 0.7705078
vt 0.6054688 0.75
vt 0.5 0.75
vt 0.5 1
vt 0.625 1
vt 0.125 0.5
vt 0.125 0.75
vt 0.354248 0.75
vt 0.354248 0.5
vt 0.5 1
vt 0.5 0.75
vt 0.3945313 0.75
vt 0.375 0.7705078
vt 0.375 1
vt 0.5 0.25
vt 0.5 0.5
vt 0.6054688 0.5
vt 0.625 0.479248
vt 0.625 0.25
vt 0.375 0
vt 0.375 0.25
vt 0.5 0.25
vt 0.5 0
vt 0.354248 0.75
vt 0.3945313 0.75
vt 0.3945313 0.5
vt 0.354248 0.5
vt 0.6455078 0.5
vt 0.6054688 0.5
vt 0.6054688 0.75
vt 0.6455078 0.75
vn -0.7753906 0.6318359 0
vn -0.7753906 0.6318359 0
vn -0.7753906 0.6318359 0
vn -0.7753906 0.6318359 0
vn 0 0 -1
vn 0 0 -1
vn 0 0 -1
vn 0 0 -1
vn 0 0 -1
vn 1 0 0
vn 1 0 0
vn 1 0 0
vn 1 0 0
vn 1 0 0
vn 1 0 0
vn 0 1 0
vn 0 1 0
vn 0 1 0
vn 0 1 0
vn 0 0 1
vn 0 0 1
vn 0 0 1
vn 0 0 1
vn 0 0 1
vn 0 -1 0
vn 0 -1 0
vn 0 -1 0
vn 0 -1 0
vn 0 0 1
vn 0 0 1
vn 0 0 1
vn 0 0 1
vn 0 0 1
vn 0 0 -1
vn 0 0 -1
vn 0 0 -1
vn 0 0 -1
vn 0 0 -1
vn -0.7753906 -0.6318359 0
vn -0.7753906 -0.6318359 0
vn -0.7753906 -0.6318359 0
vn -0.7753906 -0.6318359 0
vn 0.7070313 -0.7070313 0
vn 0.7070313 -0.7070313 0
vn 0.7070313 -0.7070313 0
vn 0.7070313 -0.7070313 0
vn 0.7070313 0.7070313 0
vn 0.7070313 0.7070313 0
vn 0.7070313 0.7070313 0
vn 0.7070313 0.7070313 0
g Sign_0
f 3/3/3 2/2/2 1/1/1
f 4/4/4 3/3/3 1/1/1
f 7/7/7 6/6/6 5/5/5
f 5/5/5 8/8/8 7/7/7
f 5/5/5 9/9/9 8/8/8
f 12/12/12 11/11/11 10/10/10
f 11/11/11 13/13/13 10/10/10
f 10/10/10 13/13/13 14/14/14
f 13/13/13 15/15/15 14/14/14
f 18/18/18 17/17/17 16/16/16
f 19/19/19 18/18/18 16/16/16
f 22/22/22 21/21/21 20/20/20
f 20/20/20 23/23/23 22/22/22
f 20/20/20 24/24/24 23/23/23
f 27/27/27 26/26/26 25/25/25
f 28/28/28 27/27/27 25/25/25
f 31/31/31 30/30/30 29/29/29
f 29/29/29 32/32/32 31/31/31
f 29/29/29 33/33/33 32/32/32
f 36/36/36 35/35/35 34/34/34
f 34/34/34 37/37/37 36/36/36
f 34/34/34 38/38/38 37/37/37
f 41/41/41 40/40/40 39/39/39
f 42/42/42 41/41/41 39/39/39
f 45/45/45 44/44/44 43/43/43
f 46/46/46 45/45/45 43/43/43
f 49/49/49 48/48/48 47/47/47
f 50/50/50 49/49/49 47/47/47
