g Strawberry1
v -0.03149156 0.2131471 -0.2419504
v -0.0004895637 0.2131471 -0.26234
v 0.02055528 0.2131471 -0.2348516
v 0.1699684 0.2131471 -0.1540235
v 0.2055169 0.2131471 -0.153224
v 0.1941278 0.2131471 -0.1247682
v 0.2237867 0.2131471 0.01694662
v 0.2455282 0.2131471 0.04469789
v 0.2140721 0.2131471 0.05905914
v 0.1275893 0.2131471 0.1695672
v 0.1244876 0.2131471 0.2116604
v 0.09360339 0.2131471 0.1960195
v -0.1161171 0.2131471 0.201955
v -0.1505006 0.2131471 0.2155987
v -0.1549708 0.2131471 0.1827143
v -0.2083649 0.2131471 0.06446942
v -0.2410987 0.2131471 0.0486353
v -0.2286589 0.2131471 0.01450419
v -0.2124074 0.2131471 -0.1465377
v -0.2192988 0.2131471 -0.1811606
v -0.1847891 0.2131471 -0.1797852
v -0.1585115 0.2233579 1.497282E-08
v -5.640707E-17 0.2540348 1.91791E-08
v -0.1120845 0.2233579 0.1120845
v -0.1542061 0.1482669 0.154206
v -1.906518E-08 0.1482669 0.2180803
v -1.385751E-08 0.2233579 0.1585115
v -5.640707E-17 0.2540348 1.91791E-08
v -0.2180803 0.1482669 8.593259E-09
v -0.1120845 0.2233579 -0.1120845
v -5.640707E-17 0.2540348 1.91791E-08
v 0.154206 0.1482669 0.1542061
v 0.1120845 0.2233579 0.1120845
v -5.640707E-17 0.2540348 1.91791E-08
v -1.90166E-08 0.04853931 0.2175246
v -0.1538131 0.04853932 0.1538131
v 0.1538131 0.04853932 0.1538131
v -0.1542061 0.1482669 -0.154206
v -1.439881E-17 0.2233579 -0.1585114
v -5.640707E-17 0.2540348 1.91791E-08
v 1.550168E-17 0.1482669 -0.2180803
v -0.2175246 0.04853933 1.070663E-09
v -0.1538131 0.04853934 -0.1538131
v 3.752226E-17 0.04853934 -0.2175246
v -0.0734787 -0.1260035 -0.0734787
v 5.105207E-17 -0.1260035 -0.1039146
v 4.224151E-17 -0.1771697 -0.01306913
v -0.1039146 -0.1260035 -1.075217E-08
v -0.00924126 -0.1771697 -0.009241273
v 0.00924126 -0.1771697 -0.009241273
v -0.0734787 -0.1260035 0.07347868
v -0.01306912 -0.1771697 -1.353179E-08
v -9.0845E-09 -0.1260035 0.1039146
v 0.01306912 -0.1771697 -1.280467E-08
v -0.00924126 -0.1771697 0.009241247
v 0.0734787 -0.1260035 0.07347869
v -1.142538E-09 -0.1771697 0.0130691
v 0.00924126 -0.1771697 0.009241247
v 0.1039146 -0.1260035 -4.970752E-09
v 0.0734787 -0.1260035 -0.07347871
v 0.2175246 0.04853933 1.317292E-08
v 5.105207E-17 -0.1260035 -0.1039146
v 4.224151E-17 -0.1771697 -0.01306913
v 0.1538131 0.04853934 -0.1538131
v 3.752226E-17 0.04853934 -0.2175246
v 0.2180803 0.1482669 2.072643E-08
v 0.154206 0.1482669 -0.154206
v 1.550168E-17 0.1482669 -0.2180803
v 0.1585115 0.2233579 2.379181E-08
v -5.640707E-17 0.2540348 1.91791E-08
v 0.1120845 0.2233579 -0.1120845
v -5.640707E-17 0.2540348 1.91791E-08
v -1.439881E-17 0.2233579 -0.1585114
v -5.640707E-17 0.2540348 1.91791E-08
v -5.141079E-17 0.2448123 -0.01327861
v 0.01149963 0.2448123 -0.006639296
v 0.01149963 0.3373448 -0.006639289
v -7.195715E-17 0.3373448 -0.01327861
v 0.01149963 0.2448123 -0.006639296
v 0.01149963 0.2448123 0.006639335
v 0.01149963 0.3373448 0.006639342
v 0.01149963 0.3373448 -0.006639289
v 0.01149963 0.2448123 0.006639335
v -1.160855E-09 0.2448123 0.01327865
v -1.160855E-09 0.3373448 0.01327866
v 0.01149963 0.3373448 0.006639342
v -1.160855E-09 0.2448123 0.01327865
v -0.01149963 0.2448123 0.006639333
v -0.01149963 0.3373448 0.00663934
v -1.160855E-09 0.3373448 0.01327866
v -0.01149963 0.2448123 0.006639333
v -0.01149963 0.2448123 -0.006639296
v -0.01149963 0.3373448 -0.006639289
v -0.01149963 0.3373448 0.00663934
v -0.01149963 0.2448123 -0.006639296
v -5.141079E-17 0.2448123 -0.01327861
v -7.195715E-17 0.3373448 -0.01327861
v -0.01149963 0.3373448 -0.006639289
v 0.04465866 0.267963 -0.1208364
v 0.02934596 0.2540757 -0.06514457
v -0.03099806 0.2540757 -0.06401891
v -0.06187557 0.267963 -0.1328743
v 0.02055528 0.2131471 -0.2348516
v 0.04465866 0.267963 -0.1208364
v -0.06187557 0.267963 -0.1328743
v -0.03149156 0.2131471 -0.2419504
v 0.1178862 0.267963 -0.04712909
v 0.06849533 0.2540757 -0.0177974
v 0.02934596 0.2540757 -0.06514457
v 0.06531811 0.267963 -0.1112444
v 0.1941278 0.2131471 -0.1247682
v 0.1178862 0.267963 -0.04712909
v 0.06531811 0.267963 -0.1112444
v 0.1699684 0.2131471 -0.1540235
v 0.1071975 0.267963 0.04928657
v 0.05562369 0.2540757 0.04227547
v 0.06849533 0.2540757 -0.0177974
v 0.1219223 0.267963 -0.02693477
v 0.2140721 0.2131471 0.05905914
v 0.1071975 0.267963 0.04928657
v 0.1219223 0.267963 -0.02693477
v 0.2237867 0.2131471 0.01694662
v 0.0185324 0.267963 0.1127655
v 0.0005120139 0.2540757 0.06942561
v 0.05562369 0.2540757 0.04227547
v 0.09558912 0.267963 0.06513371
v 0.09360339 0.2131471 0.1960195
v 0.0185324 0.267963 0.1127655
v 0.09558912 0.267963 0.06513371
v 0.1275893 0.2131471 0.1695672
v -0.0942193 0.267963 0.08785543
v -0.05496124 0.2540757 0.04302207
v 0.0005120139 0.2540757 0.06942561
v -0.005840996 0.267963 0.1158953
v -0.1549708 0.2131471 0.1827143
v -0.0942193 0.267963 0.08785543
v -0.005840996 0.267963 0.1158953
v -0.1161171 0.2131471 0.201955
v -0.1419107 0.267963 -0.0316453
v -0.06864282 0.2540757 -0.01687152
v -0.05496124 0.2540757 0.04302207
v -0.1083602 0.267963 0.06999891
v -0.2286589 0.2131471 0.01450419
v -0.1419107 0.267963 -0.0316453
v -0.1083602 0.267963 0.06999891
v -0.2083649 0.2131471 0.06446942
v -0.08091132 0.267963 -0.1263828
v -0.03099806 0.2540757 -0.06401891
v -0.06864282 0.2540757 -0.01687152
v -0.1393627 0.267963 -0.05606822
v -0.1847891 0.2131471 -0.1797852
v -0.08091132 0.267963 -0.1263828
v -0.1393627 0.267963 -0.05606822
v -0.2124074 0.2131471 -0.1465377
v -0.03099806 0.2540757 -0.06401891
v 0.02934596 0.2540757 -0.06514457
v 0.06849533 0.2540757 -0.0177974
v -0.06864282 0.2540757 -0.01687152
v 0.05562369 0.2540757 0.04227547
v -0.05496124 0.2540757 0.04302207
v 0.0005120139 0.2540757 0.06942561
vt 0.0214386 0.855957
vt 0.02050781 0.8574219
vt 0.02178955 0.8583984
vt 0.02587891 0.8657227
vt 0.02593994 0.8676758
vt 0.0272522 0.8666992
vt 0.03442383 0.8681641
vt 0.03570557 0.8691406
vt 0.03637695 0.8676758
vt 0.04193115 0.8632813
vt 0.04388428 0.8632813
vt 0.04312134 0.8618164
vt 0.04327393 0.8515625
vt 0.04388428 0.8500977
vt 0.0423584 0.8496094
vt 0.03643799 0.8466797
vt 0.03564453 0.8452148
vt 0.03408813 0.8461914
vt 0.02601624 0.847168
vt 0.0243988 0.8466797
vt 0.0244751 0.8481445
vt 0.2352295 0.4963379
vt 0.2352295 0.4963379
vt 0.237793 0.4963379
vt 0.237793 0.4916992
vt 0.2404785 0.4916992
vt 0.2404785 0.4963379
vt 0.237793 0.4963379
vt 0.2352295 0.4916992
vt 0.2325439 0.4963379
vt 0.2325439 0.4963379
vt 0.243042 0.4916992
vt 0.243042 0.4963379
vt 0.2404785 0.4963379
vt 0.2404785 0.4870605
vt 0.237793 0.4870605
vt 0.243042 0.4870605
vt 0.2325439 0.4916992
vt 0.2299805 0.4963379
vt 0.2299805 0.4963379
vt 0.2299805 0.4916992
vt 0.2352295 0.4870605
vt 0.2325439 0.4870605
vt 0.2299805 0.4870605
vt 0.2325439 0.4755859
vt 0.2299805 0.4755859
vt 0.2299805 0.4755859
vt 0.2352295 0.4755859
vt 0.2325439 0.4755859
vt 0.248291 0.4755859
vt 0.237793 0.4755859
vt 0.2352295 0.4755859
vt 0.2404785 0.4755859
vt 0.2456055 0.4755859
vt 0.237793 0.4755859
vt 0.243042 0.4755859
vt 0.2404785 0.4755859
vt 0.243042 0.4755859
vt 0.2456055 0.4755859
vt 0.248291 0.4755859
vt 0.2456055 0.4870605
vt 0.2509766 0.4755859
vt 0.2509766 0.4755859
vt 0.248291 0.4870605
vt 0.2509766 0.4870605
vt 0.2456055 0.4916992
vt 0.248291 0.4916992
vt 0.2509766 0.4916992
vt 0.2456055 0.4963379
vt 0.243042 0.4963379
vt 0.248291 0.4963379
vt 0.2456055 0.4963379
vt 0.2509766 0.4963379
vt 0.248291 0.4963379
vt 0.04586792 0.8457031
vt 0.04324341 0.8457031
vt 0.04324341 0.8613281
vt 0.04586792 0.8613281
vt 0.04324341 0.8457031
vt 0.04064941 0.8457031
vt 0.04064941 0.8613281
vt 0.04324341 0.8613281
vt 0.04064941 0.8457031
vt 0.03805542 0.8457031
vt 0.03805542 0.8613281
vt 0.04064941 0.8613281
vt 0.03805542 0.8457031
vt 0.03543091 0.8457031
vt 0.03543091 0.8613281
vt 0.03805542 0.8613281
vt 0.03543091 0.8457031
vt 0.03283691 0.8457031
vt 0.03283691 0.8613281
vt 0.03543091 0.8613281
vt 0.03283691 0.8457031
vt 0.03022766 0.8457031
vt 0.03022766 0.8613281
vt 0.03283691 0.8613281
vt 0.0276947 0.859375
vt 0.03034973 0.8588867
vt 0.03036499 0.855957
vt 0.02708435 0.8544922
vt 0.02178955 0.8583984
vt 0.0276947 0.859375
vt 0.02708435 0.8544922
vt 0.0214386 0.855957
vt 0.03118896 0.862793
vt 0.03256226 0.8603516
vt 0.03034973 0.8588867
vt 0.02818298 0.8603516
vt 0.0272522 0.8666992
vt 0.03118896 0.862793
vt 0.02818298 0.8603516
vt 0.02587891 0.8657227
vt 0.03573608 0.8623047
vt 0.03533936 0.8598633
vt 0.03256226 0.8603516
vt 0.03219604 0.8632813
vt 0.03637695 0.8676758
vt 0.03573608 0.8623047
vt 0.03219604 0.8632813
vt 0.03442383 0.8681641
vt 0.03866577 0.8579102
vt 0.03656006 0.8574219
vt 0.03533936 0.8598633
vt 0.03652954 0.8618164
vt 0.04312134 0.8618164
vt 0.03866577 0.8579102
vt 0.03652954 0.8618164
vt 0.04193115 0.8632813
vt 0.03744507 0.8530273
vt 0.03530884 0.8544922
vt 0.03656006 0.8574219
vt 0.03881836 0.8569336
vt 0.0423584 0.8496094
vt 0.03744507 0.8530273
vt 0.03881836 0.8569336
vt 0.04327393 0.8515625
vt 0.03179932 0.8505859
vt 0.03253174 0.8540039
vt 0.03530884 0.8544922
vt 0.03656006 0.8520508
vt 0.03408813 0.8461914
vt 0.03179932 0.8505859
vt 0.03656006 0.8520508
vt 0.03643799 0.8466797
vt 0.02740479 0.8535156
vt 0.03036499 0.855957
vt 0.03253174 0.8540039
vt 0.03062439 0.8505859
vt 0.0244751 0.8481445
vt 0.02740479 0.8535156
vt 0.03062439 0.8505859
vt 0.02601624 0.847168
vt 0.03036499 0.855957
vt 0.03034973 0.8588867
vt 0.03256226 0.8603516
vt 0.03253174 0.8540039
vt 0.03533936 0.8598633
vt 0.03530884 0.8544922
vt 0.03656006 0.8574219
vn 0 1 0
vn 0 1 0
vn 0 1 0
vn 0 1 0
vn 0 1 0
vn 0 1 0
vn 0 1 0
vn 0 1 0
vn 0 1 0
vn 0 1 0
vn 0 1 0
vn 0 1 0
vn 0 1 0
vn 0 1 0
vn 0 1 0
vn 0 1 0
vn 0 1 0
vn 0 1 0
vn 0 1 0
vn 0 1 0
vn 0 1 0
vn -0.5766602 0.8168945 0
vn 0 1 0
vn -0.4077148 0.8168945 0.4077148
vn -0.6738281 0.3039551 0.6738281
vn 0 0.3039551 0.9526367
vn 0 0.8168945 0.5766602
vn 0 1 0
vn -0.9526367 0.3039551 0
vn -0.4077148 0.8168945 -0.4077148
vn 0 1 0
vn 0.6738281 0.3039551 0.6738281
vn 0.4077148 0.8168945 0.4077148
vn 0 1 0
vn 0 -0.2697754 0.9628906
vn -0.6806641 -0.2697754 0.6806641
vn 0.6806641 -0.2697754 0.6806641
vn -0.6738281 0.3039551 -0.6738281
vn 0 0.8168945 -0.5766602
vn 0 1 0
vn 0 0.3039551 -0.9526367
vn -0.9628906 -0.2697754 0
vn -0.6806641 -0.2697754 -0.6806641
vn 0 -0.2697754 -0.9628906
vn -0.5043945 -0.7011719 -0.5043945
vn 0 -0.7011719 -0.7128906
vn 0 -0.9506836 -0.310791
vn -0.7128906 -0.7011719 0
vn -0.2198486 -0.9506836 -0.2198486
vn 0.2198486 -0.9506836 -0.2198486
vn -0.5043945 -0.7011719 0.5043945
vn -0.310791 -0.9506836 0
vn 0 -0.7011719 0.7128906
vn 0.310791 -0.9506836 0
vn -0.2198486 -0.9506836 0.2198486
vn 0.5043945 -0.7011719 0.5043945
vn 0 -0.9506836 0.310791
vn 0.2198486 -0.9506836 0.2198486
vn 0.7128906 -0.7011719 0
vn 0.5043945 -0.7011719 -0.5043945
vn 0.9628906 -0.2697754 0
vn 0 -0.7011719 -0.7128906
vn 0 -0.9506836 -0.310791
vn 0.6806641 -0.2697754 -0.6806641
vn 0 -0.2697754 -0.9628906
vn 0.9526367 0.3039551 0
vn 0.6738281 0.3039551 -0.6738281
vn 0 0.3039551 -0.9526367
vn 0.5766602 0.8168945 0
vn 0 1 0
vn 0.4077148 0.8168945 -0.4077148
vn 0 1 0
vn 0 0.8168945 -0.5766602
vn 0 1 0
vn 0.5 0 -0.8662109
vn 0.5 0 -0.8662109
vn 0.5 0 -0.8662109
vn 0.5 0 -0.8662109
vn 1 0 0
vn 1 0 0
vn 1 0 0
vn 1 0 0
vn 0.5 0 0.8662109
vn 0.5 0 0.8662109
vn 0.5 0 0.8662109
vn 0.5 0 0.8662109
vn -0.5 0 0.8662109
vn -0.5 0 0.8662109
vn -0.5 0 0.8662109
vn -0.5 0 0.8662109
vn -1 0 0
vn -1 0 0
vn -1 0 0
vn -1 0 0
vn -0.5 0 -0.8662109
vn -0.5 0 -0.8662109
vn -0.5 0 -0.8662109
vn -0.5 0 -0.8662109
vn -0.01434326 0.9755859 0.2193604
vn -0.01434326 0.9755859 0.2193604
vn -0.01434326 0.9755859 0.2193604
vn -0.01434326 0.9755859 0.2193604
vn 0.05300903 0.8969727 -0.439209
vn 0.05300903 0.8969727 -0.439209
vn 0.05300903 0.8969727 -0.439209
vn 0.05300903 0.8969727 -0.439209
vn -0.1829834 0.9716797 0.1506348
vn -0.1829834 0.9716797 0.1506348
vn -0.1829834 0.9716797 0.1506348
vn -0.1829834 0.9716797 0.1506348
vn 0.3493652 0.8920898 -0.2871094
vn 0.3493652 0.8920898 -0.2871094
vn 0.3493652 0.8920898 -0.2871094
vn 0.3493652 0.8920898 -0.2871094
vn -0.2563477 0.965332 -0.0519104
vn -0.2563477 0.965332 -0.0519104
vn -0.2563477 0.965332 -0.0519104
vn -0.2563477 0.965332 -0.0519104
vn 0.4443359 0.8911133 0.09179688
vn 0.4443359 0.8911133 0.09179688
vn 0.4443359 0.8911133 0.09179688
vn 0.4443359 0.8911133 0.09179688
vn -0.151123 0.9516602 -0.2670898
vn -0.151123 0.9516602 -0.2670898
vn -0.151123 0.9516602 -0.2670898
vn -0.151123 0.9516602 -0.2670898
vn 0.251709 0.8911133 0.3771973
vn 0.251709 0.8911133 0.3771973
vn 0.251709 0.8911133 0.3771973
vn 0.251709 0.8911133 0.3771973
vn 0.09338379 0.9643555 -0.2468262
vn 0.09338379 0.9643555 -0.2468262
vn 0.09338379 0.9643555 -0.2468262
vn 0.09338379 0.9643555 -0.2468262
vn -0.1502686 0.9018555 0.404541
vn -0.1502686 0.9018555 0.404541
vn -0.1502686 0.9018555 0.404541
vn -0.1502686 0.9018555 0.404541
vn 0.2081299 0.9760742 -0.06088257
vn 0.2081299 0.9760742 -0.06088257
vn 0.2081299 0.9760742 -0.06088257
vn 0.2081299 0.9760742 -0.06088257
vn -0.4716797 0.8657227 0.1674805
vn -0.4716797 0.8657227 0.1674805
vn -0.4716797 0.8657227 0.1674805
vn -0.4716797 0.8657227 0.1674805
vn 0.1342773 0.9848633 0.1098633
vn 0.1342773 0.9848633 0.1098633
vn 0.1342773 0.9848633 0.1098633
vn 0.1342773 0.9848633 0.1098633
vn -0.333252 0.9013672 -0.2768555
vn -0.333252 0.9013672 -0.2768555
vn -0.333252 0.9013672 -0.2768555
vn -0.333252 0.9013672 -0.2768555
vn 0 1 0
vn 0 1 0
vn 0 1 0
vn 0 1 0
vn 0 1 0
vn 0 1 0
vn 0 1 0
g Strawberry1_0
f 3/3/3 2/2/2 1/1/1
f 6/6/6 5/5/5 4/4/4
f 9/9/9 8/8/8 7/7/7
f 12/12/12 11/11/11 10/10/10
f 15/15/15 14/14/14 13/13/13
f 18/18/18 17/17/17 16/16/16
f 21/21/21 20/20/20 19/19/19
f 24/24/24 23/23/23 22/22/22
f 24/24/24 22/22/22 25/25/25
f 24/24/24 25/25/25 26/26/26
f 27/27/27 24/24/24 26/26/26
f 27/27/27 28/28/28 24/24/24
f 22/22/22 29/29/29 25/25/25
f 22/22/22 30/30/30 29/29/29
f 22/22/22 31/31/31 30/30/30
f 27/27/27 26/26/26 32/32/32
f 33/33/33 27/27/27 32/32/32
f 33/33/33 34/34/34 27/27/27
f 26/26/26 25/25/25 35/35/35
f 25/25/25 29/29/29 36/36/36
f 25/25/25 36/36/36 35/35/35
f 32/32/32 26/26/26 37/37/37
f 26/26/26 35/35/35 37/37/37
f 30/30/30 38/38/38 29/29/29
f 30/30/30 39/39/39 38/38/38
f 30/30/30 40/40/40 39/39/39
f 39/39/39 41/41/41 38/38/38
f 29/29/29 38/38/38 42/42/42
f 29/29/29 42/42/42 36/36/36
f 38/38/38 41/41/41 43/43/43
f 38/38/38 43/43/43 42/42/42
f 41/41/41 44/44/44 43/43/43
f 43/43/43 44/44/44 45/45/45
f 44/44/44 46/46/46 45/45/45
f 46/46/46 47/47/47 45/45/45
f 42/42/42 43/43/43 48/48/48
f 43/43/43 45/45/45 48/48/48
f 47/47/47 49/49/49 45/45/45
f 45/45/45 49/49/49 48/48/48
f 49/49/49 47/47/47 50/50/50
f 36/36/36 42/42/42 51/51/51
f 42/42/42 48/48/48 51/51/51
f 49/49/49 52/52/52 48/48/48
f 48/48/48 52/52/52 51/51/51
f 36/36/36 51/51/51 53/53/53
f 35/35/35 36/36/36 53/53/53
f 54/54/54 52/52/52 49/49/49
f 50/50/50 54/54/54 49/49/49
f 52/52/52 55/55/55 51/51/51
f 51/51/51 55/55/55 53/53/53
f 54/54/54 55/55/55 52/52/52
f 35/35/35 53/53/53 56/56/56
f 37/37/37 35/35/35 56/56/56
f 55/55/55 57/57/57 53/53/53
f 53/53/53 57/57/57 56/56/56
f 58/58/58 57/57/57 55/55/55
f 57/57/57 58/58/58 56/56/56
f 54/54/54 58/58/58 55/55/55
f 56/56/56 58/58/58 59/59/59
f 37/37/37 56/56/56 59/59/59
f 58/58/58 54/54/54 59/59/59
f 54/54/54 50/50/50 60/60/60
f 59/59/59 54/54/54 60/60/60
f 61/61/61 37/37/37 59/59/59
f 61/61/61 59/59/59 60/60/60
f 32/32/32 37/37/37 61/61/61
f 60/60/60 50/50/50 62/62/62
f 50/50/50 63/63/63 62/62/62
f 64/64/64 60/60/60 62/62/62
f 64/64/64 61/61/61 60/60/60
f 65/65/65 64/64/64 62/62/62
f 66/66/66 32/32/32 61/61/61
f 66/66/66 61/61/61 64/64/64
f 33/33/33 32/32/32 66/66/66
f 67/67/67 64/64/64 65/65/65
f 67/67/67 66/66/66 64/64/64
f 68/68/68 67/67/67 65/65/65
f 69/69/69 33/33/33 66/66/66
f 69/69/69 66/66/66 67/67/67
f 69/69/69 70/70/70 33/33/33
f 71/71/71 67/67/67 68/68/68
f 71/71/71 69/69/69 67/67/67
f 71/71/71 72/72/72 69/69/69
f 73/73/73 71/71/71 68/68/68
f 73/73/73 74/74/74 71/71/71
f 77/77/77 76/76/76 75/75/75
f 78/78/78 77/77/77 75/75/75
f 81/81/81 80/80/80 79/79/79
f 82/82/82 81/81/81 79/79/79
f 85/85/85 84/84/84 83/83/83
f 86/86/86 85/85/85 83/83/83
f 89/89/89 88/88/88 87/87/87
f 90/90/90 89/89/89 87/87/87
f 93/93/93 92/92/92 91/91/91
f 94/94/94 93/93/93 91/91/91
f 97/97/97 96/96/96 95/95/95
f 98/98/98 97/97/97 95/95/95
f 101/101/101 100/100/100 99/99/99
f 102/102/102 101/101/101 99/99/99
f 105/105/105 104/104/104 103/103/103
f 106/106/106 105/105/105 103/103/103
f 109/109/109 108/108/108 107/107/107
f 110/110/110 109/109/109 107/107/107
f 113/113/113 112/112/112 111/111/111
f 114/114/114 113/113/113 111/111/111
f 117/117/117 116/116/116 115/115/115
f 118/118/118 117/117/117 115/115/115
f 121/121/121 120/120/120 119/119/119
f 122/122/122 121/121/121 119/119/119
f 125/125/125 124/124/124 123/123/123
f 126/126/126 125/125/125 123/123/123
f 129/129/129 128/128/128 127/127/127
f 130/130/130 129/129/129 127/127/127
f 133/133/133 132/132/132 131/131/131
f 134/134/134 133/133/133 131/131/131
f 137/137/137 136/136/136 135/135/135
f 138/138/138 137/137/137 135/135/135
f 141/141/141 140/140/140 139/139/139
f 142/142/142 141/141/141 139/139/139
f 145/145/145 144/144/144 143/143/143
f 146/146/146 145/145/145 143/143/143
f 149/149/149 148/148/148 147/147/147
f 150/150/150 149/149/149 147/147/147
f 153/153/153 152/152/152 151/151/151
f 154/154/154 153/153/153 151/151/151
f 157/157/157 156/156/156 155/155/155
f 155/155/155 158/158/158 157/157/157
f 158/158/158 159/159/159 157/157/157
f 158/158/158 160/160/160 159/159/159
f 160/160/160 161/161/161 159/159/159
