g Tree_Btm_A_01_LOD1
v -0.001880229 -0.000886848 1.968663E-05
v -0.0001652771 -0.002076787 1.275751E-05
v 7.967911E-06 4.836721E-06 1.834707E-06
v 0.001724846 -0.001187044 -5.354498E-06
v 7.967911E-06 4.836721E-06 1.834707E-06
v -0.0001652771 -0.002076787 1.275751E-05
v 0.007660646 -0.00248762 0.04067691
v 0.003702878 -0.003162332 0.03753752
v 0.006136927 -0.001991056 0.04128527
v 0.005737073 -0.003605755 0.03671111
v 0.01028831 -0.001011682 0.03960493
v 0.00873421 -0.001871669 0.03538936
v 0.01194157 0.0002925674 0.0477421
v 0.009713048 -0.0009232829 0.04831946
v 0.01034803 0.002213701 0.03953941
v 0.0102993 -0.0004096134 0.05497337
v 0.00856752 0.0006352624 0.05543249
v 0.00808792 9.366281E-05 0.04879705
v 0.01205713 0.002847863 0.04792799
v 0.007768451 0.004017867 0.04050095
v 0.01240706 0.0007006929 0.05433168
v 0.005771699 0.003945509 0.03615245
v 0.008786147 0.001860384 0.03510822
v 0.003429525 0.00374899 0.03693583
v 0.002811539 0.0007048679 0.03924051
v 0.004716723 0.001003429 0.04188371
v 0.005481818 0.001799818 0.02697596
v 0.005771699 0.003945509 0.03615245
v 0.00541148 -0.002590947 0.0272721
v 0.001710227 -0.004687039 0.02799573
v 0.005737073 -0.003605755 0.03671111
v 0.003702878 -0.003162332 0.03753752
v -0.0008079459 -0.004311828 0.02886923
v -0.002893573 -0.002613847 0.02762452
v 0.001757929 0.004094075 0.02748644
v 0.003429525 0.00374899 0.03693583
v -0.001079101 0.003528903 0.02844486
v -0.003085504 -0.00216543 0.02211386
v 0.0008203372 -0.004615683 0.02207078
v -0.002923829 0.002751697 0.03191656
v 3.817746E-05 0.003559097 0.03626349
v -0.007680995 0.0001506703 0.03770354
v -0.005814612 0.001908115 0.03952836
v -0.01144421 -0.002006084 0.04491409
v -0.009740314 4.403393E-05 0.04577943
v -0.002949366 0.002412487 0.02201079
v -0.003080771 0.001740523 0.02743649
v 0.001757929 0.004094075 0.02748644
v 0.001165254 0.004580511 0.02180032
v -0.003357297 0.002953612 0.009285608
v 0.005026616 0.002107876 0.02158099
v 0.0008839907 0.004971146 0.009247798
v -0.003735468 -0.001732881 0.009288362
v 0.0008203372 -0.004615683 0.02207078
v 0.0048356 -0.002509746 0.02174596
v 0.00541148 -0.002590947 0.0272721
v 0.001710227 -0.004687039 0.02799573
v 0.0001325169 -0.004406725 0.009255124
v 0.00438054 -0.002387258 0.0092176
v 0.004753843 0.00230412 0.009213028
v -0.003590477 0.002606768 0.001581163
v -0.003956423 -0.001856357 0.001598742
v -0.003719099 -0.00175232 0.0004675052
v -0.0002770527 -0.0044089 0.001581043
v 0.003777422 -0.002498835 0.001544649
v 0.0004598258 0.004524988 0.001544167
v 0.004148354 0.001971928 0.001525352
v 0.00344149 -0.002348422 0.0004175084
v 0.003786151 0.001791697 0.00039632
v 0.0003700648 0.004156679 0.0004125738
v -0.0003129638 -0.00411575 0.0004528395
v -0.003380732 0.002379991 0.000448428
v -0.0001652771 -0.002076787 1.275751E-05
v 0.00344149 -0.002348422 0.0004175084
v -0.001880229 -0.000886848 1.968663E-05
v 0.001724846 -0.001187044 -5.354498E-06
v 0.003786151 0.001791697 0.00039632
v 0.00189841 0.0008971996 -1.684116E-05
v -0.001709819 0.00119374 9.59384E-06
v 0.0001786962 0.002088044 -8.821947E-06
v 0.0003700648 0.004156679 0.0004125738
v 0.00189841 0.0008971996 -1.684116E-05
v 0.003786151 0.001791697 0.00039632
v 7.967911E-06 4.836721E-06 1.834707E-06
v -0.001880229 -0.000886848 1.968663E-05
v 0.00189841 0.0008971996 -1.684116E-05
v 7.967911E-06 4.836721E-06 1.834707E-06
v 0.00808792 9.366281E-05 0.04879705
v 0.006136927 -0.001991056 0.04128527
v 0.007509388 0.002518524 0.04906801
v 0.00825897 0.002876848 0.05563455
v 0.008834687 0.003127901 0.05981715
v 0.009038118 0.00104018 0.05965922
v 0.010726 0.002298882 0.06030319
v 0.01060818 6.32408E-05 0.05922626
v 0.01249093 0.001002762 0.05854265
v 0.01254278 0.00308894 0.0543998
v 0.0125712 0.0031538 0.05853686
v 0.009916931 0.004289004 0.04856004
v 0.01052527 0.004470659 0.05494165
v 0.01052527 0.004470659 0.05494165
v 0.007509388 0.002518524 0.04906801
v 0.01077058 0.004411095 0.05903115
v 0.008834687 0.003127901 0.05981715
v 0.00825897 0.002876848 0.05563455
v 0.006136927 -0.001991056 0.04128527
v 0.002811539 0.0007048679 0.03924051
v 0.003702878 -0.003162332 0.03753752
v 0.001165254 0.004580511 0.02180032
v -0.002949366 0.002412487 0.02201079
v -0.003357297 0.002953612 0.009285608
v -0.01052429 -0.005012838 0.06300679
v -0.008597394 -0.005278151 0.06314835
v -0.00962947 -0.006798239 0.06356861
v -0.01148541 -0.006309777 0.06250481
v -0.01128879 -0.007224935 0.06247482
v -0.01050612 -0.003690239 0.05859507
v -0.01177969 -0.006719642 0.05787194
v -0.009840665 -0.008541107 0.06270897
v -0.01015725 -0.008525024 0.05808138
v -0.01184465 -0.005458943 0.05799283
v -0.0105763 -0.007120004 0.05155395
v -0.01216625 -0.004893527 0.05139963
v -0.01052506 -0.001499874 0.05215858
v -0.01210472 -0.003446857 0.05156625
v -0.01149866 -0.003609051 0.04469474
v -0.009783179 -0.006281489 0.04496943
v -0.008114713 -0.006034707 0.05199714
v -0.007093594 -0.005318301 0.04600108
v -0.006379441 -0.004917801 0.03750661
v -0.007898087 -0.00154536 0.03717435
v -0.007680995 0.0001506703 0.03770354
v -0.003942118 0.001098715 0.03096452
v -0.003080771 0.001740523 0.02743649
v -0.006379441 -0.004917801 0.03750661
v -0.003288194 -0.002963905 0.03119116
v -0.003556122 -0.004495448 0.0397084
v -0.003288194 -0.002963905 0.03119116
v 0.0007423944 -0.003282518 0.03619071
v -0.002893573 -0.002613847 0.02762452
v -0.0008079459 -0.004311828 0.02886923
v 0.003702878 -0.003162332 0.03753752
v 0.001060058 0.0008666664 0.03830928
v 0.002811539 0.0007048679 0.03924051
v -0.003241579 0.0002404217 0.04102169
v -0.003556122 -0.004495448 0.0397084
v -0.00702435 -0.0009491679 0.04655773
v -0.008031897 -0.002134594 0.05238885
v -0.003241579 0.0002404217 0.04102169
v -0.005814612 0.001908115 0.03952836
v 3.817746E-05 0.003559097 0.03626349
v -0.00815801 -0.004067323 0.05871296
v -0.01052429 -0.005012838 0.06300679
v -0.008597394 -0.005278151 0.06314835
v -0.007994771 -0.007460292 0.05832728
v -0.009840665 -0.008541107 0.06270897
v -0.008206611 -0.00780391 0.06283604
v -0.00962947 -0.006798239 0.06356861
v -0.01128879 -0.007224935 0.06247482
v -0.003080771 0.001740523 0.02743649
v -0.003942118 0.001098715 0.03096452
v -0.002893573 -0.002613847 0.02762452
v 0.002811539 0.0007048679 0.03924051
v 3.817746E-05 0.003559097 0.03626349
v 0.003429525 0.00374899 0.03693583
v 0.007660646 -0.00248762 0.04067691
v 0.006136927 -0.001991056 0.04128527
v 0.00808792 9.366281E-05 0.04879705
v 0.009713048 -0.0009232829 0.04831946
vt 0.9187137 0.5772521
vt 0.9187138 0.5772521
vt 0.9187139 0.5772521
vt 0.9187137 0.5772521
vt 0.9187139 0.5772521
vt 0.9187138 0.5772521
vt 0.9187138 0.577252
vt 0.9187137 0.577252
vt 0.9187139 0.5772521
vt 0.9187138 0.5772521
vt 0.9187138 0.5772521
vt 0.9187138 0.577252
vt 0.9187138 0.5772521
vt 0.9187138 0.5772521
vt 0.9187138 0.5772521
vt 0.9187138 0.5772521
vt 0.9187138 0.5772521
vt 0.9187138 0.5772521
vt 0.9187138 0.5772521
vt 0.9187139 0.5772521
vt 0.9187138 0.5772521
vt 0.9187138 0.5772521
vt 0.9187138 0.577252
vt 0.9187138 0.577252
vt 0.9187139 0.5772521
vt 0.9187139 0.5772521
vt 0.9187138 0.577252
vt 0.9187139 0.5772521
vt 0.9187138 0.577252
vt 0.9187139 0.5772521
vt 0.9187139 0.5772521
vt 0.9187137 0.5772521
vt 0.9187138 0.577252
vt 0.9187139 0.5772521
vt 0.9187139 0.5772521
vt 0.9187138 0.577252
vt 0.9187137 0.577252
vt 0.9187139 0.5772521
vt 0.9187139 0.5772521
vt 0.9187139 0.5772521
vt 0.9187139 0.5772521
vt 0.9187138 0.5772521
vt 0.9187138 0.5772521
vt 0.9187138 0.5772521
vt 0.9187138 0.577252
vt 0.9187139 0.5772521
vt 0.9187138 0.5772521
vt 0.9187138 0.5772521
vt 0.9187138 0.577252
vt 0.9187138 0.5772521
vt 0.9187138 0.5772521
vt 0.9187138 0.5772521
vt 0.9187138 0.5772521
vt 0.9187139 0.5772521
vt 0.9187138 0.5772521
vt 0.9187138 0.5772521
vt 0.9187139 0.5772521
vt 0.9187138 0.5772521
vt 0.9187138 0.5772521
vt 0.9187138 0.5772521
vt 0.9187138 0.5772521
vt 0.9187138 0.5772521
vt 0.9187139 0.5772521
vt 0.9187138 0.5772521
vt 0.9187138 0.5772521
vt 0.9187138 0.5772521
vt 0.9187138 0.5772521
vt 0.9187138 0.5772521
vt 0.9187138 0.5772521
vt 0.9187138 0.5772521
vt 0.9187139 0.5772521
vt 0.9187139 0.5772521
vt 0.9187138 0.5772521
vt 0.9187139 0.5772521
vt 0.9187138 0.5772521
vt 0.9187138 0.5772521
vt 0.9187139 0.5772521
vt 0.9187138 0.5772521
vt 0.9187138 0.5772521
vt 0.9187138 0.5772521
vt 0.9187139 0.5772521
vt 0.9187138 0.5772521
vt 0.9187139 0.5772521
vt 0.9187139 0.5772521
vt 0.9187138 0.577252
vt 0.9187138 0.5772521
vt 0.9187139 0.5772521
vt 0.9187138 0.577252
vt 0.9187139 0.5772521
vt 0.9187138 0.577252
vt 0.9187138 0.5772521
vt 0.9187139 0.5772521
vt 0.9187139 0.5772521
vt 0.9187139 0.5772521
vt 0.9187139 0.5772521
vt 0.9187139 0.5772521
vt 0.9187138 0.5772521
vt 0.9187139 0.5772521
vt 0.9187138 0.5772521
vt 0.9187138 0.5772521
vt 0.9187138 0.5772521
vt 0.9187138 0.5772521
vt 0.9187139 0.5772521
vt 0.9187139 0.5772521
vt 0.9187138 0.5772521
vt 0.9187139 0.5772521
vt 0.9187139 0.5772521
vt 0.9187138 0.5772521
vt 0.9187138 0.577252
vt 0.9187139 0.5772521
vt 0.9187138 0.5772521
vt 0.9187138 0.5772521
vt 0.9187138 0.5772521
vt 0.9187137 0.577252
vt 0.9187138 0.5772521
vt 0.9187138 0.577252
vt 0.9187138 0.5772521
vt 0.9187138 0.5772521
vt 0.9187138 0.577252
vt 0.9187138 0.5772521
vt 0.9187138 0.5772521
vt 0.9187138 0.5772521
vt 0.9187138 0.5772521
vt 0.9187138 0.5772521
vt 0.9187138 0.5772521
vt 0.9187138 0.5772521
vt 0.9187138 0.5772521
vt 0.9187138 0.5772521
vt 0.9187138 0.577252
vt 0.9187138 0.5772521
vt 0.9187138 0.5772521
vt 0.9187138 0.577252
vt 0.9187139 0.5772521
vt 0.9187139 0.5772521
vt 0.9187138 0.5772521
vt 0.9187139 0.5772521
vt 0.9187138 0.5772521
vt 0.9187139 0.5772521
vt 0.9187139 0.5772521
vt 0.9187138 0.5772521
vt 0.9187138 0.577252
vt 0.9187138 0.577252
vt 0.9187139 0.5772521
vt 0.9187139 0.5772521
vt 0.9187138 0.5772521
vt 0.9187138 0.577252
vt 0.9187138 0.5772521
vt 0.9187138 0.5772521
vt 0.9187138 0.577252
vt 0.9187138 0.577252
vt 0.9187139 0.5772521
vt 0.9187138 0.5772521
vt 0.9187138 0.5772521
vt 0.9187138 0.5772521
vt 0.9187138 0.5772521
vt 0.9187138 0.577252
vt 0.9187138 0.5772521
vt 0.9187137 0.577252
vt 0.9187138 0.577252
vt 0.9187139 0.5772521
vt 0.9187139 0.5772521
vt 0.9187138 0.5772521
vt 0.9187139 0.5772521
vt 0.9187139 0.5772521
vt 0.9187137 0.577252
vt 0.9187138 0.577252
vt 0.9187139 0.5772521
vt 0.9187138 0.5772521
vt 0.9187138 0.5772521
vn -0.1319934 -0.06320425 -0.9892335
vn -0.01944078 -0.1411212 -0.9898015
vn -0.007507722 -0.00454736 -0.9999615
vn 0.103674 -0.08261565 -0.9911742
vn -0.007507722 -0.00454736 -0.9999615
vn -0.01944078 -0.1411212 -0.9898015
vn 0.1754206 -0.9685671 0.1763667
vn -0.3047048 -0.8196877 0.4850434
vn -0.516476 -0.7388082 0.4329145
vn 0.1942228 -0.9748983 0.1088612
vn 0.8499078 -0.5047929 -0.1511327
vn 0.8120166 -0.5347828 -0.2337443
vn 0.8615174 -0.5033784 -0.06631752
vn 0.07028512 -0.9883559 0.1349548
vn 0.8481266 0.4553759 -0.2707657
vn -0.009399923 -0.9956594 0.09259535
vn -0.8141631 -0.5653698 0.1322706
vn -0.7291933 -0.6388262 0.2453127
vn 0.8775716 0.4566547 -0.1460636
vn 0.00201426 0.9996527 0.02627693
vn 0.8480574 -0.5298986 -0.002472026
vn 0.1095008 0.99393 0.01062047
vn 0.8275599 0.4494569 -0.3363526
vn -0.2940187 0.8818118 0.3687288
vn -0.5925928 0.147164 0.7919448
vn -0.8488341 0.2311229 0.4754606
vn 0.8545784 0.4817819 -0.1938603
vn 0.1095008 0.99393 0.01062047
vn 0.8079389 -0.5593588 -0.1853441
vn 0.06033671 -0.9981346 -0.009308395
vn 0.1942228 -0.9748983 0.1088612
vn -0.3047048 -0.8196877 0.4850434
vn -0.3417241 -0.9375515 0.06497549
vn -0.8246143 -0.5628862 -0.05630693
vn 0.08359195 0.9963587 -0.01678553
vn -0.2940187 0.8818118 0.3687288
vn -0.4028256 0.9152768 -0.000152597
vn -0.8769324 -0.4806129 0.0009766073
vn -0.04034637 -0.9982521 -0.04318465
vn -0.5271012 0.8399863 -0.128792
vn -0.174051 0.9325143 0.3164231
vn -0.7516566 0.5994575 -0.2750693
vn -0.2200723 0.9556102 0.1959013
vn -0.8993013 0.4030941 -0.1696242
vn -0.3402269 0.9307411 0.1340399
vn -0.8339605 0.5504396 0.03906424
vn -0.8886784 0.4534796 -0.06787392
vn 0.08359195 0.9963587 -0.01678553
vn 0.04245178 0.9986697 0.02926762
vn -0.8225334 0.5681832 0.02462931
vn 0.8842316 0.4661191 -0.02945099
vn 0.0747706 0.9970735 -0.01593072
vn -0.9019659 -0.4306571 0.03149587
vn -0.04034637 -0.9982521 -0.04318465
vn 0.8365546 -0.5438475 -0.0663787
vn 0.8079389 -0.5593588 -0.1853441
vn 0.06033671 -0.9981346 -0.009308395
vn -0.07132223 -0.9974431 -0.004516769
vn 0.8310007 -0.5543464 -0.04623622
vn 0.8962541 0.4406346 -0.0506922
vn -0.8174261 0.5623467 -0.1248235
vn -0.9004331 -0.4251909 -0.09183173
vn -0.69963 -0.3322663 -0.632548
vn -0.08426306 -0.9894881 -0.1175288
vn 0.8074144 -0.5632918 -0.1754545
vn 0.07623744 0.9802218 -0.182628
vn 0.8842282 0.418416 -0.2075295
vn 0.5995486 -0.4367595 -0.6706582
vn 0.6584773 0.308913 -0.6862801
vn 0.04513801 0.7365523 -0.6748728
vn -0.07849574 -0.7611523 -0.6438055
vn -0.635716 0.4195482 -0.6479542
vn -0.01944078 -0.1411212 -0.9898015
vn 0.5995486 -0.4367595 -0.6706582
vn -0.1319934 -0.06320425 -0.9892335
vn 0.103674 -0.08261565 -0.9911742
vn 0.6584773 0.308913 -0.6862801
vn 0.114629 0.05313341 -0.9919864
vn -0.1207642 0.0731849 -0.9899799
vn 0.002746669 0.1311077 -0.9913644
vn 0.04513801 0.7365523 -0.6748728
vn 0.114629 0.05313341 -0.9919864
vn 0.6584773 0.308913 -0.6862801
vn -0.007507722 -0.00454736 -0.9999615
vn -0.1319934 -0.06320425 -0.9892335
vn 0.114629 0.05313341 -0.9919864
vn -0.007507722 -0.00454736 -0.9999615
vn -0.7291933 -0.6388262 0.2453127
vn -0.516476 -0.7388082 0.4329145
vn -0.9206042 0.349381 0.1744158
vn -0.916046 0.3909431 0.08957207
vn -0.683787 0.3936086 0.6144165
vn -0.6341226 -0.4870212 0.6005822
vn 0.2385361 0.03143452 0.9706247
vn 0.08298081 -0.853216 0.5149143
vn 0.8124797 -0.457451 0.3614073
vn 0.89235 0.4483876 -0.05157739
vn 0.8523496 0.3949839 0.3427649
vn -0.01397756 0.9993345 -0.03369263
vn -0.00128181 0.9999647 -0.008301248
vn -0.00128181 0.9999647 -0.008301248
vn -0.9206042 0.349381 0.1744158
vn 0.0943948 0.9038463 0.4173148
vn -0.683787 0.3936086 0.6144165
vn -0.916046 0.3909431 0.08957207
vn -0.516476 -0.7388082 0.4329145
vn -0.5925928 0.147164 0.7919448
vn -0.3047048 -0.8196877 0.4850434
vn 0.04245178 0.9986697 0.02926762
vn -0.8339605 0.5504396 0.03906424
vn -0.8225334 0.5681832 0.02462931
vn -0.394035 0.6524116 0.6473759
vn 0.5810619 0.5054345 0.6378894
vn -0.06695829 -0.1186877 0.9906714
vn -0.8691823 0.1261047 0.4781418
vn -0.7968306 -0.4038935 0.4493674
vn -0.386248 0.8793124 0.2786076
vn -0.9178982 -0.3968118 0.001831158
vn -0.1587928 -0.8723686 0.4623395
vn -0.1848558 -0.97723 -0.1041626
vn -0.9592263 0.2523653 0.1272661
vn -0.2787891 -0.9446786 -0.1727974
vn -0.9535729 -0.2891696 -0.08414149
vn -0.3572882 0.9037648 0.2356997
vn -0.9426527 0.3293043 0.05444661
vn -0.929415 -0.2107077 -0.3029686
vn -0.3479164 -0.9066883 -0.2384753
vn 0.8373947 -0.5455365 -0.03405979
vn 0.7363955 -0.6557944 0.1662986
vn -0.3503315 -0.8543888 -0.3837807
vn -0.8744234 -0.03616473 -0.4838139
vn -0.7516566 0.5994575 -0.2750693
vn -0.9112038 0.2524831 -0.3255149
vn -0.8886784 0.4534796 -0.06787392
vn -0.3503315 -0.8543888 -0.3837807
vn -0.6589524 -0.7177946 -0.2248392
vn 0.5592107 -0.7792571 0.2829168
vn -0.6589524 -0.7177946 -0.2248392
vn 0.07898283 -0.9138875 0.3982102
vn -0.8246143 -0.5628862 -0.05630693
vn -0.3417241 -0.9375515 0.06497549
vn -0.3047048 -0.8196877 0.4850434
vn 0.02264496 0.2182706 0.9756256
vn -0.5925928 0.147164 0.7919448
vn 0.5868546 0.3766685 0.7167445
vn 0.5592107 -0.7792571 0.2829168
vn 0.7177795 0.5538918 0.4218965
vn 0.7498236 0.6164551 0.2403073
vn 0.5868546 0.3766685 0.7167445
vn -0.2200723 0.9556102 0.1959013
vn -0.174051 0.9325143 0.3164231
vn 0.7499589 0.6268122 0.2113484
vn -0.394035 0.6524116 0.6473759
vn 0.5810619 0.5054345 0.6378894
vn 0.8527404 -0.5199577 -0.04977702
vn -0.1587928 -0.8723686 0.4623395
vn 0.7373053 -0.4810079 0.4743548
vn -0.06695829 -0.1186877 0.9906714
vn -0.7968306 -0.4038935 0.4493674
vn -0.8886784 0.4534796 -0.06787392
vn -0.9112038 0.2524831 -0.3255149
vn -0.8246143 -0.5628862 -0.05630693
vn -0.5925928 0.147164 0.7919448
vn -0.174051 0.9325143 0.3164231
vn -0.2940187 0.8818118 0.3687288
vn 0.1754206 -0.9685671 0.1763667
vn -0.516476 -0.7388082 0.4329145
vn -0.7291933 -0.6388262 0.2453127
vn 0.07028512 -0.9883559 0.1349548
g Tree_Btm_A_01_LOD1_0
f 3/3/3 2/2/2 1/1/1
f 6/6/6 5/5/5 4/4/4
f 9/9/9 8/8/8 7/7/7
f 8/8/8 10/10/10 7/7/7
f 7/7/7 10/10/10 11/11/11
f 10/10/10 12/12/12 11/11/11
f 11/11/11 13/13/13 7/7/7
f 13/13/13 14/14/14 7/7/7
f 11/11/11 12/12/12 15/15/15
f 11/11/11 15/15/15 13/13/13
f 14/14/14 13/13/13 16/16/16
f 16/16/16 17/17/17 14/14/14
f 17/17/17 18/18/18 14/14/14
f 15/15/15 19/19/19 13/13/13
f 19/19/19 15/15/15 20/20/20
f 13/13/13 21/21/21 16/16/16
f 21/21/21 13/13/13 19/19/19
f 20/20/20 15/15/15 22/22/22
f 15/15/15 23/23/23 22/22/22
f 12/12/12 23/23/23 15/15/15
f 20/20/20 22/22/22 24/24/24
f 24/24/24 25/25/25 20/20/20
f 25/25/25 26/26/26 20/20/20
f 27/27/27 23/23/23 12/12/12
f 23/23/23 27/27/27 28/28/28
f 29/29/29 27/27/27 12/12/12
f 30/30/30 29/29/29 12/12/12
f 31/31/31 30/30/30 12/12/12
f 31/31/31 32/32/32 30/30/30
f 32/32/32 33/33/33 30/30/30
f 30/30/30 33/33/33 34/34/34
f 27/27/27 35/35/35 28/28/28
f 28/28/28 35/35/35 36/36/36
f 35/35/35 37/37/37 36/36/36
f 30/30/30 34/34/34 38/38/38
f 38/38/38 39/39/39 30/30/30
f 37/37/37 40/40/40 36/36/36
f 40/40/40 41/41/41 36/36/36
f 41/41/41 40/40/40 42/42/42
f 43/43/43 41/41/41 42/42/42
f 42/42/42 44/44/44 43/43/43
f 44/44/44 45/45/45 43/43/43
f 46/46/46 38/38/38 34/34/34
f 47/47/47 46/46/46 34/34/34
f 47/47/47 37/37/37 48/48/48
f 46/46/46 47/47/47 48/48/48
f 48/48/48 49/49/49 46/46/46
f 38/38/38 46/46/46 50/50/50
f 49/49/49 48/48/48 51/51/51
f 48/48/48 27/27/27 51/51/51
f 52/52/52 49/49/49 51/51/51
f 53/53/53 38/38/38 50/50/50
f 54/54/54 38/38/38 53/53/53
f 51/51/51 27/27/27 55/55/55
f 27/27/27 56/56/56 55/55/55
f 55/55/55 56/56/56 54/54/54
f 56/56/56 57/57/57 54/54/54
f 55/55/55 54/54/54 58/58/58
f 58/58/58 54/54/54 53/53/53
f 55/55/55 59/59/59 51/51/51
f 59/59/59 55/55/55 58/58/58
f 60/60/60 52/52/52 51/51/51
f 59/59/59 60/60/60 51/51/51
f 53/53/53 50/50/50 61/61/61
f 53/53/53 62/62/62 58/58/58
f 62/62/62 53/53/53 61/61/61
f 62/62/62 61/61/61 63/63/63
f 62/62/62 64/64/64 58/58/58
f 59/59/59 58/58/58 64/64/64
f 64/64/64 62/62/62 63/63/63
f 60/60/60 59/59/59 65/65/65
f 65/65/65 59/59/59 64/64/64
f 66/66/66 61/61/61 50/50/50
f 52/52/52 66/66/66 50/50/50
f 67/67/67 60/60/60 65/65/65
f 60/60/60 67/67/67 52/52/52
f 67/67/67 66/66/66 52/52/52
f 65/65/65 64/64/64 68/68/68
f 67/67/67 65/65/65 68/68/68
f 69/69/69 67/67/67 68/68/68
f 67/67/67 69/69/69 66/66/66
f 69/69/69 70/70/70 66/66/66
f 64/64/64 71/71/71 68/68/68
f 71/71/71 64/64/64 63/63/63
f 66/66/66 70/70/70 72/72/72
f 61/61/61 66/66/66 72/72/72
f 61/61/61 72/72/72 63/63/63
f 71/71/71 63/63/63 73/73/73
f 74/74/74 71/71/71 73/73/73
f 63/63/63 75/75/75 73/73/73
f 76/76/76 74/74/74 73/73/73
f 77/77/77 74/74/74 76/76/76
f 78/78/78 77/77/77 76/76/76
f 75/75/75 63/63/63 79/79/79
f 63/63/63 72/72/72 79/79/79
f 79/79/79 72/72/72 80/80/80
f 72/72/72 81/81/81 80/80/80
f 80/80/80 81/81/81 82/82/82
f 81/81/81 83/83/83 82/82/82
f 80/80/80 84/84/84 79/79/79
f 79/79/79 84/84/84 85/85/85
f 86/86/86 84/84/84 80/80/80
f 76/76/76 87/87/87 86/86/86
f 89/89/89 88/88/88 26/26/26
f 88/88/88 90/90/90 26/26/26
f 91/91/91 90/90/90 88/88/88
f 17/17/17 91/91/91 88/88/88
f 92/92/92 91/91/91 17/17/17
f 93/93/93 92/92/92 17/17/17
f 17/17/17 16/16/16 93/93/93
f 93/93/93 94/94/94 92/92/92
f 16/16/16 95/95/95 93/93/93
f 93/93/93 95/95/95 94/94/94
f 95/95/95 16/16/16 21/21/21
f 96/96/96 95/95/95 21/21/21
f 96/96/96 94/94/94 95/95/95
f 96/96/96 21/21/21 97/97/97
f 97/97/97 21/21/21 19/19/19
f 98/98/98 94/94/94 96/96/96
f 98/98/98 96/96/96 97/97/97
f 97/97/97 19/19/19 99/99/99
f 99/99/99 19/19/19 20/20/20
f 98/98/98 97/97/97 100/100/100
f 101/101/101 97/97/97 99/99/99
f 102/102/102 91/91/91 101/101/101
f 99/99/99 102/102/102 101/101/101
f 99/99/99 20/20/20 102/102/102
f 20/20/20 26/26/26 102/102/102
f 103/103/103 94/94/94 98/98/98
f 103/103/103 98/98/98 100/100/100
f 103/103/103 104/104/104 94/94/94
f 100/100/100 105/105/105 103/103/103
f 105/105/105 104/104/104 103/103/103
f 26/26/26 107/107/107 106/106/106
f 107/107/107 108/108/108 106/106/106
f 111/111/111 110/110/110 109/109/109
f 52/52/52 111/111/111 109/109/109
f 114/114/114 113/113/113 112/112/112
f 114/114/114 112/112/112 115/115/115
f 114/114/114 115/115/115 116/116/116
f 115/115/115 112/112/112 117/117/117
f 116/116/116 115/115/115 118/118/118
f 116/116/116 118/118/118 119/119/119
f 118/118/118 120/120/120 119/119/119
f 121/121/121 115/115/115 117/117/117
f 115/115/115 121/121/121 118/118/118
f 120/120/120 118/118/118 122/122/122
f 118/118/118 121/121/121 123/123/123
f 118/118/118 123/123/123 122/122/122
f 117/117/117 124/124/124 121/121/121
f 121/121/121 125/125/125 123/123/123
f 124/124/124 125/125/125 121/121/121
f 126/126/126 123/123/123 125/125/125
f 127/127/127 122/122/122 123/123/123
f 126/126/126 127/127/127 123/123/123
f 44/44/44 125/125/125 124/124/124
f 44/44/44 126/126/126 125/125/125
f 120/120/120 122/122/122 128/128/128
f 122/122/122 127/127/127 129/129/129
f 128/128/128 122/122/122 129/129/129
f 127/127/127 126/126/126 130/130/130
f 127/127/127 130/130/130 129/129/129
f 131/131/131 126/126/126 44/44/44
f 126/126/126 131/131/131 130/130/130
f 132/132/132 131/131/131 44/44/44
f 131/131/131 132/132/132 40/40/40
f 45/45/45 44/44/44 124/124/124
f 133/133/133 131/131/131 40/40/40
f 133/133/133 40/40/40 37/37/37
f 134/134/134 133/133/133 37/37/37
f 135/135/135 131/131/131 133/133/133
f 136/136/136 135/135/135 133/133/133
f 130/130/130 137/137/137 129/129/129
f 137/137/137 130/130/130 138/138/138
f 139/139/139 137/137/137 138/138/138
f 139/139/139 138/138/138 140/140/140
f 141/141/141 139/139/139 140/140/140
f 139/139/139 141/141/141 142/142/142
f 143/143/143 139/139/139 142/142/142
f 144/144/144 143/143/143 142/142/142
f 143/143/143 145/145/145 139/139/139
f 145/145/145 146/146/146 139/139/139
f 146/146/146 145/145/145 147/147/147
f 129/129/129 146/146/146 147/147/147
f 128/128/128 129/129/129 147/147/147
f 148/148/148 128/128/128 147/147/147
f 147/147/147 45/45/45 148/148/148
f 147/147/147 149/149/149 45/45/45
f 149/149/149 150/150/150 45/45/45
f 150/150/150 149/149/149 143/143/143
f 151/151/151 150/150/150 143/143/143
f 45/45/45 124/124/124 148/148/148
f 148/148/148 124/124/124 117/117/117
f 152/152/152 148/148/148 117/117/117
f 128/128/128 148/148/148 152/152/152
f 117/117/117 153/153/153 152/152/152
f 153/153/153 154/154/154 152/152/152
f 155/155/155 128/128/128 152/152/152
f 152/152/152 154/154/154 155/155/155
f 155/155/155 120/120/120 128/128/128
f 156/156/156 120/120/120 155/155/155
f 154/154/154 157/157/157 155/155/155
f 157/157/157 156/156/156 155/155/155
f 158/158/158 157/157/157 154/154/154
f 158/158/158 156/156/156 157/157/157
f 158/158/158 159/159/159 156/156/156
f 136/136/136 161/161/161 160/160/160
f 162/162/162 136/136/136 160/160/160
f 165/165/165 164/164/164 163/163/163
f 164/164/164 143/143/143 163/163/163
f 168/168/168 167/167/167 166/166/166
f 169/169/169 168/168/168 166/166/166
