g Tree_Top_A_01_LOD1
v -0.02169614 0.009538687 -0.02045667
v -0.02634325 -0.0002319188 -0.01727434
v -0.02207174 -0.00952898 -0.01813931
v -0.03178246 0.01370554 -0.01445382
v -0.03607513 -0.002796113 -0.009661001
v -0.0170699 -0.0004662588 -0.01761582
v -0.0238939 0.02587011 -0.01585227
v -0.01523449 0.01695975 -0.02185804
v -0.03201194 -0.01555613 -0.009928402
v -0.01460163 -0.01850872 -0.01883714
v -0.03275085 0.0141696 -0.003430214
v -0.02463078 0.02620997 -0.003400594
v -0.03716172 -0.003213283 -0.001492282
v -0.009967081 0.007018045 -0.01777512
v -0.008427659 -0.01170169 -0.01548617
v -0.01301363 0.03356517 -0.01532244
v -0.0133921 0.03350455 -0.002414133
v -0.00732113 0.02252437 -0.02191092
v -0.02200018 -0.02624421 -0.009641596
v -0.03168501 -0.01536631 -5.380168E-05
v -0.006777391 -0.02553138 -0.01785685
v -0.02731531 0.01209702 0.008848228
v -0.01989079 0.02181034 0.009875304
v -0.01045201 0.02767202 0.01089334
v -0.03255175 -0.002819858 0.008232203
v 0.001196911 0.0358604 -0.001292309
v 0.001404091 0.03040862 0.01149192
v 0.001044186 0.03591715 -0.01396613
v -0.02151462 -0.02601253 0.0005677943
v -0.02650029 -0.01241761 0.009701616
v -0.01080704 -0.03263667 -0.00798465
v -0.01908301 0.008906561 0.02025416
v -0.02327686 -0.002033547 0.01886364
v -0.01315414 0.01640343 0.02143765
v -0.006037435 0.02132593 0.02196275
v 0.002081322 0.02414352 0.021249
v 0.009276957 0.0197585 0.02110811
v 0.0008568895 0.01532565 0.02208245
v -0.006660107 0.009733269 0.02216763
v -0.01351431 0.001972708 0.0211602
v -0.01967121 -0.009262359 0.01864639
v 0.01231493 0.02504233 0.01037896
v 0.01542456 0.01299974 0.0210398
v 0.008631751 0.00688009 0.02170749
v 0.001515343 0.0009244328 0.02173107
v 0.01485558 0.02999473 -0.002312405
v 0.02080494 0.01714948 0.01100076
v 0.01951077 0.005934002 0.02087175
v -0.005781274 -0.006197876 0.02069408
v 0.01474095 -0.001529077 0.02118052
v 0.008437058 -0.007698805 0.02087325
v 0.01460514 0.03017854 -0.01465031
v 0.02627343 0.0204969 -0.001070387
v 0.02584073 0.008370331 0.01204685
v 0.023004 -0.00160723 0.02031823
v 0.01915923 -0.01026779 0.02083099
v 0.03000023 -0.002626499 0.01187164
v 0.03266371 0.009547004 0.0009983963
v 0.002113624 0.02647362 -0.02078977
v 0.02706483 0.01981164 -0.01322008
v -0.0009235961 0.01366407 -0.0190155
v 0.01045519 0.02018728 -0.02198101
v -0.0007901543 -0.004858028 -0.01376718
v 0.007976711 0.002533268 -0.01480846
v 0.01792423 0.01124319 -0.02032713
v 0.0344102 0.00796579 -0.01050244
v 0.00101635 -0.02077198 -0.01428583
v 0.009076006 -0.01471418 -0.01194916
v 0.01687963 -0.007174672 -0.01229369
v 0.0007593766 -0.03249043 -0.01332436
v 0.01062714 -0.02805645 -0.01330646
v -0.0007137105 -0.03661476 -0.003635679
v 0.01924441 -0.02240805 -0.01349962
v 0.02399405 0.002471589 -0.01733208
v -0.01067025 -0.03283926 0.001156878
v 0.01303732 -0.03414897 -0.004140057
v 0.02634028 -0.01533815 -0.01387542
v -0.01752035 -0.02155548 0.01006453
v -0.0002454901 -0.03756915 0.003169493
v 0.02469775 -0.02858687 -0.004810983
v -0.01301867 -0.01590744 0.01798112
v -0.008574215 -0.02846242 0.009758736
v 0.01202291 -0.03427643 0.004940914
v 0.001252885 -0.01388807 0.01960103
v 0.0002490659 -0.03491751 0.009614271
v -0.0062228 -0.0212729 0.01683958
v 0.01369025 -0.01691056 0.02049311
v 0.007060184 -0.02246871 0.01876893
v -0.0003996119 -0.02752202 0.01486957
v 0.00958103 -0.02987307 0.01306689
v 0.02254678 -0.02742228 0.005668298
v 0.01768074 -0.02250641 0.01452603
v 0.02453157 -0.01339964 0.01418364
v 0.03313959 -0.01951281 -0.00573205
v 0.03067745 -0.01748408 0.005015535
v 0.03543517 -0.00414657 0.002353946
v 0.03673694 -0.0056331 -0.00705569
v 0.031473 -0.006218474 -0.01444832
vt 0.257526 0.9186804
vt 0.257526 0.9186804
vt 0.257526 0.9186804
vt 0.257526 0.9186804
vt 0.257526 0.9186804
vt 0.257526 0.9186804
vt 0.257526 0.9186804
vt 0.257526 0.9186804
vt 0.257526 0.9186804
vt 0.257526 0.9186804
vt 0.257526 0.9186804
vt 0.257526 0.9186804
vt 0.257526 0.9186804
vt 0.257526 0.9186804
vt 0.257526 0.9186804
vt 0.257526 0.9186804
vt 0.257526 0.9186804
vt 0.257526 0.9186804
vt 0.257526 0.9186804
vt 0.257526 0.9186804
vt 0.257526 0.9186804
vt 0.257526 0.9186804
vt 0.257526 0.9186804
vt 0.257526 0.9186804
vt 0.257526 0.9186804
vt 0.257526 0.9186804
vt 0.257526 0.9186804
vt 0.257526 0.9186804
vt 0.257526 0.9186804
vt 0.257526 0.9186804
vt 0.257526 0.9186804
vt 0.257526 0.9186804
vt 0.257526 0.9186804
vt 0.257526 0.9186804
vt 0.257526 0.9186804
vt 0.257526 0.9186804
vt 0.257526 0.9186804
vt 0.257526 0.9186804
vt 0.257526 0.9186804
vt 0.257526 0.9186804
vt 0.257526 0.9186804
vt 0.257526 0.9186804
vt 0.257526 0.9186804
vt 0.257526 0.9186804
vt 0.257526 0.9186804
vt 0.257526 0.9186804
vt 0.257526 0.9186804
vt 0.257526 0.9186804
vt 0.257526 0.9186804
vt 0.257526 0.9186804
vt 0.257526 0.9186804
vt 0.257526 0.9186804
vt 0.257526 0.9186804
vt 0.257526 0.9186804
vt 0.257526 0.9186804
vt 0.257526 0.9186804
vt 0.257526 0.9186804
vt 0.257526 0.9186804
vt 0.257526 0.9186804
vt 0.257526 0.9186804
vt 0.257526 0.9186804
vt 0.257526 0.9186804
vt 0.257526 0.9186804
vt 0.257526 0.9186804
vt 0.257526 0.9186804
vt 0.257526 0.9186804
vt 0.257526 0.9186804
vt 0.257526 0.9186804
vt 0.257526 0.9186804
vt 0.257526 0.9186804
vt 0.257526 0.9186804
vt 0.257526 0.9186804
vt 0.257526 0.9186804
vt 0.257526 0.9186804
vt 0.257526 0.9186804
vt 0.257526 0.9186804
vt 0.257526 0.9186804
vt 0.257526 0.9186804
vt 0.257526 0.9186804
vt 0.257526 0.9186804
vt 0.257526 0.9186804
vt 0.257526 0.9186804
vt 0.257526 0.9186804
vt 0.257526 0.9186804
vt 0.257526 0.9186804
vt 0.257526 0.9186804
vt 0.257526 0.9186804
vt 0.257526 0.9186804
vt 0.257526 0.9186804
vt 0.257526 0.9186804
vt 0.257526 0.9186804
vt 0.257526 0.9186804
vt 0.257526 0.9186804
vt 0.257526 0.9186804
vt 0.257526 0.9186804
vt 0.257526 0.9186804
vt 0.257526 0.9186804
vt 0.257526 0.9186804
vn -0.2298093 -0.05465982 -0.9716995
vn -0.3977567 -0.1158814 -0.9101435
vn -0.2399393 -0.1580572 -0.9578346
vn -0.8018992 0.2675337 -0.5342129
vn -0.8968545 -0.08444537 -0.4341902
vn 0.1133489 -0.1010801 -0.9884001
vn -0.6101705 0.581513 -0.5380841
vn -0.1231442 0.03485272 -0.9917766
vn -0.7736216 -0.4663886 -0.4289421
vn -0.1018739 -0.2219373 -0.9697244
vn -0.8990429 0.408076 0.1587318
vn -0.6995642 0.6904083 0.1842452
vn -0.9791487 -0.06430404 0.1926985
vn 0.1464306 -0.2281913 -0.9625418
vn 0.2302358 0.06311342 -0.971086
vn -0.3116922 0.8133662 -0.4912059
vn -0.3781372 0.9024326 0.2064648
vn -0.05823105 0.1543672 -0.9862961
vn -0.5790467 -0.7138514 -0.3938543
vn -0.8126138 -0.5230747 0.2570052
vn -0.00613434 -0.3478872 -0.9375163
vn -0.7710255 0.3706343 0.517832
vn -0.6145023 0.5985407 0.5139418
vn -0.3628787 0.7877427 0.4977755
vn -0.8355344 -0.05450796 0.5467277
vn 0.1133166 0.9702257 0.2140594
vn 0.1076708 0.8729937 0.4756984
vn 0.1069404 0.8991355 -0.4244045
vn -0.6150484 -0.7377651 0.2782412
vn -0.6743498 -0.4634934 0.574827
vn -0.3907364 -0.8527045 -0.3467278
vn -0.4965439 0.1823509 0.8486414
vn -0.5636265 -0.06579915 0.8234049
vn -0.3856755 0.3319917 0.8608345
vn -0.2070716 0.4585485 0.8642075
vn 0.1144478 0.5924428 0.7974417
vn 0.3531979 0.4427716 0.8241386
vn 0.0334183 0.03329622 0.9988866
vn -0.05609338 -0.02612401 0.9980837
vn -0.1281501 -0.08899397 0.9877538
vn -0.4163136 -0.3291505 0.8475512
vn 0.5087866 0.7349038 0.448389
vn 0.4186648 0.3198125 0.8499646
vn 0.05386617 -0.007080425 0.9985231
vn -0.003234999 -0.07785361 0.9969596
vn 0.5207447 0.8318853 0.1918115
vn 0.6515114 0.5691721 0.5015734
vn 0.4488411 0.2044459 0.8699101
vn -0.06375418 -0.1625747 0.9846343
vn 0.05658166 -0.02505585 0.9980835
vn -0.02423229 -0.09152726 0.9955077
vn 0.4834568 0.7415588 -0.4651451
vn 0.7265704 0.6463965 0.232953
vn 0.752615 0.3733776 0.542365
vn 0.5433658 0.02029534 0.8392506
vn 0.3788296 -0.2130516 0.9006093
vn 0.8098207 0.0218821 0.5862693
vn 0.8762926 0.3855773 0.2888625
vn 0.06479296 0.3371798 -0.939208
vn 0.7208015 0.5102193 -0.469171
vn 0.02340838 -0.2598727 -0.9653592
vn 0.1702022 0.102695 -0.9800434
vn 0.1442006 -0.116215 -0.9827004
vn -0.0238048 -0.2963392 -0.9547861
vn 0.2071955 -0.07840408 -0.9751527
vn 0.8755967 0.2700952 -0.4004733
vn 0.2070128 0.05200498 -0.9769551
vn 0.05359214 0.01730452 -0.998413
vn -0.07904423 -0.1634293 -0.9833835
vn 0.07886212 -0.6636443 -0.7438797
vn 0.2435766 -0.4345986 -0.8670608
vn -0.07007148 -0.9640628 -0.2562675
vn 0.2305107 -0.320664 -0.9187161
vn 0.2310903 -0.1299196 -0.9642189
vn -0.4817131 -0.8472707 0.2237964
vn 0.3526474 -0.8983276 -0.2620059
vn 0.3014406 -0.2938717 -0.9070684
vn -0.5189201 -0.6118819 0.5969275
vn -0.1128918 -0.9715288 0.2082959
vn 0.5988518 -0.7625884 -0.244613
vn -0.3003424 -0.4151262 0.8587576
vn -0.4473221 -0.6629108 0.6003767
vn 0.3603468 -0.8891321 0.2821246
vn -0.09015387 -0.2022206 0.9751816
vn -0.1362365 -0.7902573 0.5974387
vn -0.2584327 -0.435899 0.8620932
vn 0.2155889 -0.3167912 0.9236692
vn 0.03515791 -0.410786 0.9110537
vn -0.1962994 -0.5228547 0.8295115
vn 0.2493121 -0.6914147 0.6780776
vn 0.5999794 -0.6899503 0.4049609
vn 0.4901709 -0.5412602 0.6832056
vn 0.6832016 -0.3456904 0.6432215
vn 0.8356491 -0.5023478 -0.2221195
vn 0.8064666 -0.4091692 0.4268398
vn 0.9374966 -0.005401944 0.3479523
vn 0.9607505 -0.08514912 -0.2640232
vn 0.4640176 -0.1580907 -0.8716048
g Tree_Top_A_01_LOD1_0
f 3/3/3 2/2/2 1/1/1
f 4/4/4 1/1/1 2/2/2
f 5/5/5 2/2/2 3/3/3
f 5/5/5 4/4/4 2/2/2
f 6/6/6 3/3/3 1/1/1
f 4/4/4 7/7/7 1/1/1
f 6/6/6 1/1/1 8/8/8
f 7/7/7 8/8/8 1/1/1
f 9/9/9 5/5/5 3/3/3
f 10/10/10 3/3/3 6/6/6
f 9/9/9 3/3/3 10/10/10
f 11/11/11 4/4/4 5/5/5
f 12/12/12 7/7/7 4/4/4
f 11/11/11 12/12/12 4/4/4
f 13/13/13 5/5/5 9/9/9
f 13/13/13 11/11/11 5/5/5
f 14/14/14 6/6/6 8/8/8
f 15/15/15 10/10/10 6/6/6
f 15/15/15 6/6/6 14/14/14
f 7/7/7 16/16/16 8/8/8
f 12/12/12 17/17/17 7/7/7
f 17/17/17 16/16/16 7/7/7
f 14/14/14 8/8/8 18/18/18
f 16/16/16 18/18/18 8/8/8
f 19/19/19 9/9/9 10/10/10
f 20/20/20 13/13/13 9/9/9
f 20/20/20 9/9/9 19/19/19
f 21/21/21 10/10/10 15/15/15
f 19/19/19 10/10/10 21/21/21
f 22/22/22 11/11/11 13/13/13
f 23/23/23 12/12/12 11/11/11
f 22/22/22 23/23/23 11/11/11
f 24/24/24 17/17/17 12/12/12
f 23/23/23 24/24/24 12/12/12
f 25/25/25 13/13/13 20/20/20
f 25/25/25 22/22/22 13/13/13
f 17/17/17 26/26/26 16/16/16
f 24/24/24 27/27/27 17/17/17
f 27/27/27 26/26/26 17/17/17
f 26/26/26 28/28/28 16/16/16
f 16/16/16 28/28/28 18/18/18
f 29/29/29 20/20/20 19/19/19
f 30/30/30 25/25/25 20/20/20
f 30/30/30 20/20/20 29/29/29
f 29/29/29 19/19/19 31/31/31
f 31/31/31 19/19/19 21/21/21
f 32/32/32 22/22/22 25/25/25
f 33/33/33 25/25/25 30/30/30
f 33/33/33 32/32/32 25/25/25
f 32/32/32 34/34/34 22/22/22
f 34/34/34 23/23/23 22/22/22
f 34/34/34 35/35/35 23/23/23
f 35/35/35 24/24/24 23/23/23
f 35/35/35 36/36/36 24/24/24
f 36/36/36 27/27/27 24/24/24
f 36/36/36 35/35/35 37/37/37
f 36/36/36 37/37/37 27/27/27
f 35/35/35 34/34/34 38/38/38
f 35/35/35 38/38/38 37/37/37
f 34/34/34 32/32/32 39/39/39
f 34/34/34 39/39/39 38/38/38
f 32/32/32 33/33/33 40/40/40
f 32/32/32 40/40/40 39/39/39
f 41/41/41 33/33/33 30/30/30
f 33/33/33 41/41/41 40/40/40
f 37/37/37 42/42/42 27/27/27
f 27/27/27 42/42/42 26/26/26
f 37/37/37 38/38/38 43/43/43
f 37/37/37 43/43/43 42/42/42
f 38/38/38 39/39/39 44/44/44
f 38/38/38 44/44/44 43/43/43
f 39/39/39 40/40/40 45/45/45
f 39/39/39 45/45/45 44/44/44
f 42/42/42 46/46/46 26/26/26
f 26/26/26 46/46/46 28/28/28
f 43/43/43 47/47/47 42/42/42
f 42/42/42 47/47/47 46/46/46
f 43/43/43 44/44/44 48/48/48
f 43/43/43 48/48/48 47/47/47
f 40/40/40 41/41/41 49/49/49
f 40/40/40 49/49/49 45/45/45
f 44/44/44 45/45/45 50/50/50
f 44/44/44 50/50/50 48/48/48
f 45/45/45 49/49/49 51/51/51
f 45/45/45 51/51/51 50/50/50
f 46/46/46 52/52/52 28/28/28
f 47/47/47 53/53/53 46/46/46
f 46/46/46 53/53/53 52/52/52
f 48/48/48 54/54/54 47/47/47
f 47/47/47 54/54/54 53/53/53
f 48/48/48 50/50/50 55/55/55
f 48/48/48 55/55/55 54/54/54
f 50/50/50 56/56/56 55/55/55
f 50/50/50 51/51/51 56/56/56
f 55/55/55 57/57/57 54/54/54
f 55/55/55 56/56/56 57/57/57
f 54/54/54 58/58/58 53/53/53
f 54/54/54 57/57/57 58/58/58
f 28/28/28 52/52/52 59/59/59
f 28/28/28 59/59/59 18/18/18
f 53/53/53 60/60/60 52/52/52
f 53/53/53 58/58/58 60/60/60
f 61/61/61 18/18/18 59/59/59
f 61/61/61 14/14/14 18/18/18
f 52/52/52 62/62/62 59/59/59
f 52/52/52 60/60/60 62/62/62
f 62/62/62 61/61/61 59/59/59
f 63/63/63 14/14/14 61/61/61
f 63/63/63 15/15/15 14/14/14
f 64/64/64 61/61/61 62/62/62
f 64/64/64 63/63/63 61/61/61
f 60/60/60 65/65/65 62/62/62
f 65/65/65 64/64/64 62/62/62
f 58/58/58 66/66/66 60/60/60
f 60/60/60 66/66/66 65/65/65
f 67/67/67 15/15/15 63/63/63
f 67/67/67 21/21/21 15/15/15
f 68/68/68 63/63/63 64/64/64
f 68/68/68 67/67/67 63/63/63
f 69/69/69 64/64/64 65/65/65
f 69/69/69 68/68/68 64/64/64
f 70/70/70 21/21/21 67/67/67
f 31/31/31 21/21/21 70/70/70
f 71/71/71 67/67/67 68/68/68
f 71/71/71 70/70/70 67/67/67
f 72/72/72 31/31/31 70/70/70
f 72/72/72 70/70/70 71/71/71
f 73/73/73 71/71/71 68/68/68
f 73/73/73 68/68/68 69/69/69
f 74/74/74 69/69/69 65/65/65
f 66/66/66 74/74/74 65/65/65
f 75/75/75 31/31/31 72/72/72
f 75/75/75 29/29/29 31/31/31
f 76/76/76 72/72/72 71/71/71
f 76/76/76 71/71/71 73/73/73
f 77/77/77 73/73/73 69/69/69
f 77/77/77 69/69/69 74/74/74
f 78/78/78 29/29/29 75/75/75
f 78/78/78 30/30/30 29/29/29
f 41/41/41 30/30/30 78/78/78
f 79/79/79 75/75/75 72/72/72
f 79/79/79 72/72/72 76/76/76
f 80/80/80 76/76/76 73/73/73
f 80/80/80 73/73/73 77/77/77
f 81/81/81 41/41/41 78/78/78
f 41/41/41 81/81/81 49/49/49
f 82/82/82 78/78/78 75/75/75
f 82/82/82 75/75/75 79/79/79
f 81/81/81 78/78/78 82/82/82
f 83/83/83 79/79/79 76/76/76
f 83/83/83 76/76/76 80/80/80
f 49/49/49 81/81/81 84/84/84
f 49/49/49 84/84/84 51/51/51
f 85/85/85 82/82/82 79/79/79
f 85/85/85 79/79/79 83/83/83
f 86/86/86 81/81/81 82/82/82
f 81/81/81 86/86/86 84/84/84
f 86/86/86 82/82/82 85/85/85
f 51/51/51 84/84/84 87/87/87
f 51/51/51 87/87/87 56/56/56
f 84/84/84 86/86/86 88/88/88
f 84/84/84 88/88/88 87/87/87
f 89/89/89 86/86/86 85/85/85
f 86/86/86 89/89/89 88/88/88
f 89/89/89 85/85/85 90/90/90
f 90/90/90 85/85/85 83/83/83
f 88/88/88 89/89/89 90/90/90
f 91/91/91 83/83/83 80/80/80
f 90/90/90 83/83/83 91/91/91
f 88/88/88 90/90/90 92/92/92
f 87/87/87 88/88/88 92/92/92
f 92/92/92 90/90/90 91/91/91
f 56/56/56 87/87/87 93/93/93
f 87/87/87 92/92/92 93/93/93
f 56/56/56 93/93/93 57/57/57
f 91/91/91 80/80/80 94/94/94
f 94/94/94 80/80/80 77/77/77
f 92/92/92 91/91/91 95/95/95
f 93/93/93 92/92/92 95/95/95
f 95/95/95 91/91/91 94/94/94
f 57/57/57 93/93/93 96/96/96
f 93/93/93 95/95/95 96/96/96
f 57/57/57 96/96/96 58/58/58
f 58/58/58 96/96/96 66/66/66
f 96/96/96 95/95/95 97/97/97
f 96/96/96 97/97/97 66/66/66
f 95/95/95 94/94/94 97/97/97
f 66/66/66 97/97/97 74/74/74
f 98/98/98 77/77/77 74/74/74
f 94/94/94 77/77/77 98/98/98
f 97/97/97 94/94/94 98/98/98
f 97/97/97 98/98/98 74/74/74
