g VIP_Decor
v -0.9999998 0.2999998 -1
v -1 2 -1
v 0.9999996 2 -0.9999996
v 1 0.3000004 -0.9999998
v -0.9999998 0.2530694 -0.9963068
v 1 0.2530701 -0.9963063
v -0.9999999 0.2072947 -0.9853172
v 1 0.2072953 -0.9853168
v -0.9999999 0.1638026 -0.9673023
v 1 0.1638033 -0.9673018
v -0.9999999 0.1236642 -0.9427054
v 1 0.1236648 -0.9427049
v -0.9999998 0.08786771 -0.9121323
v 1 0.08786837 -0.9121318
v -0.9999998 0.05729465 -0.8763359
v 1 0.0572953 -0.8763354
v -0.9999998 0.03269777 -0.8361974
v 1 0.03269842 -0.836197
v -0.9999998 0.01468277 -0.7927054
v 1 0.01468342 -0.7927049
v -0.9999998 0.003693222 -0.7469306
v 1 0.003693873 -0.7469301
v -0.9999998 -2.729928E-07 -0.7000002
v 1 3.786899E-07 -0.6999997
v -1 -4.013393E-07 0.9999998
v 0.9999998 2.503434E-07 1
vt 1 0
vt 1 0
vt 0 0
vt 0 0
vt 1 0
vt 0 0
vt 1 0
vt 0 0
vt 1 0
vt 0 0
vt 1 0
vt 0 0
vt 1 0
vt 0 0
vt 1 0.06182861
vt 0 0.06182861
vt 1 0.08190918
vt 0 0.08190918
vt 1 0.1036377
vt 0 0.1036377
vt 1 0.1265869
vt 0 0.1265869
vt 1 0.1500244
vt 0 0.1500244
vt 1 1
vt 0 1
vn 0 0.03924561 0.9990234
vn 0 0 1
vn 0 0 1
vn 0 0.03924561 0.9990234
vn 0 0.1563721 0.987793
vn 0 0.1563721 0.987793
vn 0 0.309082 0.9511719
vn 0 0.309082 0.9511719
vn 0 0.4538574 0.8911133
vn 0 0.4538574 0.8911133
vn 0 0.5878906 0.809082
vn 0 0.5878906 0.809082
vn 0 0.7070313 0.7070313
vn 0 0.7070313 0.7070313
vn 0 0.809082 0.5878906
vn 0 0.809082 0.5878906
vn 0 0.8911133 0.4538574
vn 0 0.8911133 0.4538574
vn 0 0.9511719 0.309082
vn 0 0.9511719 0.309082
vn 0 0.987793 0.1563721
vn 0 0.987793 0.1563721
vn 0 0.9990234 0.03924561
vn 0 0.9990234 0.03924561
vn 0 1 0
vn 0 1 0
g VIP_Decor_0
f 3/3/3 2/2/2 1/1/1
f 4/4/4 3/3/3 1/1/1
f 1/1/1 5/5/5 4/4/4
f 5/5/5 6/6/6 4/4/4
f 5/5/5 7/7/7 6/6/6
f 7/7/7 8/8/8 6/6/6
f 7/7/7 9/9/9 8/8/8
f 9/9/9 10/10/10 8/8/8
f 9/9/9 11/11/11 10/10/10
f 11/11/11 12/12/12 10/10/10
f 11/11/11 13/13/13 12/12/12
f 13/13/13 14/14/14 12/12/12
f 13/13/13 15/15/15 14/14/14
f 15/15/15 16/16/16 14/14/14
f 15/15/15 17/17/17 16/16/16
f 17/17/17 18/18/18 16/16/16
f 17/17/17 19/19/19 18/18/18
f 19/19/19 20/20/20 18/18/18
f 19/19/19 21/21/21 20/20/20
f 21/21/21 22/22/22 20/20/20
f 21/21/21 23/23/23 22/22/22
f 23/23/23 24/24/24 22/22/22
f 23/23/23 25/25/25 24/24/24
f 25/25/25 26/26/26 24/24/24
