g WaterPlant
v -0.4924619 5.15204 -0.2097346
v -0.1657654 6.396204 -0.09295086
v -0.4066212 5.148936 -0.3292183
v -0.5147163 4.397103 -0.1897838
v -0.4243896 4.397683 -0.336356
v -0.3938766 3.623229 -0.08450326
v -0.2985638 3.62317 -0.2586575
v -0.1015681 2.595656 0.1208659
v 0.003284143 2.585539 -0.08874579
v 0.200704 0.8869361 0.2381088
v 0.3136573 0.909237 -0.02059498
v 0.06477557 -0.05457138 0.06164409
v -0.05679153 0.8805747 0.3557785
v 0.1968177 -0.0006463943 -0.2023706
v 0.2809111 0.910979 -0.05269336
v 0.1679238 0.02198355 -0.2299148
v -0.1927664 -0.0006739817 0.2062845
v -0.08953804 0.8823167 0.3236805
v -0.2216606 0.02195597 0.1787405
v 0.02353453 0.8968143 0.06448077
v -0.09150713 0.0679588 -0.08733699
v 0.2809111 0.910979 -0.05269336
v -0.1603993 2.50678 -0.2579737
v -0.3701543 2.466407 -0.1568195
v -0.4665607 3.562341 -0.4310237
v -0.6409549 3.533313 -0.3380298
v -0.5974349 4.377868 -0.5132629
v -0.7474546 4.369952 -0.4277062
v -0.5766053 5.185445 -0.5064351
v -0.70038 5.196353 -0.4264642
v -0.1845987 6.412874 -0.1146987
v -0.1603993 2.50678 -0.2579737
v 0.2809111 0.910979 -0.05269336
v 0.5893618 1.550815 -0.4506445
v 0.5101812 2.59458 -0.7988548
v -0.4665607 3.562341 -0.4310237
v 0.1577668 3.643891 -0.9226552
v -0.5974349 4.377868 -0.5132629
v -0.1205764 4.399047 -0.8416052
v -0.5766053 5.185445 -0.5064351
v -0.2344965 5.152379 -0.6987548
v -0.1845987 6.412874 -0.1146987
v -0.1832805 6.041329 -0.37598
v 0.3136573 0.909237 -0.02059498
v 0.5893618 1.550815 -0.4506445
v 0.2809111 0.910979 -0.05269336
v 0.621145 1.559001 -0.4185745
v 0.003284143 2.585539 -0.08874579
v 0.5101812 2.59458 -0.7988548
v 0.5404375 2.609132 -0.7675744
v -0.2985638 3.62317 -0.2586575
v 0.1577668 3.643891 -0.9226552
v 0.1888628 3.654914 -0.8907619
v -0.4243896 4.397683 -0.336356
v -0.1205764 4.399047 -0.8416052
v -0.08858119 4.402475 -0.8088912
v -0.4066212 5.148936 -0.3292183
v -0.2344965 5.152379 -0.6987548
v -0.2030981 5.145499 -0.6660063
v -0.1832805 6.041329 -0.37598
v -0.1657654 6.396204 -0.09295086
v -0.1553219 6.022416 -0.3448952
v -0.1845987 6.412874 -0.1146987
v -0.488354 6.087216 -0.005927541
v -0.5163128 6.106129 -0.03701214
v -0.950983 5.220935 0.06689747
v -0.1657654 6.396204 -0.09295086
v -0.9823816 5.227816 0.03414913
v -0.6128553 5.169531 -0.127158
v -1.144255 4.423193 0.2214209
v -1.17625 4.419765 0.188707
v -0.6634899 4.401902 -0.1029475
v -1.204952 3.587893 0.4913754
v -1.236048 3.576869 0.4594823
v -0.5683957 3.609601 0.009123398
v -0.9732285 2.451705 0.7697706
v -1.003485 2.437154 0.7384902
v -0.3068522 2.553346 0.2262121
v -0.5066818 1.438944 0.7298082
v -0.538465 1.430758 0.6977383
v -0.05679153 0.8805747 0.3557785
v -0.08953804 0.8823167 0.3236805
v 0.200704 0.8869361 0.2381088
v -0.05679153 0.8805747 0.3557785
v -0.3068522 2.553346 0.2262121
v -0.1015681 2.595656 0.1208659
v -0.5683957 3.609601 0.009123398
v -0.3938766 3.623229 -0.08450326
v -0.6634899 4.401902 -0.1029475
v -0.5147163 4.397103 -0.1897838
v -0.6128553 5.169531 -0.127158
v -0.4924619 5.15204 -0.2097346
v -0.1657654 6.396204 -0.09295086
v 0.02353453 0.8968143 0.06448077
v -0.4705359 2.474588 0.05698431
v -0.08953804 0.8823167 0.3236805
v -0.3701543 2.466407 -0.1568195
v -0.7363928 3.548772 -0.1632426
v -0.6409549 3.533313 -0.3380298
v -0.8365352 4.382088 -0.2798541
v -0.7474546 4.369952 -0.4277062
v -0.7828395 5.20604 -0.3043747
v -0.70038 5.196353 -0.4264642
v -0.1845987 6.412874 -0.1146987
v -0.4705359 2.474588 0.05698431
v -0.538465 1.430758 0.6977383
v -0.08953804 0.8823167 0.3236805
v -1.003485 2.437154 0.7384902
v -0.7363928 3.548772 -0.1632426
v -1.236048 3.576869 0.4594823
v -0.8365352 4.382088 -0.2798541
v -1.17625 4.419765 0.188707
v -0.7828395 5.20604 -0.3043747
v -0.9823816 5.227816 0.03414913
v -0.5163128 6.106129 -0.03701214
vt 0.4223633 0.9248047
vt 0.4223633 0.9365234
vt 0.4291992 0.9262695
vt 0.4223633 0.9179688
vt 0.4279785 0.9189453
vt 0.4223633 0.9106445
vt 0.4272461 0.9106445
vt 0.4223633 0.9008789
vt 0.4274902 0.9003906
vt 0.4223633 0.8857422
vt 0.4306641 0.8857422
vt 0.4223633 0.8857422
vt 0.4306641 0.8857422
vt 0.4306641 0.8857422
vt 0.4306641 0.8857422
vt 0.4306641 0.8857422
vt 0.4306641 0.8857422
vt 0.4306641 0.8857422
vt 0.4306641 0.8857422
vt 0.4223633 0.8857422
vt 0.4223633 0.8857422
vt 0.4306641 0.8857422
vt 0.4274902 0.9003906
vt 0.4223633 0.9008789
vt 0.4272461 0.9106445
vt 0.4223633 0.9106445
vt 0.4279785 0.9189453
vt 0.4223633 0.9179688
vt 0.4291992 0.9262695
vt 0.4223633 0.9248047
vt 0.4223633 0.9365234
vt 0.081604 0.9003906
vt 0.0847168 0.8857422
vt 0.1016846 0.8857422
vt 0.1016846 0.8984375
vt 0.08129883 0.9106445
vt 0.1016846 0.9111328
vt 0.08215332 0.9189453
vt 0.1016846 0.9238281
vt 0.08337402 0.9262695
vt 0.1016846 0.9301758
vt 0.07641602 0.9365234
vt 0.1016846 0.9365234
vt 0.0847168 0.8857422
vt 0.1016846 0.8857422
vt 0.0847168 0.8857422
vt 0.1016846 0.8857422
vt 0.081604 0.9003906
vt 0.1016846 0.8984375
vt 0.1016846 0.8984375
vt 0.08129883 0.9106445
vt 0.1016846 0.9111328
vt 0.1016846 0.9111328
vt 0.08215332 0.9189453
vt 0.1016846 0.9238281
vt 0.1016846 0.9238281
vt 0.08337402 0.9262695
vt 0.1016846 0.9301758
vt 0.1016846 0.9301758
vt 0.1016846 0.9365234
vt 0.07641602 0.9365234
vt 0.1016846 0.9365234
vt 0.07641602 0.9365234
vt 0.1016846 0.9365234
vt 0.1016846 0.9365234
vt 0.1016846 0.9301758
vt 0.07641602 0.9365234
vt 0.1016846 0.9301758
vt 0.08337402 0.9262695
vt 0.1016846 0.9238281
vt 0.1016846 0.9238281
vt 0.08215332 0.9189453
vt 0.1016846 0.9111328
vt 0.1016846 0.9111328
vt 0.08129883 0.9106445
vt 0.1016846 0.8984375
vt 0.1016846 0.8984375
vt 0.081604 0.9003906
vt 0.1016846 0.8857422
vt 0.1016846 0.8857422
vt 0.0847168 0.8857422
vt 0.0847168 0.8857422
vt 0.4223633 0.8857422
vt 0.4306641 0.8857422
vt 0.4274902 0.9003906
vt 0.4223633 0.9008789
vt 0.4272461 0.9106445
vt 0.4223633 0.9106445
vt 0.4279785 0.9189453
vt 0.4223633 0.9179688
vt 0.4291992 0.9262695
vt 0.4223633 0.9248047
vt 0.4223633 0.9365234
vt 0.4223633 0.8857422
vt 0.4274902 0.9003906
vt 0.4306641 0.8857422
vt 0.4223633 0.9008789
vt 0.4272461 0.9106445
vt 0.4223633 0.9106445
vt 0.4279785 0.9189453
vt 0.4223633 0.9179688
vt 0.4291992 0.9262695
vt 0.4223633 0.9248047
vt 0.4223633 0.9365234
vt 0.081604 0.9003906
vt 0.1016846 0.8857422
vt 0.0847168 0.8857422
vt 0.1016846 0.8984375
vt 0.08129883 0.9106445
vt 0.1016846 0.9111328
vt 0.08215332 0.9189453
vt 0.1016846 0.9238281
vt 0.08337402 0.9262695
vt 0.1016846 0.9301758
vt 0.1016846 0.9365234
vn 0.684082 -0.1241455 0.71875
vn 0.6445313 0.5546875 0.5263672
vn 0.8330078 -0.1296387 0.5375977
vn 0.6928711 0.09570313 0.7143555
vn 0.8295898 0.09545898 0.550293
vn 0.6708984 0.2585449 0.6948242
vn 0.8081055 0.2602539 0.5288086
vn 0.6772461 0.2460938 0.6933594
vn 0.8046875 0.2585449 0.5341797
vn 0.7167969 -0.02944946 0.6967773
vn 0.9912109 -0.1308594 0.01251221
vn 0.3461914 -0.8808594 0.322998
vn 0.05169678 -0.1999512 0.9785156
vn 0.6220703 -0.7036133 -0.3439941
vn 0.1096191 -0.2056885 -0.9726563
vn 0.0100708 -0.3583984 -0.9335938
vn -0.3061523 -0.7216797 0.6210938
vn -0.9541016 -0.2844238 0.09246826
vn -0.9233398 -0.3823242 0.03115845
vn -0.7080078 -0.02154541 -0.7060547
vn -0.6811523 -0.3198242 -0.6586914
vn 0.1096191 -0.2056885 -0.9726563
vn -0.4814453 -0.2614746 -0.8364258
vn -0.6723633 -0.2785645 -0.6860352
vn -0.5053711 -0.2142334 -0.8359375
vn -0.6826172 -0.2313232 -0.6933594
vn -0.5263672 -0.05914307 -0.8481445
vn -0.7006836 -0.06866455 -0.7104492
vn -0.527832 0.2143555 -0.8217773
vn -0.6723633 0.2331543 -0.7026367
vn -0.01177979 0.9790039 -0.2023926
vn -0.4814453 -0.2614746 -0.8364258
vn 0.1096191 -0.2056885 -0.9726563
vn 0.1618652 -0.4355469 -0.8852539
vn 0.1442871 -0.1851807 -0.972168
vn -0.5053711 -0.2142334 -0.8359375
vn 0.06066895 0.002624512 -0.9980469
vn -0.5263672 -0.05914307 -0.8481445
vn 0.03167725 0.1248169 -0.9916992
vn -0.527832 0.2143555 -0.8217773
vn 0.07409668 0.2592773 -0.9628906
vn -0.01177979 0.9790039 -0.2023926
vn 0.1707764 0.4326172 -0.8852539
vn 0.9912109 -0.1308594 0.01251221
vn 0.1618652 -0.4355469 -0.8852539
vn 0.1096191 -0.2056885 -0.9726563
vn 0.9873047 -0.1601563 0.005310059
vn 0.8046875 0.2585449 0.5341797
vn 0.1442871 -0.1851807 -0.972168
vn 0.9824219 0.1668701 -0.08258057
vn 0.8081055 0.2602539 0.5288086
vn 0.06066895 0.002624512 -0.9980469
vn 0.9375 0.3266602 -0.121521
vn 0.8295898 0.09545898 0.550293
vn 0.03167725 0.1248169 -0.9916992
vn 0.9614258 0.2587891 -0.09069824
vn 0.8330078 -0.1296387 0.5375977
vn 0.07409668 0.2592773 -0.9628906
vn 0.9902344 0.07885742 -0.1158447
vn 0.1707764 0.4326172 -0.8852539
vn 0.6445313 0.5546875 0.5263672
vn 0.9946289 0.03533936 -0.09771729
vn -0.01177979 0.9790039 -0.2023926
vn -0.07281494 0.2176514 0.9731445
vn -0.7958984 0.5976563 0.0960083
vn -0.1364746 0.1870117 0.9726563
vn 0.6445313 0.5546875 0.5263672
vn -0.9355469 0.3513184 0.04046631
vn 0.5112305 -0.09448242 0.8540039
vn -0.126709 0.262207 0.956543
vn -0.9907227 0.1334229 0.0244751
vn 0.5332031 0.09973145 0.840332
vn -0.1514893 0.2575684 0.9541016
vn -0.9960938 -0.05981445 0.06304932
vn 0.512207 0.2437744 0.8237305
vn -0.08544922 0.06118774 0.9946289
vn -0.9462891 -0.2929688 0.1373291
vn 0.5224609 0.2322998 0.8203125
vn 0.04586792 -0.2624512 0.9638672
vn -0.8291016 -0.5449219 0.1239014
vn 0.05169678 -0.1999512 0.9785156
vn -0.9541016 -0.2844238 0.09246826
vn 0.7167969 -0.02944946 0.6967773
vn 0.05169678 -0.1999512 0.9785156
vn 0.5224609 0.2322998 0.8203125
vn 0.6772461 0.2460938 0.6933594
vn 0.512207 0.2437744 0.8237305
vn 0.6708984 0.2585449 0.6948242
vn 0.5332031 0.09973145 0.840332
vn 0.6928711 0.09570313 0.7143555
vn 0.5112305 -0.09448242 0.8540039
vn 0.684082 -0.1241455 0.71875
vn 0.6445313 0.5546875 0.5263672
vn -0.7080078 -0.02154541 -0.7060547
vn -0.815918 -0.2941895 -0.4975586
vn -0.9541016 -0.2844238 0.09246826
vn -0.6723633 -0.2785645 -0.6860352
vn -0.8193359 -0.2310791 -0.5249023
vn -0.6826172 -0.2313232 -0.6933594
vn -0.8354492 -0.0539856 -0.546875
vn -0.7006836 -0.06866455 -0.7104492
vn -0.7856445 0.2380371 -0.5708008
vn -0.6723633 0.2331543 -0.7026367
vn -0.01177979 0.9790039 -0.2023926
vn -0.815918 -0.2941895 -0.4975586
vn -0.8291016 -0.5449219 0.1239014
vn -0.9541016 -0.2844238 0.09246826
vn -0.9462891 -0.2929688 0.1373291
vn -0.8193359 -0.2310791 -0.5249023
vn -0.9960938 -0.05981445 0.06304932
vn -0.8354492 -0.0539856 -0.546875
vn -0.9907227 0.1334229 0.0244751
vn -0.7856445 0.2380371 -0.5708008
vn -0.9355469 0.3513184 0.04046631
vn -0.7958984 0.5976563 0.0960083
g WaterPlant_0
f 3/3/3 2/2/2 1/1/1
f 3/3/3 1/1/1 4/4/4
f 5/5/5 3/3/3 4/4/4
f 5/5/5 4/4/4 6/6/6
f 7/7/7 5/5/5 6/6/6
f 7/7/7 6/6/6 8/8/8
f 9/9/9 7/7/7 8/8/8
f 9/9/9 8/8/8 10/10/10
f 11/11/11 9/9/9 10/10/10
f 10/10/10 12/12/12 11/11/11
f 12/12/12 10/10/10 13/13/13
f 12/12/12 14/14/14 11/11/11
f 11/11/11 14/14/14 15/15/15
f 14/14/14 16/16/16 15/15/15
f 16/16/16 14/14/14 12/12/12
f 17/17/17 12/12/12 13/13/13
f 17/17/17 13/13/13 18/18/18
f 19/19/19 17/17/17 18/18/18
f 17/17/17 19/19/19 12/12/12
f 19/19/19 18/18/18 20/20/20
f 19/19/19 21/21/21 12/12/12
f 21/21/21 16/16/16 12/12/12
f 21/21/21 19/19/19 20/20/20
f 16/16/16 21/21/21 20/20/20
f 22/22/22 16/16/16 20/20/20
f 23/23/23 22/22/22 20/20/20
f 24/24/24 23/23/23 20/20/20
f 25/25/25 23/23/23 24/24/24
f 26/26/26 25/25/25 24/24/24
f 27/27/27 25/25/25 26/26/26
f 28/28/28 27/27/27 26/26/26
f 29/29/29 27/27/27 28/28/28
f 30/30/30 29/29/29 28/28/28
f 31/31/31 29/29/29 30/30/30
f 34/34/34 33/33/33 32/32/32
f 35/35/35 34/34/34 32/32/32
f 35/35/35 32/32/32 36/36/36
f 37/37/37 35/35/35 36/36/36
f 37/37/37 36/36/36 38/38/38
f 39/39/39 37/37/37 38/38/38
f 39/39/39 38/38/38 40/40/40
f 41/41/41 39/39/39 40/40/40
f 41/41/41 40/40/40 42/42/42
f 43/43/43 41/41/41 42/42/42
f 46/46/46 45/45/45 44/44/44
f 45/45/45 47/47/47 44/44/44
f 44/44/44 47/47/47 48/48/48
f 45/45/45 49/49/49 47/47/47
f 47/47/47 50/50/50 48/48/48
f 49/49/49 50/50/50 47/47/47
f 48/48/48 50/50/50 51/51/51
f 49/49/49 52/52/52 50/50/50
f 50/50/50 53/53/53 51/51/51
f 52/52/52 53/53/53 50/50/50
f 51/51/51 53/53/53 54/54/54
f 52/52/52 55/55/55 53/53/53
f 53/53/53 56/56/56 54/54/54
f 55/55/55 56/56/56 53/53/53
f 54/54/54 56/56/56 57/57/57
f 55/55/55 58/58/58 56/56/56
f 56/56/56 59/59/59 57/57/57
f 58/58/58 59/59/59 56/56/56
f 58/58/58 60/60/60 59/59/59
f 57/57/57 59/59/59 61/61/61
f 60/60/60 62/62/62 59/59/59
f 59/59/59 62/62/62 61/61/61
f 60/60/60 63/63/63 62/62/62
f 63/63/63 61/61/61 62/62/62
f 61/61/61 63/63/63 64/64/64
f 63/63/63 65/65/65 64/64/64
f 64/64/64 65/65/65 66/66/66
f 64/64/64 66/66/66 67/67/67
f 65/65/65 68/68/68 66/66/66
f 66/66/66 69/69/69 67/67/67
f 66/66/66 68/68/68 70/70/70
f 66/66/66 70/70/70 69/69/69
f 68/68/68 71/71/71 70/70/70
f 70/70/70 72/72/72 69/69/69
f 70/70/70 71/71/71 73/73/73
f 70/70/70 73/73/73 72/72/72
f 71/71/71 74/74/74 73/73/73
f 73/73/73 75/75/75 72/72/72
f 73/73/73 74/74/74 76/76/76
f 73/73/73 76/76/76 75/75/75
f 74/74/74 77/77/77 76/76/76
f 76/76/76 78/78/78 75/75/75
f 76/76/76 77/77/77 79/79/79
f 76/76/76 79/79/79 78/78/78
f 77/77/77 80/80/80 79/79/79
f 79/79/79 81/81/81 78/78/78
f 79/79/79 80/80/80 81/81/81
f 80/80/80 82/82/82 81/81/81
f 85/85/85 84/84/84 83/83/83
f 86/86/86 85/85/85 83/83/83
f 87/87/87 85/85/85 86/86/86
f 88/88/88 87/87/87 86/86/86
f 89/89/89 87/87/87 88/88/88
f 90/90/90 89/89/89 88/88/88
f 91/91/91 89/89/89 90/90/90
f 92/92/92 91/91/91 90/90/90
f 93/93/93 91/91/91 92/92/92
f 96/96/96 95/95/95 94/94/94
f 95/95/95 97/97/97 94/94/94
f 95/95/95 98/98/98 97/97/97
f 98/98/98 99/99/99 97/97/97
f 98/98/98 100/100/100 99/99/99
f 100/100/100 101/101/101 99/99/99
f 100/100/100 102/102/102 101/101/101
f 102/102/102 103/103/103 101/101/101
f 102/102/102 104/104/104 103/103/103
f 107/107/107 106/106/106 105/105/105
f 106/106/106 108/108/108 105/105/105
f 105/105/105 108/108/108 109/109/109
f 108/108/108 110/110/110 109/109/109
f 109/109/109 110/110/110 111/111/111
f 110/110/110 112/112/112 111/111/111
f 111/111/111 112/112/112 113/113/113
f 112/112/112 114/114/114 113/113/113
f 113/113/113 114/114/114 63/63/63
f 114/114/114 115/115/115 63/63/63
