g Wine
v 0.08506852 1.581124 -0.1250436
v 0.009659519 1.932197 -0.1455788
v 0.008430213 1.581393 -0.1455788
v 0.08629771 1.931929 -0.1250435
v 0.1411715 1.580928 -0.06894019
v 0.1424006 1.931732 -0.06894017
v 0.1617067 1.580856 0.007698507
v 0.1629359 1.93166 0.007698531
v 0.1411715 1.580928 0.0843372
v 0.1424006 1.931732 0.08433723
v 0.08506852 1.581124 0.1404405
v 0.08629771 1.931929 0.1404406
v 0.008430336 1.581393 0.1609759
v 0.009659402 1.932197 0.1609759
v -0.06820797 1.581661 0.1404405
v -0.06697856 1.932466 0.1404405
v -0.124311 1.581858 0.08433716
v -0.1230816 1.932662 0.08433719
v -0.1448462 1.58193 0.00769846
v -0.143617 1.932735 0.007698483
v -0.1243111 1.581858 -0.06894018
v -0.1230816 1.932662 -0.06894015
v -0.0682081 1.581661 -0.1250436
v -0.06697892 1.932466 -0.1250436
v 0.008430213 1.581393 -0.1455788
v 0.009659519 1.932197 -0.1455788
v 0.3090376 0.5611418 0.1833156
v 0.1822862 1.0776 0.3118761
v 0.3108459 1.07715 0.1833156
v 0.1804779 0.5615923 0.3118761
v 0.006670117 1.078215 0.3589326
v 0.004861959 0.5622076 0.3589326
v -0.168946 1.078831 0.3118761
v -0.1707541 0.5628229 0.311876
v -0.06697892 1.932466 -0.1250436
v 0.009659519 1.932197 -0.1455788
v 0.08629771 1.931929 -0.1250435
v -0.1230816 1.932662 -0.06894015
v 0.1424006 1.931732 -0.06894017
v 0.1629359 1.93166 0.007698531
v -0.143617 1.932735 0.007698483
v -0.1230816 1.932662 0.08433719
v 0.1424006 1.931732 0.08433723
v -0.06697856 1.932466 0.1404405
v 0.08629771 1.931929 0.1404406
v 0.009659402 1.932197 0.1609759
v 0.003192726 0.08589298 -0.3435358
v 0.002928742 0.01056302 -0.2734253
v 0.1434897 0.01007044 -0.2357618
v 0.1788087 0.08527768 -0.2964793
v 0.1804778 0.5615923 -0.2964793
v 0.00486184 0.5622077 -0.3435358
v 0.1822859 1.0776 -0.2964792
v 0.006669997 1.078215 -0.3435358
v 0.007035377 1.18268 -0.3067495
v 0.1642587 1.182129 -0.2646214
v 0.007563797 1.334008 -0.1823652
v 0.3108458 1.07715 -0.1679186
v 0.1025951 1.333675 -0.1569014
v 0.007929536 1.438473 -0.1455788
v 0.3090377 0.5611418 -0.1679186
v 0.2793539 1.181725 -0.1495256
v 0.08456761 1.438204 -0.1250436
v 0.008430213 1.581393 -0.1455788
v 0.08506852 1.581124 -0.1250436
v 0.1721627 1.333431 -0.08733325
v 0.1406708 1.438007 -0.0689402
v 0.1411715 1.580928 -0.06894019
v 0.357902 1.076985 0.007698503
v 0.3214816 1.181577 0.007698504
v 0.1976263 1.333342 0.007698495
v 0.1612059 1.437935 0.007698497
v 0.1617067 1.580856 0.007698507
v 0.1406707 1.438007 0.0843372
v 0.1411715 1.580928 0.0843372
v 0.1721627 1.333431 0.1027302
v 0.2793539 1.181725 0.1649226
v 0.3108459 1.07715 0.1833156
v 0.3560938 0.560977 0.007698467
v 0.1822862 1.0776 0.3118761
v 0.3090376 0.5611418 0.1833156
v 0.1642586 1.182129 0.2800184
v 0.006670117 1.078215 0.3589326
v 0.08456749 1.438204 0.1404405
v 0.08506852 1.581124 0.1404405
v 0.1025951 1.333675 0.1722984
v 0.007035617 1.18268 0.3221464
v -0.168946 1.078831 0.3118761
v 0.007929536 1.438473 0.1609759
v 0.008430336 1.581393 0.1609759
v 0.007563798 1.334008 0.1977621
v -0.1501874 1.183231 0.2800184
v -0.06870877 1.438741 0.1404405
v -0.06820797 1.581661 0.1404405
v -0.08746729 1.334341 0.1722983
v -0.2975058 1.079281 0.1833156
v -0.1707541 0.5628229 0.311876
v -0.1248117 1.438938 0.08433715
v -0.124311 1.581858 0.08433716
v -0.2652827 1.183634 0.1649225
v -0.157035 1.334585 0.1027303
v -0.145347 1.439009 0.00769845
v -0.1448462 1.58193 0.00769846
v -0.1824986 1.334674 0.007698437
v -0.3074102 1.183782 0.007698527
v -0.344562 1.079446 0.007698514
v -0.1248119 1.438938 -0.06894019
v -0.1243111 1.581858 -0.06894018
v -0.1570351 1.334585 -0.08733324
v -0.2652827 1.183634 -0.1495253
v -0.06870889 1.438741 -0.1250436
v -0.0682081 1.581661 -0.1250436
v -0.08746729 1.334341 -0.1569014
v 0.007929536 1.438473 -0.1455788
v 0.008430213 1.581393 -0.1455788
v 0.007563797 1.334008 -0.1823652
v 0.007035377 1.18268 -0.3067495
v -0.1501877 1.183231 -0.2646213
v 0.006669997 1.078215 -0.3435358
v -0.2975059 1.079281 -0.1679184
v -0.1689462 1.078831 -0.2964792
v -0.1707543 0.5628229 -0.2964792
v 0.00486184 0.5622077 -0.3435358
v -0.2993141 0.5632735 -0.1679184
v -0.3463702 0.5634384 0.007698478
v -0.1724234 0.08650833 -0.2964792
v 0.003192726 0.08589298 -0.3435358
v 0.002928742 0.01056302 -0.2734253
v -0.1376325 0.01105547 -0.2357618
v -0.3009832 0.08695877 -0.1679185
v -0.1376325 0.01105547 -0.2357618
v -0.2405301 0.01141608 -0.1328634
v -0.3480392 0.08712363 0.007698446
v -0.2405301 0.01141608 -0.1328634
v -0.2781931 0.01154804 0.007698451
v -0.2993139 0.5632737 0.1833156
v -0.300983 0.08695889 0.1833155
v -0.2781931 0.01154804 0.007698451
v -0.24053 0.01141608 0.1482603
v -0.1724231 0.08650833 0.311876
v -0.24053 0.01141608 0.1482603
v -0.1376321 0.01105547 0.2511588
v 0.003192847 0.08589298 0.3589326
v -0.1376321 0.01105547 0.2511588
v 0.002928863 0.01056302 0.2888221
v 0.004861959 0.5622076 0.3589326
v 0.1788088 0.08527744 0.3118761
v 0.002928863 0.01056302 0.2888221
v 0.1434897 0.01007044 0.2511588
v 0.1804779 0.5615923 0.3118761
v 0.3073686 0.08482695 0.1833155
v 0.1434897 0.01007044 0.2511588
v 0.2463875 0.009709716 0.1482604
v 0.3544247 0.0846622 0.007698434
v 0.2463875 0.009709716 0.1482604
v 0.2840508 0.00957787 0.007698419
v 0.3073686 0.08482695 -0.1679187
v 0.2840508 0.00957787 0.007698419
v 0.2463876 0.009709835 -0.1328635
v 0.2463876 0.009709835 -0.1328635
v 0.1434897 0.01007044 -0.2357618
v 0.1434897 0.01007044 -0.2357618
v 0.002928742 0.01056302 -0.2734253
v -0.1376325 0.01105547 -0.2357618
v 0.2463876 0.009709835 -0.1328635
v -0.2405301 0.01141608 -0.1328634
v 0.2840508 0.00957787 0.007698419
v -0.2781931 0.01154804 0.007698451
v 0.2463875 0.009709716 0.1482604
v -0.24053 0.01141608 0.1482603
v -0.1376321 0.01105547 0.2511588
v 0.1434897 0.01007044 0.2511588
v 0.002928863 0.01056302 0.2888221
vt 0.5200195 0.9536133
vt 0.5214844 0.9536133
vt 0.5214844 0.9536133
vt 0.5200195 0.9536133
vt 0.519043 0.9536133
vt 0.519043 0.9536133
vt 0.5175781 0.9536133
vt 0.5175781 0.9536133
vt 0.5161133 0.9536133
vt 0.5161133 0.9536133
vt 0.5151367 0.9536133
vt 0.5151367 0.9536133
vt 0.5136719 0.9536133
vt 0.5136719 0.9536133
vt 0.512207 0.9536133
vt 0.512207 0.9536133
vt 0.5112305 0.9536133
vt 0.5112305 0.9536133
vt 0.5097656 0.9536133
vt 0.5097656 0.9536133
vt 0.5083008 0.9536133
vt 0.5083008 0.9536133
vt 0.5073242 0.9536133
vt 0.5073242 0.9536133
vt 0.5058594 0.9536133
vt 0.5058594 0.9536133
vt 0.3288574 0.9458008
vt 0.3273926 0.9492188
vt 0.3288574 0.9492188
vt 0.3273926 0.9458008
vt 0.3261719 0.9492188
vt 0.3261719 0.9458008
vt 0.3249512 0.9492188
vt 0.3249512 0.9458008
vt 0.5078125 0.9448242
vt 0.5097656 0.9453125
vt 0.5117188 0.9448242
vt 0.5063477 0.9438477
vt 0.5131836 0.9438477
vt 0.5136719 0.9418945
vt 0.5058594 0.9418945
vt 0.5063477 0.9399414
vt 0.5131836 0.9399414
vt 0.5078125 0.9384766
vt 0.5117188 0.9384766
vt 0.5097656 0.9379883
vt 0.9589844 0.9462891
vt 0.9589844 0.9458008
vt 0.9580078 0.9458008
vt 0.9575195 0.9462891
vt 0.9575195 0.949707
vt 0.9589844 0.949707
vt 0.9575195 0.953125
vt 0.9589844 0.953125
vt 0.9589844 0.9536133
vt 0.9575195 0.9536133
vt 0.9589844 0.9536133
vt 0.956543 0.953125
vt 0.9575195 0.9536133
vt 0.9589844 0.9536133
vt 0.956543 0.949707
vt 0.956543 0.9536133
vt 0.9575195 0.9536133
vt 0.9589844 0.9536133
vt 0.9575195 0.9536133
vt 0.956543 0.9536133
vt 0.956543 0.9536133
vt 0.956543 0.9536133
vt 0.9550781 0.953125
vt 0.9550781 0.9536133
vt 0.9550781 0.9536133
vt 0.9550781 0.9536133
vt 0.9550781 0.9536133
vt 0.9536133 0.9536133
vt 0.9536133 0.9536133
vt 0.9536133 0.9536133
vt 0.9536133 0.9536133
vt 0.9536133 0.953125
vt 0.9550781 0.949707
vt 0.9526367 0.953125
vt 0.9536133 0.949707
vt 0.9526367 0.9536133
vt 0.9511719 0.953125
vt 0.9526367 0.9536133
vt 0.9526367 0.9536133
vt 0.9526367 0.9536133
vt 0.9511719 0.9536133
vt 0.949707 0.953125
vt 0.9511719 0.9536133
vt 0.9511719 0.9536133
vt 0.9511719 0.9536133
vt 0.949707 0.9536133
vt 0.949707 0.9536133
vt 0.949707 0.9536133
vt 0.949707 0.9536133
vt 0.9487305 0.953125
vt 0.949707 0.949707
vt 0.9487305 0.9536133
vt 0.9487305 0.9536133
vt 0.9487305 0.9536133
vt 0.9487305 0.9536133
vt 0.9472656 0.9536133
vt 0.9472656 0.9536133
vt 0.9472656 0.9536133
vt 0.9472656 0.9536133
vt 0.9472656 0.953125
vt 0.9458008 0.9536133
vt 0.9458008 0.9536133
vt 0.9458008 0.9536133
vt 0.9458008 0.9536133
vt 0.9448242 0.9536133
vt 0.9448242 0.9536133
vt 0.9448242 0.9536133
vt 0.9433594 0.9536133
vt 0.9433594 0.9536133
vt 0.9433594 0.9536133
vt 0.9433594 0.9536133
vt 0.9448242 0.9536133
vt 0.9433594 0.953125
vt 0.9458008 0.953125
vt 0.9448242 0.953125
vt 0.9448242 0.949707
vt 0.9433594 0.949707
vt 0.9458008 0.949707
vt 0.9472656 0.949707
vt 0.9448242 0.9462891
vt 0.9433594 0.9462891
vt 0.9433594 0.9458008
vt 0.9443359 0.9458008
vt 0.9458008 0.9462891
vt 0.9448242 0.9458008
vt 0.9458008 0.9458008
vt 0.9472656 0.9462891
vt 0.9462891 0.9458008
vt 0.9472656 0.9458008
vt 0.9487305 0.949707
vt 0.9487305 0.9462891
vt 0.9472656 0.9458008
vt 0.9482422 0.9458008
vt 0.949707 0.9462891
vt 0.9487305 0.9458008
vt 0.949707 0.9458008
vt 0.9511719 0.9462891
vt 0.9501953 0.9458008
vt 0.9511719 0.9458008
vt 0.9511719 0.949707
vt 0.9526367 0.9462891
vt 0.9511719 0.9458008
vt 0.9521484 0.9458008
vt 0.9526367 0.949707
vt 0.9536133 0.9462891
vt 0.9526367 0.9458008
vt 0.9536133 0.9458008
vt 0.9550781 0.9462891
vt 0.9541016 0.9458008
vt 0.9550781 0.9458008
vt 0.956543 0.9462891
vt 0.9550781 0.9458008
vt 0.9560547 0.9458008
vt 0.956543 0.9458008
vt 0.9575195 0.9458008
vt 0.956543 0.9443359
vt 0.9550781 0.9448242
vt 0.9536133 0.9443359
vt 0.9575195 0.9433594
vt 0.9526367 0.9433594
vt 0.9580078 0.9418945
vt 0.9521484 0.9418945
vt 0.9575195 0.9404297
vt 0.9526367 0.9404297
vt 0.9536133 0.9394531
vt 0.956543 0.9394531
vt 0.9550781 0.9389648
vn 0.5 -0.0017519 -0.8662109
vn 0 0 -1
vn 0 0 -1
vn 0.5 -0.0017519 -0.8662109
vn 0.8662109 -0.003034592 -0.5
vn 0.8662109 -0.003034592 -0.5
vn 1 -0.003503799 0
vn 1 -0.003503799 0
vn 0.8662109 -0.003034592 0.5
vn 0.8662109 -0.003034592 0.5
vn 0.5 -0.0017519 0.8662109
vn 0.5 -0.0017519 0.8662109
vn 0 0 1
vn 0 0 1
vn -0.5 0.0017519 0.8662109
vn -0.5 0.0017519 0.8662109
vn -0.8662109 0.003034592 0.5
vn -0.8662109 0.003034592 0.5
vn -1 0.003503799 0
vn -1 0.003503799 0
vn -0.8662109 0.003034592 -0.5
vn -0.8662109 0.003034592 -0.5
vn -0.5 0.0017519 -0.8662109
vn -0.5 0.0017519 -0.8662109
vn 0 0 -1
vn 0 0 -1
vn 0.8662109 -0.003034592 0.5
vn 0.4938965 0.1623535 0.8544922
vn 0.8549805 0.1610107 0.4931641
vn 0.5 -0.0017519 0.8662109
vn 0.0005750656 0.1640625 0.9863281
vn 0 0 1
vn -0.4926758 0.1657715 0.8544922
vn -0.5 0.0017519 0.8662109
vn 0.003503799 1 0
vn 0.003503799 1 0
vn 0.003503799 1 0
vn 0.003503799 1 0
vn 0.003503799 1 0
vn 0.003503799 1 0
vn 0.003503799 1 0
vn 0.003503799 1 0
vn 0.003503799 1 0
vn 0.003503799 1 0
vn 0.003503799 1 0
vn 0.003503799 1 0
vn -0.001215935 -0.3469238 -0.9379883
vn -0.003126144 -0.8920898 -0.4521484
vn 0.2229004 -0.8925781 -0.3916016
vn 0.4677734 -0.3486328 -0.8120117
vn 0.5 -0.0017519 -0.8662109
vn 0 0 -1
vn 0.4938965 0.1623535 -0.8544922
vn 0.0005750656 0.1640625 -0.9863281
vn 0.001678467 0.479248 -0.8779297
vn 0.4404297 0.4775391 -0.7602539
vn 0.001764297 0.5039063 -0.8637695
vn 0.8549805 0.1610107 -0.4931641
vn 0.4335938 0.5024414 -0.7480469
vn 0.0006070137 0.1733398 -0.9848633
vn 0.8662109 -0.003034592 -0.5
vn 0.7617188 0.4765625 -0.4389648
vn 0.4929199 0.1715088 -0.8530273
vn 0 0 -1
vn 0.5 -0.0017519 -0.8662109
vn 0.75 0.5009766 -0.4318848
vn 0.8535156 0.1702881 -0.4924316
vn 0.8662109 -0.003034592 -0.5
vn 0.9868164 0.1606445 0
vn 0.8793945 0.4760742 0
vn 0.8657227 0.5004883 0
vn 0.9853516 0.1697998 0
vn 1 -0.003503799 0
vn 0.8535156 0.1702881 0.4924316
vn 0.8662109 -0.003034592 0.5
vn 0.75 0.5009766 0.4318848
vn 0.7617188 0.4765625 0.4389648
vn 0.8549805 0.1610107 0.4931641
vn 1 -0.003503799 0
vn 0.4938965 0.1623535 0.8544922
vn 0.8662109 -0.003034592 0.5
vn 0.4404297 0.4775391 0.7602539
vn 0.0005750656 0.1640625 0.9863281
vn 0.4929199 0.1715088 0.8530273
vn 0.5 -0.0017519 0.8662109
vn 0.4335938 0.5024414 0.7480469
vn 0.00167942 0.479248 0.8779297
vn -0.4926758 0.1657715 0.8544922
vn 0.0006070137 0.1733398 0.9848633
vn 0 0 1
vn 0.001764297 0.5039063 0.8637695
vn -0.4372559 0.4807129 0.7602539
vn -0.4919434 0.1750488 0.8530273
vn -0.5 0.0017519 0.8662109
vn -0.4301758 0.5053711 0.7480469
vn -0.8535156 0.1669922 0.4931641
vn -0.5 0.0017519 0.8662109
vn -0.8525391 0.1762695 0.4924316
vn -0.8662109 0.003034592 0.5
vn -0.7583008 0.4816895 0.4389648
vn -0.746582 0.5063477 0.4318848
vn -0.984375 0.1767578 0
vn -1 0.003503799 0
vn -0.8623047 0.5068359 0
vn -0.8759766 0.4821777 0
vn -0.9858398 0.1674805 0
vn -0.8525391 0.1762695 -0.4924316
vn -0.8662109 0.003034592 -0.5
vn -0.746582 0.5063477 -0.4318848
vn -0.7583008 0.4816895 -0.4389648
vn -0.4919434 0.1750488 -0.8530273
vn -0.5 0.0017519 -0.8662109
vn -0.4301758 0.5053711 -0.7480469
vn 0.0006070137 0.1733398 -0.9848633
vn 0 0 -1
vn 0.001764297 0.5039063 -0.8637695
vn 0.001678467 0.479248 -0.8779297
vn -0.4372559 0.4807129 -0.7602539
vn 0.0005750656 0.1640625 -0.9863281
vn -0.8535156 0.1669922 -0.4931641
vn -0.4926758 0.1657715 -0.8544922
vn -0.5 0.0017519 -0.8662109
vn 0 0 -1
vn -0.8662109 0.003034592 -0.5
vn -1 0.003503799 0
vn -0.4702148 -0.3452148 -0.8120117
vn -0.001215935 -0.3469238 -0.9379883
vn -0.003126144 -0.8920898 -0.4521484
vn -0.229126 -0.8911133 -0.3916016
vn -0.8134766 -0.3442383 -0.4689941
vn -0.229126 -0.8911133 -0.3916016
vn -0.3945313 -0.890625 -0.2260742
vn -0.9389648 -0.34375 0
vn -0.3945313 -0.890625 -0.2260742
vn -0.4550781 -0.890625 0
vn -0.8662109 0.003034592 0.5
vn -0.8134766 -0.3442383 0.4689941
vn -0.4550781 -0.890625 0
vn -0.3945313 -0.890625 0.2260742
vn -0.4702148 -0.3452148 0.8120117
vn -0.3945313 -0.890625 0.2260742
vn -0.229126 -0.8911133 0.3916016
vn -0.001215935 -0.3469238 0.9379883
vn -0.229126 -0.8911133 0.3916016
vn -0.003126144 -0.8920898 0.4521484
vn 0 0 1
vn 0.4677734 -0.3486328 0.8120117
vn -0.003126144 -0.8920898 0.4521484
vn 0.2229004 -0.8925781 0.3916016
vn 0.5 -0.0017519 0.8662109
vn 0.8110352 -0.3498535 0.4689941
vn 0.2229004 -0.8925781 0.3916016
vn 0.3884277 -0.8935547 0.2260742
vn 0.9365234 -0.3503418 0
vn 0.3884277 -0.8935547 0.2260742
vn 0.4489746 -0.8935547 0
vn 0.8110352 -0.3498535 -0.4689941
vn 0.4489746 -0.8935547 0
vn 0.3884277 -0.8935547 -0.2260742
vn 0.3884277 -0.8935547 -0.2260742
vn 0.2229004 -0.8925781 -0.3916016
vn 0.2229004 -0.8925781 -0.3916016
vn -0.003126144 -0.8920898 -0.4521484
vn -0.229126 -0.8911133 -0.3916016
vn 0.3884277 -0.8935547 -0.2260742
vn -0.3945313 -0.890625 -0.2260742
vn 0.4489746 -0.8935547 0
vn -0.4550781 -0.890625 0
vn 0.3884277 -0.8935547 0.2260742
vn -0.3945313 -0.890625 0.2260742
vn -0.229126 -0.8911133 0.3916016
vn 0.2229004 -0.8925781 0.3916016
vn -0.003126144 -0.8920898 0.4521484
g Wine_0
f 3/3/3 2/2/2 1/1/1
f 2/2/2 4/4/4 1/1/1
f 1/1/1 4/4/4 5/5/5
f 4/4/4 6/6/6 5/5/5
f 5/5/5 6/6/6 7/7/7
f 6/6/6 8/8/8 7/7/7
f 7/7/7 8/8/8 9/9/9
f 8/8/8 10/10/10 9/9/9
f 9/9/9 10/10/10 11/11/11
f 10/10/10 12/12/12 11/11/11
f 11/11/11 12/12/12 13/13/13
f 12/12/12 14/14/14 13/13/13
f 13/13/13 14/14/14 15/15/15
f 14/14/14 16/16/16 15/15/15
f 15/15/15 16/16/16 17/17/17
f 16/16/16 18/18/18 17/17/17
f 17/17/17 18/18/18 19/19/19
f 18/18/18 20/20/20 19/19/19
f 19/19/19 20/20/20 21/21/21
f 20/20/20 22/22/22 21/21/21
f 21/21/21 22/22/22 23/23/23
f 22/22/22 24/24/24 23/23/23
f 23/23/23 24/24/24 25/25/25
f 24/24/24 26/26/26 25/25/25
f 29/29/29 28/28/28 27/27/27
f 28/28/28 30/30/30 27/27/27
f 28/28/28 31/31/31 30/30/30
f 31/31/31 32/32/32 30/30/30
f 31/31/31 33/33/33 32/32/32
f 33/33/33 34/34/34 32/32/32
f 37/37/37 36/36/36 35/35/35
f 35/35/35 38/38/38 37/37/37
f 38/38/38 39/39/39 37/37/37
f 38/38/38 40/40/40 39/39/39
f 38/38/38 41/41/41 40/40/40
f 41/41/41 42/42/42 40/40/40
f 42/42/42 43/43/43 40/40/40
f 42/42/42 44/44/44 43/43/43
f 44/44/44 45/45/45 43/43/43
f 44/44/44 46/46/46 45/45/45
f 49/49/49 48/48/48 47/47/47
f 50/50/50 49/49/49 47/47/47
f 51/51/51 50/50/50 47/47/47
f 52/52/52 51/51/51 47/47/47
f 53/53/53 51/51/51 52/52/52
f 54/54/54 53/53/53 52/52/52
f 54/54/54 55/55/55 53/53/53
f 55/55/55 56/56/56 53/53/53
f 55/55/55 57/57/57 56/56/56
f 53/53/53 58/58/58 51/51/51
f 53/53/53 56/56/56 58/58/58
f 57/57/57 59/59/59 56/56/56
f 57/57/57 60/60/60 59/59/59
f 51/51/51 61/61/61 50/50/50
f 58/58/58 61/61/61 51/51/51
f 56/56/56 62/62/62 58/58/58
f 56/56/56 59/59/59 62/62/62
f 60/60/60 63/63/63 59/59/59
f 60/60/60 64/64/64 63/63/63
f 64/64/64 65/65/65 63/63/63
f 59/59/59 63/63/63 66/66/66
f 59/59/59 66/66/66 62/62/62
f 63/63/63 65/65/65 67/67/67
f 63/63/63 67/67/67 66/66/66
f 65/65/65 68/68/68 67/67/67
f 58/58/58 62/62/62 69/69/69
f 58/58/58 69/69/69 61/61/61
f 62/62/62 66/66/66 70/70/70
f 62/62/62 70/70/70 69/69/69
f 66/66/66 67/67/67 71/71/71
f 66/66/66 71/71/71 70/70/70
f 67/67/67 68/68/68 72/72/72
f 67/67/67 72/72/72 71/71/71
f 68/68/68 73/73/73 72/72/72
f 72/72/72 73/73/73 74/74/74
f 73/73/73 75/75/75 74/74/74
f 71/71/71 72/72/72 76/76/76
f 72/72/72 74/74/74 76/76/76
f 70/70/70 71/71/71 77/77/77
f 71/71/71 76/76/76 77/77/77
f 69/69/69 70/70/70 78/78/78
f 70/70/70 77/77/77 78/78/78
f 69/69/69 79/79/79 61/61/61
f 69/69/69 78/78/78 79/79/79
f 78/78/78 77/77/77 80/80/80
f 78/78/78 81/81/81 79/79/79
f 77/77/77 82/82/82 80/80/80
f 77/77/77 76/76/76 82/82/82
f 80/80/80 82/82/82 83/83/83
f 74/74/74 75/75/75 84/84/84
f 75/75/75 85/85/85 84/84/84
f 76/76/76 74/74/74 86/86/86
f 76/76/76 86/86/86 82/82/82
f 74/74/74 84/84/84 86/86/86
f 82/82/82 87/87/87 83/83/83
f 82/82/82 86/86/86 87/87/87
f 83/83/83 87/87/87 88/88/88
f 84/84/84 85/85/85 89/89/89
f 85/85/85 90/90/90 89/89/89
f 86/86/86 84/84/84 91/91/91
f 86/86/86 91/91/91 87/87/87
f 84/84/84 89/89/89 91/91/91
f 87/87/87 92/92/92 88/88/88
f 87/87/87 91/91/91 92/92/92
f 89/89/89 90/90/90 93/93/93
f 90/90/90 94/94/94 93/93/93
f 91/91/91 89/89/89 95/95/95
f 91/91/91 95/95/95 92/92/92
f 89/89/89 93/93/93 95/95/95
f 88/88/88 92/92/92 96/96/96
f 88/88/88 96/96/96 97/97/97
f 93/93/93 94/94/94 98/98/98
f 94/94/94 99/99/99 98/98/98
f 92/92/92 95/95/95 100/100/100
f 92/92/92 100/100/100 96/96/96
f 95/95/95 93/93/93 101/101/101
f 93/93/93 98/98/98 101/101/101
f 95/95/95 101/101/101 100/100/100
f 98/98/98 99/99/99 102/102/102
f 99/99/99 103/103/103 102/102/102
f 101/101/101 98/98/98 104/104/104
f 98/98/98 102/102/102 104/104/104
f 100/100/100 101/101/101 105/105/105
f 101/101/101 104/104/104 105/105/105
f 96/96/96 100/100/100 106/106/106
f 100/100/100 105/105/105 106/106/106
f 102/102/102 103/103/103 107/107/107
f 103/103/103 108/108/108 107/107/107
f 104/104/104 102/102/102 109/109/109
f 102/102/102 107/107/107 109/109/109
f 105/105/105 104/104/104 110/110/110
f 104/104/104 109/109/109 110/110/110
f 107/107/107 108/108/108 111/111/111
f 108/108/108 112/112/112 111/111/111
f 109/109/109 107/107/107 113/113/113
f 107/107/107 111/111/111 113/113/113
f 111/111/111 112/112/112 114/114/114
f 112/112/112 115/115/115 114/114/114
f 111/111/111 114/114/114 116/116/116
f 113/113/113 111/111/111 116/116/116
f 113/113/113 116/116/116 117/117/117
f 109/109/109 113/113/113 118/118/118
f 118/118/118 113/113/113 117/117/117
f 110/110/110 109/109/109 118/118/118
f 118/118/118 117/117/117 119/119/119
f 105/105/105 110/110/110 120/120/120
f 106/106/106 105/105/105 120/120/120
f 110/110/110 118/118/118 121/121/121
f 121/121/121 118/118/118 119/119/119
f 120/120/120 110/110/110 121/121/121
f 121/121/121 119/119/119 122/122/122
f 119/119/119 123/123/123 122/122/122
f 120/120/120 121/121/121 124/124/124
f 121/121/121 122/122/122 124/124/124
f 106/106/106 120/120/120 125/125/125
f 120/120/120 124/124/124 125/125/125
f 122/122/122 123/123/123 126/126/126
f 123/123/123 127/127/127 126/126/126
f 127/127/127 128/128/128 126/126/126
f 128/128/128 129/129/129 126/126/126
f 122/122/122 126/126/126 130/130/130
f 124/124/124 122/122/122 130/130/130
f 126/126/126 131/131/131 130/130/130
f 131/131/131 132/132/132 130/130/130
f 124/124/124 130/130/130 133/133/133
f 125/125/125 124/124/124 133/133/133
f 130/130/130 134/134/134 133/133/133
f 134/134/134 135/135/135 133/133/133
f 106/106/106 125/125/125 136/136/136
f 96/96/96 106/106/106 136/136/136
f 96/96/96 136/136/136 97/97/97
f 125/125/125 133/133/133 137/137/137
f 136/136/136 125/125/125 137/137/137
f 133/133/133 138/138/138 137/137/137
f 138/138/138 139/139/139 137/137/137
f 136/136/136 137/137/137 140/140/140
f 97/97/97 136/136/136 140/140/140
f 137/137/137 141/141/141 140/140/140
f 141/141/141 142/142/142 140/140/140
f 97/97/97 140/140/140 143/143/143
f 140/140/140 144/144/144 143/143/143
f 144/144/144 145/145/145 143/143/143
f 146/146/146 97/97/97 143/143/143
f 146/146/146 143/143/143 147/147/147
f 143/143/143 148/148/148 147/147/147
f 148/148/148 149/149/149 147/147/147
f 150/150/150 146/146/146 147/147/147
f 150/150/150 147/147/147 151/151/151
f 147/147/147 152/152/152 151/151/151
f 152/152/152 153/153/153 151/151/151
f 81/81/81 150/150/150 151/151/151
f 81/81/81 151/151/151 154/154/154
f 151/151/151 155/155/155 154/154/154
f 155/155/155 156/156/156 154/154/154
f 79/79/79 81/81/81 154/154/154
f 79/79/79 154/154/154 157/157/157
f 154/154/154 158/158/158 157/157/157
f 158/158/158 159/159/159 157/157/157
f 61/61/61 79/79/79 157/157/157
f 61/61/61 157/157/157 50/50/50
f 157/157/157 160/160/160 50/50/50
f 160/160/160 161/161/161 50/50/50
f 164/164/164 163/163/163 162/162/162
f 162/162/162 165/165/165 164/164/164
f 165/165/165 166/166/166 164/164/164
f 165/165/165 167/167/167 166/166/166
f 167/167/167 168/168/168 166/166/166
f 167/167/167 169/169/169 168/168/168
f 169/169/169 170/170/170 168/168/168
f 169/169/169 171/171/171 170/170/170
f 169/169/169 172/172/172 171/171/171
f 172/172/172 173/173/173 171/171/171
