g Wing_01
v 0.06434343 -7.327338E-10 0.04821632
v 0.01950449 0.00700447 -6.564102E-05
v 0.02019759 -1.026948E-08 -6.564102E-05
v 0.06213539 0.00700447 0.0504329
v 0.08772417 -7.327338E-10 0.09999075
v -0.0621354 0.00700447 0.0504329
v -0.01950449 0.00700447 -6.564102E-05
v -0.0201976 -1.026948E-08 -6.564102E-05
v -0.06434344 -7.327338E-10 0.04821632
v -0.0847138 0.00700447 0.1004306
v -0.08772418 -7.327338E-10 0.09999075
v 0.0847138 0.00700447 0.1004306
v 0.08760024 -7.327338E-10 0.1410297
v -0.08459412 0.00700447 0.1400613
v -0.08760025 -7.327338E-10 0.1410297
v 0.08459412 0.00700447 0.1400613
v -0.07194121 0.00700446 0.1774891
v -0.0744977 8.804009E-09 0.1797876
v -0.04514006 -7.327338E-10 0.2126448
v 0.07194122 0.00700446 0.1774891
v 0.0744977 8.804009E-09 0.1797876
v 0.04514007 -7.327338E-10 0.2126448
v -0.04359102 0.007004451 0.2092188
v -0.00921637 -2.934296E-08 0.2292892
v 0.04359102 0.007004451 0.2092188
v 0.009216371 -2.934296E-08 0.2292892
v 0.008900095 0.007004489 0.2252921
v -0.008900093 0.007004489 0.2252921
v -0.01950449 -0.007004471 -6.564102E-05
v -0.0201976 -1.026948E-08 -6.564102E-05
v -0.06434344 -7.327338E-10 0.04821632
v -0.0621354 -0.007004452 0.0504329
v -0.08772418 -7.327338E-10 0.09999075
v 0.06213539 -0.007004452 0.0504329
v 0.01950449 -0.007004471 -6.564102E-05
v 0.02019759 -1.026948E-08 -6.564102E-05
v 0.06434343 -7.327338E-10 0.04821632
v 0.0847138 -0.007004452 0.1004306
v 0.08772417 -7.327338E-10 0.09999075
v -0.0847138 -0.007004452 0.1004306
v -0.08760025 -7.327338E-10 0.1410297
v 0.08459412 -0.007004471 0.1400613
v 0.08760024 -7.327338E-10 0.1410297
v -0.08459412 -0.007004471 0.1400613
v -0.0744977 8.804009E-09 0.1797876
v 0.07194122 -0.007004481 0.1774891
v 0.0744977 8.804009E-09 0.1797876
v -0.07194121 -0.007004481 0.1774891
v -0.04514006 -7.327338E-10 0.2126448
v 0.04359102 -0.007004471 0.2092187
v 0.04514007 -7.327338E-10 0.2126448
v 0.009216371 -2.934296E-08 0.2292892
v -0.04359102 -0.007004471 0.2092187
v -0.00921637 -2.934296E-08 0.2292892
v -0.008900093 -0.007004471 0.2252921
v 0.008900095 -0.007004471 0.2252921
vt 0.4825372 0.8867558
vt 0.2885766 0.9386885
vt 0.4307697 0.9951172
vt 0.3567726 0.8594006
vt 0.5140468 0.7754246
vt 0.1536311 0.8475223
vt 0.2102925 0.937112
vt 0.0589785 0.9681743
vt 0.02531192 0.8517805
vt 0.1389375 0.7677261
vt 0.01298653 0.7351125
vt 0.3843455 0.7866018
vt 0.5008906 0.6862839
vt 0.1469546 0.7108589
vt 0.04041699 0.6486428
vt 0.385331 0.7303749
vt 0.1721487 0.6601757
vt 0.0927235 0.5725245
vt 0.1757219 0.5169103
vt 0.3684096 0.6773737
vt 0.4616561 0.6033369
vt 0.389571 0.5349861
vt 0.2152286 0.6199359
vt 0.2638976 0.5028539
vt 0.3320353 0.6309664
vt 0.3053875 0.5054877
vt 0.2878387 0.604964
vt 0.2634766 0.6024268
vt 0.08127677 0.2527941
vt 0.004882813 0.385316
vt 0.1046305 0.4522364
vt 0.149876 0.3317679
vt 0.2102803 0.499527
vt 0.1909727 0.1324832
vt 0.09414989 0.1755741
vt 0.08526224 0.02136958
vt 0.2052705 0.004882813
vt 0.2720366 0.1294721
vt 0.3224542 0.00952363
vt 0.2179405 0.3695836
vt 0.3004192 0.4993734
vt 0.3271415 0.145605
vt 0.4040388 0.04911846
vt 0.2734486 0.378677
vt 0.3881907 0.472498
vt 0.3736559 0.1778356
vt 0.4718087 0.1118218
vt 0.3283468 0.3695744
vt 0.4662418 0.4109858
vt 0.4072647 0.2262574
vt 0.5148874 0.2019383
vt 0.5161154 0.2912101
vt 0.3795201 0.3402611
vt 0.5075546 0.331899
vt 0.4116206 0.300265
vt 0.4176417 0.2765254
vn 0.8294268 0 -0.5586154
vn 0.05447427 0.9973678 -0.04785447
vn 0.7512793 0 -0.6599844
vn 0.06096977 0.9973526 -0.03963119
vn 0.9708893 0 -0.2395284
vn -0.06096977 0.9973526 -0.03963114
vn -0.05447427 0.9973678 -0.04785438
vn -0.7512794 0 -0.6599844
vn -0.8294268 0 -0.5586154
vn -0.05449702 0.998418 -0.01384419
vn -0.9708893 0 -0.2395283
vn 0.05449703 0.998418 -0.0138442
vn 0.9854638 4.124641E-07 0.1698858
vn -0.04922117 0.998757 0.007858541
vn -0.9854638 0 0.1698857
vn 0.04922117 0.998757 0.007858546
vn -0.05589909 0.9979129 0.0323258
vn -0.8539436 -2.237194E-07 0.5203656
vn -0.5931566 -7.901217E-07 0.805087
vn 0.05589909 0.9979129 0.03232585
vn 0.8539434 2.377018E-07 0.520366
vn 0.5931563 -5.602678E-07 0.8050873
vn -0.0619478 0.9948949 0.07966436
vn -0.2843057 -9.102311E-07 0.9587337
vn 0.06194781 0.9948949 0.07966451
vn 0.2843053 -6.985489E-07 0.9587338
vn 0.07298351 0.9699454 0.2321192
vn -0.07298353 0.9699454 0.2321189
vn -0.05447411 -0.9973678 -0.04785421
vn -0.7512794 0 -0.6599844
vn -0.8294268 0 -0.5586154
vn -0.0609696 -0.9973526 -0.03963107
vn -0.9708893 0 -0.2395283
vn 0.0609696 -0.9973526 -0.03963101
vn 0.0544741 -0.9973678 -0.04785411
vn 0.7512793 0 -0.6599844
vn 0.8294268 0 -0.5586154
vn 0.05449692 -0.998418 -0.01384442
vn 0.9708893 0 -0.2395284
vn -0.05449692 -0.998418 -0.01384442
vn -0.9854638 0 0.1698857
vn 0.04922119 -0.998757 0.007858002
vn 0.9854638 4.124641E-07 0.1698858
vn -0.0492212 -0.998757 0.007857999
vn -0.8539436 -2.237194E-07 0.5203656
vn 0.05589928 -0.9979129 0.03232541
vn 0.8539434 2.377018E-07 0.520366
vn -0.05589927 -0.9979129 0.03232543
vn -0.5931566 -7.901217E-07 0.805087
vn 0.06194802 -0.9948949 0.07966477
vn 0.5931563 -5.602678E-07 0.8050873
vn 0.2843053 -6.985489E-07 0.9587338
vn -0.06194803 -0.9948949 0.07966475
vn -0.2843057 -9.102311E-07 0.9587337
vn -0.07298322 -0.9699452 0.2321202
vn 0.07298315 -0.9699451 0.2321204
g Wing_01_0
f 3/3/3 2/2/2 1/1/1
f 2/2/2 4/4/4 1/1/1
f 1/1/1 4/4/4 5/5/5
f 4/4/4 2/2/2 6/6/6
f 2/2/2 7/7/7 6/6/6
f 6/6/6 7/7/7 8/8/8
f 9/9/9 6/6/6 8/8/8
f 10/10/10 6/6/6 9/9/9
f 4/4/4 6/6/6 10/10/10
f 11/11/11 10/10/10 9/9/9
f 4/4/4 12/12/12 5/5/5
f 12/12/12 4/4/4 10/10/10
f 5/5/5 12/12/12 13/13/13
f 14/14/14 10/10/10 11/11/11
f 12/12/12 10/10/10 14/14/14
f 15/15/15 14/14/14 11/11/11
f 12/12/12 16/16/16 13/13/13
f 16/16/16 12/12/12 14/14/14
f 17/17/17 14/14/14 15/15/15
f 16/16/16 14/14/14 17/17/17
f 18/18/18 17/17/17 15/15/15
f 18/18/18 19/19/19 17/17/17
f 13/13/13 16/16/16 20/20/20
f 20/20/20 16/16/16 17/17/17
f 21/21/21 13/13/13 20/20/20
f 21/21/21 20/20/20 22/22/22
f 19/19/19 23/23/23 17/17/17
f 20/20/20 17/17/17 23/23/23
f 19/19/19 24/24/24 23/23/23
f 20/20/20 25/25/25 22/22/22
f 25/25/25 20/20/20 23/23/23
f 22/22/22 25/25/25 26/26/26
f 26/26/26 27/27/27 24/24/24
f 25/25/25 27/27/27 26/26/26
f 23/23/23 28/28/28 25/25/25
f 24/24/24 28/28/28 23/23/23
f 27/27/27 28/28/28 24/24/24
f 28/28/28 27/27/27 25/25/25
f 31/31/31 30/30/30 29/29/29
f 32/32/32 31/31/31 29/29/29
f 33/33/33 31/31/31 32/32/32
f 34/34/34 32/32/32 29/29/29
f 35/35/35 34/34/34 29/29/29
f 35/35/35 36/36/36 34/34/34
f 36/36/36 37/37/37 34/34/34
f 34/34/34 37/37/37 38/38/38
f 34/34/34 38/38/38 32/32/32
f 37/37/37 39/39/39 38/38/38
f 40/40/40 33/33/33 32/32/32
f 38/38/38 40/40/40 32/32/32
f 41/41/41 33/33/33 40/40/40
f 38/38/38 39/39/39 42/42/42
f 38/38/38 42/42/42 40/40/40
f 39/39/39 43/43/43 42/42/42
f 44/44/44 41/41/41 40/40/40
f 42/42/42 44/44/44 40/40/40
f 45/45/45 41/41/41 44/44/44
f 46/46/46 42/42/42 43/43/43
f 42/42/42 46/46/46 44/44/44
f 47/47/47 46/46/46 43/43/43
f 48/48/48 45/45/45 44/44/44
f 46/46/46 48/48/48 44/44/44
f 45/45/45 48/48/48 49/49/49
f 46/46/46 47/47/47 50/50/50
f 46/46/46 50/50/50 48/48/48
f 47/47/47 51/51/51 50/50/50
f 51/51/51 52/52/52 50/50/50
f 48/48/48 53/53/53 49/49/49
f 50/50/50 53/53/53 48/48/48
f 49/49/49 53/53/53 54/54/54
f 52/52/52 54/54/54 55/55/55
f 53/53/53 55/55/55 54/54/54
f 50/50/50 56/56/56 53/53/53
f 52/52/52 56/56/56 50/50/50
f 56/56/56 55/55/55 53/53/53
f 56/56/56 52/52/52 55/55/55
