g Wing_02
v 0.06434343 -0.00737056 0.05247172
v 0.01950449 -0.0003660896 0.00418975
v 0.02019759 -0.00737056 0.00418975
v 0.06213539 -0.0003660896 0.0546883
v 0.08772417 -0.00737056 0.1042462
v -0.0621354 -0.0003660896 0.0546883
v -0.01950449 -0.0003660896 0.00418975
v -0.0201976 -0.00737056 0.00418975
v -0.06434344 -0.00737056 0.05247172
v -0.0847138 -0.0003660896 0.104686
v -0.08772418 -0.00737056 0.1042462
v 0.0847138 -0.0003660896 0.104686
v 0.08760024 -0.00737056 0.1452851
v -0.08459412 -0.0003660896 0.1443167
v -0.08760025 -0.00737056 0.1452851
v 0.08459412 -0.0003660896 0.1443167
v -0.07194121 -0.0003660896 0.1817445
v -0.0744977 -0.007370541 0.184043
v -0.04514006 -0.00737056 0.2169002
v 0.07194122 -0.0003660896 0.1817445
v 0.0744977 -0.007370541 0.184043
v 0.04514007 -0.00737056 0.2169002
v -0.04359102 -0.0003661087 0.2134742
v -0.00921637 -0.007370579 0.2335446
v 0.04359102 -0.0003661087 0.2134742
v 0.009216371 -0.007370579 0.2335446
v 0.008900095 -0.0003660705 0.2295475
v -0.008900093 -0.0003660705 0.2295475
v -0.01950449 -0.01437503 0.00418975
v -0.0201976 -0.00737056 0.00418975
v -0.06434344 -0.00737056 0.05247172
v -0.0621354 -0.01437501 0.0546883
v -0.08772418 -0.00737056 0.1042462
v 0.06213539 -0.01437501 0.0546883
v 0.01950449 -0.01437503 0.00418975
v 0.02019759 -0.00737056 0.00418975
v 0.06434343 -0.00737056 0.05247172
v 0.0847138 -0.01437501 0.104686
v 0.08772417 -0.00737056 0.1042462
v -0.0847138 -0.01437501 0.104686
v -0.08760025 -0.00737056 0.1452851
v 0.08459412 -0.01437503 0.1443167
v 0.08760024 -0.00737056 0.1452851
v -0.08459412 -0.01437503 0.1443167
v -0.0744977 -0.007370541 0.184043
v 0.07194122 -0.01437503 0.1817445
v 0.0744977 -0.007370541 0.184043
v -0.07194121 -0.01437503 0.1817445
v -0.04514006 -0.00737056 0.2169002
v 0.04359102 -0.01437503 0.2134742
v 0.04514007 -0.00737056 0.2169002
v 0.009216371 -0.007370579 0.2335446
v -0.04359102 -0.01437503 0.2134742
v -0.00921637 -0.007370579 0.2335446
v -0.008900093 -0.01437503 0.2295475
v 0.008900095 -0.01437503 0.2295475
vt 0.4825372 0.8867558
vt 0.2885766 0.9386885
vt 0.4307697 0.9951172
vt 0.3567726 0.8594006
vt 0.5140468 0.7754246
vt 0.1536311 0.8475223
vt 0.2102925 0.937112
vt 0.0589785 0.9681743
vt 0.02531192 0.8517805
vt 0.1389375 0.7677261
vt 0.01298653 0.7351125
vt 0.3843455 0.7866018
vt 0.5008906 0.6862839
vt 0.1469546 0.7108589
vt 0.04041699 0.6486428
vt 0.385331 0.7303749
vt 0.1721487 0.6601757
vt 0.0927235 0.5725245
vt 0.1757219 0.5169103
vt 0.3684096 0.6773737
vt 0.4616561 0.6033369
vt 0.389571 0.5349861
vt 0.2152286 0.6199359
vt 0.2638976 0.5028539
vt 0.3320353 0.6309664
vt 0.3053875 0.5054877
vt 0.2878387 0.604964
vt 0.2634766 0.6024268
vt 0.08127677 0.2527941
vt 0.004882813 0.385316
vt 0.1046305 0.4522364
vt 0.149876 0.3317679
vt 0.2102803 0.499527
vt 0.1909727 0.1324832
vt 0.09414989 0.1755741
vt 0.08526224 0.02136958
vt 0.2052705 0.004882813
vt 0.2720366 0.1294721
vt 0.3224542 0.00952363
vt 0.2179405 0.3695836
vt 0.3004192 0.4993734
vt 0.3271415 0.145605
vt 0.4040388 0.04911846
vt 0.2734486 0.378677
vt 0.3881907 0.472498
vt 0.3736559 0.1778356
vt 0.4718087 0.1118218
vt 0.3283468 0.3695744
vt 0.4662418 0.4109858
vt 0.4072647 0.2262574
vt 0.5148874 0.2019383
vt 0.5161154 0.2912101
vt 0.3795201 0.3402611
vt 0.5075546 0.331899
vt 0.4116206 0.300265
vt 0.4176417 0.2765254
vn 0.8294268 0 -0.5586154
vn 0.05447423 0.9973678 -0.04785457
vn 0.7512795 0 -0.6599842
vn 0.06096975 0.9973526 -0.03963112
vn 0.9708893 0 -0.2395285
vn -0.06096973 0.9973526 -0.03963109
vn -0.05447419 0.9973678 -0.04785448
vn -0.7512795 0 -0.6599842
vn -0.8294269 0 -0.5586153
vn -0.05449702 0.998418 -0.01384416
vn -0.9708894 0 -0.2395284
vn 0.05449702 0.998418 -0.01384416
vn 0.9854638 3.76907E-07 0.1698858
vn -0.04922117 0.998757 0.007858543
vn -0.9854638 0 0.1698858
vn 0.04922117 0.998757 0.007858538
vn -0.05589909 0.9979129 0.0323258
vn -0.8539434 0 0.5203658
vn -0.5931564 -6.320971E-07 0.8050872
vn 0.05589909 0.9979129 0.03232579
vn 0.8539434 5.243422E-07 0.5203658
vn 0.5931565 -5.746339E-07 0.8050871
vn -0.0619478 0.9948949 0.07966441
vn -0.2843053 -6.244605E-07 0.9587338
vn 0.06194781 0.9948949 0.07966449
vn 0.2843055 -8.467266E-07 0.9587338
vn 0.07298344 0.9699453 0.2321195
vn -0.07298346 0.9699454 0.2321194
vn -0.05447414 -0.9973678 -0.04785431
vn -0.7512795 0 -0.6599842
vn -0.8294269 0 -0.5586153
vn -0.06096964 -0.9973526 -0.03963114
vn -0.9708894 0 -0.2395284
vn 0.06096964 -0.9973526 -0.03963112
vn 0.05447415 -0.9973678 -0.04785427
vn 0.7512795 0 -0.6599842
vn 0.8294268 0 -0.5586154
vn 0.05449692 -0.998418 -0.01384435
vn 0.9708893 0 -0.2395285
vn -0.05449691 -0.998418 -0.01384433
vn -0.9854638 0 0.1698858
vn 0.04922117 -0.998757 0.007858246
vn 0.9854638 3.76907E-07 0.1698858
vn -0.04922117 -0.998757 0.007858241
vn -0.8539434 0 0.5203658
vn 0.05589926 -0.9979129 0.03232557
vn 0.8539434 5.243422E-07 0.5203658
vn -0.05589927 -0.9979129 0.03232557
vn -0.5931564 -6.320971E-07 0.8050872
vn 0.06194798 -0.9948949 0.07966434
vn 0.5931565 -5.746339E-07 0.8050871
vn 0.2843055 -8.467266E-07 0.9587338
vn -0.06194796 -0.9948949 0.07966447
vn -0.2843053 -6.244605E-07 0.9587338
vn -0.07298318 -0.9699452 0.2321202
vn 0.07298324 -0.9699453 0.2321198
g Wing_02_0
f 3/3/3 2/2/2 1/1/1
f 2/2/2 4/4/4 1/1/1
f 1/1/1 4/4/4 5/5/5
f 4/4/4 2/2/2 6/6/6
f 2/2/2 7/7/7 6/6/6
f 6/6/6 7/7/7 8/8/8
f 9/9/9 6/6/6 8/8/8
f 10/10/10 6/6/6 9/9/9
f 4/4/4 6/6/6 10/10/10
f 11/11/11 10/10/10 9/9/9
f 4/4/4 12/12/12 5/5/5
f 12/12/12 4/4/4 10/10/10
f 5/5/5 12/12/12 13/13/13
f 14/14/14 10/10/10 11/11/11
f 12/12/12 10/10/10 14/14/14
f 15/15/15 14/14/14 11/11/11
f 12/12/12 16/16/16 13/13/13
f 16/16/16 12/12/12 14/14/14
f 17/17/17 14/14/14 15/15/15
f 16/16/16 14/14/14 17/17/17
f 18/18/18 17/17/17 15/15/15
f 18/18/18 19/19/19 17/17/17
f 13/13/13 16/16/16 20/20/20
f 20/20/20 16/16/16 17/17/17
f 21/21/21 13/13/13 20/20/20
f 21/21/21 20/20/20 22/22/22
f 19/19/19 23/23/23 17/17/17
f 20/20/20 17/17/17 23/23/23
f 19/19/19 24/24/24 23/23/23
f 20/20/20 25/25/25 22/22/22
f 25/25/25 20/20/20 23/23/23
f 22/22/22 25/25/25 26/26/26
f 26/26/26 27/27/27 24/24/24
f 25/25/25 27/27/27 26/26/26
f 23/23/23 28/28/28 25/25/25
f 24/24/24 28/28/28 23/23/23
f 27/27/27 28/28/28 24/24/24
f 28/28/28 27/27/27 25/25/25
f 31/31/31 30/30/30 29/29/29
f 32/32/32 31/31/31 29/29/29
f 33/33/33 31/31/31 32/32/32
f 34/34/34 32/32/32 29/29/29
f 35/35/35 34/34/34 29/29/29
f 35/35/35 36/36/36 34/34/34
f 36/36/36 37/37/37 34/34/34
f 34/34/34 37/37/37 38/38/38
f 34/34/34 38/38/38 32/32/32
f 37/37/37 39/39/39 38/38/38
f 40/40/40 33/33/33 32/32/32
f 38/38/38 40/40/40 32/32/32
f 41/41/41 33/33/33 40/40/40
f 38/38/38 39/39/39 42/42/42
f 38/38/38 42/42/42 40/40/40
f 39/39/39 43/43/43 42/42/42
f 44/44/44 41/41/41 40/40/40
f 42/42/42 44/44/44 40/40/40
f 45/45/45 41/41/41 44/44/44
f 46/46/46 42/42/42 43/43/43
f 42/42/42 46/46/46 44/44/44
f 47/47/47 46/46/46 43/43/43
f 48/48/48 45/45/45 44/44/44
f 46/46/46 48/48/48 44/44/44
f 45/45/45 48/48/48 49/49/49
f 46/46/46 47/47/47 50/50/50
f 46/46/46 50/50/50 48/48/48
f 47/47/47 51/51/51 50/50/50
f 51/51/51 52/52/52 50/50/50
f 48/48/48 53/53/53 49/49/49
f 50/50/50 53/53/53 48/48/48
f 49/49/49 53/53/53 54/54/54
f 52/52/52 54/54/54 55/55/55
f 53/53/53 55/55/55 54/54/54
f 50/50/50 56/56/56 53/53/53
f 52/52/52 56/56/56 50/50/50
f 56/56/56 55/55/55 53/53/53
f 56/56/56 52/52/52 55/55/55
